<?xml version="1.0" standalone="no"?><!DOCTYPE svg PUBLIC "-//W3C//DTD SVG 1.1//EN" "http://www.w3.org/Graphics/SVG/1.1/DTD/svg11.dtd"><svg t="1697625388378" class="icon" viewBox="0 0 1024 1024" version="1.1" xmlns="http://www.w3.org/2000/svg" p-id="13125" xmlns:xlink="http://www.w3.org/1999/xlink" width="128" height="128"><path d="M213.333333 682.666667v128h128v85.333333H128v-213.333333h85.333333z m682.666667 0v213.333333h-213.333333v-85.333333h128v-128h85.333333zM466.176 314.154667l56.874667 160.64 114.346666 8.149333V314.154667h76.501334v174.208L896 501.333333v21.333334h-182.101333V682.666667H637.44v-160h-97.408L596.650667 682.666667h-83.498667l-23.722667-75.733334H353.664L328.149333 682.666667H247.68l57.045333-160H128v-24.32l189.696-12.032 61.44-172.16h87.04z m-4.864 208.469333H381.184l-6.784 20.778667h93.525333l-6.613333-20.778667z m-39.381333-124.202667l-27.264 83.029334 52.522666-3.328-25.258666-79.701334zM341.333333 128v85.333333H213.333333v128H128V128h213.333333z m554.666667 0v213.333333h-85.333333V213.333333h-128V128h213.333333z" fill="#2D26EF" p-id="13126"></path></svg>