<?xml version="1.0" standalone="no"?><!DOCTYPE svg PUBLIC "-//W3C//DTD SVG 1.1//EN" "http://www.w3.org/Graphics/SVG/1.1/DTD/svg11.dtd"><svg t="1697624947553" class="icon" viewBox="0 0 1024 1024" version="1.1" xmlns="http://www.w3.org/2000/svg" p-id="11006" xmlns:xlink="http://www.w3.org/1999/xlink" width="128" height="128"><path d="M282.866 877.056c52.691 42.05 95.133 69.119 190.009 72.405 97.936 0 173.756-17.344 227.461-52.033 64.66-37.69 111.239-107.408 139.736-209.155 15.473-79.287-0.778-164.964-48.754-257.03L662.333 305.92l-197.07 42.293c-92.016 32.637-145.89 52.602-161.623 59.894-23.6 10.938-118.56 44.234-118.56 80.905s46.365 206.28 46.365 235.755c0 29.475-1.708 99.527 51.42 152.289z" fill="#F8DFCD" p-id="11007"></path><path d="M277.277 884.059l-0.725-0.646c-15.742-15.633-27.704-33.459-36.336-53.138-14.342-32.7-17.802-60.876-17.734-102.742l0.003-2.766c0-11.04-4.8-33.807-22.957-113.18l-0.917-4.01C182.6 537.502 176.12 505.17 176.12 489.012c0-23.23 24.357-43.115 66.92-64.02 16.212-7.963 59.173-26.1 56.832-25.014 16.11-7.467 69.997-27.437 162.395-60.21l0.548-0.194 202.324-43.42 133.458 129.668 0.667 1.28c48.86 93.762 65.494 181.458 49.602 262.887l-0.166 0.7c-29.077 103.82-76.96 175.49-143.502 214.266-55.344 35.747-132.804 53.466-232.634 53.46-85.655-2.966-129.161-21.584-195.287-74.356z m11.562-13.7c63.097 50.295 103.06 67.332 184.036 70.142 96.352 0 170.533-16.97 222.949-50.814 62.356-36.346 107.598-103.998 135.522-203.482 14.868-76.684-0.803-159.8-47.31-249.545l-124.51-120.974-191.816 41.166c-91.3 32.386-144.977 52.281-160.302 59.384 1.885-0.874-40.82 17.155-56.468 24.84-36.056 17.71-56.9 34.727-56.9 47.936 0 14.078 6.576 46.888 22.041 114.573l0.916 4.005c19.034 83.207 23.408 103.955 23.408 117.177l-0.003 2.795c-0.064 39.552 3.146 65.695 16.225 95.515 7.689 17.53 18.28 33.361 32.212 47.282z" fill="#834038" p-id="11008"></path><path d="M226.897 655.865l255.823-22.382a6 6 0 0 1 6.5 5.454l9.887 113.008a6 6 0 0 1-5.454 6.5L237.83 780.828a6 6 0 0 1-6.5-5.454l-9.887-113.008a6 6 0 0 1 5.454-6.5zM549.457 628.985l255.823-22.382a6 6 0 0 1 6.5 5.454l9.887 113.008a6 6 0 0 1-5.454 6.5L560.39 753.948a6 6 0 0 1-6.5-5.454l-9.887-113.008a6 6 0 0 1 5.454-6.5z" fill="#F4F6F5" p-id="11009"></path><path d="M495.014 705.163l54.667-4.782-3.858-44.096c-1.294-14.789 9.646-27.826 24.435-29.12l214.221-18.742c14.79-1.294 27.827 9.646 29.12 24.435l6.248 71.407c1.294 14.789-9.646 27.827-24.435 29.12l-214.221 18.742c-14.79 1.294-27.827-9.646-29.12-24.435l-1.61-18.386-54.666 4.783 1.492 17.056c1.294 14.789-9.646 27.827-24.435 29.12l-214.221 18.742c-14.79 1.294-27.827-9.646-29.12-24.435l-6.248-71.407c-1.294-14.789 9.646-27.826 24.435-29.12l214.221-18.742c14.79-1.294 27.827 9.646 29.12 24.435l3.975 45.425zM248.48 662.971c-9.86 0.862-17.153 9.554-16.29 19.413l6.247 71.407c0.863 9.86 9.554 17.153 19.414 16.29L472.07 751.34c9.86-0.863 17.153-9.555 16.29-19.414l-6.247-71.407c-0.863-9.86-9.554-17.153-19.414-16.29L248.48 662.97z m322.56-26.88c-9.86 0.862-17.153 9.554-16.29 19.413l6.247 71.407c0.863 9.86 9.554 17.153 19.414 16.29L794.63 724.46c9.86-0.863 17.153-9.555 16.29-19.414l-6.247-71.407c-0.863-9.86-9.554-17.153-19.414-16.29L571.04 636.09z" fill="#834038" p-id="11010"></path><path d="M99.977 597.827C98.815 423.114 156.883 299.566 274.18 227.18c39.393-23.6 58.052-23.6 66.23-60.213 6.377-26.978 4.874-46.225 7.144-71.607 6.753 11.307 17.994 57.43 29.503 71.607 145.813-12.518 224.344 4.86 304.43 37.457 99.492 49.524 166.846 124.712 202.064 225.563 48.786 119.76 48.786 235.545 0 347.358-1.315 22.432 2.542-42.425-10.835-66.054-5.32-9.398-19.454-10.357-26.56 0-20.998 70.812-29.171 113.324-82.16 168.05 0.058-237.281-22.342-317.007-44.554-430.36-20.803-49.72-44.8-30.774-44.8 0 0 62.268 0 57.802 2.408 113.353-46.06-8.405-85.28-46.19-117.661-113.354-13.418-12.662-20.127 2.208-20.127 44.61 0 79.429-5.514 52.79-2.517 137.235-118.263-65.568-103.838-78.685-125.148-124.042-16.75-22.05-24.504-24.886-23.26-8.51 5.564 34.302 13.317 70.834 23.26 109.595-75.64-1.658-120.634-107.99-137.417-149.41-2.471 30.253-29.85 262.237 43.274 471.45-45.745-38.034-90.45-101.851-124.5-139.163-9.445-10.35-9.445-4.894-11.496 0-10.293 24.558-5.505 80.295-10.026 70.868-41.125-78.469-64.944-166.398-71.455-263.786z" fill="#4A4C49" p-id="11011"></path><path d="M165.764 829.737c0.194-3.294 0.42-6.398 0.688-9.414 1.236-13.873 3.299-24.824 6.743-33.041 0.06-0.145 0.06-0.145 0.125-0.31 0.142-0.362 0.753-2.055 0.698-1.905 0.712-1.932 1.303-3.213 2.36-4.631 2.12-2.849 5.345-4.668 9.233-4.533 4.915 0.17 8.639 2.97 13.962 8.802 7.776 8.521 16.087 18.33 28.099 32.988 3.26 3.979 14.9 18.255 15.15 18.56 6.197 7.588 11.007 13.43 15.751 19.111 14.782 17.7 27.712 32.29 39.76 44.568a818.442 818.442 0 0 1-8.84-31.938c-31.128-121.87-36.584-248.276-27.687-370.05 0.648-8.86 1.324-16.98 2.1-25.536 0.145-1.589 1.194-12.846 1.344-14.68l3.07-37.592 14.164 34.957c14.496 35.776 27.622 62.534 45.628 87.778 21.893 30.694 45.753 49.803 71.666 54.764-8.515-34.41-15.278-67.052-20.286-97.926l-0.09-0.757c-0.42-5.538-0.052-9.777 1.614-13.241 2.887-6.005 9.16-8.247 15.281-6.007 6.112 2.236 12.973 9.204 22.435 21.66l0.572 0.753 0.402 0.856c2.132 4.538 4.023 8.97 5.998 13.96 1.127 2.847 4.593 11.935 4.596 11.943 2.713 7.014 4.712 11.526 7.208 15.987 10.989 19.64 34.078 38.656 89.773 70.371-0.743-26.675-0.441-40.629 0.733-56.525 0.08-1.076 0.49-6.489 0.607-8.08 1.154-15.746 1.68-30.698 1.68-57.039 0-22.412 1.791-37.698 5.825-46.639 6.06-13.432 18.489-14.795 29.412-4.488l1.203 1.136 0.719 1.49c28.527 59.17 61.967 94.153 100.123 105.746-1.303-30.095-1.312-30.725-1.547-40.279-0.313-12.727-0.354-21.56-0.354-61.576 0-18.96 7.822-35.144 21.18-38.823 15.399-4.241 29.779 8.915 40.845 35.365l0.352 0.84 0.175 0.895 0.552 2.808c2.496 12.678 11.24 55.807 11.055 54.884 22.965 114.347 32.267 198.46 33.06 351.165 8.01-9.584 14.828-19.06 20.736-28.724 12.754-20.863 21.079-41.602 31.193-75.173 2.327-7.722 10.94-37.417 12.736-43.473l0.402-1.356 0.8-1.166c10.59-15.435 32.934-14.908 41.745 0.655 4.221 7.456 7.057 17.846 8.885 30.536 33.162-98.225 28.468-199.44-14.145-304.045l-0.16-0.427c-34.404-98.518-100.042-171.85-197.297-220.346-90.24-36.682-169.086-47.937-299.973-36.7l-4.73 0.406-2.992-3.686c-5.34-6.577-10.078-17.133-16.167-34.237-0.924 10.95-2.343 20.234-4.78 30.543-5.125 22.945-14.103 34.481-33.092 45.508-2.33 1.352-27.772 14.743-37.176 20.376C164.523 305.379 107.854 425.863 108.936 597.498c5.689 84.663 24.603 161.993 56.828 232.239z m18.537-7.824c-0.4 4.491-0.7 9.24-0.948 14.625a729.261 729.261 0 0 0-0.279 6.843c-0.041 1.133-0.189 5.292-0.224 6.234-0.242 6.582-0.435 9.823-0.824 12.322-0.157 1.011-0.35 1.904-0.632 2.77-0.655 2.017-1.585 3.685-3.673 5.185-4.002 2.875-8.765 2.022-11.803-0.801a10.644 10.644 0 0 1-2.422-3.319C121.776 786.17 97.63 697.028 91.037 598.424l-0.02-0.538c-1.18-177.646 58.286-304.171 178.558-378.392 10.041-6.016 35.63-19.483 37.488-20.562 14.818-8.604 20.61-16.047 24.626-34.026 2.97-12.565 4.292-23.42 5.111-38.739 0.12-2.244 0.216-4.239 0.39-8.02 0.535-11.675 0.816-16.616 1.44-23.585l2.46-27.501 14.157 23.705c2.011 3.368 4.05 8.366 6.878 16.372 1.274 3.603 6.34 18.525 7.516 21.895 4.706 13.478 8.55 22.878 11.867 28.569 130.732-10.74 211.528 1.146 303.357 38.523l0.615 0.278c101.49 50.519 170.437 127.44 206.455 230.415 49.383 121.362 49.567 239.094 0.468 352.639-0.184 3.12-0.19 3.12-0.276 3.722 0.09 0.305 0.09 0.305-1.606 4.03-0.9 1.193-0.9 1.193-3.152 2.731-3.481 1.258-3.481 1.258-7.452 0.371-4.384-3.223-4.384-3.223-4.94-4.85-0.56-1.714-0.56-1.714-0.617-2.226-0.102-1.016-0.102-1.016-0.107-1.378-0.011-0.394-0.017-0.83-0.028-1.959-0.067-6.806-0.177-11.475-0.516-17.83-1.114-20.912-4.007-37.913-8.79-46.363-2.032-3.588-7.33-3.968-10.64-0.28-2.48 8.438-10.097 34.679-12.29 41.962-10.518 34.91-19.358 56.933-33.063 79.35-10.074 16.48-22.538 32.36-38.492 48.837l-15.402 15.908 0.005-22.143c0.04-166.45-8.89-251.98-32.765-370.861 0.194 0.966-8.56-42.215-11.068-54.95l-0.377-1.915c-4.392-10.308-8.943-17.421-13.21-21.325-2.842-2.6-4.725-3.205-5.997-2.854-3.832 1.055-8.018 9.716-8.018 21.546 0 39.84 0.04 48.618 0.348 61.135 0.259 10.505 0.24 10.067 2.052 51.83l0.486 11.22-11.046-2.017c-48.872-8.918-89.85-48.042-123.188-116.348-2.549 6.151-4.032 19.322-4.032 38.79 0 26.77-0.543 42.159-1.729 58.348-0.119 1.622-0.53 7.043-0.608 8.09-1.335 18.08-1.497 33.518-0.185 70.48l0.562 15.838-13.861-7.685c-68.5-37.978-96.595-60.139-110.531-85.048-2.99-5.343-5.292-10.54-8.283-18.272-0.04-0.101-3.467-9.09-4.545-11.812-1.72-4.347-3.355-8.2-5.155-12.079a176.783 176.783 0 0 0-5.393-6.715c5.404 31.725 12.664 65.362 21.782 100.906l2.935 11.443-11.81-0.259c-37.35-0.818-69.689-24.026-97.879-63.548-12.958-18.168-23.415-36.854-33.5-58.609-0.116 1.509-0.23 3.034-0.343 4.581-8.77 120.015-3.39 244.638 27.176 364.31 5.562 21.777 11.903 42.926 19.057 63.393l10.663 30.506-24.85-20.66c-20.376-16.942-40.914-38.824-66.906-69.947-4.793-5.74-9.641-11.628-15.877-19.263-0.262-0.32-11.887-14.578-15.13-18.537-10.891-13.29-18.657-22.488-25.682-30.287-1.725 5.875-2.984 13.672-3.829 23.15z" fill="#834038" p-id="11012"></path><path d="M270.2 328.32a35.84 31.36 0 1 0 71.68 0 35.84 31.36 0 1 0-71.68 0Z" fill="#FFFFFF" opacity=".21" p-id="11013"></path><path d="M355.32 348.48a13.44 11.2 0 1 0 26.88 0 13.44 11.2 0 1 0-26.88 0Z" fill="#FFFFFF" opacity=".21" p-id="11014"></path><path d="M187.397 655.462c3.053-0.828 5.486 3.417 6.312 11.88 1.801 18.433 7.689 49.336 27.296 79.638 3.261 6.53-16.043 3.503-24.167 0-12.514-4.865-34.158-9.62-34.158-58.546 0-16.48 13.98-31.99 24.717-32.972zM836.979 587.22c-3.139-0.394-4.957 4.148-4.598 12.644 0.782 18.504-0.747 49.926-15.946 82.661-2.32 6.922 16.374 1.237 23.932-3.363 11.715-6.559 32.486-14.28 25.677-62.73-2.294-16.319-18.296-29.733-29.065-29.211z" fill="#EFCBBF" p-id="11015"></path><path d="M167.16 688.434c0 28.246 6.797 42.138 19.155 49.199 1.817 1.038 3.746 1.938 6.062 2.864 1.29 0.516 5.527 2.092 5.987 2.27 0.048 0.018 0.048 0.018 0.248 0.1 3.68 1.586 10.065 3.07 14.89 3.407 0.65 0.045 1.254 0.067 1.8 0.07-15.587-25.21-23.474-52.18-26.051-78.567-0.353-3.607-1.018-6.279-1.801-7.723a7.004 7.004 0 0 0-0.047-0.086c-9.087 1.212-20.243 15.38-20.243 28.466z m31.008-21.528c2.554 26.142 10.583 52.89 26.598 77.64l0.247 0.432c1.991 3.989 0.31 7.875-3.63 9.42-2.172 0.853-5.02 1.057-8.504 0.814-5.805-0.404-13.177-2.118-17.665-4.056l-0.087-0.034c-0.362-0.14-4.664-1.74-6.078-2.306-2.671-1.069-4.961-2.136-7.179-3.403-15.384-8.79-23.67-25.726-23.67-56.979 0-17.524 14.492-35.832 28.427-37.397 6.897-1.579 10.502 5.234 11.541 15.87zM861.613 617.055c3.931 27.97-0.866 42.674-12.121 51.386-1.655 1.281-3.44 2.44-5.604 3.68-1.206 0.69-5.183 2.84-5.613 3.08l-0.232 0.134c-3.424 2.084-9.54 4.442-14.27 5.446-0.639 0.136-1.233 0.242-1.773 0.32 11.926-27.134 15.983-54.938 14.863-81.427-0.153-3.621 0.134-6.36 0.708-7.899l0.035-0.091c9.167-0.065 22.186 12.413 24.007 25.371z m-33.702-17.003c1.11 26.244-3.12 53.848-15.533 80.586l-0.185 0.463c-1.417 4.227 0.788 7.84 4.906 8.823 2.27 0.541 5.117 0.347 8.534-0.378 5.692-1.208 12.754-3.931 16.928-6.475l0.082-0.046c0.34-0.19 4.376-2.372 5.698-3.13 2.497-1.43 4.616-2.805 6.635-4.369 14.012-10.845 19.86-28.77 15.51-59.718-2.439-17.353-19.338-33.466-33.354-33.076-7.05-0.604-9.672 6.644-9.221 17.32z" fill="#834038" p-id="11016"></path><path d="M469.88 852.4a6.72 6.72 0 0 1 3.84-12.88c0.608 0.182 1.854 0.523 3.67 0.972 3.076 0.76 6.589 1.522 10.469 2.236 20.584 3.784 42.065 4.648 61.95 0.816 16.138-3.11 30.133-9.185 41.47-18.628a6.72 6.72 0 0 1 8.601 10.328c-13.21 11.003-29.287 17.982-47.527 21.497-21.765 4.195-44.833 3.267-66.925-0.795a191.918 191.918 0 0 1-11.261-2.407 100.96 100.96 0 0 1-4.287-1.139z" fill="#834038" p-id="11017"></path></svg>