<?xml version="1.0" standalone="no"?><!DOCTYPE svg PUBLIC "-//W3C//DTD SVG 1.1//EN" "http://www.w3.org/Graphics/SVG/1.1/DTD/svg11.dtd"><svg t="1697625086415" class="icon" viewBox="0 0 1024 1024" version="1.1" xmlns="http://www.w3.org/2000/svg" p-id="13086" xmlns:xlink="http://www.w3.org/1999/xlink" width="128" height="128"><path d="M227.08 211.48m78.86 0l448.4 0q78.86 0 78.86 78.86l0 448.4q0 78.86-78.86 78.86l-448.4 0q-78.86 0-78.86-78.86l0-448.4q0-78.86 78.86-78.86Z" fill="#EFEFEF" p-id="13087"></path><path d="M132.9 360.3a16 16 0 0 1-16-16v-222a16 16 0 0 1 16-16h245.8a16 16 0 0 1 0 32H148.9v206a16 16 0 0 1-16 16zM378.7 918.24H132.9a16 16 0 0 1-16-16V635.06a16 16 0 0 1 32 0v251.18h229.8a16 16 0 0 1 0 32zM912.9 918.24H669.46a16 16 0 0 1 0-32h227.44V635.06a16 16 0 1 1 32 0v267.18a16 16 0 0 1-16 16zM912.9 360.3a16 16 0 0 1-16-16v-206H669.46a16 16 0 0 1 0-32h243.44a16 16 0 0 1 16 16v222a16 16 0 0 1-16 16z" fill="#18659E" p-id="13088"></path><path d="M767.66 702.42H280.74V322.04h486.92v380.38z" fill="#99D1FF" p-id="13089"></path><path d="M767.66 718.42H280.74a16 16 0 0 1-16-16V322a16 16 0 0 1 16-16h486.92a16 16 0 0 1 16 16v380.42a16 16 0 0 1-16 16z m-470.94-32h454.94V338H296.74z" fill="#18659E" p-id="13090"></path><path d="M425.24 397.64c-0.38 20.12-0.38 29.48-0.38 50.18v8.4c0 20 0 40.26 0.38 60.18l19.86 2v6.64h-73.22v-6.64l19.68-2c0.4-19.54 0.4-39.66 0.4-60v-8.6c0-20.52 0-30-0.38-50.18h-26.9l-9.74 23.22h-11.5l0.78-41.82h128.54l0.78 41.82h-11.3l-10-23.22zM691.52 400.56H550a10 10 0 0 1 0-20h141.5a10 10 0 0 1 0 20zM691.52 462H550a10 10 0 0 1 0-20h141.5a10 10 0 0 1 0 20zM689.7 522.24h-141.52a10 10 0 0 1 0-20h141.5a10 10 0 0 1 0 20zM691.52 583.3H356.2a10 10 0 0 1 0-20h335.32a10 10 0 0 1 0 20zM690.58 637.24H355.24a10 10 0 0 1 0-20h335.34a10 10 0 0 1 0 20z" fill="#18659E" p-id="13091"></path></svg>