<?xml version="1.0" standalone="no"?><!DOCTYPE svg PUBLIC "-//W3C//DTD SVG 1.1//EN" "http://www.w3.org/Graphics/SVG/1.1/DTD/svg11.dtd"><svg t="1697624796481" class="icon" viewBox="0 0 1024 1024" version="1.1" xmlns="http://www.w3.org/2000/svg" p-id="27886" xmlns:xlink="http://www.w3.org/1999/xlink" width="128" height="128"><path d="M870.496 134.72h-89.088a19.424 19.424 0 0 0-13.728 33.184l89.088 89.088a19.424 19.424 0 0 0 33.184-13.728V154.144a19.424 19.424 0 0 0-19.456-19.424z" fill="#FF9000" p-id="27887"></path><path d="M154.144 890.24h89.088a19.424 19.424 0 0 0 13.728-33.184l-89.056-89.088a19.424 19.424 0 0 0-33.184 13.76v89.088a19.424 19.424 0 0 0 19.424 19.424z" fill="#FF9000" p-id="27888"></path><path d="M896 766.304H330.112a72.512 72.512 0 0 1-72.416-72.416V128a32 32 0 0 1 64 0v565.888a8.416 8.416 0 0 0 8.416 8.416H896a32 32 0 0 1 0 64z" fill="#3772FD" p-id="27889"></path><path d="M714.112 624.832a32 32 0 0 1-32-32v-250.944h-250.944a32 32 0 0 1 0-64h282.944a32 32 0 0 1 32 32v282.944a32 32 0 0 1-32 32z" fill="#3772FD" p-id="27890"></path><path d="M289.696 341.888H128a32 32 0 0 1 0-64h161.696a32 32 0 1 1 0 64z" fill="#3772FD" p-id="27891"></path><path d="M734.304 928a32 32 0 0 1-32-32v-161.696a32 32 0 0 1 64 0V896a32 32 0 0 1-32 32z" fill="#3772FD" p-id="27892"></path></svg>