<?xml version="1.0" standalone="no"?><!DOCTYPE svg PUBLIC "-//W3C//DTD SVG 1.1//EN" "http://www.w3.org/Graphics/SVG/1.1/DTD/svg11.dtd"><svg t="1697625384384" class="icon" viewBox="0 0 1024 1024" version="1.1" xmlns="http://www.w3.org/2000/svg" p-id="12964" xmlns:xlink="http://www.w3.org/1999/xlink" width="128" height="128"><path d="M85.333333 128a42.666667 42.666667 0 0 1 42.666667-42.666667h149.333333v85.333334H170.666667v106.666666H85.333333V128zM938.666667 128a42.666667 42.666667 0 0 0-42.666667-42.666667h-149.333333v85.333334h106.666666v106.666666h85.333334V128zM85.333333 896a42.666667 42.666667 0 0 0 42.666667 42.666667h149.333333v-85.333334H170.666667v-106.666666H85.333333v149.333333zM938.666667 896a42.666667 42.666667 0 0 1-42.666667 42.666667h-149.333333v-85.333334h106.666666v-106.666666h85.333334v149.333333zM192 298.666667a42.666667 42.666667 0 0 1 42.666667-42.666667h554.666666a42.666667 42.666667 0 0 1 42.666667 42.666667v426.666666a42.666667 42.666667 0 0 1-42.666667 42.666667H234.666667a42.666667 42.666667 0 0 1-42.666667-42.666667V298.666667z m85.333333 42.666666v341.333334h469.333334V341.333333H277.333333z" fill="#000000" p-id="12965"></path><path d="M277.333333 405.333333h469.333334v85.333334H277.333333v-85.333334zM277.333333 533.333333h256v85.333334H277.333333v-85.333334z" fill="#0078FF" p-id="12966"></path></svg>