<?xml version="1.0" standalone="no"?><!DOCTYPE svg PUBLIC "-//W3C//DTD SVG 1.1//EN" "http://www.w3.org/Graphics/SVG/1.1/DTD/svg11.dtd"><svg class="icon" width="200px" height="200.00px" viewBox="0 0 1024 1024" version="1.1" xmlns="http://www.w3.org/2000/svg"><path d="M1023.910943 511.999898c5.11911 317.794367-194.116663 516.825376-511.91103 511.911029-317.794367 4.914346-516.825376-194.116663-511.91103-511.911029C-4.825463 194.20553 194.205546-4.825478 511.999913 0.088868c317.794367-4.914346 516.825376 194.116663 511.91103 511.91103z" fill="#8C50FF" /><path d="M1022.477592 566.671996C1006.915497 340.40732 852.318366 201.16752 614.382119 204.85328c-254.112635-4.095288-413.624112 155.416189-409.528824 409.528824-3.890524 237.936247 135.554041 392.533378 361.613952 408.095473 268.036615-16.381153 439.629192-187.97373 456.010345-455.805581z" fill="#8C43FF" /><path d="M1015.515602 629.944199C985.824762 491.523456 876.480566 407.160519 716.764325 409.617692c-190.635668-3.071466-310.218084 116.51095-307.146618 307.146618-2.457173 159.716241 81.905765 269.060437 220.121743 298.751277 211.112109-34.400421 351.375731-174.664043 385.776152-385.571388z" fill="#8639FF" /><path d="M997.701098 705.707031C964.734028 646.734881 902.076118 613.153517 819.146531 614.382104c-127.1587-2.047644-206.812056 77.605712-204.764412 204.764412-1.433351 82.929587 32.352777 145.587497 91.120163 178.554567a431.233852 431.233852 0 0 0 292.198816-291.994052z" fill="#8233FF" /><path d="M215.091516 215.0915m61.429323 0l143.335089 0q61.429324 0 61.429323 61.429324l0 143.335088q0 61.429324-61.429323 61.429324l-143.335089 0q-61.429324 0-61.429323-61.429324l0-143.335088q0-61.429324 61.429323-61.429324Z" fill="#CEC0FF" /><path d="M215.091516 542.714559m61.429323 0l143.335089 0q61.429324 0 61.429323 61.429324l0 143.335088q0 61.429324-61.429323 61.429324l-143.335089 0q-61.429324 0-61.429323-61.429324l0-143.335088q0-61.429324 61.429323-61.429324Z" fill="#CEC0FF" /><path d="M542.714575 215.0915m61.429323 0l143.335089 0q61.429324 0 61.429323 61.429324l0 143.335088q0 61.429324-61.429323 61.429324l-143.335089 0q-61.429324 0-61.429323-61.429324l0-143.335088q0-61.429324 61.429323-61.429324Z" fill="#CEC0FF" /><path d="M542.714575 542.714559m30.714662 0l0 0q30.714662 0 30.714661 30.714662l0 204.764412q0 30.714662-30.714661 30.714662l0 0q-30.714662 0-30.714662-30.714662l0-204.764412q0-30.714662 30.714662-30.714662Z" fill="#FFFFFF" /><path d="M645.096781 604.143883m30.714662 0l0 0q30.714662 0 30.714661 30.714662l0 143.335088q0 30.714662-30.714661 30.714662l0 0q-30.714662 0-30.714662-30.714662l0-143.335088q0-30.714662 30.714662-30.714662Z" fill="#FFFFFF" /><path d="M747.478987 542.714559m30.714662 0l0 0q30.714662 0 30.714661 30.714662l0 204.764412q0 30.714662-30.714661 30.714662l0 0q-30.714662 0-30.714662-30.714662l0-204.764412q0-30.714662 30.714662-30.714662Z" fill="#FFFFFF" /></svg>