<?xml version="1.0" standalone="no"?><!DOCTYPE svg PUBLIC "-//W3C//DTD SVG 1.1//EN" "http://www.w3.org/Graphics/SVG/1.1/DTD/svg11.dtd"><svg t="1697610047463" class="icon" viewBox="0 0 1102 1024" version="1.1" xmlns="http://www.w3.org/2000/svg" p-id="38082" xmlns:xlink="http://www.w3.org/1999/xlink" width="137.75" height="128"><path d="M550.189666 263.878548a131.939274 131.939274 0 1 1 131.939274-131.939274 132.180479 132.180479 0 0 1-131.939274 131.939274z m0-191.516972a59.577698 59.577698 0 1 0 59.577698 59.577698A59.577698 59.577698 0 0 0 550.189666 72.361576zM969.645602 806.349163A131.939274 131.939274 0 1 1 1102.549697 675.37471a132.180479 132.180479 0 0 1-132.904095 130.974453z m0-191.516971A59.577698 59.577698 0 1 0 1030.188121 675.37471a59.577698 59.577698 0 0 0-60.542519-60.542518zM131.939756 806.349163A131.939274 131.939274 0 1 1 263.87903 675.37471a132.180479 132.180479 0 0 1-131.939274 130.974453z m0-191.516971A59.577698 59.577698 0 1 0 191.517454 675.37471a59.577698 59.577698 0 0 0-59.577698-60.542518z" fill="#3295FC" p-id="38083"></path><path d="M153.407024 581.063456v-17.849189A399.918311 399.918311 0 0 1 464.07939 173.908988a94.793665 94.793665 0 0 1-9.64821-41.246098 96.482101 96.482101 0 0 1 2.170848-20.261242A461.42565 461.42565 0 0 0 91.176068 563.214267v24.120526a91.899202 91.899202 0 0 1 61.50734-6.512542zM636.782352 173.185372a399.918311 399.918311 0 0 1 313.56683 390.028895v17.125573a96.482101 96.482101 0 0 1 18.81401-1.929642 94.793665 94.793665 0 0 1 42.69333 10.371826v-25.808962a461.42565 461.42565 0 0 0-367.596807-451.053824 92.140407 92.140407 0 0 1-6.753747 61.507339zM551.636898 962.650167a399.4359 399.4359 0 0 1-355.295339-217.084728 95.03487 95.03487 0 0 1-56.442029 24.120525 460.460829 460.460829 0 0 0 823.474736 0 94.793665 94.793665 0 0 1-57.165646-24.120525 399.4359 399.4359 0 0 1-354.571722 217.084728z" fill="#3295FC" p-id="38084"></path><path d="M785.123583 380.863096h-186.210456v-54.271183h-72.361576v54.271183h-186.210456v74.291218h44.381767v361.80788h356.018954v-361.80788h44.381767z m-103.718259 377.486221H443.818149V455.154314h237.587175z m0 0" fill="#F8AD4B" p-id="38085"></path><path d="M528.239988 571.174041h69.467113v52.82395H528.239988zM528.239988 656.319495h69.467113v52.823951H528.239988z" fill="#F8AD4B" p-id="38086"></path></svg>