<?xml version="1.0" standalone="no"?><!DOCTYPE svg PUBLIC "-//W3C//DTD SVG 1.1//EN" "http://www.w3.org/Graphics/SVG/1.1/DTD/svg11.dtd"><svg class="icon" width="200px" height="200.00px" viewBox="0 0 1024 1024" version="1.1" xmlns="http://www.w3.org/2000/svg"><path d="M506.1 838.6c-1.7 0-3.3-1-3.9-2.6-9.7-26-34.4-43.4-61.7-43.4H172.9c-13.1-0.3-23.6-11.2-23.5-24.4V336.1c0.3-2.8 2.6-4.9 5.4-4.9s5.2 2.1 5.4 4.9v444h280.2c21.1 0.1 41.4 9.1 55.6 24.8l15.8 17.5 15.8-17.5c14.2-15.7 34.5-24.7 55.7-24.8h280.2V335.5c0-3 2.5-5.5 5.5-5.5s5.5 2.5 5.5 5.5v432.7c0.2 13.2-10.4 24.1-23.5 24.4H583.2c-27.4 0.3-52.1 17.7-61.5 43.4-0.7 1.5-2.2 2.5-3.9 2.5l-11.7 0.1z" fill="#CEE8FF" /><path d="M869.1 308.7c-14.8 0-26.8 12-26.8 26.8v423.3H583.4c-27.2 0.1-53.2 11.6-71.4 31.8a96.76 96.76 0 0 0-71.4-31.8H181.7V335.5c-0.6-14.3-12.4-25.6-26.8-25.6-14.3 0-26.1 11.3-26.8 25.6V768c-0.3 25 19.6 45.6 44.6 46h267.9c19.1 0 35.4 12.4 41.7 29.7 3.8 9.8 13.3 16.3 23.8 16.3H517.8c10.5 0 20-6.5 23.8-16.3 6.3-17.7 23-29.5 41.7-29.7h267.8c25-0.4 45-20.9 44.7-46V335.5c0.1-14.8-11.9-26.8-26.7-26.8z" fill="#298DF7" /><path d="M504.7 716.9l-0.2-2-0.7-2.2c-8-25.6-34-43.5-63.3-43.5H251.3V200.7c0-8.4 6.8-15.3 15.2-15.3h174.4c21.1 0 41 8.2 55.9 23.1l15.1 15.1 15.1-15.2c14.8-14.9 34.8-23.1 56.3-23.1h174c4.1 0 8 1.6 10.9 4.5 1.3 1.3 2.4 3.4 3.3 6.4l1.2 3.7V626.6h-0.1v42.5H583.3c-29.4 0-55.4 17.9-63.3 43.5l-0.7 2.2-0.2 2h-14.4z" fill="#CEE8FF" /><path d="M440.9 206.8c15.4 0 29.9 6 40.9 16.9l30.3 30.2 30.1-30.3c10.8-10.8 25.4-16.8 41.2-16.8h168v398.7h-0.1V648h-168c-28.9 0-55.4 13.5-71.4 34.6-16-21.2-42.5-34.6-71.4-34.6H272.6V206.8H440.9m0-42.7H266.5c-20.2 0-36.5 16.4-36.5 36.6v489.9h210.6c20.1 0 37.7 11.7 42.9 28.5l1.7 19.2h53.6l1.6-19.2c5.2-16.8 22.8-28.5 42.9-28.5h210.5v-42.5h0.1V412 189.9h-2.1c-1.7-5.6-4.4-10.9-8.6-15.1-6.9-6.9-16.2-10.7-25.9-10.7h-174c-28.1 0-53.5 11.3-71.4 29.4-18.8-18.9-44.3-29.4-71-29.4z" fill="#298DF7" /><path d="M317.7 296.6h126.8-126.8z" fill="#CEE8FF" /><path d="M445.7 275.2h-128c-11.7 0-21.3 9.6-21.3 21.3 0 11.7 9.6 21.3 21.3 21.3h128c11.7 0 21.3-9.6 21.3-21.3 0-11.7-9.6-21.3-21.3-21.3z" fill="#298DF7" /><path d="M317.7 467.2h127.9-127.9z" fill="#CEE8FF" /><path d="M445.7 445.9h-128c-11.7 0-21.3 9.6-21.3 21.3s9.6 21.3 21.3 21.3h128c11.7 0 21.3-9.6 21.3-21.3s-9.6-21.3-21.3-21.3z" fill="#298DF7" /><path d="M573.7 296.6h126.8-126.8z" fill="#CEE8FF" /><path d="M701.7 275.2h-128c-11.7 0-21.3 9.6-21.3 21.3 0 11.7 9.6 21.3 21.3 21.3h128c11.7 0 21.3-9.6 21.3-21.3 0-11.7-9.6-21.3-21.3-21.3z" fill="#298DF7" /><path d="M573.7 467.2h127.9-127.9z" fill="#CEE8FF" /><path d="M701.7 445.9h-128c-11.7 0-21.3 9.6-21.3 21.3s9.6 21.3 21.3 21.3h128c11.7 0 21.3-9.6 21.3-21.3s-9.6-21.3-21.3-21.3z" fill="#298DF7" /></svg>