<?xml version="1.0" standalone="no"?><!DOCTYPE svg PUBLIC "-//W3C//DTD SVG 1.1//EN" "http://www.w3.org/Graphics/SVG/1.1/DTD/svg11.dtd"><svg t="1697609580096" class="icon" viewBox="0 0 1024 1024" version="1.1" xmlns="http://www.w3.org/2000/svg" p-id="20607" xmlns:xlink="http://www.w3.org/1999/xlink" width="128" height="128"><path d="M46.068995 15.639564h861.623969v858.064068H46.068995z" fill="#FDD042" p-id="20608"></path><path d="M46.068995 15.639564h71.805997v858.064068H46.068995zM405.074982 15.639564h143.603995v858.064068h-143.595995z" fill="#F2C127" p-id="20609"></path><path d="M405.074982 122.900572h143.603995v178.763014h-143.595995z" fill="#E1A527" p-id="20610"></path><path d="M46.068995 158.651575h861.623969V265.912584H46.068995z" fill="#FDD042" p-id="20611"></path><path d="M46.068995 158.651575h71.805997V265.912584H46.068995z" fill="#E1A527" p-id="20612"></path><path d="M117.866993 408.924595h718.019974v214.514017H117.866993z" fill="#FFFFFF" p-id="20613"></path><path d="M283.566371 313.927244c-112.156872 111.700885-112.156872 292.799834 0 404.500719 112.156872 111.692885 294.0078 111.700885 406.172672 0 112.156872-111.700885 112.156872-292.799834 0-404.492719-112.156872-111.700885-294.0158-111.700885-406.172672 0zM638.956459 667.877372c-84.117654 83.765664-220.50585 83.765664-304.631504 0-84.117654-83.781663-84.117654-219.601875 0-303.375538 84.125654-83.781663 220.51385-83.773664 304.631504 0 84.125654 83.773664 84.125654 219.593875 0 303.367539z" fill="#74757B" p-id="20614"></path><path d="M968.987254 996.516207a35.998996 35.998996 0 0 1-50.774584 0l-152.315751-151.68377 50.774584-50.55859 152.315751 151.68377a35.647006 35.647006 0 0 1 0 50.55859z" fill="#6AC8B7" p-id="20615"></path><path d="M786.392347 824.417006l-20.495428 20.415431 152.315751 151.68377a36.014996 36.014996 0 0 0 45.406734 4.391877l-177.219057-176.491078z" fill="#2DB59F" p-id="20616"></path><path d="M403.955013 568.688139a16.799531 16.799531 0 0 0 16.831531-16.751533v-71.510005a16.799531 16.799531 0 0 0-16.831531-16.759533 16.799531 16.799531 0 0 0-16.82353 16.759533v71.502005a16.799531 16.799531 0 0 0 16.82353 16.767533zM475.761011 568.688139a16.799531 16.799531 0 0 0 16.83153-16.751533v-71.510005a16.799531 16.799531 0 0 0-16.83153-16.759533 16.799531 16.799531 0 0 0-16.831531 16.759533v71.502005a16.799531 16.799531 0 0 0 16.831531 16.767533zM547.567008 568.688139a16.799531 16.799531 0 0 0 16.823531-16.751533v-71.510005a16.799531 16.799531 0 0 0-16.823531-16.759533 16.799531 16.799531 0 0 0-16.831531 16.759533v71.502005a16.799531 16.799531 0 0 0 16.831531 16.767533z" fill="#000000" p-id="20617"></path><path d="M650.868127 679.717042c43.862777-43.678782 68.022103-101.757162 68.014103-163.539439 0-61.774277-24.159326-119.852657-68.014103-163.539438-90.549475-90.173485-237.881365-90.173485-328.43084 0-43.862777 43.678782-68.022103 101.765162-68.022103 163.539438 0 61.774277 24.159326 119.860657 68.022103 163.539439 45.278737 45.086743 104.741079 67.630114 164.21142 67.630114 59.470341 0 118.940683-22.543371 164.21942-67.630114z m-86.477588 17.895501v-56.29443h76.925854c-4.439876 4.463875-9.735728 10.207715-14.807587 15.255575-18.239491 18.159494-39.678893 31.439123-62.118267 41.038855z m76.925854-304.335512h-76.925854v-58.534367c22.439374 9.599732 43.870776 23.999331 62.110268 42.158824 5.079858 5.055859 10.375711 9.67973 14.815586 16.375543z m-110.580916-69.574059v69.574059H420.786544V329.270816c22.439374-7.1598 42.838805-10.7517 64.742194-10.7517 15.175577 0 31.743115 1.759951 45.19874 5.183856zM387.123483 344.454393v48.830638h-55.150462c4.447876-6.695813 8.623759-11.327684 13.695618-16.375543 12.815643-12.759644 27.991219-23.919333 41.454844-32.455095zM310.029633 426.788097H663.275781c14.3276 26.815252 21.959388 58.486369 21.959387 90.501475 0 32.015107-7.631787 61.446286-21.959387 90.501476H310.029633c-14.319601-29.05519-21.951388-58.486369-21.951388-90.501476 0-32.015107 7.631787-63.678224 21.951388-90.501475z m21.951388 214.522016h55.150462v46.598701c-13.463624-8.535762-28.639201-18.583482-41.454844-31.343126-5.071859-5.047859-9.247742-10.791699-13.695618-15.255575z m88.805523 61.774278v-61.774278h109.948933v67.334122c-35.902999 8.399766-74.045935 6.551817-109.948933-5.559844z" fill="#000000" p-id="20618"></path><path d="M980.322938 934.109947l-56.918412-56.126435V408.924595a16.799531 16.799531 0 0 0-16.831531-16.759533 16.799531 16.799531 0 0 0-16.83153 16.759533v435.539852l-61.734279-62.046269a16.703534 16.703534 0 0 0-23.519344 0l-13.343628 13.439625-78.013824-77.197847c21.359404-23.751338 38.35893-50.526591 50.878581-77.341843h71.885995c9.287741 0 15.703562-8.623759 15.703562-17.879501V408.924595c0-9.255742-6.415821-15.647564-15.703562-15.647564H763.992972c-14.68759-33.519065-35.463011-63.846219-62.366261-90.637472-118.540694-118.052707-311.431314-117.772715-429.972008 0.279992-26.89525 26.791253-47.67067 56.846415-62.36626 90.36548H117.874992c-9.295741 0-17.951499 6.383822-17.951499 15.639564v214.514017c0 9.255742 8.655759 17.879501 17.951499 17.879501H209.288443c14.69559 31.279128 34.911026 62.726251 61.806276 89.517504 33.935054 33.799057 75.63789 57.342401 116.028764 71.781997v55.446454H61.780557V283.784085h217.64193a16.799531 16.799531 0 0 0 16.83153-16.751533 16.799531 16.799531 0 0 0-16.83153-16.767532H61.772557v-73.733944h827.976907v73.741944H692.282972a16.799531 16.799531 0 0 0-16.831531 16.759532 16.799531 16.799531 0 0 0 16.831531 16.751533h197.450493v53.630504a16.799531 16.799531 0 0 0 16.83153 16.759533 16.799531 16.799531 0 0 0 16.831531-16.759533V15.639564c0-9.255742-6.415821-15.639564-15.711562-15.639564H46.068995C36.773254 0 28.117496 6.383822 28.117496 15.639564v858.064068c0 9.263742 8.663758 17.879501 17.951499 17.879501h741.851309l118.396698 117.348727c20.319433 20.239436 53.958495 19.959443 74.285928-0.279992 20.559427-20.479429 20.279434-54.078492-0.279992-74.541921z m-559.536394-791.097936V33.519065h109.948933v109.492946H420.786544z m468.954921 0H564.398539V33.519065h325.350925v109.492946zM387.131483 33.519065v109.492946H61.772557V33.519065h325.350926z m430.811984 393.277031v181.002952h-41.21485c18.399487-60.334317 18.399487-122.900572 0-181.002952h41.21485zM133.578554 607.799048V426.788097h62.998243c-18.399487 58.102379-18.399487 120.668634 0 181.002951h-62.998243z m161.883485-282.016134c52.71853-52.494536 121.948599-78.741804 191.194668-78.741804 69.230069 0 138.476138 26.247268 191.178668 78.741804 105.42106 104.981072 105.42106 275.808308 0 380.789379-105.42106 104.989072-276.952276 104.989072-382.373336 0-105.42106-104.981072-105.42106-275.808308 0-380.789379z m125.324505 486.146441c22.439374 4.583872 43.0308 6.887808 64.742194 6.887808 15.119578 0 31.743115-1.119969 45.19874-3.351907v42.598812H420.794544v-46.142713z m143.603995 46.134713v-49.534618c44.878748-11.911668 87.941547-34.159047 124.452529-66.734139l78.357814 77.757831-13.351627 13.423626c-6.567817 6.551817-6.495819 17.719506 0.079997 24.263323l0.327991 0.823977H564.398539z m392.693047 126.604469c-7.399794 7.279797-19.583454 7.359795-26.975247 0l-140.412084-139.8361 26.967248-26.863251 140.420083 139.8361a18.959471 18.959471 0 0 1 0 26.863251z" fill="#000000" p-id="20619"></path></svg>