<?xml version="1.0" standalone="no"?><!DOCTYPE svg PUBLIC "-//W3C//DTD SVG 1.1//EN" "http://www.w3.org/Graphics/SVG/1.1/DTD/svg11.dtd"><svg t="1697625855868" class="icon" viewBox="0 0 1046 1024" version="1.1" xmlns="http://www.w3.org/2000/svg" p-id="15515" xmlns:xlink="http://www.w3.org/1999/xlink" width="130.75" height="128"><path d="M1044.703194 634.772955c0.903527 51.576338-2.251288 102.783735-12.799967 153.290899-30.599451 146.371388-106.292432 221.055431-254.606404 230.685524-146.070212 9.487034-293.842067 7.755274-436.365936-31.450272-198.02302-54.490213-319.871177-209.54299-336.488545-414.575874-7.228217-89.200712-7.303511-178.009895 12.574085-265.448729C59.10573 122.232156 161.287114 31.954741 350.372745 17.874778 477.792653 8.395273 605.724559 5.722338 733.438112 0.338823a385.279008 385.279008 0 0 1 108.159722 10.661619c108.649132 26.654049 161.076291 102.429854 179.80189 207.366996 14.381139 80.677439 5.729868 162.634876 14.207964 243.756549 5.985867 57.238441 6.264454 115.079233 9.087976 172.648968" fill="#00F2AE" p-id="15516"></path><path d="M726.661659 627.529679c-0.557175 38.723665 0.87341 77.605447-2.130818 116.133348-4.811282 61.816312-29.98957 87.205423-91.602588 92.370586-66.032771 5.534103-132.351659 5.029634-198.474783 0.210823-30.531686-2.221171-58.413026-12.476203-79.382384-36.577788-18.522305-8.929859-21.850297-25.90111-22.942058-43.896358-10.307738-169.561917-14.531727-339.146421-0.647528-508.768573 1.566114-19.169833 4.013166-37.368374 20.427241-50.221047 18.770775-23.66488 43.301536-36.216377 73.306165-39.243193 73.411576-7.408922 146.921034-10.16468 219.986257 1.641407 56.289737 9.095506 74.60122 30.042276 79.510384 86.460013 2.055524 23.566998 1.581172 47.359878 2.236229 71.054876-7.966097 13.50773-19.493597 16.97125-33.995206 12.114793-11.949146-8.011274-11.971734-21.007005-14.102552-33.302503-6.776453-39.228134-20.856417-56.50056-59.662906-61.040784-56.018679-6.550571-112.745122-7.002335-168.733683 0.218352-38.174019 4.924223-55.928327 24.756642-56.846913 63.359837-2.763287 115.274997-2.60517 230.625289-0.097882 345.900287 0.858351 39.431428 17.483249 58.254909 55.725033 64.413951 57.117971 9.200917 114.913587 8.350096 172.204734 0.368941 33.144385-4.615518 55.205505-22.399942 57.471852-58.804555 0.775527-12.400909 1.85976-25.298758 13.342083-33.784384 14.554315-5.526574 26.126992-1.995289 34.409323 11.391971" fill="#FDFEFE" p-id="15517"></path><path d="M726.661659 627.529679l-29.206513-9.509622c-4.803752-1.61129-10.03668-0.195764-14.757609-1.754349-52.547629-17.332661-88.756477-83.990372-85.360721-156.942655 3.071992-66.062889 44.348121-121.208159 99.764449-133.292833l29.846511-9.336447c32.286035-11.685617 42.586243 0.783057 39.243193 33.106739-2.303994 22.264413-0.639998 44.965531-0.406587 67.463355 0.700233 66.469476-8.003744 58.081733 56.959854 58.74432 24.997583 0.255999 50.010224 0.489411 75.000277-0.075294 19.275245-0.436705 26.059227 3.975519 21.232887 26.27005-16.240899 74.97016-74.360279 124.53615-151.077259 125.115913-13.74867 0.097882-27.482282 0.135529-41.238482 0.210823" fill="#00C85C" p-id="15518"></path><path d="M795.2996 366.869644c0-13.718553-0.022588-27.444635 0-41.170717 0.090353-44.385768 3.237639-46.71235 46.817762-31.096391 57.50197 20.585359 91.707999 61.063372 104.809142 120.9371 5.57175 25.52464 1.543525 38.482724-27.685576 35.350498-13.567965-1.453173-27.422047-0.24847-41.148129-0.24847-82.793199 0-82.793199 0-82.793199-83.77202" fill="#FCFEFD" p-id="15519"></path><path d="M351.908741 196.788199c-13.74867 44.702003-13.033378 91.180942-14.200434 136.959648a5623.996821 5623.996821 0 0 0 5.33834 423.121735c0.783057 15.61596 6.497866 28.965573 12.024439 42.797066-29.906747-2.906345-37.368374-24.741583-41.712834-49.32505-8.523272-48.270935-7.326099-97.008692-7.348687-145.693742-0.030118-100.080684-1.904936-200.229132 1.355291-300.211934 1.151997-35.44085-5.217869-76.348039 29.063455-103.950791 4.570341-3.674343 8.493155-10.127033 15.48043-3.696932" fill="#00C95D" p-id="15520"></path><path d="M697.093735 326.02269c-90.556002 58.729261-116.351701 142.968103-70.301936 226.996122 16.391487 29.929335 43.022948 47.789053 70.663347 65.001245-1.919995 4.367048-5.104928 8.621154-5.57175 13.146319-7.883274 75.045454-19.621597 88.515537-93.831288 92.272703-51.109516 2.590111-102.497619 4.434812-153.689957-3.990578-39.604604-6.512924-61.09349-28.611691-62.147605-67.629002-3.237639-120.221808-4.818811-240.503852-0.075294-360.733189 1.468232-37.255434 21.029593-60.340551 59.068083-66.333947 59.836081-9.41174 120.093809-8.207038 179.764243-2.070583 53.052099 5.466339 66.642652 24.056409 70.332055 78.697209 0.572234 8.432919-1.844701 17.791954 5.797632 24.651231" fill="#00F2AE" p-id="15521"></path><path d="M533.83392 756.357583c17.023956 4.186342 28.551456 14.079964 26.541108 31.021097-1.716701 14.554315-13.206554 24.741583-28.581573 23.755233-17.377838-1.099291-26.819696-12.679497-25.03523-30.207923 1.618819-15.804195 13.003261-22.708647 27.075695-24.568407" fill="#0ACC68" p-id="15522"></path></svg>