<?xml version="1.0" standalone="no"?><!DOCTYPE svg PUBLIC "-//W3C//DTD SVG 1.1//EN" "http://www.w3.org/Graphics/SVG/1.1/DTD/svg11.dtd"><svg t="1697613229155" class="icon" viewBox="0 0 1024 1024" version="1.1" xmlns="http://www.w3.org/2000/svg" p-id="17358" xmlns:xlink="http://www.w3.org/1999/xlink" width="128" height="128"><path d="M512 512m-440 0a440 440 0 1 0 880 0 440 440 0 1 0-880 0Z" fill="#BAE4FA" p-id="17359"></path><path d="M196.85 478.179l447.982-258.65 123.6 214.075-447.982 258.65z" fill="#9DD4A9" p-id="17360"></path><path d="M420.823 348.826l224.034-129.35 123.6 214.075-224.034 129.35z" fill="#84BFA7" p-id="17361"></path><path d="M637.6 447l169.1 216.6c23.4 30.9 66.2 39.6 99.7 20.2l-169.8-294-99 57.2z" fill="#F473C3" p-id="17362"></path><path d="M736.6 389.8l169.8 294c33.6-19.4 47.5-60.8 32.4-96.5l-103-254.8-99.2 57.3z" fill="#C640A6" p-id="17363"></path><path d="M653.4 103.2l48.2 83.5-133.1 76.8-48.2-83.5c-6.3-10.9-2.6-24.9 8.4-31.2l93.4-54c11-6.2 24.9-2.5 31.3 8.4z" fill="#F473C3" p-id="17364"></path><path d="M653.4 103.2l48.2 83.5-61.6 35.7L580.3 119l41.8-24.1c11-6.3 24.9-2.6 31.3 8.3z" fill="#C640A6" p-id="17365"></path><path d="M854.1 241.4c48.6 84.2 19.8 191.8-64.4 240.4-84.2 48.6-191.8 19.8-240.5-64.4S529.5 225.6 613.7 177c84.2-48.6 191.8-19.8 240.4 64.4z" fill="#5E6ACA" p-id="17366"></path><path d="M199.4 700l169.1 216.6c23.4 30.9 66.2 39.6 99.7 20.2l-169.8-294-99 57.2z" fill="#F473C3" p-id="17367"></path><path d="M298.4 642.8l169.8 294c33.6-19.4 47.5-60.8 32.4-96.5l-103-254.8-99.2 57.3z" fill="#C640A6" p-id="17368"></path><path d="M215.1 356.2l48.2 83.5-133.1 76.8L82 433c-6.3-10.9-2.6-24.9 8.4-31.2l93.4-54c11-6.2 25-2.5 31.3 8.4z" fill="#F473C3" p-id="17369"></path><path d="M215.1 356.2l48.2 83.5-61.6 35.6L142.1 372l41.8-24.1c10.9-6.3 24.9-2.6 31.2 8.3z" fill="#C640A6" p-id="17370"></path><path d="M263.5 582.4m-176 0a176 176 0 1 0 352 0 176 176 0 1 0-352 0Z" fill="#5E6ACA" p-id="17371"></path><path d="M854.1 241.4c48.6 84.2 19.8 191.8-64.4 240.4l-176-304.9c84.2-48.5 191.8-19.7 240.4 64.5z" fill="#534A9A" p-id="17372"></path><path d="M263.5 582.4m-149.5 0a149.5 149.5 0 1 0 299 0 149.5 149.5 0 1 0-299 0Z" fill="#767DD4" p-id="17373"></path><path d="M831.2 254.6c41.3 71.5 16.8 162.9-54.7 204.2-71.5 41.3-163 16.8-204.3-54.7s-16.8-163 54.7-204.3c71.6-41.2 163-16.7 204.3 54.8z" fill="#767DD4" p-id="17374"></path><path d="M416 494.4c48.6 84.2 19.8 191.8-64.4 240.5L175.6 430c84.1-48.7 191.8-19.8 240.4 64.4z" fill="#534A9A" p-id="17375"></path><path d="M393 507.6c41.3 71.5 16.8 163-54.7 204.3l-149.5-259c71.5-41.3 162.9-16.8 204.2 54.7zM831.2 254.6c41.3 71.5 16.8 162.9-54.7 204.2L627 199.9c71.5-41.3 162.9-16.8 204.2 54.7z" fill="#5E6ACA" p-id="17376"></path><path d="M362.6 525.2c7.2 12.5 3 28.5-9.5 35.7l-49.4 28.5c-2.4 1.4-3.2 4.5-1.9 6.9l28.5 49.4c3.6 6.3 4.4 13.4 2.6 19.8-1.7 6.5-5.9 12.3-12.2 15.9-12.5 7.2-28.5 2.9-35.7-9.6l-28.5-49.4c-1.4-2.4-4.5-3.2-6.9-1.8l-49.4 28.5c-6.3 3.6-13.4 4.3-19.8 2.6-6.5-1.7-12.3-5.9-15.9-12.2-7.2-12.5-2.9-28.5 9.6-35.7l49.4-28.5c2.4-1.4 3.2-4.4 1.8-6.9L196.8 519c-3.6-6.3-4.3-13.4-2.6-19.8 1.7-6.5 5.9-12.3 12.2-15.9 12.5-7.2 28.5-2.9 35.7 9.6l28.5 49.4c1.4 2.4 4.4 3.2 6.9 1.8l49.4-28.5c12.5-7.2 28.5-2.9 35.7 9.6z" fill="#F9F7FC" p-id="17377"></path><path d="M610.9 329.1l-25.6 56.8c-3.2 7.1 1.5 15.3 9.3 16.1l62 6.2c9.3 0.9 15.7-9 11.1-17.1L631.3 328c-4.8-8-16.6-7.4-20.4 1.1z" fill="#F9B630" p-id="17378"></path><path d="M746.9 250.5l62 6.2c7.8 0.8 12.5 9 9.3 16.1l-25.6 56.8c-3.8 8.5-15.7 9.1-20.3 1l-36.4-63.1c-4.7-7.9 1.7-17.9 11-17z" fill="#F9A40D" p-id="17379"></path><path d="M703.1 258.9L640 295.3c-8.1 4.7-18-1.8-17.1-11.1l6.2-62c0.4-3.9 2.6-7 5.7-8.8 3-1.7 6.8-2.1 10.4-0.5l56.8 25.6c8.6 3.9 9.1 15.7 1.1 20.4zM780.6 374.6l-6.2 62c-0.4 3.9-2.6 7-5.6 8.8s-6.8 2.1-10.4 0.5l-56.8-25.6c-8.5-3.8-9.1-15.7-1-20.3l63.1-36.4c7.9-4.7 17.8 1.7 16.9 11z" fill="#F9B630" p-id="17380"></path><path d="M780.6 374.6l-6.2 62c-0.4 3.9-2.6 7-5.6 8.8L732 381.7l31.5-18.2c8.1-4.6 18 1.8 17.1 11.1zM703.1 258.9l-31.5 18.2-36.7-63.6c3-1.7 6.8-2.1 10.4-0.5l56.8 25.6c8.5 3.8 9 15.6 1 20.3z" fill="#F9A40D" p-id="17381"></path><path d="M362.6 525.2c7.2 12.5 3 28.5-9.5 35.7l-49.4 28.5c-2.4 1.4-3.2 4.5-1.9 6.9l28.5 49.4c3.6 6.3 4.4 13.4 2.6 19.8-1.7 6.5-5.9 12.3-12.2 15.9L206.3 483.3c12.5-7.2 28.5-2.9 35.7 9.6l28.5 49.4c1.4 2.4 4.4 3.2 6.9 1.8l49.4-28.5c12.6-7.2 28.6-2.9 35.8 9.6z" fill="#DCDAEB" p-id="17382"></path><path d="M512 972c-11 0-20-9-20-20s9-20 20-20c33.1 0 66-3.9 97.8-11.4 42-10 82.1-26.5 119.2-48.9 36.4-22 69.2-49.4 97.5-81.3 7.3-8.3 20-9 28.2-1.7 8.3 7.3 9 20 1.7 28.2-31 34.9-66.9 64.9-106.7 89-40.6 24.6-84.6 42.6-130.6 53.6-34.9 8.3-70.9 12.5-107.1 12.5zM144.9 289.4c-3.8 0-7.6-1.1-11-3.3-9.2-6.1-11.7-18.5-5.6-27.7 37.7-57 88.6-105.7 147.1-140.9 60.9-36.6 127.8-58.1 198.7-63.9 12.5-1 25.3-1.5 37.9-1.5 11 0 20 9 20 20s-9 20-20 20c-11.5 0-23.2 0.5-34.7 1.4-64.7 5.3-125.8 24.9-181.4 58.3-53.5 32.1-99.9 76.6-134.4 128.7-3.8 5.7-10.2 8.9-16.6 8.9z" fill="#F9B630" p-id="17383"></path><path d="M943.4 585.4l-75-185.5c3.2-7.6 5.9-15.5 8.1-23.6 12.5-46.7 6.1-95.5-18.1-137.3-24.2-41.9-63.2-71.8-109.9-84.3-20.8-5.6-42.1-7.4-62.9-5.5l-27.9-48.4C650 87.5 632.9 83 619.6 90.5l-93.4 54c-6.5 3.7-11.1 9.7-13 16.9-1.9 7.2-1 14.7 2.8 21.2l30.7 53.2c-8.6 14.2-15.2 29.6-19.7 46.1L309.5 407.3c-14.7-3.9-30.1-5.9-46-5.9-5.4 0-10.8 0.3-16.1 0.7l-28-48.4c-7.6-13.2-24.7-17.8-38.1-10.2l-93.4 54c-6.5 3.7-11.1 9.7-13 16.9-1.9 7.2-1 14.7 2.8 21.2l30.9 53.5c-16.5 27.3-26 59.3-26 93.4 0 92.4 69.5 168.8 159 179.7l123 157.6c16 21.1 40.5 32.5 65.4 32.5 13.9 0 28-3.6 40.8-11 35.7-20.6 50.6-64.8 34.5-102.7l-75-185.6c3.1-7.4 5.8-15 7.9-22.8l217.6-125.6c8 2.1 16 3.6 24 4.6l123 157.5c16 21.1 40.5 32.5 65.4 32.5 13.9 0 28-3.6 40.8-11 35.6-20.7 50.5-64.9 34.4-102.8zM524.6 177.5c-2.4-4.1-3-8.9-1.8-13.6 1.2-4.6 4.2-8.4 8.4-10.8l93.4-54c8.7-4.9 19.5-2 24.5 6.5l25.8 44.6c-22.1 3.3-43.7 10.8-63.6 22.3-23.6 13.6-43.4 31.9-58.4 53.6l-28.3-48.6z m91.6 3.8c26.4-15.2 55.6-23 85.3-23 14.8 0 29.8 2 44.5 5.9 44.1 11.8 81 40.1 103.8 79.7 22.8 39.6 28.9 85.7 17.1 129.8-11.8 44.1-40.1 81-79.7 103.8-39.6 22.8-85.7 28.9-129.8 17.1-44.1-11.8-81-40.1-103.9-79.7-22.9-39.5-28.9-85.6-17.1-129.7 11.9-44.2 40.2-81 79.8-103.9zM86.3 430.5c-2.4-4.1-3-9-1.8-13.6s4.2-8.4 8.4-10.8l93.4-54c8.6-4.9 19.6-1.9 24.5 6.5l25.8 44.7c-50.4 7.5-94.1 36-121.9 76.2l-28.4-49z m6.2 151.9c0-94.3 76.7-171 171-171s171 76.7 171 171-76.7 171-171 171-171-76.7-171-171zM496 842.2c14.1 33.3 1.1 72.1-30.3 90.2-31.3 18.1-71.3 10-93.3-19L255.1 763.2c2.8 0.1 5.6 0.2 8.4 0.2 70 0 130.8-39.9 160.9-98.2l71.6 177zM322.6 411.3l201.2-116.2c-8.3 42.8-1.1 86.6 21 124.8s56.5 66.4 97.7 80.6L441.2 616.7c2.1-11.1 3.3-22.6 3.3-34.3 0-79.1-51-146.5-121.9-171.1z m581.3 268.2c-31.3 18.1-71.3 10-93.3-19L693.3 510.2c2.9 0.1 5.8 0.2 8.6 0.2 31.4 0 62.3-8.2 90.2-24.3 30.6-17.6 54.8-43.2 70.5-73.8l71.5 177c14.2 33.3 1.2 72.1-30.2 90.2z" fill="#F9F7FC" p-id="17384"></path></svg>