<?xml version="1.0" standalone="no"?><!DOCTYPE svg PUBLIC "-//W3C//DTD SVG 1.1//EN" "http://www.w3.org/Graphics/SVG/1.1/DTD/svg11.dtd"><svg t="1697624609202" class="icon" viewBox="0 0 1024 1024" version="1.1" xmlns="http://www.w3.org/2000/svg" p-id="9742" xmlns:xlink="http://www.w3.org/1999/xlink" width="128" height="128"><path d="M528.384 512m-487.424 0a487.424 487.424 0 1 0 974.848 0 487.424 487.424 0 1 0-974.848 0Z" fill="#F5D22F" p-id="9743"></path><path d="M849.578667 210.944s-80.213333-79.530667-155.306667 34.133333c0 0-9.557333-71.68 74.752-87.381333 0-0.341333 62.464-4.437333 80.554667 53.248zM216.064 206.506667s80.213333-79.530667 155.306667 34.133333c0 0 9.557333-71.68-74.752-87.381333 0 0-62.805333-4.437333-80.554667 53.248z" fill="#763F1F" p-id="9744"></path><path d="M952.32 338.944s-196.949333-120.490667-371.029333 15.36c0 0-26.965333 35.157333 31.061333 38.229333 0 0 143.36-33.109333 283.306667-5.802666-0.341333 0 108.544 17.066667 56.661333-47.786667z" fill="#FFFFFF" p-id="9745"></path><path d="M668.330667 346.112m-36.522667 0a36.522667 36.522667 0 1 0 73.045333 0 36.522667 36.522667 0 1 0-73.045333 0Z" fill="#763F1F" p-id="9746"></path><path d="M452.949333 338.944S255.658667 218.453333 81.578667 354.304c0 0-26.965333 35.157333 31.061333 38.229333 0 0 143.36-33.109333 283.306667-5.802666 0 0 108.544 17.066667 57.002666-47.786667z" fill="#FFFFFF" p-id="9747"></path><path d="M168.96 346.112m-36.522667 0a36.522667 36.522667 0 1 0 73.045334 0 36.522667 36.522667 0 1 0-73.045334 0Z" fill="#763F1F" p-id="9748"></path><path d="M866.986667 467.626667s44.032-12.970667 12.629333-40.277334c0 0-66.56-44.032-143.018667 0 0 0-42.325333 37.546667 33.792 42.325334 0.341333 0 30.378667-17.749333 96.597334-2.048zM288.426667 467.626667s44.032-12.970667 12.970666-40.277334c0 0-66.56-44.032-143.018666 0 0 0-42.325333 37.546667 33.792 42.325334 0 0 30.037333-17.749333 96.256-2.048z" fill="#F29C9B" p-id="9749"></path><path d="M872.106667 596.650667s-43.690667 217.770667-344.746667 220.16c0 0-260.437333 2.730667-337.237333-197.973334 0 0-10.24 194.56 336.213333 226.304 0.341333-0.341333 287.061333 11.605333 345.770667-248.490666z" fill="#763F1F" p-id="9750"></path></svg>