<?xml version="1.0" standalone="no"?><!DOCTYPE svg PUBLIC "-//W3C//DTD SVG 1.1//EN" "http://www.w3.org/Graphics/SVG/1.1/DTD/svg11.dtd"><svg t="1697612904070" class="icon" viewBox="0 0 1491 1024" version="1.1" xmlns="http://www.w3.org/2000/svg" p-id="16089" xmlns:xlink="http://www.w3.org/1999/xlink" width="186.375" height="128"><path d="M1227.725432 465.818864l-121.110123-277.112099C1037.400494 111.186173 943.685531 56.13037 837.657284 35.738864c0 0-0.151704 950.979951 0 952.484346 223.42163-42.957432 392.229926-239.843556 392.229926-476.22321 0-15.587556-0.733235-31.010765-2.17442-46.193778z" fill="#66C6FE" p-id="16090"></path><path d="M1037.918815 188.694123c-52.299852-72.362667-121.906568-125.130272-200.805136-148.442074L654.095802 35.77679a480.12958 480.12958 0 0 0-184.787753 78.215901L267.934025 435.023012a485.325432 485.325432 0 0 0-6.08079 76.98963c0 23.855407 1.719309 47.35684 5.069432 70.289383l125.408395 260.892444C460.787358 916.54321 551.695802 968.552296 654.095802 988.261136c0-0.037926 183.030519-4.500543 183.030519-4.500543C1009.524938 932.864 1137.701926 740.946173 1137.701926 512l-99.783111-323.305877z" fill="#99D9FF" p-id="16091"></path><path d="M1106.640593 188.66884c-0.037926 0.025284-68.721778 0.025284-68.721778 0.025283l99.783111 323.318519h43.918222a46.14321 46.14321 0 0 0 46.105284-46.193778 483.530272 483.530272 0 0 0-121.084839-277.150024z" fill="#84B044" p-id="16092"></path><path d="M1137.701926 512H1053.202963v-79.99842H745.876543v-95.408987h92.197926a46.155852 46.155852 0 0 1 46.092642-46.181136h30.732642v-101.717334h123.019062c62.046815 85.813728 99.783111 199.111111 99.783111 323.318519zM914.899753 527.410568v292.510025h-107.557926c-33.804642 0-61.465284-27.71121-61.465284-61.579062v-107.77284h-30.732642a61.50321 61.50321 0 0 1-61.465284-61.579061 61.50321 61.50321 0 0 1 61.465284-61.579062H914.899753z" fill="#A2C352" p-id="16093"></path><path d="M837.113679 983.773235l-86.167704 13.172938a484.630123 484.630123 0 0 0 86.723951-8.685037 66.661136 66.661136 0 0 0-0.556247-4.487901zM750.945975 27.066469l86.180346 13.18558c0.25284-1.479111 0.391901-2.958222 0.543605-4.475259a482.05116 482.05116 0 0 0-86.723951-8.710321z" fill="#CCECFF" p-id="16094"></path><path d="M837.113679 40.252049C830.754765 84.992 792.310519 119.416099 745.876543 119.416099c-47.976296 0-87.406617-36.73758-91.793383-83.639309 29.708642-5.752099 60.416-8.735605 91.793383-8.735605 1.694025 0 3.375407 0 5.069432 0.025284 29.63279 0.467753 58.481778 5.018864 86.167704 13.18558zM745.876543 904.596543c46.433975 0 84.878222 34.436741 91.237136 79.176692a321.991111 321.991111 0 0 1-86.167704 13.172938c-1.694025 0.037926-3.375407 0.037926-5.069432 0.037926a484.819753 484.819753 0 0 1-91.806024-8.722963c4.399407-46.927012 43.829728-83.664593 91.806024-83.664593z" fill="#FFFFFF" p-id="16095"></path><path d="M315.632198 558.193778a61.25037 61.25037 0 0 0-48.595754 23.981827l-0.126419 0.12642a483.429136 483.429136 0 0 0 125.421037 260.892444l68.620642-83.500247c21.491358-26.143605 39.063704-75.257679 39.063703-109.125531v-92.374913H315.632198zM469.295407 113.992691v321.030321H267.934025C289.02084 302.396049 363.836049 187.682765 469.295407 113.992691z" fill="#A2C352" p-id="16096"></path><path d="M23.80484 201.930272v63.589135a95.383704 95.383704 0 0 0 47.609679 82.615309v601.125926a47.660247 47.660247 0 0 0 47.609679 47.698173 47.660247 47.660247 0 0 0 47.609679-47.698173v-601.125926a95.383704 95.383704 0 0 0 47.609679-82.602667v-63.601777H23.80484z" fill="#99D9FF" p-id="16097"></path><path d="M1467.922963 543.794568v95.396346l-47.609679 87.482469-47.609679-87.482469V496.121679z" fill="#66C6FE" p-id="16098"></path><path d="M1467.922963 639.190914v310.107654a47.672889 47.672889 0 0 1-47.609679 47.698173 47.672889 47.672889 0 0 1-47.609679-47.710815V639.190914h95.219358zM1396.533728 27.015901a71.477728 71.477728 0 0 0-71.414518 71.55358v373.671507a71.477728 71.477728 0 0 0 71.42716 71.55358h71.401877V98.569481a71.477728 71.477728 0 0 0-71.414519-71.55358z" fill="#99D9FF" p-id="16099"></path><path d="M745.876543 3.185778c-280.019753 0-507.828148 228.263506-507.828148 508.826864 0 280.550716 227.808395 508.814222 507.828148 508.814222 280.019753 0 507.828148-228.263506 507.828148-508.814222C1253.704691 231.449284 1025.896296 3.185778 745.876543 3.185778z m307.32642 404.960395H769.668741v-47.698173h68.393086c13.147654 0 23.80484-10.682469 23.80484-23.855407 0-12.313284 9.98716-22.33837 22.287802-22.338371h30.732642c13.147654 0 23.80484-10.669827 23.80484-23.842765v-77.874568H1095.55358a459.674864 459.674864 0 0 1 108.341729 254.242765 22.325728 22.325728 0 0 1-22.249877 21.364939h-104.63763v-56.143013a23.830123 23.830123 0 0 0-23.804839-23.855407zM808.252049 55.144296A68.013827 68.013827 0 0 1 745.876543 95.560691a68.001185 68.001185 0 0 1-62.388148-40.416395A461.596444 461.596444 0 0 1 745.876543 50.883951c21.162667 0 41.971358 1.479111 62.388148 4.260345zM445.50321 162.94242v248.237827H296.77037c21.946469-98.17758 75.207111-184.648691 148.720198-248.237827z m-53.652543 643.350123a459.851852 459.851852 0 0 1-99.530272-216.051358 37.167407 37.167407 0 0 1 23.324445-8.192h160.57837v68.519506c0 28.254815-15.713975 72.160395-33.627654 93.967803l-50.744889 61.756049z m291.65037 162.575803A68.001185 68.001185 0 0 1 745.876543 928.451951a68.013827 68.013827 0 0 1 62.388148 40.416395c-20.404148 2.781235-41.225481 4.260346-62.388148 4.260345-21.162667 0-41.971358-1.479111-62.388148-4.260345zM855.861728 959.778765A115.421235 115.421235 0 0 0 745.876543 880.76642a115.421235 115.421235 0 0 0-109.985185 79.024987 459.813926 459.813926 0 0 1-211.449679-118.113975l54.891457-66.812839c24.955259-30.353383 44.499753-84.954074 44.499753-124.28326v-92.374913a23.830123 23.830123 0 0 0-23.80484-23.855408H315.632198c-10.11358 0-19.949037 1.769877-29.139754 5.12a465.477531 465.477531 0 0 1-0.83437-27.445728c0-17.976889 1.061926-35.700938 3.072-53.134222h156.760494v6.940444c0 13.172938 10.657185 23.855407 23.804839 23.855408s23.80484-10.682469 23.80484-23.855408V126.874864A457.462519 457.462519 0 0 1 635.891358 64.233877a115.421235 115.421235 0 0 0 109.985185 79.024987 115.421235 115.421235 0 0 0 109.985185-79.024987 459.169185 459.169185 0 0 1 192.57521 100.604839h-179.642469c-13.147654 0-23.792198 10.682469-23.792197 23.855407s10.657185 23.855407 23.804839 23.855408h22.287803v54.006518h-6.927803a70.036543 70.036543 0 0 0-65.738271 46.181136H745.876543c-13.147654 0-23.80484 10.682469-23.804839 23.855408v71.55358h-37.660445c-13.147654 0-23.80484 10.682469-23.804839 23.855407s10.657185 23.842765 23.804839 23.842766h252.788939v47.710814H715.143901c-47.015506 0-85.270123 38.317827-85.270123 85.43447 0 47.104 38.254617 85.434469 85.270123 85.434469h6.927803v83.917432c0 47.104 38.254617 85.434469 85.270123 85.434469h107.557926c13.147654 0 23.80484-10.682469 23.80484-23.855407v-98.55684a23.830123 23.830123 0 0 0-23.80484-23.855407c-13.147654 0-23.80484 10.682469-23.804839 23.855407v74.714074h-83.753087a37.736296 37.736296 0 0 1-37.660444-37.736296V650.556049A23.830123 23.830123 0 0 0 745.876543 626.713284h-30.72a37.736296 37.736296 0 0 1 0-75.472593h175.938371v74.714074c0 13.172938 10.657185 23.855407 23.804839 23.855408s23.80484-10.682469 23.80484-23.855408v-74.714074h22.300444c13.147654 0 23.80484-10.669827 23.80484-23.842765v-71.55358h44.588246V588.98963c0 13.172938 10.644543 23.842765 23.80484 23.842765 13.147654 0 23.792198-10.669827 23.792197-23.842765v-53.134223h104.650272c8.432198 0 16.523062-1.517037 24.019753-4.260345-8.722963 207.61916-155.079111 380.15684-349.803457 428.183703z" fill="#000000" p-id="16100"></path><path d="M1007.097679 697.520988c-13.147654 0-23.80484 10.669827-23.804839 23.842765v31.80721c0 13.172938 10.657185 23.842765 23.804839 23.842765s23.80484-10.669827 23.80484-23.842765V721.351111a23.830123 23.830123 0 0 0-23.80484-23.842765zM684.411259 274.634272c13.147654 0 23.80484-10.682469 23.80484-23.855408v-31.794568a23.830123 23.830123 0 0 0-23.80484-23.855407c-13.147654 0-23.80484 10.682469-23.804839 23.855407v31.794568c0 13.172938 10.657185 23.855407 23.804839 23.855408zM238.048395 27.028543A23.830123 23.830123 0 0 0 214.243556 3.160494c-13.147654 0-23.80484 10.682469-23.80484 23.855407v151.046321h-47.609679V27.028543A23.830123 23.830123 0 0 0 119.024198 3.160494c-13.147654 0-23.80484 10.682469-23.80484 23.855407v151.046321H47.609679V27.028543A23.830123 23.830123 0 0 0 23.80484 3.160494C10.657185 3.173136 0 13.855605 0 27.028543v238.503506a119.782716 119.782716 0 0 0 47.609679 95.371062v588.357531c0 39.455605 32.034765 71.55358 71.414519 71.55358s71.414519-32.097975 71.414518-71.55358v-588.357531a119.782716 119.782716 0 0 0 47.609679-95.371062V27.028543z m-83.335901 300.474469c-7.35763 4.260346-11.883457 12.136296-11.883457 20.631704v601.125926c0 13.147654-10.682469 23.842765-23.804839 23.842765a23.855407 23.855407 0 0 1-23.80484-23.842765v-601.125926c0-8.508049-4.525827-16.371358-11.883457-20.631704a71.856988 71.856988 0 0 1-35.726222-61.970963V225.785679h142.829037v39.74637a71.856988 71.856988 0 0 1-35.726222 61.970963zM1396.533728 3.173136c-52.502123 0-95.219358 42.793086-95.219358 95.408987v373.658865c0 52.603259 42.717235 95.408988 95.219358 95.408987h47.609679v381.610667c0 13.147654-10.682469 23.855407-23.804839 23.855407a23.855407 23.855407 0 0 1-23.80484-23.855407l-0.025284-310.069728a23.830123 23.830123 0 0 0-23.817481-23.842766c-13.147654 0-23.792198 10.682469-23.792198 23.855408l0.025284 310.057086c0 39.455605 32.034765 71.55358 71.427161 71.55358 39.367111 0 71.401877-32.097975 71.401876-71.55358V98.582123c0-52.615901-42.717235-95.408988-95.219358-95.408987z m47.609679 516.766024h-47.609679a47.710815 47.710815 0 0 1-47.609679-47.698172V98.582123c0-26.307951 21.364938-47.710815 47.609679-47.710814a47.710815 47.710815 0 0 1 47.609679 47.710814v421.357037z" fill="#000000" p-id="16101"></path></svg>