<?xml version="1.0" standalone="no"?><!DOCTYPE svg PUBLIC "-//W3C//DTD SVG 1.1//EN" "http://www.w3.org/Graphics/SVG/1.1/DTD/svg11.dtd"><svg t="1697624226316" class="icon" viewBox="0 0 1024 1024" version="1.1" xmlns="http://www.w3.org/2000/svg" p-id="3119" xmlns:xlink="http://www.w3.org/1999/xlink" width="128" height="128"><path d="M511.754918 958.837908c-246.974951 0-447.182762-200.207811-447.182762-447.187879 0-246.972904 200.207811-447.181739 447.182762-447.181739 246.972904 0 447.185832 200.208834 447.185832 447.181739C958.94075 758.630097 758.726799 958.837908 511.754918 958.837908zM511.754918 90.02127c-232.863559 0-421.629783 188.767248-421.629783 421.627736 0 232.854349 188.767248 421.635923 421.629783 421.635923 232.861512 0 421.63183-188.780551 421.63183-421.635923C933.386748 278.788517 744.615407 90.02127 511.754918 90.02127zM511.754918 894.955972c-211.689307 0-383.298779-171.611519-383.298779-383.306966 0-211.68726 171.609473-383.298779 383.298779-383.298779 211.68726 0 383.301849 171.611519 383.301849 383.298779C895.056768 723.344452 723.442178 894.955972 511.754918 894.955972zM613.966834 353.825514c0-11.626805-9.146311-21.048385-20.450774-21.048385L429.990706 332.777129c-11.299347 0-20.450774 9.422603-20.450774 21.048385L409.539932 607.181803 613.966834 396.747069 613.966834 353.825514zM613.966834 426.505837 409.539932 636.95285l0 32.514531c0 11.628852 9.152451 21.062711 20.450774 21.062711l163.525354 0c11.304464 0 20.450774-9.43386 20.450774-21.062711L613.966834 426.505837zM511.754918 658.96212c-11.293207 0-20.451798-9.43386-20.451798-21.038152 0-11.626805 9.15859-21.060665 20.451798-21.060665 11.291161 0 20.448728 9.43386 20.448728 21.060665C532.203646 649.529283 523.046079 658.96212 511.754918 658.96212z" fill="#1296db" p-id="3120"></path></svg>