<svg xmlns="http://www.w3.org/2000/svg" width="128" height="128" class="icon" viewBox="0 0 1024 1024"><defs/><path fill="#9DDEFC" d="M447 7l330 69a314 314 0 01240 371l-69 330a314 314 0 01-371 240l-330-69A314 314 0 017 577l69-330A314 314 0 01447 7z"/><path fill="#3595EC" d="M363 63h322c173 0 312 140 312 312v237c0 207-167 374-374 374H363A312 312 0 0152 674V375C52 203 191 63 363 63z"/><path fill="#FFF" d="M505 472L204 316l293 180 11 405 10-406 341-199-354 176z"/><path fill="#CBEAFE" d="M247 884a22 22 0 1045 0 22 22 0 10-45 0zM341 930a22 22 0 1045 0 22 22 0 10-45 0zM456 953a22 22 0 1045 0 22 22 0 10-45 0zM572 953a22 22 0 1045 0 22 22 0 10-45 0zM675 906a22 22 0 1045 0 22 22 0 10-45 0z"/><path fill="#0B45C3" d="M813 270L576 134c-40-20-88-20-129 0L210 270c-37 25-61 66-64 111v273c3 45 27 86 64 111l236 136c20 10 41 17 64 15 22 0 44-5 63-15l237-136c38-25 61-66 64-111V381c0-46-24-87-61-111z"/><path fill="#A9E9FF" d="M572 93c-38-19-82-19-120 0L216 230c-35 22-57 61-60 104v273c3 42 25 80 60 103l236 136c38 19 82 19 120 0l236-136c35-22 57-61 60-103V332c-3-42-25-80-60-103L572 93z"/><path fill="#F5FAFC" d="M512 432c-17 0-35-4-51-12L225 284c-10-7-16-13-16-20s5-14 16-20l236-136c32-17 70-17 102 0l236 137c10 6 16 12 16 20s-5 14-16 20L563 420c-16 8-34 12-51 12zm-36 404c-6 0-13-2-18-6L221 694c-30-20-48-52-51-88V332c0-7 1-25 16-25 7 0 13 3 18 7l237 136c30 20 49 52 51 88v273c0 8-1 14-5 20-2 4-6 5-11 5zm70 0c-15 0-17-17-17-25V538c3-36 22-68 52-88l235-136c5-4 12-5 18-7 15 0 16 18 16 25v274c-1 36-21 68-51 88L563 831c-5 3-11 5-17 5z"/><path fill="red" d="M436 477c-21 30-48 55-79 74 0 0 2 15 26 17 0 0 15-2 12 14 0 0-5 11-27 4-13-5-26-15-33-28l-8 4s14 37 41 35 17 19 12 21-44 9-70-49c0 0-44 24-38 68 0 0 14 47 70 38 19-5 35-13 49-27 0 0 9-11 19 4 0 0 6 9-19 27 0 0 25 19-41 28 0 0-53 3-70-14 0-8 2-15 7-21 0 0-17 15-26 15-10-7-19-15-26-25 11-8 21-18 30-28-13 7-25 12-38 14 0 0-17-11-18-46 18 5 37 6 56 4 0 0-49-17-56-28 0-24 7-47 22-67 19 25 43 43 70 56 0 0-60-51-45-77 0 0 26-34 157-32 0 0 7 2-7 15 0-2 42-13 30 4zm-38 1c-1-5-7-6-16-3-4 1-6 2-9 5 8-3 14-2 17 1s-3 10-10 14l-2 1 12-3c6-5 10-10 8-15z"/><path fill="#17B700" d="M677 551s-10 8-44 10c-14 2-25 15-29 28l-7 35s11-47 34-53c0 0 42-2 54-9l-8-11zm16 18s-10 9-44 10c-13 4-25 15-28 29l-9 34s11-48 34-54c0 0 42-1 54-9l-7-10zm25 18s-10 9-44 10c-13 2-25 15-28 29l-9 33s11-47 33-53c0 0 43-2 55-9l-7-10zm-99 87c-3 8-6 15-6 23l-46 17s-6 0-4-10l16-5h-16l6-10 15-1-16-4 3-5h12l-12-5 2-5 14 5-13-12 2-8 11 8-9-18s9-6 16 7l25 23zm40-212s103-87 176 48c0 0-57-124-172-48h-4zm11 8s104-65 153 58c0 0-35-113-151-57l-2-1zm94 94s-5-20-49-59l-72-57 19 37-15-8s16 74 61 124c10 12 30 15 42 5 2 0 22-12 14-42zm-77-41c-4-6-3-13 3-17 5-4 14-3 18 2 4 6 2 14-4 18-5 3-12 3-17-3zm81 70a44 44 0 01-58 19s4 46-49 62c-13 4-27 4-39 1l-8 27 34 6c0-5 0-10 3-14l3 15c14 1 28 0 40-4-4-6-7-13-7-21l13 20c13-2 24-9 33-17-8-4-14-10-19-17 0 0 21 13 28 10 6-8 12-17 16-26-10 0-20-2-29-7 11 1 23 0 34-3 7-16 9-33 5-51zm-88-297h-24l-15-7v-15l17 2c10 4 19 10 22 20zm-84 11l8-13h14v13h-22zm8 4v10h-25l14-10h11zm2-22l2-15h26v15h-28zm2 22l14 1c7 2 12 7 15 14h-19l-10-6v-9zm28 4l-14-6v-14l16 2c9 3 15 9 19 18h-21zm31-99c0 8-4 15-10 20a102 102 0 01-48 31v-1c0-10-3-19-10-25l18-17h10c12 1 25-4 35-11l5-7v10zm-18-32c7 5 12 10 14 16l-1 1-5 7c-10 7-21 11-34 9l-10-1c-29-5-54-18-74-38l47 2c10 0 18-2 27-9 3-1 4-3 5-6 10 5 21 11 31 19zm-98 38c0 5-5 9-10 8-5 0-9-4-10-8 1-5 6-8 11-7 5 0 9 4 9 7zm62-57c0 3-1 5-4 6-7 7-17 9-26 8h-2c-15-6-32-11-49-14 26-7 54-7 81 0zm-120 0c-16 3-32 6-48 14h-3c-10 1-19-1-26-8l-4-6c26-7 55-7 81 0zm-1 57c0 5-5 8-10 8s-9-3-10-8c1-5 6-8 11-7 5 0 8 4 9 7zm-116-38c10-8 21-13 32-18 0 3 3 5 5 7 8 5 18 8 27 8 16 2 45-1 45-1-20 21-47 34-74 37l-11 2c-12 1-24-3-33-10l-5-6-1-2c2-7 9-12 15-17zm-17 22l4 7c10 8 23 12 37 11h10l17 17c-6 6-10 16-10 25v1c-7-2-16-6-22-10-10-5-19-12-25-21-5-5-9-12-10-20-3-2-3-6-1-10zm47 101v-13h14l8 13h-22zm26 4c4 4 9 8 14 10h-25v-10h11zm-30 4c5-3 10-3 14-3v10l-10 7h-18c2-8 7-13 14-14zm-36-1c4-9 10-15 19-18l16-2v13l-14 7h-21zm22-25v-15h27l2 15h-29zm-23-13c6-2 12-2 17-2v16l-15 7h-26c5-10 14-17 24-21zm-16 61c-5-8-7-18-7-28 0-3 0-7 2-9l24 1c-1-1-19 38-19 36zm16-12v-9h21l-16 34c-4-8-5-16-5-25zm21 12v-6h17l-13 26c-3-6-4-12-4-20zm20 30c-3-5-4-11-4-17v-6h14l-10 23zm22-31l-10 5h-16c3-6 8-11 14-12l11-3v10h1zm5 0v-10h22l23 10h-45zm79 1h-2c-22 0-42-6-60-17a59 59 0 01-30-49v-6c0-21 22-39 50-40 3 7 13 11 21 6l6-6h31c4 7 14 11 21 6 3-1 5-4 7-6 27 1 48 19 50 40v6c0 20-12 39-30 49-19 11-39 17-60 17h-4zm79-1h-45c8-2 16-5 23-10h22v10zm5 0v-10c3 0 7 0 11 3 6 2 11 6 14 12h-17c-2-1-6-2-8-5zm22 31l-11-22h14v5c0 6 0 12-3 17zm15-10l-14-26h18v6c1 8 0 14-4 20zm21-7l-16-31h21v8c0 8-1 15-5 23zm3-50l25-1 1 10c0 10-3 20-6 28-2 2-20-37-20-37z"/><path fill="#FF6BD9" d="M905 99l6 94-35 36v30l72-37-17-118z"/><path fill="#A9DCFF" d="M154 739c-1 26-16 49-39 61 24 10 39 33 39 59 0 0 7-51 42-60a92 92 0 01-42-60z"/><path fill="#55F7FF" d="M787 840c-2 14-9 25-20 31 12 5 20 17 20 30 1-13 10-25 22-31-11-6-20-17-22-30zm58-68c-1 25-16 46-37 57 22 9 37 30 37 55 0 0 8-48 40-56a88 88 0 01-40-56z"/><path fill="#FFCB79" d="M896 724l68 53 23-32-72-35z"/><path fill="#68EE7D" d="M148 332l-62 48-21-29 65-32z"/><path fill="#F9FAFE" d="M66 578l64 107 5-11-62-112z"/></svg>