<svg xmlns="http://www.w3.org/2000/svg" width="128" height="128" class="icon" viewBox="0 0 1024 1024"><defs/><path fill="#FFE200" d="M597 642a186 186 0 10372 0 186 186 0 10-372 0zM195 156h-67c-17 0-31-14-31-31s14-30 31-30h67c16 0 30 14 30 30s-14 31-30 31z"/><path fill="#405FD3" d="M558 915H128c-17 0-31-14-31-31s14-30 31-30h430c17 0 31 13 31 30s-14 31-31 31zm187 0h-96c-17 0-31-14-31-31s14-30 31-30h96c17 0 31 13 31 30s-13 31-31 31zm148 0h-50c-17 0-31-14-31-31s14-30 31-30h50c17 0 31 13 31 30s-14 31-31 31zM180 374h61l30 121 9 56h2c3-27 8-63 16-93l23-84h56l-67 253h-61l-29-122-10-55h-1c-5 28-9 63-18 93l-22 84h-56l67-253zm255 0h158l-13 50h-98l-13 47h83l-14 51h-82l-15 54h102l-14 51H368l67-253zm187 0h60l-14 115-12 80h2l36-80 57-115h50l-5 115-7 80h2l30-80 47-115h57L814 627h-75l7-110c1-19 3-40 6-59h-1l-26 59-51 110h-74l22-253zm266-218H407c-17 0-31-14-31-31s14-30 31-30h481c17 0 31 14 31 30s-14 31-31 31zm0 128H714c-17 0-31-14-31-31s14-30 31-30h174c17 0 31 14 31 30s-14 31-31 31z"/></svg>