<svg xmlns="http://www.w3.org/2000/svg" width="128" height="128" class="icon" viewBox="0 0 1024 1024"><defs/><path fill="#F8DFCD" d="M283 877c53 42 95 69 190 72 98 0 174-17 227-52 65-37 112-107 140-209 16-79-1-165-49-257L662 306l-197 42c-92 33-146 53-161 60-24 11-119 44-119 81s46 206 46 236c0 29-1 99 52 152z"/><path fill="#834038" d="M277 884v-1c-16-15-28-33-37-53-14-32-18-61-18-102v-3c0-11-4-34-22-113l-1-4c-16-70-23-103-23-119 0-23 24-43 67-64l57-25c16-7 70-27 162-60h1l202-44 134 130v1c49 94 66 182 50 263v1c-29 104-77 175-144 214-55 36-133 53-232 53-86-3-130-21-196-74zm12-14c63 51 103 68 184 71 96 0 170-17 223-51 62-37 107-104 135-204 15-76 0-160-47-249L660 316l-192 41a3183 3183 0 00-217 84c-36 18-57 35-57 48 0 14 7 47 22 115l1 4c19 83 23 104 23 117v3c0 39 4 65 17 95 7 18 18 33 32 47z"/><path fill="#F4F6F5" d="M227 656l256-23a6 6 0 016 6l10 113a6 6 0 01-5 6l-256 23a6 6 0 01-7-6l-10-113a6 6 0 016-6zm322-27l256-22a6 6 0 017 5l10 113a6 6 0 01-6 7l-256 22a6 6 0 01-6-6l-10-113a6 6 0 015-6z"/><path fill="#834038" d="M495 705l55-5-4-44c-1-15 9-28 24-29l214-19c15-1 28 10 30 25l6 71c1 15-10 28-25 29l-214 19c-15 1-28-10-29-24l-2-19-54 5 1 17c2 15-9 28-24 29l-214 19c-15 1-28-10-29-24l-7-72c-1-15 10-28 25-29l214-19c15-1 28 10 29 25l4 45zm-247-42c-9 1-17 10-16 19l6 72c1 10 10 17 20 16l214-19c10-1 17-9 16-19l-6-71c-1-10-9-18-19-17l-215 19zm323-27c-10 1-17 10-16 20l6 71c1 10 10 17 19 16l215-19c9 0 17-9 16-19l-6-71c-1-10-10-18-20-17l-214 19z"/><path fill="#4A4C49" d="M100 598c-1-175 57-298 174-371 40-23 58-23 66-60 7-27 5-46 8-72 6 12 18 58 29 72 146-13 224 5 304 37 100 50 167 125 203 226 48 120 48 236 0 347-2 23 2-42-11-66-6-9-20-10-27 0-21 71-29 114-82 168 0-237-22-317-45-430-20-50-44-31-44 0 0 62 0 58 2 113-46-8-85-46-118-113-13-13-20 2-20 45 0 79-5 52-2 137-119-66-104-79-125-124-17-22-25-25-24-9 6 35 14 71 24 110-76-2-121-108-138-150-2 31-30 263 43 472-45-38-90-102-124-139-9-11-9-5-12 0-10 24-5 80-10 71-41-79-65-167-71-264z"/><path fill="#834038" d="M166 830v-10c2-14 4-25 7-33l1-2 2-5c2-2 6-4 10-4 5 0 8 3 14 9l28 33 15 18a2220 2220 0 0055 64 818 818 0 01-9-32 1158 1158 0 01-25-396l1-14 3-38 14 35c15 36 28 63 46 88 22 31 46 50 72 55-9-35-16-67-21-98v-1c0-6 0-10 2-13 3-6 9-9 15-6 6 2 13 9 23 21v1l1 1a238 238 0 0110 26l8 16c10 20 34 39 89 70l1-56 1-8 1-57c0-23 2-38 6-47 6-13 19-15 30-5l1 2v1c29 59 62 94 101 106l-2-40v-62c0-19 8-35 21-39 15-4 30 9 41 36v1l1 3 11 55c23 114 32 198 33 351a239 239 0 0052-104l13-43v-2l1-1c10-15 33-15 42 1 4 7 7 18 8 30 34-98 29-199-14-304a379 379 0 00-197-220c-90-37-169-48-300-37h-5l-3-3c-5-7-10-18-16-35-1 11-2 21-5 31-5 23-14 34-33 45l-37 21c-114 70-171 191-170 362 6 85 25 162 57 233zm18-8l-1 15a729 729 0 000 6v7a114 114 0 01-2 15c0 2-1 3-3 5-4 3-9 2-12-1a11 11 0 01-3-3c-41-80-65-169-72-268-1-178 58-304 179-379l37-20c15-9 21-16 25-34a204 204 0 005-47l2-23 2-28 14 24 7 16 8 22c4 14 8 23 12 29 130-11 211 1 303 38a397 397 0 01207 231c49 121 50 239 0 352v4l-1 4-4 3h-7l-5-5-1-2v-1-2-18c-1-21-4-38-9-46-2-4-7-4-11-1l-12 42c-11 35-19 57-33 80-10 16-23 32-39 49l-15 15v-22a1641 1641 0 00-44-425v-2c-5-11-9-18-13-22l-6-3c-4 1-8 10-8 22v61l2 52v11l-11-2c-48-9-89-48-123-116-2 6-4 19-4 39 0 26 0 42-2 58v8c-1 18-2 34 0 71v15l-14-7c-68-38-96-60-110-85l-8-19-5-11-5-13a177 177 0 00-6-6c6 31 13 65 22 101l3 11h-12c-37-1-69-24-97-64-13-18-24-37-34-58a1207 1207 0 0046 432l11 30-25-20a538 538 0 01-83-89l-15-19-26-30-4 23z"/><path fill="#FFF" d="M270 328a36 31 0 1072 0 36 31 0 10-72 0zM355 348a13 11 0 1027 0 13 11 0 10-27 0z" opacity=".2"/><path fill="#EFCBBF" d="M187 655c3 0 6 4 7 12 2 19 7 50 27 80 3 7-16 3-24 0-13-5-34-10-34-59 0-16 14-32 24-33zm650-68c-3 0-5 4-5 13 1 18 0 50-16 83-2 6 17 1 24-4 12-6 33-14 26-63-2-16-18-29-29-29z"/><path fill="#834038" d="M167 688c0 29 7 43 19 50l6 2 6 3h1a53 53 0 0016 3c-15-25-23-52-26-78l-2-8c-9 1-20 15-20 28zm31-21c3 26 11 53 27 78 2 4 0 8-4 9l-8 1c-6 0-13-2-18-4l-6-2-7-4c-16-8-24-25-24-57 0-17 15-35 29-37 7-2 10 5 11 16zm664-50c4 28-1 43-13 51l-5 4-6 3a53 53 0 01-16 6c12-27 16-55 15-81l1-8c9 0 22 12 24 25zm-34-17c1 26-3 54-16 81-1 4 1 8 5 9h9l17-7 5-3 7-4c14-11 20-29 15-60-2-18-19-34-33-33-7-1-10 6-9 17zM470 852a7 7 0 014-12 88 88 0 0014 3c20 4 42 4 62 1 16-4 30-10 41-19a7 7 0 019 10c-13 11-29 18-48 22-21 4-44 3-67-1a192 192 0 01-11-2 101 101 0 01-4-2z"/></svg>