<svg xmlns="http://www.w3.org/2000/svg" width="128" height="128" class="icon" viewBox="0 0 1024 1024"><defs/><path fill="#EFEFEF" d="M306 211h448q79 0 79 79v449q0 79-79 79H306q-79 0-79-79V290q0-79 79-79z"/><path fill="#18659E" d="M133 360a16 16 0 01-16-16V122a16 16 0 0116-16h246a16 16 0 010 32H149v206a16 16 0 01-16 16zm246 558H133a16 16 0 01-16-16V635a16 16 0 0132 0v251h230a16 16 0 010 32zm534 0H669a16 16 0 010-32h228V635a16 16 0 1132 0v267a16 16 0 01-16 16zm0-558a16 16 0 01-16-16V138H669a16 16 0 010-32h244a16 16 0 0116 16v222a16 16 0 01-16 16z"/><path fill="#99D1FF" d="M768 702H281V322h487v380z"/><path fill="#18659E" d="M768 718H281a16 16 0 01-16-16V322a16 16 0 0116-16h487a16 16 0 0116 16v380a16 16 0 01-16 16zm-471-32h455V338H297z"/><path fill="#18659E" d="M425 398v118l20 2v7h-73v-7l20-2v-68-50h-27l-10 23h-12l1-42h129l1 42h-12l-10-23zm267 3H550a10 10 0 010-20h142a10 10 0 010 20zm0 61H550a10 10 0 010-20h142a10 10 0 010 20zm-2 60H548a10 10 0 010-20h142a10 10 0 010 20zm2 61H356a10 10 0 010-20h336a10 10 0 010 20zm-1 54H355a10 10 0 010-20h336a10 10 0 010 20z"/></svg>