<svg xmlns="http://www.w3.org/2000/svg" width="128" height="128" class="icon" viewBox="0 0 1024 1024"><defs/><path fill="#FF9000" d="M870 135h-89a19 19 0 00-13 33l89 89a19 19 0 0033-14v-89a19 19 0 00-20-19zM154 890h89a19 19 0 0014-33l-89-89a19 19 0 00-33 14v89a19 19 0 0019 19z"/><path fill="#3772FD" d="M896 766H330a73 73 0 01-72-72V128a32 32 0 0164 0v566a8 8 0 008 8h566a32 32 0 010 64z"/><path fill="#3772FD" d="M714 625a32 32 0 01-32-32V342H431a32 32 0 010-64h283a32 32 0 0132 32v283a32 32 0 01-32 32zM290 342H128a32 32 0 010-64h162a32 32 0 110 64zM734 928a32 32 0 01-32-32V734a32 32 0 0164 0v162a32 32 0 01-32 32z"/></svg>