<svg xmlns="http://www.w3.org/2000/svg" width="135" height="128" class="icon" viewBox="0 0 1080 1024"><defs/><path fill="#FF8F00" d="M328 589h-16c-84 0-152-70-152-156V156C160 70 228 0 312 0h16c84 0 152 70 152 156v278c0 87-68 157-152 157v-2zm242 21a41 41 0 00-51 1 280 280 0 01-190 69c-142 0-258-98-258-217a33 33 0 00-35-30c-19-1-35 12-36 30 0 143 129 260 293 275v121c1 16 16 28 32 27h6a30 30 0 0032-27V738a340 340 0 00207-86 27 27 0 00-1-43l1 1zm498-144a43 43 0 00-31-13l-473 1c-24 0-43 20-44 44v481c0 25 20 45 44 45h473c24 0 44-20 44-45V497a45 45 0 00-13-31zM961 681h-15s-27-67-59-73a163 163 0 00-54-2v280s8 19 23 21h33v19H713v-19h28s21-6 21-23V609a186 186 0 00-53 0 88 88 0 00-54 71h-14V571h320v110zM831 354C802 194 603 84 600 84l33-64c9 6 233 127 268 321l-70 13zm90-19l-41 118-79-95 120-23z"/></svg>