<svg xmlns="http://www.w3.org/2000/svg" width="128" height="128" class="icon" viewBox="0 0 1024 1024"><defs/><path fill="#F3596B" d="M469 683a43 43 0 1086 0 43 43 0 10-86 0z"/><path fill="#F2CAC1" d="M469 896v107H341v-22a85 85 0 0186-85z"/><path fill="#B19CF0" d="M512 896l170-233a170 170 0 01150 169v171H469V896z"/><path fill="#B19CF0" d="M427 896a85 85 0 00-86 85v22H192V832a170 170 0 01150-169l170 233h-85z"/><path fill="#FFCA6B" d="M619 43h213L725 149l-3 2A234 234 0 00617 46zM346 90a235 235 0 00-44 61l-3-2L192 43h213l2 3a235 235 0 00-61 44z"/><path fill="#FFCA6B" d="M683 324l-43 17v-64c0-35-48-64-107-64s-106 29-106 64v43l-64-43-22 22-21 21-43-64a235 235 0 11470 0v43z"/><path fill="#F2CAC1" d="M512 896L342 663a165 165 0 0121-2h21a43 43 0 0037-21h91a43 43 0 1043 43 43 43 0 00-43-43h91a43 43 0 0037 21h21a165 165 0 0121 2zm192-555a43 43 0 010 86h-21l-2-1a173 173 0 002-21v-64zM597 619a43 43 0 006 21H421a43 43 0 006-21v-66a168 168 0 0085 23 170 170 0 0085-23v2zM341 405a173 173 0 002 21l-2 1h-21a43 43 0 010-86h21z"/><path fill="#F2CAC1" d="M683 341v64a170 170 0 01-50 121 167 167 0 01-36 27 170 170 0 01-85 23 168 168 0 01-85-23 171 171 0 01-84-127 173 173 0 01-2-21V299l22-22 64 43v-43c0-35 47-64 106-64s107 29 107 64v64l43-17z"/><path fill="#2A3244" d="M832 1024H192a21 21 0 01-21-21V832a192 192 0 01192-192h21a21 21 0 0021-21v-64h43v64a64 64 0 01-64 64h-21a150 150 0 00-150 149v149h598V832a150 150 0 00-150-149h-21a64 64 0 01-64-64v-64h43v64a21 21 0 0021 21h21a192 192 0 01192 192v171a21 21 0 01-21 21z"/><path fill="#2A3244" d="M512 597a192 192 0 01-192-192V299h43v106a149 149 0 00298 0v-85h43v85a192 192 0 01-192 192z"/><path fill="#2A3244" d="M704 448h-21v-43h21a21 21 0 000-42h-21v-43h21a64 64 0 010 128zm-363 0h-21a64 64 0 010-128h21v43h-21a21 21 0 000 42h21z"/><path fill="#2A3244" d="M640 363a21 21 0 01-21-22v-64c0-20-37-42-86-42s-85 22-85 42v43a21 21 0 01-33 18l-50-33-30 30a21 21 0 01-33-3l-42-64a21 21 0 01-4-12 256 256 0 01512 0v43a21 21 0 01-13 19l-107 43a21 21 0 01-8 2zM533 192c72 0 128 37 128 85v33l64-26v-28a213 213 0 00-426-6l24 36 24-24a21 21 0 0127-3l31 21v-3c0-48 57-85 128-85zm-170 811h-43v-22a107 107 0 01107-106h256v-64h42v85a21 21 0 01-21 21H427a64 64 0 00-64 64z"/><path fill="#2A3244" d="M448 896h43v107h-43zm-43-277h214v42H405z"/><path fill="#2A3244" d="M512 917a21 21 0 01-17-8L324 674l35-25 153 211 153-211 35 25-171 235a21 21 0 01-17 8zM277 811h43v42h-43zm0 64h43v42h-43z"/><path fill="#2A3244" d="M512 747a64 64 0 1164-64 64 64 0 01-64 64zm0-86a21 21 0 1021 22 21 21 0 00-21-22zm228-497l-30-30 71-70H619V21h213a21 21 0 0115 37zm-456 0L177 58a21 21 0 0115-37h213v43H243l71 70z"/></svg>