<svg xmlns="http://www.w3.org/2000/svg" width="128" height="128" class="icon" viewBox="0 0 1024 1024"><defs/><path fill="#FFF" d="M0 512a512 512 0 101024 0A512 512 0 100 512z"/><path fill="#4F74B3" d="M256 491h235V277H287c-18 65-29 137-31 214zm31 256h204V533H256c2 77 13 149 31 214zm204-512V12c-79 14-148 100-191 223h191zm290 512h186a509 509 0 0056-214H810c-1 77-11 149-29 214zm-290 265V789H300c43 123 112 209 191 223zm278-777h173A513 513 0 00633 14c57 46 104 124 136 221zm-45 0C681 112 612 26 533 12v223h191zm57 42c18 65 28 137 29 214h213a509 509 0 00-56-214H781zM255 789H82a513 513 0 00309 221 469 469 0 01-136-221zm278 0v223c79-14 148-100 191-223H533zM214 533H1a509 509 0 0056 214h186c-18-65-28-138-29-214zm555 256c-32 97-79 175-136 221a513 513 0 00309-221H769zM57 277A509 509 0 001 491h213c1-77 11-149 29-214H57zm711 256H533v214h204c18-65 29-137 31-214zM255 235c32-97 79-175 136-221A513 513 0 0082 235h173zm482 42H533v214h235c-2-77-13-149-31-214z"/><path fill="#D9624E" d="M810 491l-67-100-69-113c-22-34-33-77-33-107C642 76 717 0 810 0s168 76 168 171c0 0 4 55-34 110l-52 84-82 126z"/><path fill="#C43F31" d="M810 93a70 70 0 0170 70 70 70 0 01-70 70 70 70 0 010-140z"/></svg>