<svg xmlns="http://www.w3.org/2000/svg" width="128" height="128" class="icon" viewBox="0 0 1024 1024"><defs/><path fill="#FF9500" d="M639 310l48-50L896 41a60 60 0 0188 0 67 67 0 0119 46 67 67 0 01-19 47L779 350l-60 63-89-93z"/><path fill="#00A6FF" d="M660 476l-89-93-15-16 59-62 15 15 89 93 14 16-59 62-14-15z"/><path fill="#E4E4E4" d="M875 427a289 289 0 01128 234c0 189-201 342-448 342-295 0-534-201-534-448C21 260 241 21 512 21c94 0 171 58 171 128v107l4 4-48 50c-2-23-13-77-63-94-41-13-85 21-85 84 0 36 47 72 60 82a100 100 0 00-69 31 392 392 0 01-35 34c-46 38-104 75-127 75 113 119 233 116 301 56l9-9a113 113 0 0030-93l14 15 59-62-14-16 60-63zm42 213a85 85 0 10-85 85 85 85 0 0085-85zM725 811a85 85 0 10-85 85 85 85 0 0085-85zm-277-43a85 85 0 10-85 85 85 85 0 0085-85zm-43-469a85 85 0 10-85 85 85 85 0 0085-85zM277 555a85 85 0 10-85 85 85 85 0 0085-85z"/><path fill="#FF7D81" d="M747 640a85 85 0 10170 0 85 85 0 10-170 0z"/><path fill="#24F2DC" d="M555 811a85 85 0 10170 0 85 85 0 10-170 0z"/><path fill="#E4E4E4" d="M551 382a86 86 0 0120 1l89 93a113 113 0 01-30 93l-9 9-2-2a68 68 0 00-50-21 238 238 0 01-55-6 71 71 0 01-34-24 38 38 0 01-6-13 59 59 0 01-1-17 65 65 0 00-4-29 31 31 0 00-21-18l-1-1a392 392 0 0035-34 100 100 0 0169-31z"/><path fill="#FCFCFC" d="M639 310l-9 10-15-15-59 62 15 16a86 86 0 00-20-1c-13-10-60-46-60-82 0-63 44-97 85-84 50 17 61 71 63 94z"/><path fill="#00A6FF" d="M619 576l2 2c-68 60-188 63-301-56 23 0 81-37 127-75l1 1a31 31 0 0121 18 65 65 0 014 29 59 59 0 001 17 38 38 0 006 13 71 71 0 0034 24 238 238 0 0055 6 68 68 0 0150 21z"/><path fill="#3AD6FF" d="M277 768a85 85 0 10171 0 85 85 0 10-171 0z"/><path fill="#9D87E0" d="M235 299a85 85 0 10170 0 85 85 0 10-170 0z"/><path fill="#FFD747" d="M107 555a85 85 0 10170 0 85 85 0 10-170 0z"/><path fill="#FF475A" d="M832 683a85 85 0 01-82-64 85 85 0 10164 0 85 85 0 01-82 64z"/><path fill="#FFB13B" d="M896 105a60 60 0 0188 0 64 64 0 0111 14 68 68 0 008-32 67 67 0 00-19-46 60 60 0 00-88 0L687 260l-48 50-9 10 30 32 27-28z"/><path fill="#ADADAD" d="M719 414l14 15-59 63-14-16a113 113 0 01-30 93l-9 10a162 162 0 01-12 9l-4 3a148 148 0 01-9 6l-5 2-10 5-5 2a160 160 0 01-13 5l-8 2a145 145 0 01-17 4l-5 1-11 1h-1a189 189 0 01-44-3h-1a242 242 0 01-80-31 137 137 0 01-55 23c113 119 234 116 301 56l9-9a113 113 0 0030-93l15 15 59-62-15-16 60-63 37-39-58-47z"/><path fill="#F0F0F0" d="M469 466a65 65 0 014 29 59 59 0 001 17 38 38 0 006 13 70 70 0 0017 15l35-29a392 392 0 0036-34 100 100 0 0163-31l-60-63a86 86 0 00-20-1 100 100 0 00-69 31 392 392 0 01-35 34l1 1a31 31 0 0121 18z"/><path fill="#3AD6FF" d="M480 525a38 38 0 01-6-13 59 59 0 01-1-17 65 65 0 00-4-29 31 31 0 00-21-18l-1-1c-46 38-104 75-127 75a342 342 0 0096 73 374 374 0 0081-55 70 70 0 01-17-15z"/><path fill="#C1C1C1" d="M832 533a107 107 0 10107 107 107 107 0 00-107-107zm0 192a85 85 0 1185-85 85 85 0 01-85 85zm-192-21a107 107 0 10107 107 107 107 0 00-107-107zm0 192a85 85 0 1185-85 85 85 0 01-85 85zM363 661a107 107 0 10106 107 107 107 0 00-106-107zm0 192a85 85 0 1185-85 85 85 0 01-85 85zM192 448a107 107 0 10107 107 107 107 0 00-107-107zm0 192a85 85 0 1185-85 85 85 0 01-85 85zm128-448a107 107 0 10107 107 107 107 0 00-107-107zm0 192a85 85 0 1185-85 85 85 0 01-85 85z"/><path fill="#3AD6FF" d="M733 429l-14-16-89-93-15-15-26 28 121 121 23-25z"/><path fill="#00C7B1" d="M640 853a85 85 0 01-82-64 85 85 0 10164 0 85 85 0 01-82 64z"/><path fill="#00A6FF" d="M363 811a85 85 0 01-83-64 85 85 0 10165 0 85 85 0 01-82 64z"/><path fill="#FFBC36" d="M192 597a85 85 0 01-82-64 85 85 0 10164 0 85 85 0 01-82 64z"/><path fill="#725CB5" d="M320 341a85 85 0 01-82-64 85 85 0 10164 0 85 85 0 01-82 64z"/><path fill="#F6FAFD" d="M564 168a49 35 45 1049-50 49 35 45 10-49 50zM469 134a24 18 45 1025-25 24 18 45 10-25 25zM533 433a24 18 45 1025-25 24 18 45 10-25 25zM342 288a12 9 45 1013-12 12 9 45 10-13 12zM214 544a12 9 45 1013-12 12 9 45 10-13 12zM385 757a12 9 45 1012-12 12 9 45 10-12 12zM662 800a12 9 45 1013-12 12 9 45 10-13 12zM854 629a12 9 45 1013-12 12 9 45 10-13 12z"/><path d="M600 290l-59 62a21 21 0 00-5 10 124 124 0 00-69 37 422 422 0 01-147 102 21 21 0 00-15 36c80 85 156 103 206 103a183 183 0 00134-56 132 132 0 0035-73 21 21 0 0010-5l59-62a21 21 0 000-30h-1l252-265a90 90 0 000-123 82 82 0 00-120 0l-22 23 31 30 22-24a40 40 0 0158 0 47 47 0 010 64L719 383l-60-63 189-199-30-29-188 197a22 22 0 00-30 1zM360 531a513 513 0 0088-58 12 12 0 012 2 51 51 0 012 21 69 69 0 001 21 57 57 0 0010 20 92 92 0 0045 32 160 160 0 0045 6l15 1a93 93 0 0115 3 146 146 0 01-72 18c-36 0-90-12-151-66zm259 17a101 101 0 00-48-14l-16-1a124 124 0 01-34-4 49 49 0 01-24-17 17 17 0 01-2-5 39 39 0 01-1-9l1-2a86 86 0 00-6-38 55 55 0 00-8-13l17-17a80 80 0 0163-25l78 82a91 91 0 01-20 63zm55-88l-88-93 29-31 89 93z"/><path d="M512 43c82 0 149 48 149 106v22h43v-22C704 67 618 0 512 0A502 502 0 0074 267l37 21A460 460 0 01512 43zM91 329l-39-18a622 622 0 00-18 45l40 14 17-41zm796 80l-24 35a270 270 0 01118 217c0 177-191 320-426 320-283 0-512-191-512-426a557 557 0 0118-144l-41-11A601 601 0 000 555c0 258 249 469 555 469 258 0 469-163 469-363a309 309 0 00-137-252z"/><path d="M808 401l27-34 32 26-27 33zm24 346a107 107 0 10-107-107 107 107 0 00107 107zm0-171a64 64 0 11-64 64 64 64 0 0164-64zM363 875a107 107 0 10-107-107 107 107 0 00107 107zm0-171a64 64 0 11-64 64 64 64 0 0164-64zm277 0a107 107 0 10107 107 107 107 0 00-107-107zm0 171a64 64 0 1164-64 64 64 0 01-64 64zM85 555a107 107 0 10107-107A107 107 0 0085 555zm171 0a64 64 0 11-64-64 64 64 0 0164 64zm171-256a107 107 0 10-107 106 107 107 0 00107-106zm-171 0a64 64 0 1164 64 64 64 0 01-64-64zm280-57a36 36 0 0133-6 61 61 0 0135 30l38-20a103 103 0 00-59-50 79 79 0 00-72 12 111 111 0 00-42 92 90 90 0 0022 54l34-26a51 51 0 01-13-28 70 70 0 0124-58z"/></svg>