<svg xmlns="http://www.w3.org/2000/svg" width="128" height="128" class="icon" viewBox="0 0 1024 1024"><defs/><path fill="#EAF6FF" d="M775 193v806a25 25 0 01-25 25H102a25 25 0 01-25-25V25a25 25 0 0125-25h481l192 193z"/><path fill="#D9ECFD" d="M775 531v291l-58 72a26 26 0 01-24 10l-34 20a43 43 0 01-26 6c-13-1-30 1-47 4a26 26 0 01-22-5l-5-5a26 26 0 01-9-20c0-21-1-43-7-55a10 10 0 010-8l18-47a26 26 0 015-26l209-237z"/><path fill="#D9ECFD" d="M775 193v806a25 25 0 01-25 25h-80a25 25 0 0025-25V113l80 80z"/><path fill="#B5DBFD" d="M583 167V0l192 193H608a25 25 0 01-25-26z"/><path fill="#B3D5F2" d="M451 901H294a15 15 0 010-31h157a15 15 0 010 31zm-213 0h-43a15 15 0 010-31h43a15 15 0 010 31zm104-57H195a15 15 0 010-31h147a15 15 0 010 31z"/><path fill="#1577FF" d="M195 581l104-61c3-1 6-2 9 0l85 33c4 2 9 1 12-2l66-74a10 10 0 0114-1l27 22a10 10 0 0014-1l99-118c6-7 18-3 18 7v330H195V581z"/><path fill="#0050BF" d="M583 429v287h60V386c0-10-12-14-18-7l-42 50zm-280 38a15 15 0 01-15-16v-12a15 15 0 0131 0v12c0 9-7 16-16 16zm175-50a15 15 0 01-16-15v-13a15 15 0 0131 0v13c0 8-7 15-15 15zm165-106a15 15 0 01-15-15v-13a15 15 0 0131 0v13c0 8-7 15-16 15z"/><path fill="#0050BF" d="M670 700h-91v-16a15 15 0 00-31 0v16h-64v-16a15 15 0 00-31 0v16h-64v-16a15 15 0 00-31 0v16h-64v-16a15 15 0 00-31 0v16h-52V396a15 15 0 00-31 0v320a15 15 0 0015 15h475a15 15 0 100-31z"/><path fill="#B5DBFD" d="M522 915a15 15 0 01-12-26l38-44a15 15 0 1123 20l-37 44a15 15 0 01-12 6z"/><path fill="#9FC7FF" d="M537 744l-20 55v7c5 13 7 34 6 55a26 26 0 009 21l6 4a26 26 0 0022 6c20-5 41-7 55-4 2 1 5 1 7-1l50-30-135-113z"/><path fill="#559CFF" d="M672 857l-50 30a10 10 0 01-7 1c-14-3-35-1-55 4a26 26 0 01-22-6l-6-4a26 26 0 01-9-21v-5c19-3 38-5 50-2l8-1 50-30 41 34z"/><path fill="#EAF6FF" d="M654 855l-112-93a26 26 0 01-2-37l244-277a26 26 0 0136-3l98 82a26 26 0 013 36L691 852a26 26 0 01-37 3z"/><path fill="#B5DBFD" d="M691 852a26 26 0 01-37 3l-59-49a26 26 0 0037-4l230-289a26 26 0 00-3-35l59 49a26 26 0 013 36L691 852z"/><path fill="#23F1A8" d="M179 210a115 115 0 10230 0 115 115 0 10-230 0z"/><path fill="#26D192" d="M409 210a115 115 0 01-150 110 110 110 0 000-220 115 115 0 0135-6c64 0 115 52 115 116z"/><path fill="#1EC480" d="M342 235a40 40 0 00-41-40h-14a9 9 0 010-18h14c4 0 6 1 8 4a15 15 0 0026-17 40 40 0 00-26-17v-4a15 15 0 00-30 0v4a40 40 0 00-33 39 40 40 0 0041 40h14a9 9 0 010 18h-14a9 9 0 01-9-5 15 15 0 10-28 12 40 40 0 0029 23v2a15 15 0 0030 0v-2a40 40 0 0033-39z"/><path fill="#B3D5F2" d="M498 192h-34a15 15 0 010-31h34a15 15 0 110 31zm42 53h-76a15 15 0 010-31h76a15 15 0 110 31z"/></svg>