<svg xmlns="http://www.w3.org/2000/svg" width="128" height="128" class="icon" viewBox="0 0 1024 1024"><defs/><path fill="#FB813A" d="M763 71c-16-12-39-8-51 8L505 366 296 79a36 36 0 00-58 42l223 308c-4 14 1 30 13 39 9 6 20 8 30 5 10 3 21 1 30-5 13-9 18-25 13-39l224-308c11-16 8-38-8-50z"/><path fill="#FDDE80" d="M862 182H162c-34 0-61 27-61 61v656c0 33 28 61 61 61h700c34 0 61-28 61-61V243c0-34-28-61-61-61z"/><path fill="#FFF" d="M781 863H243c-22 0-39-17-39-39V425c0-21 17-39 39-39h538c22 0 39 18 39 39v399c0 22-17 39-39 39z"/><path fill="#FB813A" d="M399 480H297c-5 0-9 5-9 10v102c0 5 4 9 9 9h102c5 0 9-4 9-9V490c0-6-4-10-9-10zm164 0H461c-5 0-9 5-9 10v102c0 5 4 9 9 9h102c5 0 9-4 9-9V490c0-6-4-10-9-10zm164 0H625c-5 0-9 5-9 10v102c0 5 4 9 9 9h102c5 0 10-4 10-9V490c-1-5-5-10-10-10zM399 666H297c-5 0-9 4-9 9v102c0 5 4 9 9 9h102c5 0 9-4 9-9V675c0-5-4-9-9-9zm164 0H461c-5 0-9 4-9 9v102c0 5 4 9 9 9h102c5 0 9-4 9-9V675c0-5-4-9-9-9z"/><path fill="#9289F0" d="M625 787h102c5 0 10-5 10-10V675c0-5-5-9-10-9H625c-5 0-9 4-9 9v102c0 5 4 10 9 10z"/></svg>