<svg xmlns="http://www.w3.org/2000/svg" width="128" height="128" class="icon" viewBox="0 0 1024 1024"><defs/><path fill="#FF5F5F" d="M754 152H274c-78 0-142 64-142 143v312c0 78 64 142 142 142h57a15 15 0 0114 15v118c0 13 16 20 26 10l139-139c2-2 6-4 10-4h234c78 0 142-64 142-142V295c0-79-64-143-142-143z"/><path fill="#424242" d="M360 912l-11-2a30 30 0 01-19-28V765h-56c-87 0-158-71-158-158V295c0-87 71-158 158-158h480c87 0 158 71 158 158v312c0 87-71 158-158 158H520L382 903a30 30 0 01-22 9zm-86-745c-70 0-127 57-127 128v312c0 70 57 127 127 127h57c16 0 30 13 30 30v117l138-138a30 30 0 0121-9h234c70 0 127-57 127-127V295c0-71-57-128-127-128H274z"/><path fill="#FFF" d="M681 376H290a15 15 0 110-31h391a15 15 0 110 31zM517 525H290a15 15 0 110-31h227a15 15 0 110 31z"/></svg>