<svg xmlns="http://www.w3.org/2000/svg" width="128" height="128" class="icon" viewBox="0 0 1024 1024"><defs/><path fill="#263238" d="M480 520H350a8 8 0 01-3-15 56 56 0 0029-49 56 56 0 00-112 0c0 20 11 39 29 49a8 8 0 01-3 15H128a8 8 0 01-8-8V168c0-26 22-48 48-48h312a8 8 0 010 16H168c-18 0-32 14-32 32v336h131a71 71 0 01-19-48 72 72 0 01144 0 71 71 0 01-19 48h107a8 8 0 010 16z"/><path fill="#40C4FF" d="M128 544v312a40 40 0 0040 40h344V734a64 64 0 01-56 34 64 64 0 010-128c24 0 45 14 56 34V544"/><path fill="#FF5252" d="M544 896h312a40 40 0 0040-40V512H734c20 11 34 32 34 56a64 64 0 01-128 0c0-24 14-45 34-56H544"/><path fill="#FFD740" d="M896 480V168a40 40 0 00-40-40H512v162c11-20 32-34 56-34a64 64 0 010 128c-24 0-45-14-56-34v130"/><path fill="#263238" d="M512 904H168c-26 0-48-22-48-48V544a8 8 0 0116 0v312c0 18 14 32 32 32h336V757a71 71 0 01-48 19 72 72 0 010-144c18 0 35 7 48 19V544a8 8 0 0116 0v130a8 8 0 01-15 3 56 56 0 00-49-29 56 56 0 000 112 56 56 0 0049-29 8 8 0 0115 3v162a8 8 0 01-8 8zm344 0H544a8 8 0 010-16h312c18 0 32-14 32-32V520H757a71 71 0 0119 48 72 72 0 01-144 0c0-18 7-35 19-48H544a8 8 0 010-16h130a8 8 0 013 15 56 56 0 00-29 49 56 56 0 00112 0 56 56 0 00-29-49 8 8 0 013-15h162a8 8 0 018 8v344c0 26-22 48-48 48zm40-416a8 8 0 01-8-8V168c0-18-14-32-32-32H520v131a71 71 0 0148-19 72 72 0 010 144 71 71 0 01-48-19v107a8 8 0 01-16 0V350a8 8 0 0115-3 56 56 0 0049 29 56 56 0 000-112 56 56 0 00-49 29 8 8 0 01-15-3V128a8 8 0 018-8h344c26 0 48 22 48 48v312a8 8 0 01-8 8zM856 72h-32a8 8 0 010-16h32a8 8 0 010 16zm-64 0H552a8 8 0 010-16h240a8 8 0 010 16zM200 968h-32a8 8 0 010-16h32a8 8 0 010 16zm272 0H232a8 8 0 010-16h240a8 8 0 010 16z"/><path fill="#263238" d="M848 264a8 8 0 01-8-8v-64a8 8 0 00-8-8h-64a8 8 0 010-16h64c13 0 24 11 24 24v64a8 8 0 01-8 8z"/></svg>