<svg xmlns="http://www.w3.org/2000/svg" width="128" height="128" class="icon" viewBox="0 0 1024 1024"><defs/><path fill="#263FEC" d="M455 465H92c-5 0-9-4-9-9V94c0-5 4-9 9-9h363c4 0 8 4 8 9v362c0 5-4 9-8 9z"/><path fill="#3FABFB" d="M379 385V165c0-44-36-80-80-80H163c-44 0-80 36-80 80v220c0 44 36 80 80 80h136c44 0 80-36 80-80z"/><path fill="#2784FA" d="M379 250v-85c0-44-36-80-80-80H163c-44 0-80 36-80 80v85h296z"/><path fill="#C0E3F4" d="M184 293v-36c0-1 1-2 3-2h173l2 2v36l-2 2H187c-2 0-3-1-3-2z"/><path fill="#C0E3F4" d="M291 364h-36l-2-2V188l2-2h36c2 0 2 1 2 2v174c0 1 0 2-2 2z"/><path fill="#263FEC" d="M942 949H579c-5 0-9-4-9-8V578c0-5 4-9 9-9h363c4 0 8 4 8 9v363c0 4-4 8-8 8z"/><path fill="#3FABFB" d="M866 869V649c0-44-36-80-80-80H650c-44 0-80 36-80 80v220c0 44 36 80 80 80h136c44 0 80-36 80-80z"/><path fill="#2784FA" d="M866 734v-85c0-44-36-80-80-80H650c-44 0-80 36-80 80v85h296z"/><path fill="#C0E3F4" d="M672 738v-36l2-2h173l2 2v36l-2 2H674l-2-2zm177 43v36l-2 2H674l-2-2v-36c0-2 1-3 2-3h173l2 2z"/><path fill="#E74B26" d="M455 949H92c-5 0-9-4-9-8V578c0-5 4-9 9-9h363c4 0 8 4 8 9v363c0 4-4 8-8 8z"/><path fill="#FB6F22" d="M379 869V649c0-44-36-80-80-80H163c-44 0-80 36-80 80v220c0 44 36 80 80 80h136c44 0 80-36 80-80z"/><path fill="#FE5E21" d="M379 734v-85c0-44-36-80-80-80H163c-44 0-80 36-80 80v85h296z"/><path fill="#FFF3E1" d="M198 709l25-25h3l123 122v3l-26 26h-3L198 712v-3z"/><path fill="#FFF3E1" d="M223 835l-25-26v-3l122-122h3l26 25v3L226 835h-3z"/><path fill="#E88C1B" d="M942 465H579c-5 0-9-4-9-9V94c0-5 4-9 9-9h363c4 0 8 4 8 9v362c0 5-4 9-8 9z"/><path fill="#FADE2F" d="M866 385V165c0-44-36-80-80-80H650c-44 0-80 36-80 80v220c0 44 36 80 80 80h136c44 0 80-36 80-80z"/><path fill="#FBC831" d="M866 250v-85c0-44-36-80-80-80H650c-44 0-80 36-80 80v85h296z"/><path fill="#FFF3E1" d="M672 293v-36l2-2h173l2 2v36l-2 2H674l-2-2z"/></svg>