<svg xmlns="http://www.w3.org/2000/svg" width="128" height="128" class="icon" viewBox="0 0 1024 1024"><defs/><path fill="#4DAB6D" d="M514 667c-25-215-32-423 53-625l21 71c18 56 28 113 28 173 4 46-14 92-42 127-7 7-18 14-28 18-11 3-15 7-11 17l11 159 10 92c4 28 11 57 18 85 17-14 25-39 17-60-21-57-17-120 11-177 21-35 53-63 92-77 25-11 49-18 74-25 32-4 60-7 92-7 42 0 88 3 134 7-11 18-21 32-28 46-21 32-36 70-46 109-4 39-18 74-32 106-25 39-67 67-116 71-22 3-46 3-71 7-7 0-14 0-21-4l-18-21c7-3 14-14 21-14 25-3 50 0 74-3 50-4 92-36 106-85l29-103c3-24 14-49 31-67 4-3 4-7 4-10-46-4-88-4-134 0-57 3-110 28-149 67a151 151 0 00-28 148l14-14c43-64 99-117 163-155 10-7 21-11 28-18 11-7 25-4 32 7s0 25-11 32c-46 24-88 53-123 88h28c10 0 21 0 32 4 17 3 24 10 21 28-4 17-18 10-28 10-15 0-32-3-46 0-36 4-67 25-85 60-7 15-18 29-28 43-11 17-18 35-25 53-4 14-4 32 0 46 7 31 18 67 28 99 4 10 4 21-7 24-14 4-21-3-25-17-10-36-17-67-28-103-10-35-21-74-25-109-3-46-38-71-70-96-53-42-110-74-173-102a548 548 0 00-244-56c-21 0-28-11-18-29 29-46 71-81 121-102 60-25 130-7 173 39 17 17 35 39 53 56 10 11 24 21 35 28 35 29 60 68 63 110 11 18 22 39 43 49zM189 487v4c92 25 176 67 254 120-10-43-39-81-81-99-21-11-50-18-74-18-32-3-67-3-99-7zm339-92c3 0 3 4 7 4 11-7 18-18 25-28a330 330 0 004-219c-26 81-36 162-36 243zm-212 61c-28-36-74-53-116-53-43 3-82 28-106 60 70-11 148-15 222-7z"/><path fill="#4DAB6D" d="M602 1006c-3 0-7 0-11-3-7-4-10-11-14-21l-10-43c-7-21-11-42-18-60-11-35-21-74-25-113-3-42-31-63-60-85l-7-7c-53-38-109-70-169-98a602 602 0 00-240-57c-18 0-25-7-29-14-3-7-3-14 4-28 28-46 71-85 124-106 63-25 137-11 183 39 11 10 21 21 28 31 7 7 15 18 25 25 11 11 21 18 35 28 39 29 64 71 68 117 0 14 3 25 14 35-22-198-29-409 53-607l10-21 7 24 21 71c22 56 29 117 29 177 3 45-14 95-46 130a83 83 0 01-32 21c-7 4-7 4-7 7 0 22 3 39 3 60 4 32 4 68 8 99l10 92 11 53c0 4 0 7 3 11 7-11 11-25 7-39-21-60-17-127 14-180 22-36 57-67 99-81 25-11 50-18 74-25 32-7 64-7 96-7s63 3 95 3c14 0 25 0 39 4h14l-7 10c-3 8-7 11-11 18-7 11-14 21-17 32-21 32-36 67-43 106-3 39-17 74-35 109-28 43-71 71-123 78-22 3-39 3-60 7h-11c-7 0-18 0-25-4h-3c-7-7-14-14-18-24l-4-7 8-4c3 0 3-3 7-3 7-4 10-11 17-11h32c14 0 28 0 42-3 46-4 89-36 99-78 7-32 18-60 25-92l4-11c3-24 14-49 31-70H796c-53 3-106 25-145 63-14 14-24 36-28 57-3 21-7 46 0 67v-4c43-63 99-116 166-158 11-8 21-11 32-18 14-7 32-4 42 7v3c7 18 0 36-17 43h-4c-39 17-74 42-106 74h7c11 0 21 0 36 4s21 7 24 14c4 7 4 14 4 24-4 22-21 18-32 18h-7c-14 0-32-4-46 0-32 4-63 25-78 53l-14 25-10 21c-11 18-18 35-25 53-4 14-4 28 0 42 4 21 11 43 18 64l10 35c4 7 7 28-14 35-3-7-3-7-7-7zM210 378c-18 0-39 3-56 10-50 22-89 53-117 99-3 7-3 11-3 11s3 3 14 3a575 575 0 01247 57c60 28 120 63 173 102l7 7c28 25 60 50 67 96 7 35 14 74 25 109 7 21 10 43 17 64l11 42c0 7 4 11 7 11h7c4 0 7-4 4-14l-11-36c-7-21-14-42-18-63-3-18-3-36 0-50a282 282 0 0143-77c3-7 10-15 14-22 18-35 53-60 92-63h53c10 0 10 0 14-4v-10c0-4-7-4-14-7-11 0-22-4-32-4h-50l15-14c35-35 77-67 127-92 10-3 14-10 10-21-3-7-14-7-21-4-11 8-21 11-28 18-64 39-120 92-163 152-3 7-10 11-14 14l-10 11-4-14c-10-32-10-64-3-92 7-25 17-46 35-64 42-42 95-63 155-67 46-3 92-3 134 0h11l-3 11c0 3-4 10-8 14-14 21-24 42-28 67l-3 10c-7 32-18 61-25 92-14 53-60 89-113 92-14 4-28 4-42 4h-32c-4 0-7 3-11 7l11 10c3 4 7 4 14 4h11c17 0 38-4 56-7 46-4 85-32 110-67 17-32 28-67 31-103 7-39 25-77 46-113 7-10 14-21 18-31l3-4h-24c-32-4-64-4-96-4-28 0-60 4-91 8-25 7-50 14-71 24-39 14-71 39-88 74-29 53-32 113-11 170 7 25-3 53-21 70l-11 11-3-14c-4-11-4-18-7-28l-11-57-11-92c-3-31-3-67-7-98 0-22-3-39-3-60 0-15 3-22 18-25 10-4 17-11 24-18 29-32 43-74 43-120 0-60-7-116-25-169-4-15-11-32-14-46-74 197-64 406-43 600l-21-7-3 7a73 73 0 01-36-60c-3-42-28-78-60-102-14-8-24-18-38-29l-25-24c-11-11-18-22-28-32-29-36-68-53-110-53zm247 254l-17-14c-78-53-163-92-255-117l-7-3 4-21 10 3 32 4 67 3c29 4 53 7 78 21 42 18 74 57 85 103l3 21zM238 498c67 21 131 53 187 92-14-32-38-57-70-71-21-11-46-18-71-18-14 0-28 0-46-3zM72 477l15-18c24-35 67-60 109-64 46-3 92 18 124 53h14l-22 22-3-4c-71-7-145-3-215 11H72zm131-64h-7c-32 4-60 18-85 39 60-11 120-11 177-7-18-21-50-32-85-32zm332 0l-14-10v-4c0-81 14-166 35-244l7-28 7 25c18 49 21 106 14 159-3 21-10 46-17 63-7 14-18 21-29 32l-3 7zm28-226c-17 67-25 131-28 198 3-4 11-11 14-18 7-17 14-39 18-60 7-39 3-81-4-120z"/></svg>