<svg xmlns="http://www.w3.org/2000/svg" width="128" height="128" class="icon" viewBox="0 0 1024 1024"><defs/><path fill="#FFA43E" d="M962 438h-64c-12-61-38-118-74-166a446 446 0 01-473 599 392 392 0 00547-286h64c11 0 20-8 20-19V458c0-11-9-20-20-20z"/><path fill="#FFD14F" d="M851 426c0-54-10-105-27-153a392 392 0 00-698 166H62c-11 0-20 8-20 19v108c0 11 9 20 20 20h64a394 394 0 00225 285 449 449 0 00500-445z"/><path fill="#E01E22" d="M174 512a338 338 0 10676 0 338 338 0 10-676 0z"/><path fill="#F06661" d="M617 525l-3-5-131-130c-27-28-82 27-55 55l131 130c18 18 48 1 58-21"/><path fill="#F06661" d="M592 617c0-6-2-12-7-17L454 469c-27-27-82 28-55 55l93 93"/><path fill="#E01E22" d="M430 446c14 15 58-29 43-43-14-14-46 18-31 32m-41 91c15 15 58-29 44-43-15-14-46 17-32 32"/><path fill="#FFCACA" d="M498 404c12 12 7 68-17 92l-12-12c12 12 7 69-18 92l19 19c25-30 29-72 23-86l6 6c28-33 29-81 20-89l-21-22zm73 73l-22-21c12 11 7 68-17 91l-12-11c11 10 8 54-9 81h27c10-23 10-47 6-57l6 7c28-34 29-81 21-90z"/><path fill="#FFD14F" d="M574 282l-69-24a27 27 0 00-36 33 27 27 0 00-3 53l69 24a27 27 0 0036-33 28 28 0 003-53z"/><path fill="#68E077" d="M539 659l-22 22c-10-2-21 1-29 9a32 32 0 00-9 28l-22 22 27 27 22-22c10 1 20-2 28-9 8-8 11-19 9-29l22-22-26-26z"/><path fill="#FFD14F" d="M662 692a24 24 0 1049 0 24 24 0 10-49 0z"/><path fill="#F06661" d="M693 287l40 17c8 4 11 13 8 21l-17 40c-4 8-13 12-21 8l-40-17c-8-3-12-13-8-21l17-40c3-8 12-12 21-8z"/><path fill="#FFF" d="M688 528l-19-36 102-55 25 46-25 13"/><path fill="#FFF" d="M664 541l102-55 25 46-102 55z"/><path fill="#FFD14F" d="M304 542a36 36 0 1073 0 36 36 0 10-73 0zM203 535a36 36 0 1073 0 36 36 0 10-73 0zM345 506a36 36 0 10-29 9"/><path fill="#E01E22" d="M310 311l34-10c7-2 14 2 16 8l10 35c3 7-1 14-8 16l-35 10c-6 2-14-2-16-8l-10-35c-2-7 2-14 9-16z"/><path fill="#FFF" d="M303 672l47 16c10 4 16 14 12 24-3 10-14 16-24 12l-48-16c-10-4-15-15-12-24 4-10 15-16 25-12z"/><path d="M992 458v108c0 16-13 30-30 30h-55a404 404 0 01-789 0H62c-17 0-30-14-30-30V458c0-16 13-30 30-30h55a403 403 0 01644-233c4 3 5 9 2 14-4 4-10 5-15 2a383 383 0 00-612 230c-1 4-6 8-11 8H62c-6 0-10 4-10 9v108c0 5 4 9 10 9h63c5 0 10 3 11 8a383 383 0 00752 1c1-6 6-9 11-9h63c6 0 10-4 10-9V458c0-5-4-9-10-9h-63c-5 0-10-4-11-9-14-72-48-139-99-193a10 10 0 1114-14c53 55 88 122 104 195h55c17 0 30 14 30 30zM758 266a346 346 0 010 492 346 346 0 01-492 0 346 346 0 010-492 346 346 0 01492 0zm82 246a328 328 0 10-657 1 328 328 0 00657-1zM628 396h162c6 0 11 5 11 11s-5 10-11 10H628v190h162c6 0 11 5 11 10s-5 11-11 11H628v162c0 6-5 11-11 11s-10-5-10-11V628H417v162c0 6-5 11-10 11s-11-5-11-11V628H234c-6 0-11-5-11-11s5-10 11-10h162v-71l-4-4c-17-18-11-43 4-60v-55H234c-6 0-11-5-11-10s5-11 11-11h162V234c0-6 5-11 11-11s10 5 10 11v162h4c9-11 21-19 33-23 14-4 27 0 36 9l14 14h103V234c0-6 5-11 10-11s11 5 11 11v162zm-21 132l-1-1-27-27a119 119 0 01-19 61l10 10h1c12 5 29-7 36-20v-23zm-69 79c4-14 5-26 4-35l-11-12a120 120 0 01-10 47h17zm-26 0c9-18 11-41 10-56l-23-22a119 119 0 01-20 61l17 17h16zm-95-151l6-2-2-2-4-5v9zm19 62c-5 5-11 10-16 12l35 36a107 107 0 0015-66l-23-23c-11-11-27-1-34 6s-17 23-6 34l6 7h2c5-2 10-6 16-12 5-5 9-11 11-16 1-3 2-8 0-10-3-3-6-3-10-2-8 2-16 10-18 18-1 4-1 7 2 10v6h-6c-4-5-6-11-4-18 3-11 13-21 24-24 7-2 13-1 17 4 10 9 2 26-11 38zm72-88c0 20-6 44-18 61l13 12c14-22 18-47 17-62l-12-12v1zm-47 141l12 13c15-23 19-49 18-64l-12-11v1c0 20-6 45-18 61zm85 36h32l-27-27c-1 8-2 18-5 27zm13-127v2c0 19-6 43-18 60l13 13c14-23 18-48 17-63l-12-12zm-31-31a119 119 0 01-19 60l27 27a108 108 0 0015-64l-23-23zm-96-28c-2 7-1 12 4 16l6 7h1c6-2 11-6 17-11 10-11 15-23 11-27-5-5-15-1-21 5s-10 16-5 21v6c-1 2-4 1-6 0-9-10-4-24 5-33s23-14 32-5c10 10 2 26-11 38-5 6-11 10-16 13l6 6 7 5 22 23a108 108 0 0015-65l-6-6-17-17c-4-4-10-6-17-4-12 3-24 16-27 28zm-15 186h51l-51-51v51zm190 0v-25a62 62 0 01-17 9l2 2c4 4 7 9 9 14h6zm0-190h-82l82 82v-82zM340 589zm-100-7a47 47 0 010-93 47 47 0 010 93zm0-20a26 26 0 000-53 26 26 0 000 53zm481 130a35 35 0 11-69 0 35 35 0 0169 0zm-20 0a14 14 0 00-29 0 14 14 0 0029 0zM367 479c0 8-2 15-6 22a47 47 0 11-62 19 47 47 0 0121-88c26 0 47 21 47 47zm-73 0c0 12 8 22 19 25 8-5 17-8 27-8 4-5 7-11 7-17a26 26 0 00-53 0zm73 63a26 26 0 00-53 0 26 26 0 0053 0zm-76-212c-4-12 3-25 16-29l34-10c12-4 25 3 29 15l10 35c4 12-3 25-15 29l-35 10-6 1c-10 0-19-6-22-16l-11-35zm20-6l10 35c1 1 2 2 4 1l34-10 2-3-11-35-2-2-1 1-34 10c-2 0-3 2-2 3zm426-29a26 26 0 0113 34l-17 40a26 26 0 01-34 14l-40-18a26 26 0 01-14-34l17-40a26 26 0 0135-13l40 17zm-6 22c0-2-1-3-3-4l-40-17h-4l-3 3-17 40v4l3 4 40 17c3 1 6 0 7-3l17-40v-4zm49 115l25 46 1 8c-1 3-3 5-5 6l-15 8 14 27c3 5 1 12-4 14l-102 55a10 10 0 01-14-4l-25-47c-3-5-1-11 4-13l15-9-14-27c-2-2-2-5-1-7 1-3 3-5 5-6l102-55c2-2 5-2 8-1s4 2 6 5zm-3 96l-14-26v-1h-1v-1l-84 45 15 29 84-46zm5-49l-16-29-84 46 10 18 69-37c2-2 5-2 8-1s5 2 6 5l1 1 6-3zm120 75v-84c0-2-2-4-4-4s-4 2-4 4v84c0 2 2 4 4 4s4-2 4-4zm-780-84v84c0 2 2 4 4 4s4-2 4-4v-84c0-2-2-4-4-4s-4 2-4 4zm250 246a29 29 0 01-37 18l-48-17a29 29 0 1119-55l48 17c15 5 23 22 18 37zm-25-18l-48-17h-3c-3 0-7 2-8 6-1 2 0 4 1 7 1 2 2 3 5 4l47 16c5 2 10 0 12-5 1-4-1-10-6-11zm94-364a37 37 0 0117-50l2-12c7-20 28-30 48-23l69 23c10 4 17 11 22 20a37 37 0 01-17 50 37 37 0 01-21 34 37 37 0 01-29 1l-69-23c-10-4-18-11-22-20zm39-42c2 4 6 7 10 8l69 24c5 2 9 1 13-1 5-2 8-5 9-10s1-9-1-13-5-7-10-8l-69-24c-9-3-19 2-22 10-1 5-1 10 1 14zm-21 33c2 4 6 8 10 9l69 24c5 1 9 1 14-1 4-2 7-6 8-10l1-2-8-1-70-24c-8-3-15-8-19-15a17 17 0 00-5 20zm114 353c4 4 4 10 0 14l-19 19c0 12-4 23-13 32s-20 13-31 12l-19 19c-2 2-5 3-8 3-2 0-5-1-7-3l-26-26c-4-4-4-11 0-15l19-19c-1-11 4-23 12-31s20-13 32-13l19-19c2-2 4-3 7-3s5 1 7 3l27 27zm-22 7l-12-12-15 15c-2 2-6 4-9 3a22 22 0 00-26 25c1 4 0 7-2 10l-15 15 11 11 15-15c3-2 6-3 9-2a22 22 0 0026-26c-1-3 1-7 3-9l15-15z"/></svg>