<svg xmlns="http://www.w3.org/2000/svg" width="128" height="128" class="icon" viewBox="0 0 1024 1024"><defs/><path fill="#30CD9C" d="M319 282a127 127 0 10-211 141l130 195-130 195a127 127 0 10212 138l70-105V389z"/><path fill="#70DCBA" d="M543 618l130-195a127 127 0 00-211-141l-72 107a411 411 0 000 457l71 105c38 58 117 76 175 38 59-38 76-118 37-176z"/><path fill="#FF8E9E" d="M220 528a50 39 0 10100 0 50 39 0 10-100 0zM461 528a50 39 0 1099 0 50 39 0 10-99 0zM875 220A334 334 0 00675 27H558v200h177l60 49c39 37 101-6 80-56z"/><path fill="#EA5B70" d="M597 15c-87 0-174 87-174 212h135c0-30 6-59 16-84 19-54 55-96 101-116-27-8-56-12-78-12z"/><path fill="#D4D4FF" d="M789 352a91 91 0 10115-140 91 91 0 10-115 140z"/><path fill="#EFEDFF" d="M802 305a288 288 0 00-225-172l-66 41v82l65 41c34 10 64 36 79 71a80 80 0 00147-63z"/><path fill="#D4D4FF" d="M577 133c-42-5-85-2-128 12a80 80 0 0049 152c27-9 53-8 78 0-43-46-42-119 1-164z"/><path d="M872 179c-9-16-19-32-30-47a15 15 0 00-21-3 15 15 0 00-3 21 352 352 0 0118 27c-23 2-44 12-61 27-12-54-45-98-47-100a15 15 0 00-21-3c-6 5-8 14-3 21 1 0 25 33 38 73-73-66-178-96-281-69 29-58 82-96 136-96 65 0 130 28 183 77a15 15 0 1021-21C742 30 670 0 597 0c-37 0-75 14-106 40-32 26-55 61-69 101a95 95 0 00-43 80 95 95 0 0050 84l-39 57-59-88A142 142 0 1096 431l124 187-55 82a15 15 0 005 21 15 15 0 0020-4l56-84h4a15 15 0 100-30h-4L121 414a112 112 0 11186-123l68 103v7a15 15 0 1030 0v-7l53-79a95 95 0 0045-4c56-18 115 9 138 63a95 95 0 0024 33L535 603h-4a15 15 0 100 30h4l125 188a111 111 0 11-187 122l-68-102v-7a15 15 0 10-30 0v7l-67 102a111 111 0 11-187-122l36-54a15 15 0 10-25-17l-36 54a141 141 0 10237 156l57-87 58 87a141 141 0 10237-155L561 617l129-195a95 95 0 0076 1c20-9 36-24 47-43 69 24 139-28 139-100a105 105 0 00-80-102zM754 396c-33 15-71-1-85-34a143 143 0 00-175-79 65 65 0 01-40-124c133-43 279 22 334 152 15 33-1 71-34 85zm68-43a94 94 0 00-6-54 304 304 0 00-33-58c41-64 139-35 139 40 0 52-51 89-100 72z"/><path d="M311 497v-24a15 15 0 10-30 0v24a15 15 0 1030 0zm174 15c9 0 15-7 15-15v-24a15 15 0 10-30 0v24c0 8 7 15 15 15zm-58-4a15 15 0 10-23-20c-7 8-20 8-27 0a15 15 0 00-23 20c19 22 54 22 73 0z"/></svg>