<svg xmlns="http://www.w3.org/2000/svg" width="200" height="200" class="icon" viewBox="0 0 1024 1024"><defs/><path fill="#8C50FF" d="M1024 512c5 318-194 517-512 512C194 1029-5 830 0 512-5 194 194-5 512 0c318-5 517 194 512 512z"/><path fill="#8C43FF" d="M1022 567c-15-227-170-366-408-362-254-4-413 155-409 409-4 238 135 393 361 408 269-16 440-187 456-455z"/><path fill="#8639FF" d="M1016 630c-30-138-140-223-299-220-191-3-310 116-307 307-3 159 82 269 220 299a444 444 0 00386-386z"/><path fill="#8233FF" d="M998 706c-33-59-96-93-179-92-127-2-207 78-205 205-1 83 33 146 92 179a431 431 0 00292-292z"/><path fill="#CEC0FF" d="M277 215h143q61 0 61 62v143q0 61-61 61H277q-62 0-62-61V277q0-62 62-62zM277 543h143q61 0 61 61v143q0 62-61 62H277q-62 0-62-62V604q0-61 62-61zM604 215h143q62 0 62 62v143q0 61-62 61H604q-61 0-61-61V277q0-62 61-62z"/><path fill="#FFF" d="M573 543q31 0 31 30v205q0 31-31 31-30 0-30-31V573q0-30 30-30zM676 604q31 0 31 31v143q0 31-31 31t-31-31V635q0-31 31-31zM778 543q31 0 31 30v205q0 31-31 31t-31-31V573q0-30 31-30z"/></svg>