<svg xmlns="http://www.w3.org/2000/svg" width="128" height="128" class="icon" viewBox="0 0 1024 1024"><defs/><path fill="#3CD38E" d="M420 121H195c-33 0-61 27-61 61v223c0 33 28 61 61 61h225c33 0 61-28 61-61V182c0-34-28-61-61-61z"/><path fill="#30CE77" d="M420 541H195c-33 0-61 27-61 61v222c0 34 28 61 61 61h225c33 0 61-27 61-61V602c0-34-28-61-61-61zm197-75h224c34 0 61-28 61-61V182c0-34-27-61-61-61H617c-34 0-61 27-61 61v223c0 33 27 61 61 61z"/><path fill="#05C46D" d="M600 537a45 45 0 00-45 45v276a45 45 0 0045 45 45 45 0 0045-45V582c0-25-20-45-45-45zm258 0a45 45 0 00-45 45v276a45 45 0 0045 45 45 45 0 0045-45V582c0-25-21-45-45-45zm-125 87a45 45 0 00-45 45v189a45 45 0 0045 45 45 45 0 0045-45V669a45 45 0 00-45-45z"/><path fill="#30CE77" d="M600 537a45 45 0 00-45 45v276c0 7 2 13 4 18a630 630 0 0086-47V582c0-25-20-45-45-45zm178 178v-46a45 45 0 00-45-45 45 45 0 00-45 45v130c32-25 63-53 90-84zm106-169a45 45 0 00-26-9 45 45 0 00-45 45v90c28-39 52-81 71-126z"/><path fill="#3CD38E" d="M134 602v104c128-1 247-40 347-106-1-33-28-59-61-59H195c-33 0-61 27-61 61zm483-481c-34 0-61 27-61 61v223c0 33 27 61 61 61h9c76-96 125-215 134-345H617z"/><path fill="#48E1AA" d="M481 225v-43c0-34-28-61-61-61H195c-33 0-61 27-61 61v223c0 20 10 38 26 49a632 632 0 00321-229z"/></svg>