<svg xmlns="http://www.w3.org/2000/svg" width="155" height="128" class="icon" viewBox="0 0 1240 1024"><defs/><path fill="#F6C343" d="M153 186h873q20 0 20 19v33q0 20-20 20H153q-19 0-19-20v-33q0-19 19-19z"/><path d="M1026 206v32H153v-32h873m0-39H153a39 39 0 00-39 39v32a39 39 0 0039 39h873a39 39 0 0039-39v-32a39 39 0 00-39-39z"/><path fill="#F6C343" d="M153 449h873q20 0 20 19v33q0 20-20 20H153q-19 0-19-20v-33q0-19 19-19z"/><path d="M1026 468v33H153v-33h873m0-38H153a39 39 0 00-39 38v33a39 39 0 0039 39h873a39 39 0 0039-39v-33a39 39 0 00-39-38z"/><path fill="#F6C343" d="M153 712h873q20 0 20 19v33q0 20-20 20H153q-19 0-19-20v-33q0-19 19-19z"/><path d="M1026 731v33H153v-33h873m0-38H153a39 39 0 00-39 38v33a39 39 0 0039 39h873a39 39 0 0039-39v-33a39 39 0 00-39-38z"/><path fill="#FFF" d="M61 19h62q41 0 41 42v848q0 41-41 41H61q-42 0-42-41V61q0-42 42-42z"/><path d="M123 39a22 22 0 0122 21v849a22 22 0 01-22 22H60a22 22 0 01-21-22V60a22 22 0 0121-21h63m0-39H60A61 61 0 000 60v849a61 61 0 0060 61h63a61 61 0 0061-61V60a61 61 0 00-61-60z"/><path fill="#FFF" d="M1051 19h63q41 0 41 42v848q0 41-41 41h-63q-41 0-41-41V61q0-42 41-42z"/><path d="M1114 39a22 22 0 0121 21v849a22 22 0 01-21 22h-63a22 22 0 01-22-22V60a22 22 0 0122-21h63m0-39h-63a61 61 0 00-61 60v849a61 61 0 0061 61h63a61 61 0 0060-61V60a61 61 0 00-60-60z"/><path fill="#F6C343" d="M1102 74h-40c-8 0-14 9-14 20v782c0 11 7 20 14 20h40c8 0 14-9 14-20V94c0-12-6-20-14-20zm-990 0H72c-8 0-14 9-14 20v782c0 11 6 20 14 20h40c8 0 14-9 14-20V94c0-12-6-20-14-20z"/><path fill="#E1E7EA" d="M553 104h32q36 0 36 36v163q0 36-36 36h-32q-36 0-36-36V140q0-36 36-36z"/><path d="M585 123a16 16 0 0117 17v163a16 16 0 01-17 16h-32a16 16 0 01-17-16V140a16 16 0 0117-17h32m0-38h-32a55 55 0 00-55 54v163a55 55 0 0055 55h32a55 55 0 0055-55V140a55 55 0 00-55-55z"/><path fill="#E1E7EA" d="M698 104h32q36 0 36 36v163q0 36-36 36h-32q-36 0-36-36V140q0-36 36-36z"/><path d="M730 123a16 16 0 0117 17v163a16 16 0 01-17 16h-32a16 16 0 01-16-16V140a16 16 0 0116-17h32m0-38h-32a55 55 0 00-55 54v163a55 55 0 0055 55h32a55 55 0 0055-55V140a55 55 0 00-55-55z"/><path fill="#E1E7EA" d="M340 367h33q36 0 36 36v163q0 36-36 36h-33q-36 0-36-36V403q0-36 36-36z"/><path d="M373 387a16 16 0 0116 16v163a16 16 0 01-16 17h-33a16 16 0 01-16-17V403a16 16 0 0116-16h33m0-39h-33a55 55 0 00-55 55v163a55 55 0 0055 55h33a55 55 0 0055-55V403a55 55 0 00-55-55z"/><path fill="#E1E7EA" d="M486 367h32q36 0 36 36v163q0 36-36 36h-32q-36 0-36-36V403q0-36 36-36z"/><path d="M518 387a16 16 0 0117 16v163a16 16 0 01-17 17h-32a16 16 0 01-17-17V403a16 16 0 0117-16h32m0-39h-32a55 55 0 00-55 55v163a55 55 0 0055 55h32a55 55 0 0055-55V403a55 55 0 00-55-55z"/><path fill="#E1E7EA" d="M631 367h32q36 0 36 36v163q0 36-36 36h-32q-36 0-36-36V403q0-36 36-36z"/><path d="M663 387a16 16 0 0117 16v163a16 16 0 01-17 17h-33a16 16 0 01-16-17V403a16 16 0 0116-16h33m0-39h-33a55 55 0 00-54 55v163a55 55 0 0054 55h33a55 55 0 0055-55V403a55 55 0 00-55-55z"/><path fill="#E1E7EA" d="M514 630h32q36 0 36 36v163q0 36-36 36h-32q-36 0-36-36V666q0-36 36-36z"/><path d="M546 650a16 16 0 0116 16v163a16 16 0 01-16 17h-33a16 16 0 01-16-17V666a16 16 0 0116-16h33m0-39h-33a55 55 0 00-54 55v163a55 55 0 0054 55h33a55 55 0 0055-55V666a55 55 0 00-55-55z"/><path fill="#E1E7EA" d="M659 630h32q36 0 36 36v163q0 36-36 36h-32q-36 0-36-36V666q0-36 36-36z"/><path d="M691 650a16 16 0 0117 16v163a16 16 0 01-17 17h-32a16 16 0 01-17-17V666a16 16 0 0117-16h32m0-39h-32a55 55 0 00-55 55v163a55 55 0 0055 55h32a55 55 0 0055-55V666a55 55 0 00-55-55z"/><path fill="#E1E7EA" d="M804 630h33q35 0 35 36v163q0 36-35 36h-33q-36 0-36-36V666q0-36 36-36z"/><path d="M836 650a16 16 0 0116 16v163a16 16 0 01-16 17h-32a16 16 0 01-16-17V666a16 16 0 0116-16h32m0-39h-32a55 55 0 00-55 55v163a55 55 0 0055 55h32a55 55 0 0055-55V666a55 55 0 00-55-55z"/></svg>