<svg xmlns="http://www.w3.org/2000/svg" width="128" height="128" class="icon" viewBox="0 0 1024 1024"><defs/><path fill="orange" d="M32 512a480 480 0 10960 0 480 480 0 10-960 0z"/><path fill="#FFE5B4" d="M128 320a192 192 0 10384 0 192 192 0 10-384 0z"/><path fill="orange" d="M192 208a16 16 0 1032 0 16 16 0 10-32 0zM352 336a16 16 0 1032 0 16 16 0 10-32 0zM192 368a16 16 0 1032 0 16 16 0 10-32 0zM288 304a16 16 0 1032 0 16 16 0 10-32 0z"/><path fill="#1F4690" d="M192 288a32 32 0 1064 0 32 32 0 10-64 0z"/><path fill="orange" d="M224 448a32 32 0 1064 0 32 32 0 10-64 0zM352 448a32 32 0 1064 0 32 32 0 10-64 0zM384 368a16 16 0 1032 0 16 16 0 10-32 0z"/><path fill="#3A5BA0" d="M288 224a64 64 0 10128 0 64 64 0 10-128 0z"/><path fill="#1F4690" d="M281 373a32 32 0 1061-19 32 32 0 10-61 19z"/><path fill="orange" d="M394 306a32 32 0 1061-20 32 32 0 10-61 20z"/><path fill="#FFE5B4" d="M288 704a224 224 0 10448 0 224 224 0 10-448 0z"/><path fill="orange" d="M363 573a19 19 0 1037 0 19 19 0 10-37 0zM549 723a19 19 0 1038 0 19 19 0 10-38 0zM363 760a19 19 0 1037 0 19 19 0 10-37 0zM475 685a19 19 0 1037 0 19 19 0 10-37 0zM363 667a37 37 0 1074 0 37 37 0 10-74 0z"/><path fill="#1F4690" d="M400 853a37 37 0 1075 0 37 37 0 10-75 0z"/><path fill="orange" d="M549 853a37 37 0 1075 0 37 37 0 10-75 0zM587 760a19 19 0 1037 0 19 19 0 10-37 0z"/><path fill="#1F4690" d="M475 592a75 75 0 10149 0 75 75 0 10-149 0zM467 766a37 37 0 1071-23 37 37 0 10-71 23z"/><path fill="#3A5BA0" d="M598 688a37 37 0 1071-23 37 37 0 10-71 23z"/><path fill="#FFE5B4" d="M576 336a112 112 0 10224 0 112 112 0 10-224 0z"/><path fill="orange" d="M613 271a9 9 0 1019 0 9 9 0 10-19 0zM613 317a19 19 0 1038 0 19 19 0 10-38 0zM632 411a19 19 0 1037 0 19 19 0 10-37 0zM707 411a19 19 0 1037 0 19 19 0 10-37 0zM725 364a9 9 0 1019 0 9 9 0 10-19 0zM665 367a19 19 0 1036-11 19 19 0 10-36 11z"/><path fill="#1F4690" d="M731 328a19 19 0 1036-12 19 19 0 10-36 12z"/><path fill="#FFE5B4" d="M768 528a80 80 0 10160 0 80 80 0 10-160 0z"/><path fill="orange" d="M896 553a9 9 0 1019 0 9 9 0 10-19 0zM800 527a9 9 0 1019 0 9 9 0 10-19 0z"/><path fill="#1F4690" d="M864 528a16 16 0 1032 0 16 16 0 10-32 0z"/></svg>