<svg xmlns="http://www.w3.org/2000/svg" width="128" height="128" class="icon" viewBox="0 0 1024 1024"><defs/><path fill="#EBEBFF" d="M660 918H336A268 268 0 0170 677L52 493h893l-18 184a268 268 0 01-267 241z"/><path fill="#47E289" d="M60 493h879v87H60z"/><path fill="#5CBDFF" d="M647 918v86H349v-86"/><path fill="#F4D240" d="M312 291c-5-78-92-124-170-91-100 43-78 181 16 197 82 14 159-28 154-106z"/><path fill="#FFF" d="M171 233a120 120 0 01117 11 116 116 0 00-143-38 98 98 0 00-20 169 98 98 0 0146-142z"/><path fill="#FF457A" d="M94 506h64v64H94zm149 0h64v64h-64zm149 0h63v64h-63zm149 0h64v64h-64zm149 0h63v64h-63zm148 0h64v64h-64z"/><path fill="#FFF" d="M116 677L98 493H51l19 184a268 268 0 00266 241h47a268 268 0 01-267-241z"/><path fill="#37348F" d="M945 472H51a20 20 0 00-20 23l18 184a287 287 0 00279 260v65a20 20 0 0020 20h299a20 20 0 0020-20v-65a287 287 0 00280-260l18-184a20 20 0 00-20-23zm-49 41l-4 44H78l-4-44zM90 676l-8-78h806l-7 79a268 268 0 01-132 205 248 248 0 01-89 16H336A247 247 0 0190 676zm279 307v-44h257v44zm602-755l-639 66v-5a125 125 0 00-15-52L936 78a20 20 0 10-11-39L287 202a135 135 0 00-17-12 151 151 0 00-137-9 124 124 0 00-77 131 119 119 0 0098 105 207 207 0 0034 3 159 159 0 00107-37 112 112 0 0031-47l649-67a20 20 0 00-4-41zM268 352a130 130 0 01-107 25 78 78 0 01-64-70 82 82 0 0153-88 116 116 0 0145-9 104 104 0 0154 15 85 85 0 0141 67v6l-102 11a20 20 0 002 41h2l86-9a74 74 0 01-10 11z"/></svg>