<svg xmlns="http://www.w3.org/2000/svg" width="128" height="128" class="icon" viewBox="0 0 1024 1024"><defs/><path fill="#8CEEF9" d="M10 512a502 502 0 101004 0 502 502 0 10-1004 0z"/><path fill="#C67552" d="M650 621L448 419a47 47 0 00-66 0L180 621h470z"/><path fill="#1C1D21" d="M650 632H180a10 10 0 01-7-18l76-75c4-4 10-4 14 0s4 10 0 14l-58 58h421L441 427a37 37 0 00-51 0l-27 27c-4 4-11 4-15 0s-4-11 0-15l27-27c22-22 58-22 80 0l202 202c3 3 4 8 3 11-2 4-5 7-10 7z"/><path fill="#1C1D21" d="M512 1024A509 509 0 010 512 509 509 0 01512 0a509 509 0 01512 512 509 509 0 01-512 512zm0-1004a492 492 0 101 985 492 492 0 00-1-985z"/><path fill="#C67552" d="M739 298L415 621h587a506 506 0 0010-157L845 297a75 75 0 00-106 1z"/><path fill="#FFA364" d="M729 376c-2 0-5-1-7-3-4-5-4-11 0-15l39-39c4-4 10-4 14 0s4 11 0 15l-38 39c-3 2-5 3-8 3zm-32 32c-3 0-6-1-7-3-5-4-5-11 0-15l7-7c4-5 11-5 15 0s4 10 0 14l-8 8c-2 2-5 3-7 3zM477 628c-3 0-6-1-8-3-4-4-4-10 0-14l183-183c4-4 11-4 15 0s4 10 0 14L484 625c-2 2-5 3-7 3z"/><path fill="#1C1D21" d="M1002 632H415a10 10 0 01-7-18l324-323a85 85 0 01120 0l167 166a491 491 0 01-7 167c-1 4-5 8-10 8zm-562-21h553a502 502 0 009-142L838 305a65 65 0 00-91 0L439 611z"/><path fill="#FF8939" d="M845 298a75 75 0 00-106 0l-28 27a111 111 0 00160-1l-26-26zM415 470c23 0 45-9 60-24l-27-27a47 47 0 00-66 0l-26 27c15 15 36 24 59 24z"/><path fill="#1C1D21" d="M791 369c-33 0-64-13-87-37-4-4-4-10 0-14l28-28c33-33 87-33 120 0l26 27c4 4 4 10 1 14-23 25-54 38-88 38zm-65-44c18 15 41 23 65 23 25 0 47-8 66-24l-20-19a65 65 0 00-91 0l-20 20zM415 480c-25 0-48-9-67-26-2-2-3-5-3-8s1-5 3-7l27-27c22-22 58-22 80 0l27 27c2 2 3 5 3 7 0 3-1 6-3 8a97 97 0 01-67 26zm-44-35a77 77 0 0089 0l-19-18a37 37 0 00-51 0l-19 18z"/><path fill="#0ABFB2" d="M1005 607a53 53 0 00-82 0 53 53 0 00-82 0 53 53 0 00-82 0 53 53 0 00-82 0 53 53 0 00-82 0 53 53 0 00-82 0 53 53 0 00-82 0 53 53 0 00-82 0 53 53 0 00-82 0 53 53 0 00-82 0 53 53 0 00-82 0 53 53 0 00-81 0 501 501 0 00983 0z"/><path fill="#1C1D21" d="M512 1024A512 512 0 019 609c0-3 0-6 3-8a63 63 0 0189-8 63 63 0 0182 0 63 63 0 0182 0 63 63 0 0182 0 63 63 0 0182 0 63 63 0 0182 0 63 63 0 0182 0 63 63 0 0182 0 63 63 0 0182 0 63 63 0 0182 0 63 63 0 0182 0 63 63 0 0189 8c2 2 3 5 3 9a509 509 0 01-501 414zM30 611a492 492 0 00964 0 43 43 0 00-64 3c-1 2-5 4-8 4s-6-2-8-4a43 43 0 00-66 0c-2 2-5 4-8 4s-6-2-8-4a43 43 0 00-66 0c-2 2-5 4-8 4s-6-2-8-4a43 43 0 00-67 0c-1 2-4 4-8 4s-6-2-8-4a43 43 0 00-66 0c-2 2-5 4-8 4s-6-2-8-4a43 43 0 00-66 0c-2 2-5 4-8 4s-6-2-8-4a43 43 0 00-67 0c-1 2-4 4-8 4s-5-2-8-4a43 43 0 00-66 0c-2 2-5 4-8 4s-6-2-8-4a43 43 0 00-66 0c-2 2-5 4-8 4s-6-2-8-4a43 43 0 00-67 0c-1 2-4 4-8 4s-5-2-8-4a43 43 0 00-66 0c-2 2-5 4-8 4s-6-2-8-4c-8-10-20-16-33-16-9 0-20 5-28 13z"/><path fill="#D66112" d="M42 687a502 502 0 00940 0H42z"/><path fill="#1C1D21" d="M512 1024A508 508 0 0132 691c-1-3-1-7 1-10s6-4 9-4h484c6 0 11 5 11 10s-5 11-11 11H57c75 183 256 306 455 306s380-123 455-306H736c-5 0-10-5-10-11s5-10 10-10h246c3 0 7 2 9 4s2 7 1 10a511 511 0 01-480 333z"/><path fill="#1C1D21" d="M587 698h-12c-5 0-10-5-10-11s5-10 10-10h12c6 0 11 5 11 10s-5 11-11 11zm88 0h-32c-6 0-10-5-10-11s4-10 10-10h32c6 0 10 5 10 10s-4 11-10 11z"/><path fill="#508DEF" d="M512 1014c172 0 323-87 414-219v-6c-4 2-9 3-13 3-18 0-32-14-32-31a32 32 0 01-63 0 32 32 0 01-63 0 32 32 0 01-63 0 32 32 0 01-63 0c0 16-13 30-30 31-16-1-30-14-30-32a32 32 0 01-63 0 32 32 0 01-63 0 32 32 0 01-63 0 32 32 0 01-63 0 32 32 0 01-63 0 32 32 0 01-63 0 32 32 0 01-63 0c0 17-13 31-30 32l-2 4a506 506 0 00416 218z"/><path fill="#1C1D21" d="M512 1024c-169 0-327-83-422-222-2-3-3-6-1-10l1-4 1-2h1c1-2 4-4 7-4 11-1 20-10 20-21 0-6 5-11 10-11s11 5 11 11a21 21 0 1042 0c0-6 5-11 11-11s10 5 10 11a21 21 0 1042 0c0-6 5-11 11-11s10 5 10 11a21 21 0 1042 0c0-6 5-11 11-11s10 5 10 11a21 21 0 1043 0c0-6 4-11 10-11s10 5 10 11a21 21 0 1043 0c0-6 4-11 10-11s10 5 10 11a21 21 0 1043 0c0-6 4-11 10-11s10 5 10 11a21 21 0 1043 0c0-6 4-11 10-11s10 5 10 11c0 11 9 20 20 21 11-1 20-10 20-21 0-6 4-11 10-11s10 5 10 11a21 21 0 1043 0c0-6 4-11 10-11s10 5 10 11a21 21 0 1043 0c0-6 4-11 10-11s10 5 10 11a21 21 0 1043 0c0-6 4-11 10-11s10 5 10 11a21 21 0 1043 0c0-6 4-11 10-11s10 5 10 11a21 21 0 0031 19c3-2 6-1 9 0s5 5 5 9v6c0 2 0 4-2 6a518 518 0 01-424 223zM113 800a492 492 0 00795 2c-10-1-20-6-27-14-8 9-19 14-31 14s-24-5-32-14c-8 9-19 14-32 14s-23-5-31-14c-8 9-19 14-32 14s-23-5-31-14c-8 9-19 14-32 14-12 0-23-5-31-14-7 8-17 13-28 14h-2c-12 0-22-6-30-14-7 9-19 14-31 14-13 0-24-5-32-14-7 9-19 14-31 14s-24-5-32-14c-7 9-19 14-31 14s-24-5-32-14c-7 9-19 14-31 14s-24-5-32-14c-8 9-19 14-32 14s-23-5-31-14c-8 9-19 14-32 14s-23-5-31-14c-8 9-19 14-32 14-12 0-23-5-31-14-3 5-9 9-15 12z"/><path fill="#1C1D21" d="M376 899c-9 0-16-4-22-9a32 32 0 01-44 0c-6 5-14 9-22 9-6 0-10-5-10-11s4-10 10-10 12-5 12-12c0-5 4-10 10-10s10 5 10 10a12 12 0 0023 3v-3c0-6 5-10 10-10h1c6 0 10 4 10 10v3c2 5 6 9 12 9 5 0 10 5 10 10s-5 11-10 11zm360 0c-8 0-16-4-22-9-5 6-13 9-22 9-8 0-16-4-22-9-5 5-13 9-22 9-6 0-10-5-10-11s4-10 10-10c7 0 12-5 12-12 0-5 5-10 10-10s11 5 11 10a12 12 0 0023 3v-3c0-6 4-10 10-10h1c5 0 10 4 10 10v3c1 5 6 9 11 9 6 0 10 5 10 10s-4 11-10 11zm-319 0h-5c-5 0-10-5-10-11s5-10 10-10h5c6 0 10 5 10 10s-4 11-10 11zm194 0h-4c-6 0-10-5-10-11s4-10 10-10h4c6 0 11 5 11 10s-5 11-11 11z"/><path fill="#FFECE9" d="M269 154a19 19 0 010 37h-8a26 26 0 000 53h220a26 26 0 000-53H349c-11 0-19-8-19-18s8-19 19-19h9a36 36 0 000-71H252c-33 20-64 44-92 71h109z"/><path fill="#1C1D21" d="M415 254h-13c-6 0-10-4-10-10s4-10 10-10h13c6 0 11 4 11 10s-5 10-11 10z"/><path fill="#1C1D21" d="M481 254h-28c-6 0-11-4-11-10s5-10 11-10h28c9 0 16-7 16-16s-7-16-16-16H349a29 29 0 110-58h9c14 0 25-12 25-26s-11-25-25-25H255c-25 15-47 32-69 51h83a29 29 0 110 58h-8c-10 0-17 7-17 16s7 16 17 16h99c5 0 10 4 10 10s-5 10-10 10h-99a37 37 0 110-73h8c4 0 8-4 8-8s-4-9-8-9H160c-4 0-8-2-9-6s-1-8 2-11a523 523 0 0199-75h106a46 46 0 010 92h-9c-5 0-9 4-9 9s4 8 9 8h132a37 37 0 110 73z"/><path fill="#FFECE9" d="M592 83h-86c-20 0-37 16-37 36 1 19 16 35 36 35h87c20 0 36-16 36-36 0-19-16-35-36-35z"/><path fill="#1C1D21" d="M592 164h-87c-25 0-45-20-46-45 0-12 4-23 13-32s21-14 34-14h32c6 0 10 4 10 10s-4 10-10 10h-32c-8 0-14 3-19 8s-8 11-8 18c1 14 12 25 26 25h87c14 0 26-12 26-26s-12-25-26-25h-17c-5 0-10-5-10-10s5-11 10-11h17a46 46 0 010 92z"/><path fill="#508DEF" d="M312 290l-25 50a29 29 0 1051 0l-26-50zm0 159l-25 49a29 29 0 1051 0l-26-49z"/><path fill="#1C1D21" d="M312 392c-12 0-24-6-31-16-9-12-10-28-3-41l25-50c2-3 6-5 9-5s8 2 9 5l26 50c7 13 5 29-3 41-7 10-19 16-32 16zm0-79l-16 32c-4 6-3 13 1 19 4 5 9 8 15 8s12-3 15-8c5-6 5-13 2-19l-17-32zm0 238c-12 0-24-6-31-17-9-12-10-27-3-40l25-50c2-4 6-6 9-6s8 2 9 6l26 50c7 13 5 28-3 40-7 11-19 17-32 17zm0-80l-16 32c-4 6-3 14 1 19s9 8 15 8 12-3 15-8c5-5 5-13 2-19l-17-32z"/></svg>