<svg xmlns="http://www.w3.org/2000/svg" width="128.1" height="128" class="icon" viewBox="0 0 1025 1024"><defs/><path fill="#FFD68A" d="M660 954L152 451a39 39 0 010-55l199-201c15-15 40-15 55 0l508 503c15 15 15 40 0 55L715 954a39 39 0 01-55 0z"/><path d="M946 678c7 7 7 20-1 28L708 944c-8 8-20 9-27 2L77 349c-7-7-6-20 2-28L315 83c8-8 21-9 28-3l603 598m55-55L397 26c-33-33-92-29-130 9L31 274c-38 38-42 96-8 129l603 598c34 33 92 29 130-9l236-239c38-38 42-97 9-130z"/><path d="M308 147c-9 0-18 4-24 10l-66 67a33 33 0 000 47h1c6 7 15 10 23 10 9 0 17-4 24-10l66-67c12-13 12-34-1-47-6-6-15-10-23-10zM174 283c-9 0-18 3-24 10a33 33 0 1024-10zm131 112l-12-12v-36l54-54h35l35 34-18 18-23-22-71 72zm74 39h-35l-35-35 18-18 23 23 71-72 12 12v36l-54 54zm56 55l-18 18-23-23v-36l6-6 30 30-6 6 11 11zm70-38l-11-11 17-18 24 23v36l-54 54h-36l-23-23 18-18 11 11 54-54zm-25 16l-18 18-34-34v-36l20-20h36l23 23-18 18-11-12-20 21 22 22zm21 82l30 30-21 21-30-30 21-21zm51-51l30 30-21 21-30-30 21-21zm5 149l-12-12v-36l54-53h36l34 34-18 18-22-23-72 72zm75 39h-36l-34-34 18-18 22 22 72-71 12 12v35l-54 54zm27 63l-12-12v-36l53-54h36l35 34-18 18-23-22-71 72zm74 39h-36l-34-35 18-18 22 23 72-72 12 12v36l-54 54z"/></svg>