<svg xmlns="http://www.w3.org/2000/svg" width="128.6" height="128" class="icon" viewBox="0 0 1029 1024"><defs/><path fill="#52C0FE" d="M122 456l68 197"/><path fill="#FEFEFE" d="M461 1h545c15 0 18 3 18 18v560c-11 1-12-9-15-14a78 78 0 00-55-44c-37-5-75-1-112-2H712c-22-1-35 8-43 29l-36 92c-6 15-5 29 1 43l22 57c4 12 5 24-6 33-19 15-39 30-60 43-5 2-11 6-16 1-4-4-2-10-1-15l3-9c20-36 10-65-22-89-13-10-24-23-35-36-9-10-11-21-6-33 7-13 18-12 29-11l15 3c39 7 44 4 50-36l38-216c6-36 6-36 42-33 9 1 20 4 25-6s-2-18-7-26l-26-32L493 51c-10-17-29-28-32-50zM1 579V19C1 4 4 1 19 1h422c0 15-14 18-23 24-95 56-189 113-284 168l-17 11c-9 6-19 11-18 23 1 13 14 13 23 16 28 8 32 13 27 41-11 69-25 138-37 207-3 15-7 27-26 28-32 3-56 18-71 47-3 6-4 14-14 13z"/><path fill="#545E63" d="M1 579c16-41 44-67 90-67 10 0 12-5 13-14l40-226c3-13 0-19-15-21-16-3-38 1-41-22s19-26 32-35L418 17c8-5 18-7 23-16h20c11 16 27 28 35 46-11 9-23 8-33 3-21-10-32-1-41 16-11 16-29 23-45 32-66 38-130 79-197 116 9 5 14 12 16 22 2 43-11 84-18 126l-20 118c-3 18 2 26 20 25 16 0 33-2 49 3l3 3c10 18-24 2-16 22 7 13-3 21-15 26-31 4-61 1-92 2-43 1-57 14-57 57l-1 323c0 23 7 35 30 37 21 20 47 24 74 29 12 2 27-1 32 17H16c-12 0-15-3-15-16V579z"/><path fill="#344046" d="M959 517c36 5 51 33 65 62v427c0 15-3 18-18 18l-130-1c-19-4-39-4-58-5s-37-4-54-13c-9-5-20-12-9-26 11-6 23-4 35-4h156c20 0 29-8 29-29V614c-1-38-15-51-54-53-24-1-49 4-73-4-9-20 8-25 20-29 29-9 60-11 91-11z"/><path fill="#455056" d="M185 1024c-20-13-44-8-64-16-14-6-35-2-38-25 7-8 17-8 26-8a32304 32304 0 01377 2c23 23 52 29 83 30 11 1 26 0 30 16l-414 1z"/><path fill="#3B464C" d="M599 1024c-23-16-52-8-77-15-16-4-26-10-30-26 8-9 20-8 31-9h199c11 1 22 0 31 9 13 29 43 24 66 30 19 5 38 2 56 10l-276 1z"/><path fill="#424D52" d="M959 517l-84 16c-13 2-23 8-30 20-8 9-19 7-29 7h-82c-18-1-27 7-33 24-36 94-36 61-1 151 16 41 15 44-20 70l-117 83c-13 9-27 19-44 8-18-12-11-30-6-46 8-24 15-47 24-70 6-17 3-29-10-41l-47-47a45 45 0 01-14-44c6-29 10-59 21-87 8-10 18-18 11-35-5-10 9-15 19-17 25 9 28 14 25 41-1 11-11 28 8 32 21 4 17-17 20-28 13-73 28-145 39-218 2-15 4-31 20-39 2-4 12 1 7-8-4-7-12-12-6-22 18-4 35-4 51 5l38 45c6 8 8 16 2 25s-14 11-24 10c-41-6-40-5-47 36l-40 225c-4 22-14 30-35 25-12-2-23-5-35-6-7-1-18-8-22 4-3 10-6 19 4 28 21 18 38 39 59 57 15 14 19 28 11 47-7 15-11 30-18 51l76-53c6-4 7-9 3-15l-3-10c-56-78-4-146 21-216 3-8 11-13 21-13l257 1c4 0 7 3 10 4z"/><path fill="#4B555A" d="M681 272h-51c-13 2-17-10-23-17L464 81c-12-15-24-22-43-18 4-18 15-32 33-23 14 7 28 6 42 7 64 73 125 149 185 225z"/><path fill="#AD661D" d="M493 558l-20 84c-4 18-1 33 13 46 20 17 36 36 55 54 9 8 10 16 6 27l-31 94c-5 12-4 21 6 29 11 7 20 3 29-3l140-101c13-8 17-19 10-32l-4-7c-37-60-32-119 1-179 6-12 11-17 24-17h123l84 1c35 0 53 17 53 53l1 352c0 20-9 24-26 24H83c-40-1-40-1-40-43V611c0-41 16-57 58-58h105c9-6 20-8 31-8h223c13 0 27-2 33 13z"/><path fill="#3DC8F2" d="M636 298c-15 7-17 21-19 34l-43 240c-2 12 0 25-19 20-16-3-31-4-22-27 3-5 1-12 3-17 9-23-1-33-24-35-38 10-46 2-39-38l20-115c4-29-1-35-28-41l-121-21c-37-5-42-2-50 36-10 53-16 106-28 159-5 24-12 27-35 20h-69c-13 0-17-2-14-18 14-75 26-151 39-228l6-35c42-18 79-45 119-68 35-20 71-40 105-62 24-15 48-13 65 7 52 61 103 122 152 185 2 1 2 3 2 4z"/><path fill="#4C565B" d="M231 513c21 3 27-8 30-26 9-58 21-116 30-173 3-24 15-30 36-26l153 26c19 3 26 14 23 33l-22 127c-6 37-7 37 31 39-5 6-19 7-5 22 15 14-7 16-14 23-8-8-18-4-27-4l-260-1c0-7 18-16-2-20-5-1-11-3-10-9 2-6 8-6 13-7 8 0 17 3 24-4z"/><path fill="#63D4F4" d="M636 298c-38-32-63-75-97-111-21-23-39-49-59-72-17-20-37-22-60-8L211 233c-6 4-13 9-18-1-4-9-13-13-21-19L421 63c13-7 22-17 37 3 56 70 114 138 172 206 5 7 12 13 15 20 6 14-6 4-9 6z"/><path fill="#BAC6CC" d="M362 513c-17-2-47 10-59-4-13-14 3-42 6-63l17-98c2-13 5-19 21-16 32 8 65 12 98 18 11 1 15 5 13 18-9 43-16 85-23 128-2 13-7 18-20 17h-53z"/></svg>