<svg xmlns="http://www.w3.org/2000/svg" width="128" height="128" class="icon" viewBox="0 0 1024 1024"><defs/><path fill="#FFD93B" d="M0 512a512 512 0 101024 0A512 512 0 100 512z"/><path fill="#F4C534" d="M1024 512a512 512 0 01-911 321 509 509 0 00322 114 512 512 0 00398-834 511 511 0 01191 399z"/><path fill="#FFF" d="M562 417a154 154 90 10308 0 154 154 90 10-308 0z"/><path fill="#3E4347" d="M677 367a68 68 0 10137 0 68 68 0 10-137 0z"/><path fill="#FFF" d="M760 353a19 13 45 1018-18 19 13 45 10-18 18zM168 461a154 154 90 10308 0 154 154 90 10-308 0z"/><path fill="#3E4347" d="M224 511a68 68 0 10137 0 68 68 0 10-137 0z"/><path fill="#FFF" d="M307 496a19 13 45 1018-18 19 13 45 10-18 18z"/><path fill="#3E4347" d="M493 293a18 18 0 01-9 20 17 17 0 01-21-4c-3-2-79-74-241-47a17 17 0 01-20-14 18 18 0 0114-21c113-19 190 6 232 29l-10-42a18 18 0 1135-8l20 87zm351-89a18 18 0 01-20 15c-163-28-238 44-241 47a19 19 0 01-22 3 18 18 0 01-8-20l20-87c2-9 12-15 21-13a18 18 0 0113 21l-9 43c42-23 119-49 232-29a18 18 0 0114 20zM706 781c-16 77-100 176-194 176-94-3-178-102-194-176-15-74 72-140 194-144 122 0 209 65 194 144z"/><path fill="#E24B4B" d="M632 896l3-16c2-20 0-38-5-55-13-42-63-63-106-42a132 132 0 01-67 14 186 186 0 01-14-1c-22-3-41 8-48 28s-8 43-3 70c79 17 161 18 240 2z"/><path fill="#FFF" d="M648 864a2028 2028 0 01-272-1 20 20 0 00-15 5c37 47 92 87 151 89 59 0 114-39 151-87a20 20 0 00-15-6zM486 731a17 17 0 0017-17l7-77c-45 2-85 12-117 28l4 46a20 20 0 0018 18l71 2zm28-94l7 77c0 9 8 16 17 16a2393 2393 0 0071-2c9-1 17-9 18-19l4-48c-32-15-72-24-117-24z"/></svg>