<svg xmlns="http://www.w3.org/2000/svg" width="128" height="128" class="icon" viewBox="0 0 1024 1024"><defs/><path fill="#F9AE7A" d="M101 1020h738s-14-115-156-109c0 0-88-101-189-60 0 0-128-47-203 41 0 0-197-41-190 128z"/><path fill="#37EFC3" d="M216 519s109 81 115 176-27 162-27 162-128-47-101-176 13-162 13-162z"/><path fill="#9A2E2C" d="M304 868l-3-1c-1 0-136-52-107-187 25-121 14-157 14-157-1-4 0-9 3-11 4-3 8-3 12 0s112 85 119 183c7 97-27 165-28 168-3 2-6 5-10 5zm-75-323c1 24-2 67-17 139-22 100 58 147 86 161 8-21 28-77 23-149-5-64-61-124-92-151z"/><path fill="#3AEDA0" d="M642 431s-156 61-148 203 20 176 20 176 101-75 101-182 27-197 27-197z"/><path fill="#9A2E2C" d="M514 820h-3c-3-1-5-3-7-6-1-1-15-37-22-179-7-148 154-212 156-213 4-1 8-1 10 2 3 3 4 7 3 10 0 1-26 88-26 194 0 111-102 187-106 190-1 2-3 2-5 2zm113-369c-40 21-128 79-123 183 4 91 11 137 16 158 26-24 85-85 85-165 0-77 13-144 22-176z"/><path fill="#37EFC3" d="M730 513s41 109-27 216 0 156 27 135 115-81 88-189a344 344 0 00-88-162z"/><path fill="#9A2E2C" d="M716 880c-10 0-22-4-31-14-25-22-35-71 10-142 64-102 27-207 27-208-2-4 0-9 4-12s9-2 12 1c3 2 64 57 91 168 27 110-61 176-90 197l-3 2c-6 6-13 8-20 8zm34-329c6 43 6 113-38 183-38 61-31 101-14 117 9 8 20 10 26 5l3-2c29-21 106-79 81-176-14-58-39-101-58-127zM480 841c-3 0-7-2-8-5-45-71-66-225-8-395 52-148 28-215 28-216-3-5 1-11 6-13s11 0 13 6c1 3 28 73-27 231-54 155-38 307 6 376 4 5 3 12-3 15l-7 1z"/><path fill="#EF8943" d="M244 908a71 71 0 10141 0 71 71 0 10-141 0zM426 867a71 71 0 10141 0 71 71 0 10-141 0zM623 908a71 71 0 10141 0 71 71 0 10-141 0z"/><path fill="#37EFC3" d="M210 155s176-81 298 67c-1 0-230 94-298-67z"/><path fill="#9A2E2C" d="M369 259c-66 0-136-21-168-101-2-5 0-12 5-14 2-1 184-83 310 71 2 2 3 6 2 9s-3 6-6 7c-2 1-70 28-143 28zm-146-99c59 118 218 73 266 57-98-107-230-71-266-57z"/><path fill="#3AEDA0" d="M548 19s-122 55-54 203c0 0 74-13 80-108 0 0 8-47-26-95z"/><path fill="#9A2E2C" d="M494 232c-5 0-8-2-10-6-23-52-27-98-12-139 21-54 70-77 72-78 4-2 9-1 12 3 36 50 29 101 29 103-7 100-89 116-89 116l-2 1zm50-199c-14 8-40 27-54 62-12 33-9 72 9 115 17-6 60-28 65-96 0-2 5-41-20-81z"/></svg>