<svg xmlns="http://www.w3.org/2000/svg" width="128" height="128" class="icon" viewBox="0 0 1024 1024"><defs/><path fill="#F6E5DB" d="M106 1015l42 9h-42v-9zm41-45l-45 20-5-74c-12-20-49-37-45-89l68 54 9-4-29-83c11-2 23-7 26-4 22 26 39 56 37 92l-67 31 51 16z"/><path fill="#FCFCFC" d="M908 665l-13-43-6-23 40-50 15-27c48 47 33 96 33 141z"/><path fill="#A7CDE8" d="M908 665l68-1-7 126a39 39 0 00-7-2c-26-37-51-75-54-123zm62 148v116l-8 4-64-115 63-5h4z"/><path fill="#4C4D59" d="M147 970v-41l-51-16 67-31 13 13-4 20 40 8v4l-35 23-17 32z"/><path fill="#F6E5DB" d="M159 982l17-32 35-23c22 23 0 37-11 50-10 11-24 29-41 5z"/><path fill="#4C4D59" d="M875 563l41-28 13 14-40 51-4 3-12-3-8-16z"/><path fill="#F6E5DB" d="M211 923l-39-8 4-20c27-13 35-6 35 28z"/><path fill="#FCFCFC" d="M223 830l-4 52-40-46z"/><path fill="#4C4D59" d="M970 813h-9l1-25a39 39 0 017 2c15 7 16 15 1 23zm-81-213l6 23-11 3 1-2v-21z"/><path fill="#333645" d="M885 603v21l-12-24z"/><path fill="#333645" d="M106 1015a73 73 0 01-44-67 111 111 0 00-25-49c-31-46-27-68 20-97a59 59 0 0015-12c37-42 58-44 99-5 35-33 42-79 50-123 13-65 25-131 66-187 35-48 76-86 135-103a193 193 0 0028-12c11-27 14-54 28-69 28-29 69-40 110-42 31 33-10 63 2 99 69 17 145 27 204 78l50-18 23-51 17 51 41-33c-10 66 19 107 59 145a84 84 0 0119 52c3 44 2 88 0 132l-5 242c0 16-4 30-6 50-51-17-55-70-94-102v103l-80-15-38 28-13-71c-64 28-128 56-199 56s-135-21-203-47l-17 76h-21l-39-42-99 42h-42zm147-106v63l30-31 13-13 30 46 3-50 5-230c1-24 3-48 36-49l-8 41c48 10 94-7 132 8 0 26 2 47 0 67a223 223 0 01-10 67 63 63 0 01-37 31 40 40 0 01-47-26 201 201 0 01-12-45c-3-22-4-45-6-70l-31 3v161a312 312 0 00419 3V665c21-12 24 3 24 17l3 121v160c48-53 61-113 78-172l57-4c-26-54-58-102-48-161l12-3 13 42c2 48 27 86 54 124l-2 24-63 5 65 115 7-4V813c16-8 14-16-1-23l8-126c0-46 15-95-33-141l-15 26-13-14a251 251 0 000-47 52 52 0 00-44-46c-22-4-44-5-60 19 48 9 51 10 79 45-11 16-36 32-16 57l-10 21a13 13 0 00-8-4c-13-56-51-95-90-133-57-57-136-57-212-74l7-90c-34 8-63 14-73 48l33 50c-123 17-212 68-247 189-6 23-19 47-19 70 0 52-20 95-42 139-1 3 0 6 1 12h37l30 106c-9 4-31-21-29 12zm-78-14l-12-13c2-37-15-66-38-93-3-3-15 3-26 5l29 82-8 5-68-54c-4 52 33 69 45 89l5 74 45-20 12 12c17 24 31 6 41-5 12-13 33-28 11-50v-4c0-34-8-41-35-28zm236-176c2 43-11 83 22 116 42-5 35-39 39-63 3-17-5-35-8-53zm423 236l38 7-10-58zM223 830l-44 6 40 46z"/><path fill="#F6E5DB" d="M770 665v220a312 312 0 01-419-3V720l31-2c2 25 3 47 6 69a201 201 0 0013 45 40 40 0 0046 27 63 63 0 0037-32 223 223 0 0011-67v-66c-39-15-85 1-132-9l7-41c27-7 38-28 42-54l10-10 11-3c31 3 28 37 47 51l26 39 3 2 48 70 100-156a74 74 0 0131 2 167 167 0 0130 28l31 20 11 11 10 21zm-158 23l11 72c2 16 2 32 5 47 9 36 30 56 55 54s43-23 46-61c2-28 0-55 0-79l37-33z"/><path fill="#FCFCFC" d="M275 570c35-121 124-172 247-189l-33-50c10-34 39-40 73-48l-7 90c76 17 155 17 212 74 39 38 77 77 89 133H718l-50-48-23 38-12 10H478l-33-55-23 34v21l-11 11h-20zm234-24l39 23c25-12 53-19 53-52 0-28-23-39-46-56l-46 26z"/><path fill="#B3DBF7" d="M718 581h138a13 13 0 018 3l9 16 13 24-1 2c-10 59 22 107 47 161l-56 4c-18 59-31 119-79 172V803l-3-121c0-14-3-29-24-17 10-14 6-21-11-21l-10-11-20-32zm-443-11l116 21-21 54c-33 0-35 25-36 48l-5 231-3 50-29-45-15-32-30-106h-37c0-5-2-9-1-12 22-44 42-87 42-139 0-23 13-47 19-70z"/><path fill="#E95B7E" d="M411 719h53c3 18 11 36 8 53-4 24 3 58-39 63-33-33-20-73-22-116z"/><path fill="#FCFCFC" d="M875 563c-20-25 5-41 15-56-28-36-30-37-78-45 16-25 38-23 59-20a52 52 0 0145 46 251 251 0 010 47z"/><path fill="#A7CDE8" d="M834 955l28-51 11 58zm-550-14l-31 31v-63z"/><path fill="#4C4D59" d="M284 941l-31-32c-2-33 20-8 29-13l14 32z"/><path fill="#333645" d="M612 688h155l-37 33c0 24 2 52 0 79-3 38-20 58-47 61s-45-18-54-54c-4-15-3-31-5-47l-12-72zm30 25l11 92c2 17 11 33 30 28a41 41 0 0023-30 822 822 0 001-90zm-9-132l12-11 12 14-100 156-48-70 12-9 23 41 17-8z"/><path fill="#4C4D59" d="M656 584l-11-14 23-38 50 49 11 20-12 12a167 167 0 00-30-27 74 74 0 00-31-2zm-234-25l22-34 33 55 16 35-14 14c-19-14-16-49-47-52z"/><path fill="#333645" d="M370 644l21-53h20c-3 25-14 45-41 53z"/><path fill="#4C4D59" d="M505 668l-26-39 14-14 24 39z"/><path fill="#333645" d="M718 613l12-12 19 32zm-296-54l10 18-10 3zm338 85c17 0 21 7 11 21zm-255 24l12-14a9 9 0 014 7l-13 8zm-94-77l11-11zm338 42l11 11z"/><path fill="#B3DBF7" d="M521 661a9 9 0 00-4-7l-24-40-15-34 154 1-72 113-16 8zm-12-115v-58l46-27c23 17 46 28 46 57 0 33-28 40-53 51zm21-11c25 7 42 6 49-19a51 51 0 00-2-18h-46z"/><path fill="#E3577A" d="M642 713h65a822 822 0 01-1 90 41 41 0 01-23 30c-19 5-28-11-30-28l-11-92z"/><path fill="#FCFCFC" d="M530 535v-37h47a51 51 0 013 18c-8 25-25 25-50 19z"/></svg>