<svg xmlns="http://www.w3.org/2000/svg" width="150.5" height="128" class="icon" viewBox="0 0 1204 1024"><defs/><path fill="#FBDEB5" d="M330 976l137-768c4-30 33-51 63-45l327 57c30 6 50 34 44 65L779 976"/><path fill="#FFF" d="M541 331l10-63c5-21 24-35 45-32 21 5 36 25 32 46l-11 63m122 21l11-63c3-21 24-35 45-32 21 5 35 24 32 45l-11 63M504 536l11-63c3-21 24-35 45-32 21 5 35 24 32 45l-11 64m122 22l11-63c3-21 24-35 45-32 21 5 35 24 32 46l-11 63M468 741l11-63c4-21 24-35 45-32 21 5 35 24 32 45l-11 63m122 23l11-63c3-21 24-35 45-32 21 5 34 24 31 45l-10 64"/><path fill="#F3A8BC" d="M506 985l20-109c4-27 34-45 64-40 32 6 53 33 47 60l-15 83"/><path fill="#88CAEF" d="M566 131l12-66c3-20 23-33 42-29l217 38c20 3 33 22 29 42l-12 66"/><path fill="#FFF" d="M619 143l6-35c3-13 15-24 30-21 14 3 24 15 21 30l-6 35m68 12l6-34c3-14 15-25 30-22 14 3 24 15 21 31l-6 34m-260-40c-34 1-61 25-68 57l-72 408c13-12 25-26 34-41 11-24 0-48 3-56 5-15 23-12 32-24 39-64-11-102 27-134 13-10 27-22 35-39 7-18 13-36 15-56 4-25 16-57 42-69 9-3 16-6 25-7 9-3 17-9 20-18-6-2-12-3-20-3l-31-8-42-10z"/><path fill="#952D2E" d="M1158 992H35c-5 0-11-3-11-9s3-10 9-10h1125c5 0 11 3 11 9 0 4-3 10-9 10h-2zM855 185h-1c-5-1-9-6-8-10l12-67c3-15-7-28-21-31L619 39c-15-3-29 8-32 21l-12 66c-1 5-6 10-10 8-5-1-9-6-8-11l12-66c2-12 9-22 18-30 11-7 23-9 35-7l217 37c25 5 42 29 37 53l-12 66c-1 6-4 9-9 9z"/><path fill="#952D2E" d="M804 992h-1c-5-1-9-6-8-10l127-721c4-28-14-53-40-58l-350-61c-12-2-26 0-37 7s-18 18-19 32l-9 49c0 5-6 9-11 9-4 0-9-6-9-10v-2l9-49c6-36 42-62 79-56l350 62c38 6 62 42 56 78L813 985c0 4-4 7-9 7z"/><path fill="#952D2E" d="M449 285h-2c-4-2-9-6-7-11l3-16c0-5 6-10 10-10 5 0 9 6 9 11v2l-3 16c-3 5-6 8-10 8zm-73 406h-1c-5-1-9-6-8-10l62-356c2-4 6-9 11-7 4 1 9 6 7 10l-61 356c0 4-5 7-10 7zm16 300h-2c-4-2-9-6-8-11l19-102c1-5 6-9 12-8 4 2 7 6 7 11l-18 102c-1 5-6 8-10 8zm51 1h-2c-4-1-9-6-7-10l12-69c1-5 6-9 10-8 5 2 9 6 8 11l-12 69c0 4-5 7-9 7zm293 0h-1c-5-1-9-6-8-10l9-45c2-5 6-9 12-8 5 2 8 6 8 11l-9 45c-3 4-6 7-11 7zm-51-3h-1c-5-1-9-6-8-10l5-26c0-4 4-9 10-9s9 5 9 11v1l-4 26c-2 4-6 7-11 7zm-363 2h-1c-5-2-9-6-8-11l47-253c1-4 6-9 10-7 5 1 9 6 8 10l-47 253c-1 5-4 8-9 8zm300-2h-2c-4-1-9-6-7-10l15-85c4-22-14-45-39-49-8-2-14-2-21 0-5 1-11-2-11-8-1-4 2-9 8-10 9-2 18-2 28 0 36 6 61 37 56 71l-15 84c-3 3-8 7-12 7zm-116 5h-2c-4-2-9-6-7-11l20-108c1-5 1-9 4-12 2-5 5-9 9-14 3-4 9-6 14-3 4 3 6 9 3 14 0 1-2 1-2 3-4 4-7 10-7 18l-18 108c-6 2-10 5-14 5z"/><path fill="#F5E455" d="M548 336l9-50c3-16 18-27 35-24 16 3 27 18 24 35l-8 49m139 24l9-49c3-17 18-27 35-24 16 3 27 18 24 34l-9 50M512 538l9-50c3-17 18-27 35-24 16 3 27 18 24 34l-8 50m139 26l9-50c3-17 18-27 34-24 17 3 28 18 25 35l-9 49M476 741l9-50c3-16 18-27 35-24 16 3 27 18 24 35l-9 49m141 25l9-50c3-17 18-27 35-24 16 3 27 18 24 34l-9 50"/><path fill="#952D2E" d="M617 355h-1c-5-1-9-6-8-10l11-63c3-17-8-32-24-35-8-2-15 0-23 4-6 5-10 13-12 20l-10 63c-2 5-6 9-11 8-4-2-9-6-7-11l10-63c3-27 27-45 54-42s46 27 42 54l-1 5-11 61c-1 5-4 8-9 9zm199 35h-1c-5-1-9-6-8-11l11-63c3-16-8-31-24-34s-32 7-35 24l-11 63c0 4-4 9-10 9-5 0-9-5-9-11v-1l10-63c5-26 31-44 56-39 26 4 44 30 39 55l-10 63c0 5-3 8-8 8zM581 560h-1c-5-1-9-6-8-10l11-64c3-16-8-31-24-34s-32 7-35 24l-10 63c-2 5-7 9-11 8s-9-6-8-11l11-63c4-26 30-44 56-39s43 30 39 55l-11 64c-1 3-4 7-9 7zm199 35h-1c-5-2-9-6-8-11l11-63c3-17-8-32-25-35-16-3-31 8-34 24l-11 64c0 4-4 9-10 9-5 0-9-5-9-11v-1l10-64c5-27 29-43 56-40 27 4 44 28 41 56v1l-11 63c-1 5-4 8-9 8zM545 765h-1c-5-2-9-6-8-11l11-63c3-16-8-31-24-34-17-3-32 7-35 24l-11 63c0 4-4 9-10 9-5 0-9-5-9-11v-1l10-63c5-27 29-44 56-41 27 5 44 29 41 56v1l-11 63c-1 3-4 8-9 8zm199 35h-2c-4-2-9-6-7-11l10-63c3-17-7-32-24-35-7-1-15 0-22 5-6 4-11 12-12 19l-11 64c0 4-4 9-10 9-5 0-9-5-9-11v-1l10-64c5-27 29-43 56-40s43 28 40 55v2l-10 63c-2 5-5 8-9 8z"/><path fill="#952D2E" d="M962 426h-1L376 322c-4-1-7-6-7-12 1-4 6-7 10-7l585 104c4 1 9 6 7 10-1 5-4 8-9 9zm-71 401h-1L306 723c-5-2-8-6-8-12 2-5 6-8 11-8l584 103c5 1 9 6 8 10-2 8-5 11-10 11zm35-201h-1L340 523c-4 0-9-6-9-11s6-9 11-9h1l585 104c4 1 9 6 7 10-1 6-4 9-9 9z"/></svg>