<svg xmlns="http://www.w3.org/2000/svg" width="149.9" height="128" class="icon" viewBox="0 0 1199 1024"><defs/><path fill="#2E2263" d="M897 603A450 450 0 0171 815c-13-20 2-47 26-47h1a441 441 0 00231-65 448 448 0 00217-383c0-34-11-82-21-121-7-27 20-49 45-37 93 48 255 144 297 249 23 59 34 124 30 192z"/><path fill="#F7ED02" d="M630 744c-36 0-70-10-98-29-5-3-11 1-10 7a111 111 0 00216 0c1-6-5-10-10-7-28 19-62 29-98 29z"/><path fill="#FD5681" d="M294 233l-21-21c-5-6-5-15 0-21l21-20c5-6 15-6 20 0l21 20c5 6 5 15 0 21l-21 21c-5 5-15 5-20 0z"/><path fill="#3E47FD" d="M23 478l-10-10c-3-3-3-8 0-10l10-11c3-2 8-2 11 0l10 11c3 2 3 7 0 10l-10 10c-3 3-8 3-11 0zm991-85l-20-21c-6-6-6-15 0-21l20-20c6-6 15-6 21 0l21 20c5 6 5 15 0 21l-21 21c-6 5-15 5-21 0z"/><path fill="#FD5681" d="M195 167l-16-16c-4-4-4-11 0-15l16-15c4-4 11-4 15 0l16 15c4 4 4 11 0 15l-16 16c-4 4-11 4-15 0zM764 49l-15-15c-5-4-5-11 0-15l15-16c4-4 11-4 15 0l16 16c4 4 4 11 0 15l-16 15c-4 5-11 5-15 0zm251 64l-10-10c-3-3-3-8 0-10l10-11c3-2 7-2 10 0l10 11c3 2 3 7 0 10l-10 10c-3 3-7 3-10 0z"/><path fill="#F7ED02" d="M610 608a32 32 0 01-64 0h64zm96 0a32 32 0 0064 0h-64z"/><path fill="#7933FF" d="M929 461c5 12 5 25-2 36-8 13-21 22-45 22-48 0-48-73-95-73-48 0-48 73-96 73s-48-73-95-73c-48 0-48 73-96 73-16 0-27-14-23-29a616 616 0 00-29-371c-5-13 6-27 20-24a619 619 0 01461 366z"/><path fill="#8C71FF" d="M864 391c12 0 20-2 26-6 7 11 13 21 18 32-9 16-16 29-44 29-48 0-48-73-95-73-48 0-48 73-96 73s-48-73-96-73c-46 0-47 69-92 72 3-18 5-36 6-55 39-9 42-71 86-71 48 0 48 72 96 72s48-72 96-72c47 0 47 72 95 72z"/><path fill="#F7ED02" d="M698 768c-5 0-8 3-8 8 0-5-4-8-8-8-5 0-8 3-8 8 0-5-4-8-8-8-5 0-8 3-8 8v82c0 5 3 8 8 8 4 0 8-3 8-8v-38c0-5 3-8 8-8 4 0 8 3 8 8v16c0 4 3 8 8 8 4 0 8-4 8-8v-60c0-5-4-8-8-8z"/><path fill="#FD5681" d="M417 115a65 65 0 10131 0 65 65 0 10-131 0z"/><path fill="#F7ED02" d="M442 115a41 41 0 1082 0 41 41 0 10-82 0z"/><path fill="#2E2263" d="M722 608a16 16 0 1032 0 16 16 0 10-32 0zM562 608a16 16 0 1032 0 16 16 0 10-32 0z"/></svg>