<svg xmlns="http://www.w3.org/2000/svg" width="128.6" height="128" class="icon" viewBox="0 0 1029 1024"><defs/><path fill="#57B894" d="M760 775a23 11 0 1047 0 23 11 0 10-47 0zM779 850a23 11 0 1047 0 23 11 0 10-47 0zM736 862a23 11 0 1047 0 23 11 0 10-47 0zM803 925a23 11 0 1047 0 23 11 0 10-47 0z"/><path fill="#57B894" d="M850 925a23 11 0 1047 0 23 11 0 10-47 0z"/><path fill="#6C63FF" d="M641 332h13s13 94 4 102-33 15-37 0 0-67 0-67z"/><path fill="#2F2E41" d="M475 251a94 80 90 10160 0 94 80 90 10-160 0z"/><path fill="#FFC1C7" d="M537 268s4 37-9 44 15 52 15 52l34 9 24-32-5-33s-26-27-14-51z"/><path d="M537 268s4 37-9 44 15 52 15 52l34 9 24-32-5-33s-26-27-14-51z" opacity=".1"/><path fill="#FFC1C7" d="M487 662s-13 120 0 149l49 108-11 24 29-7 12-23s-14-56-16-76-19-56-19-56l31-131zm105-20s1 121 9 140l-5 164 24 3s36-138 30-171 1-151 1-151zM513 241a42 42 0 1084 0 42 42 0 10-84 0z"/><path fill="#6C63FF" d="M697 658s-29 19-41 5-161 9-180 4 10-74 10-111a421 421 0 0118-98s11-32 9-45a11 11 0 00-1-3 6 6 0 00-1-1c-5-7-20-58-26-80a99 99 0 01-2-10c0-3 41-13 51-14 10 0 13 14 13 14 3 2 18 41 18 41l15-37s-1-7-3-7 17-11 17-11 18 13 27 11 33 17 33 17-40 102-24 124 67 201 67 201z"/><path fill="#2F2E41" d="M563 908s-19 19-19 21l-15-6-8 27c-1 3-19 33-38 46s0 30 16 27 59-41 59-41 28 0 38-22c0 0-26-54-33-52z"/><path fill="#2F2E41" d="M618 940s-28-20-30-1-2 61-2 61-9 27 19 24 30-11 30-11l-14-53v-23z"/><path d="M511 409c-5-7-20-58-26-80h6l21 81a6 6 0 00-1-1zm73 73s-15 1-71-10a112 112 0 01-12-3l3-11s11-32 9-45l5 16c2 1 73 13 83 17s-17 36-17 36zm20-144s30-4 32 1 10 52 13 58 4 44-9 45-31-12-27-23-9-81-9-81z" opacity=".1"/><path fill="#FFC1C7" d="M588 439s47 5 54 0 40-6 33 10-63 16-63 16h-33z"/><path fill="#6C63FF" d="M491 321h-8s-16 3-13 52-14 80 43 91 71 10 71 10 26-31 17-35-81-17-83-18-27-100-27-100z"/><path fill="#FFC1C7" d="M635 343s-19-73-34-73-33 4-20 18 29 30 31 37l5 19z"/><path fill="#6C63FF" d="M608 338s31-4 32 1 10 52 13 58 5 44-8 45-31-12-28-23-9-81-9-81z"/><path fill="#2F2E41" d="M504 202a40 40 0 1079 0 40 40 0 10-79 0z"/><path fill="#6C63FF" d="M0 93a66 66 0 10132 0A66 66 0 100 93z"/><path fill="#F2F2F2" d="M944 331a38 38 0 1076 0 38 38 0 10-76 0zM228 731a55 55 0 10110 0 55 55 0 10-110 0z"/></svg>