<svg xmlns="http://www.w3.org/2000/svg" width="128" height="128" class="icon" viewBox="0 0 1024 1024"><defs/><path fill="#F2F2F2" d="M749 0H128c-23 0-43 19-43 43v938c0 24 20 43 43 43h768c23 0 43-19 43-43V190L749 0z"/><path fill="#CDD6E0" d="M749 156c0 19 15 34 34 34h156L749 0v156z"/><path fill="#FFD15C" d="M486 243h374v49H486z"/><path fill="#CDD6E0" d="M171 405h689v49H171zm0 165h687v49H171z"/><path fill="#4CDBC4" d="M171 732h290v49H171z"/><path fill="#FF7058" d="M171 85h228v237H171z"/><path fill="#FFF" d="M369 181h-64v-64h-43v64h-64v43h64v64h43v-64h64z"/><path fill="#FF7058" d="M849 954h-43l-21 36-72-124 64-36z"/><path fill="#FF7058" d="M593 954h43l21 36 70-124-61-36z"/><path fill="#FFD15C" d="M858 789c0 15-17 26-22 39-4 13 2 32-4 42-9 11-28 11-41 17-10 9-17 28-29 32-13 5-28-8-43-8s-30 13-43 8c-13-4-19-23-30-32-10-8-32-6-40-17-9-10 0-29-4-42-5-13-22-24-22-39s17-25 22-38c4-13-3-32 4-43 8-10 28-10 40-17 11-8 17-28 30-32s28 9 43 9 30-13 43-9c12 4 19 24 29 32 11 9 32 7 41 17 9 11 0 30 4 43 5 15 22 26 22 38z"/><path fill="#F8B64C" d="M631 789a90 90 0 10180 0 90 90 0 10-180 0z"/></svg>