<svg xmlns="http://www.w3.org/2000/svg" width="128" height="128" class="icon" viewBox="0 0 1024 1024"><defs/><path fill="#FCFCFC" d="M480 64v112H240v-32l240-80z"/><path fill="#58DFF5" d="M368 528v32a32 32 0 01-32 32h-64a32 32 0 01-32-32v-32zm640-160v224h-64V368h64zM672 288a48 48 0 1096 0 48 48 0 10-96 0zM480 288a48 48 0 1096 0 48 48 0 10-96 0z"/><path fill="#848484" d="M448 400h80a64 64 0 00-64 64 64 64 0 01-64 64h-16v-64a64 64 0 0164-64z"/><path fill="#CFCFCF" d="M720 752v32a64 64 0 01-64 64H16l80-53a64 64 0 0135-11h509V400h16a64 64 0 0164 64z"/><path fill="#F0F0F0" d="M944 784v128a96 96 0 01-96 96H112a96 96 0 01-96-96v-64h640a64 64 0 0064-64V464a64 64 0 00-64-64H448a64 64 0 00-64 64v64H208a64 64 0 01-64-64V272a96 96 0 0196-96h608a96 96 0 0196 96v512zM768 288a48 48 0 10-48 48 48 48 0 0048-48zm-192 0a48 48 0 10-48 48 48 48 0 0048-48z"/><path fill="#58DFF5" d="M704 16h128v160H704z"/><path fill="#FB9881" d="M608 16v160H480V16h128z"/><path fill="#848484" d="M656 400h-16v384l52 52a64 64 0 0028-52V464a64 64 0 00-64-64z"/><path fill="#4FC3F2" d="M720 320a48 48 0 01-47-40 49 49 0 00-1 8 48 48 0 0096 0 49 49 0 00-1-8 48 48 0 01-47 40z"/><path fill="#CFCFCF" d="M80 912v-64H16v64a96 96 0 0096 96h64a96 96 0 01-96-96zm128-448V272a96 96 0 0196-96h-64a96 96 0 00-96 96v192a64 64 0 0064 64h64a64 64 0 01-64-64z"/><path fill="#F7F7F7" d="M848 176h-64a96 96 0 0196 96v640a96 96 0 01-96 96h64a96 96 0 0096-96V272a96 96 0 00-96-96z"/><path fill="#4FC3F2" d="M976 368v160a32 32 0 0032 32v32h-64V368zm-448-48a48 48 0 01-47-40 49 49 0 00-1 8 48 48 0 0096 0 49 49 0 00-1-8 48 48 0 01-47 40zM832 64h-64a32 32 0 00-32 32v80h-32V16h128z"/><path fill="#FF6E8D" d="M608 64h-64a32 32 0 00-32 32v80h-32V16h128z"/><path fill="#4FC3F2" d="M240 528v32a32 32 0 0032 32v-16a16 16 0 0116-16h80v-32z"/><path fill="#90EBF0" d="M816 80q16 0 16 16v64q0 16-16 16t-16-16V96q0-16 16-16z"/><path fill="#FFC69E" d="M592 80q16 0 16 16v64q0 16-16 16t-16-16V96q0-16 16-16z"/><path fill="#9C9C9C" d="M672 768V544q0-16 16-16t16 16v224q0 16-16 16t-16-16zM688 464q16 0 16 16v16q0 16-16 16t-16-16v-16q0-16 16-16z"/><path fill="#F6FAFD" d="M808 878a37 26 45 1038-37 37 26 45 10-38 37z"/><path fill="#F6FAFD" d="M818 805a18 13 45 1018-19 18 13 45 10-18 19zM722 293a18 13 45 1018-19 18 13 45 10-18 19zM530 293a18 13 45 1018-19 18 13 45 10-18 19z"/><path d="M1008 352h-48v-80a112 112 0 00-112-112V48h-32v112h-96V48h-32v112h-64V48h-32v112h-96V48h-32v4l-208 70v-10h-32v49a112 112 0 00-96 111v64h32v-64a80 80 0 0180-80h608a80 80 0 0180 80v144h32v-32h32v192h-32V448h-32v192h32v-32h48a16 16 0 0016-16V368a16 16 0 00-16-16zM464 86v74H256v-4z"/><path d="M784 288a64 64 0 10-64 64 64 64 0 0064-64zm-96 0a32 32 0 1132 32 32 32 0 01-32-32zm-96 0a64 64 0 10-64 64 64 64 0 0064-64zm-96 0a32 32 0 1132 32 32 32 0 01-32-32zM672 0h192v32H672zM448 0h192v32H448zM208 544h16v16a48 48 0 0048 48h16v128h32V608h16a48 48 0 0048-48v-16h16a80 80 0 0080-80 48 48 0 0148-48h96v32h32v-32a48 48 0 0148 48v192h32V464a80 80 0 00-80-80H448a80 80 0 00-80 80v48H208a48 48 0 01-48-48v-32h-32v32a80 80 0 0080 80zm144 16a16 16 0 01-16 16h-64a16 16 0 01-16-16v-16h96zm48-96a48 48 0 0148-48h16a79 79 0 00-16 48 48 48 0 01-48 48zm304 224h32v32h-32z"/><path d="M928 912a80 80 0 01-80 80H112a80 80 0 01-80-80v-48h624a80 80 0 0080-80v-32h-32v32a48 48 0 01-48 48H69l36-24a48 48 0 0126-8h509a16 16 0 0016-16V480h-32v288H131a80 80 0 00-44 13L7 835a16 16 0 00-7 13v64a112 112 0 00112 112h736a112 112 0 00112-112V672h-32zM128 368h32v32h-32z"/></svg>