<svg xmlns="http://www.w3.org/2000/svg" width="128" height="128" class="icon" viewBox="0 0 1024 1024"><defs/><path fill="#F44444" d="M180 539c99 77-6 115 17 136 18 17 152-23 163-26 36-10 110-43 179-109 46-44 86-99 101-157 14-56 1-116-41-157a157 157 0 00-240 19 160 160 0 00-240-20c-42 42-54 101-40 157 14 58 55 113 101 157z"/><path d="M199 684c-11 0-18-1-23-5-10-10-2-22 7-34s18-25 18-41c0-19-13-39-41-61-38-37-87-94-103-159-15-61 0-121 41-162 30-30 72-47 116-47a166 166 0 0150 7c31 11 58 30 78 55a164 164 0 01244-14c41 40 57 100 42 161-16 66-65 123-102 159a465 465 0 01-182 111h-2c-38 12-108 30-143 30zm-33-149c70 55 42 93 25 116-9 13-11 17-8 21 1 0 5 2 16 2 25 0 76-10 141-29l2-1c15-4 96-30 177-108 36-35 83-91 99-154 14-57-1-114-39-152-29-29-67-45-108-45-50 0-96 23-125 63a5 5 0 01-4 3 5 5 0 01-4-3c-19-26-46-46-77-56a156 156 0 00-47-7c-41 0-80 16-109 44-38 38-53 95-38 152 15 63 63 119 99 154z"/><path fill="#FFF" d="M104 395a5 5 0 01-5-3 189 189 0 01-2-10 5 5 0 013-6 5 5 0 017 4 179 179 0 002 9 5 5 0 01-5 6zm-5-24a5 5 0 01-5-4 151 151 0 012-59v-1a144 144 0 015-16 140 140 0 0110-23 5 5 0 119 5 130 130 0 00-10 21 134 134 0 00-5 16l-3 27c-1 9 0 19 2 28a5 5 0 01-5 6zm48-132a5 5 0 01-3-9c22-18 49-29 77-31a5 5 0 016 4 5 5 0 01-5 6c-26 2-51 12-72 29a5 5 0 01-3 1z"/><path fill="#C13E3E" d="M215 409a23 23 0 1045 0 23 23 0 10-45 0z"/><path fill="#F4DD50" d="M227 373a23 23 0 11-15 5"/><path d="M227 425a28 28 0 01-18-51 5 5 0 016 8 18 18 0 00-7 14 18 18 0 1019-18 5 5 0 010-10 28 28 0 010 57z"/><path fill="#C13E3E" d="M349 409a23 23 0 1045 0 23 23 0 10-45 0z"/><path fill="#F4DD50" d="M337 396a23 23 0 1047 0 23 23 0 10-47 0z"/><path d="M360 425a28 28 0 111-57 28 28 0 01-1 57zm0-47a18 18 0 101 37 18 18 0 00-1-37z"/><path fill="#C13E3E" d="M477 409a23 23 0 1045 0 23 23 0 10-45 0z"/><path fill="#F4DD50" d="M465 396a23 23 0 1047 0 23 23 0 10-47 0z"/><path d="M489 425a28 28 0 110-57 28 28 0 010 57zm0-47a18 18 0 100 37 18 18 0 000-37z"/><path fill="#F4DD50" d="M858 724c40-38 75-84 87-134 12-48 2-99-34-134a137 137 0 00-206 17 134 134 0 00-205-17c-36 36-46 87-35 135 13 50 47 96 87 134 59 57 122 84 153 93 9 3 123 37 139 23 20-18-70-51 14-117z"/><path d="M843 849c-31 0-91-16-123-25l-2-1c-14-4-84-27-155-95-33-31-74-80-88-136-13-52 1-104 36-139 26-26 61-41 99-41 43 0 83 19 110 53 17-21 40-38 67-46a143 143 0 0143-7c37 0 73 15 99 41 35 35 49 87 35 138a307 307 0 01-88 137c-52 41-34 66-20 86 4 6 8 10 9 15 3 7 0 12-3 15-4 4-10 5-19 5zM610 422c-35 0-67 14-92 38-33 33-45 81-33 129 13 55 53 102 85 132 69 67 138 89 151 93h1c55 16 99 25 121 25 9 0 12-1 12-2 3-3 1-6-7-17-14-19-38-52 22-99 31-31 71-78 85-132 12-48 0-97-33-129-24-24-58-38-92-38a133 133 0 00-40 6c-27 9-50 26-66 48a5 5 0 01-8 0c-25-34-64-54-106-54z"/><path fill="#FFF" d="M923 602a5 5 0 01-4-7 152 152 0 002-7 5 5 0 019 2 162 162 0 01-2 8 5 5 0 01-5 4zm5-21a5 5 0 01-5-5 128 128 0 002-24l-3-24a114 114 0 00-4-13 110 110 0 00-8-18 5 5 0 018-5 120 120 0 019 20 124 124 0 015 14l3 25a138 138 0 01-2 26 5 5 0 01-5 4zm-41-113a5 5 0 01-4-1c-17-14-38-23-61-25a5 5 0 111-10c25 3 48 12 67 27a5 5 0 01-3 9z"/><path fill="#C4AB45" d="M790 613a19 19 0 1039 0 19 19 0 10-39 0z"/><path fill="#F44444" d="M819 582a20 20 0 1012 5"/><path d="M819 627a25 25 0 010-50 5 5 0 110 10 15 15 0 109 4 5 5 0 117-8 25 25 0 019 19c0 14-11 25-25 25z"/><path fill="#C4AB45" d="M676 613a19 19 0 1038 0 19 19 0 10-38 0z"/><path fill="#F44444" d="M684 602a20 20 0 1040 0 20 20 0 10-40 0z"/><path d="M704 627a25 25 0 110-50 25 25 0 010 50zm0-40a15 15 0 100 30 15 15 0 000-30z"/><path fill="#C4AB45" d="M566 613a19 19 0 1038 0 19 19 0 10-38 0z"/><path fill="#F44444" d="M574 602a20 20 0 1040 0 20 20 0 10-40 0z"/><path d="M594 627a25 25 0 111-50 25 25 0 01-1 50zm0-40a15 15 0 101 30 15 15 0 00-1-30z"/></svg>