<svg xmlns="http://www.w3.org/2000/svg" width="137.8" height="128" class="icon" viewBox="0 0 1102 1024"><defs/><path fill="#3295FC" d="M550 264a132 132 0 11132-132 132 132 0 01-132 132zm0-192a60 60 0 1060 60 60 60 0 00-60-60zm420 734a132 132 0 11133-131 132 132 0 01-133 131zm0-191a60 60 0 1060 60 60 60 0 00-60-60zM132 806a132 132 0 11132-131 132 132 0 01-132 131zm0-191a60 60 0 1060 60 60 60 0 00-60-60z"/><path fill="#3295FC" d="M153 581v-18a400 400 0 01311-389 95 95 0 01-10-41 96 96 0 013-21A461 461 0 0091 563v24a92 92 0 0162-6zm484-408a400 400 0 01313 390v17a96 96 0 0119-2 95 95 0 0143 11v-26a461 461 0 00-368-451 92 92 0 01-6 61zm-85 790a399 399 0 01-356-217 95 95 0 01-56 24 460 460 0 00823 0 95 95 0 01-57-24 399 399 0 01-354 217z"/><path fill="#F8AD4B" d="M785 381H599v-54h-72v54H340v74h45v362h356V455h44zM681 758H444V455h237zm0 0"/><path fill="#F8AD4B" d="M528 571h70v53h-70zm0 85h70v53h-70z"/></svg>