<svg xmlns="http://www.w3.org/2000/svg" width="128" height="128" class="icon" viewBox="0 0 1024 1024"><defs/><path fill="#FFD8A0" d="M203 365a41 41 0 110-81 41 41 0 010 81zm0-63a23 23 0 100 45 23 23 0 000-45z"/><path fill="#FFF7EC" d="M788 284a41 41 0 111-82 41 41 0 01-1 82zm0-63a23 23 0 100 45 23 23 0 000-45z"/><path fill="#FFF4E4" d="M113 698a41 41 0 110-81 41 41 0 010 81zm0-63a23 23 0 100 45 23 23 0 000-45z"/><path fill="#FFC879" d="M986 509a32 32 0 111-63 32 32 0 01-1 63zm0-45a14 14 0 101 27 14 14 0 00-1-27zM329 275a32 32 0 110-63 32 32 0 010 63zm0-45a14 14 0 100 27 14 14 0 000-27z"/><path fill="#FFD495" d="M928 412l4-30-39 7 3-41-40 7 4-53 17 1-1 30 39-7-2 41 40-7-4 32 31-2 1 18z"/><path fill="#FFF3E3" d="M269 809l-2-31-36 14-6-41-37 15-7-53 18-2 4 30 37-15 5 41 39-15 2 33 29-9 5 18zm599-64v-18h30l-11-39 42-1-11-40 33 2-6-31 18-3 9 53-30-2 10 38-41 1 10 39z"/><path fill="#FFBD5E" d="M85 552l-47-24 19-24-36-14 24-34-38-15 31-43 15 11-18 24 38 15-24 34 38 15-21 25 28 14z"/><path fill="#FFD3A8" d="M678 633c14 0 25-12 25-25V321c0-13-11-24-25-24H292c-13 0-25 11-25 24v287c0 13 12 25 25 25h386z"/><path fill="#FF7E00" d="M730 366H345c-14 0-25 12-25 25v286c0 14 11 25 25 25h385c14 0 25-11 25-25V391c0-13-11-25-25-25zm-243 50c17 0 31 14 31 31 0 18-14 33-31 33-18 0-31-14-31-31 1-19 15-33 31-33zm-11 237c-10 0-19-9-19-19s9-19 19-19 18 9 18 19-8 19-18 19zm62 0c-10 0-19-9-19-19s9-19 19-19 19 9 19 19-9 19-19 19zm62 0c-10 0-19-9-19-19s9-19 19-19 19 9 19 19-9 19-19 19zm92-88H395c-4 0-8-2-10-4-4-5-3-14 2-18l43-31c8-6 18-6 27-1l46 28 100-62c10-6 22-5 29 3l69 64 4 9c0 8-5 12-13 12z"/></svg>