<svg xmlns="http://www.w3.org/2000/svg" width="128" height="128" class="icon" viewBox="0 0 1024 1024"><defs/><path fill="#FFF" d="M880 896c0-126-64-238-161-304a368 368 0 01-414 0 368 368 0 00-161 304 48 48 0 0048 48h640a48 48 0 0048-48z"/><path fill="#82AAFA" d="M880 896c0-126-64-238-161-304a366 366 0 01-207 64c-77 0-144-31-160-40-85 68-160 168-160 280a48 48 0 0048 48h592a48 48 0 0048-48z"/><path fill="#FFF" d="M288 304a224 224 0 10448 0 224 224 0 10-448 0z"/><path fill="#FF9580" d="M336 328a200 200 0 10400 0 200 200 0 10-400 0z"/><path fill="#333" d="M832 960H192a64 64 0 01-64-64 384 384 0 01168-317 16 16 0 0118 0 352 352 0 00396 0 16 16 0 0118 0 384 384 0 01168 317 64 64 0 01-64 64zM305 611a352 352 0 00-145 285 32 32 0 0032 32h640a32 32 0 0032-32 352 352 0 00-145-285 384 384 0 01-414 0zm207-67a240 240 0 01-170-410 240 240 0 01340 340 238 238 0 01-170 70zm0-448a208 208 0 100 416 208 208 0 000-416z"/><path fill="#333" d="M576 864H448a32 32 0 010-64h128a32 32 0 010 64z"/></svg>