<svg xmlns="http://www.w3.org/2000/svg" width="128" height="128" class="icon" viewBox="0 0 1024 1024"><defs/><path fill="#FF7676" d="M76 712c-21 21-14 46 20 47l97 13c34 4 27 5 31 37l11 89c1 35 27 41 47 20l69-69 71-71a60 60 0 01-18-10l-50-127-154-54L76 712zm0 0"/><path fill="#FD574A" d="M293 806l-62 62 4 30c1 35 27 41 47 20l69-69 71-71a60 60 0 01-18-10l-40-33-71 71zm0 0"/><path fill="#FF7676" d="M602 778l71 71 69 69c20 21 46 15 47-20l11-89c4-32-3-33 31-37l97-13c34-1 41-26 20-47L823 586l-168 17-53 175zm0 0"/><path fill="#FD574A" d="M775 643l120 120 33-4c34-1 41-26 20-47L823 586l-95 10 47 47zm0 0"/><path fill="#FFEAA7" d="M538 100l47 22 66 5c9 0 30 7 43 25l31 41 56 35c8 5 23 20 26 42l9 51 34 57c5 8 10 29 3 49l-16 50 4 66c0 9-4 31-20 45l-37 36-28 61c-4 8-17 25-38 31l-50 14-52 41c-8 6-28 14-49 9l-50-10-66 12c-9 2-30 0-47-14l-40-33-63-20c-9-3-27-15-35-35l-21-47-46-48c-7-6-18-25-15-47l4-51-20-64c-3-9-4-31 9-49l27-44 12-65c2-9 11-29 30-39l45-26 41-52c6-8 23-21 45-21l51-2 61-27c9-4 30-8 49 2zm0 0"/><path fill="#FCCE5C" d="M511 704a266 266 0 100-532 266 266 0 000 532zm0 0"/><path fill="#FFEAA7" d="M853 427c7-20 2-41-3-49l-34-57-9-51c-3-22-18-37-26-42l-56-35-31-41a63 63 0 00-43-26l-66-4-47-22c-14-7-30-7-41-5 34 21 65 51 91 88a266 266 0 01141 408 267 267 0 01-97 85 442 442 0 01-23 47 381 381 0 01-40 58 62 62 0 0047-10l52-41 50-14c21-6 34-23 38-31l28-61 36-35 1-1c16-14 20-36 20-45l-4-66 16-50zm0 0"/></svg>