<svg xmlns="http://www.w3.org/2000/svg" width="168.1" height="128" class="icon" viewBox="0 0 1345 1024"><defs/><path fill="#F2F2F2" d="M1000 193a111 111 0 009-12l-60-14 66 5a111 111 0 008-88l-92 40 86-54a111 111 0 10-192 111 111 111 0 00-14 20l77 46-83-34a111 111 0 0011 105 111 111 0 0055 182 38 38 0 00-3 13 37 37 0 004 19 38 38 0 00-3 37 38 38 0 00-2 37 38 38 0 00-3 37 37 37 0 00-6 18c-1 16 8 31 21 31s24-12 25-28a37 37 0 00-3-19 38 38 0 002-37 38 38 0 003-37 38 38 0 002-37 37 37 0 006-18 38 38 0 00-1-13 111 111 0 0077-173 111 111 0 0010-137z"/><path fill="#3F3D56" d="M1121 682c0 17-116 73-253 73s-245-56-245-73 107 14 245 14 253-30 253-14z"/><path d="M1121 682c0 17-116 73-253 73s-245-56-245-73 107 14 245 14 253-30 253-14z" opacity=".1"/><path fill="#3F3D56" d="M623 682a249 30 0 10498 0 249 30 0 10-498 0z"/><path d="M793 686a84 24 0 10169 0 84 24 0 10-169 0z" opacity=".1"/><path fill="#3F3D56" d="M896 526a37 37 0 005-19c0-16-10-30-23-30s-23 14-23 30a37 37 0 005 19 38 38 0 000 37 38 38 0 000 37 38 38 0 000 37 37 37 0 00-5 19c0 17 10 30 23 30s23-13 23-30a37 37 0 00-5-19 38 38 0 000-37 38 38 0 000-37 38 38 0 000-37zM855 470a30 23 90 1046 0 30 23 90 10-46 0zM855 433a30 23 90 1046 0 30 23 90 10-46 0z"/><path fill="#6C63FF" d="M965 180a111 111 0 008-13l-61-10h66a111 111 0 002-88l-88 46 82-60a111 111 0 10-184 125 111 111 0 00-12 20l79 41-85-28a111 111 0 0018 104 111 111 0 10175 0 111 111 0 000-137z"/><path d="M766 248a111 111 0 0024 69 111 111 0 10175 0c15-19-199-81-199-69z" opacity=".1"/><path fill="#F2F2F2" d="M1273 357l25-22c-49-9-99 35-112 98a13 13 0 00-2 0l-28-92a161 161 0 00-2 33l-22-42c-9 47 12 92 47 102a61 61 0 01-9 0 28 28 0 000 7 6 6 0 002 3l8 4h1a143 143 0 0021 5v1h1v-1h1a2 2 0 001 0 2 2 0 000-1 3 3 0 001-1c0-4-6-13-6-16 0-2-6-3-11-2l92-75a70 70 0 00-8-1z"/><path fill="#3F3D56" d="M1345 446c0 12-78 50-171 50s-166-38-166-50 73 9 166 9 171-20 171-9z"/><path d="M1345 446c0 12-78 50-171 50s-166-38-166-50 73 9 166 9 171-20 171-9z" opacity=".1"/><path fill="#3F3D56" d="M1008 446a169 20 0 10337 0 169 20 0 10-337 0z"/><path d="M1140 446a36 12 0 1073 0 36 12 0 10-73 0z" opacity=".1"/><path fill="#3F3D56" d="M1101 346c0 52 32 93 72 93"/><path fill="#6C63FF" d="M1173 439c0-52 36-94 80-94m-126 6c0 49 21 88 46 88"/><path fill="#3F3D56" d="M1173 439c0-66 42-120 93-120"/><path fill="#A8A8A8" d="M1158 440s10-1 13-3 16-5 17-1 15 17 4 17-27-1-30-3-4-10-4-10z"/><path d="M1192 452c-12 0-27-2-30-3-2-2-3-7-4-9s1 8 4 10 18 4 30 3c3 0 4-1 4-3 0 2-2 2-4 2z" opacity=".2"/><path fill="#F2F2F2" d="M276 306l13 20c-5 6-8 12-6 16 5 11 16 24 22 31s7 26 47 24 57-21 57-21 4 33 21 45a14 14 0 01-6 5c-18 8-38 76-52 113-15 40 8 33 8 33l21 2c8 19 20 62 6 105-10 31-8 63-4 87l-9 10c-10 3-13 9-13 9l-23 33 4 2 14-19s3 3 7 11-8 42-8 45 11 19 26 25a8 8 0 003 0l-2 16h9l2-29 8 45c1 4 14 4 28 6s27-14 13-23-15-36-15-36c6-20-9-46-9-46l-1-18a5 5 0 01-4 3l2-23c16-18 36-42 47-57 18-25 17-33 17-33l19-84a101 101 0 0019-1c13-2 8-44 1-78l10-35a108 108 0 005-22c2-31-8-57-13-67l2-4s15-16 3-44a63 63 0 001-9 66 66 0 00-8-38 4 4 0 00-1-1c-5-4-29-13-34-15a2 2 0 000-1c-2 0 0-8 2-15a34 34 0 006-7 65 65 0 0020-108 34 34 0 00-11-50 34 34 0 017 46l-3-1a34 34 0 10-65-6 65 65 0 00-12 111 46 46 0 01-41-2 46 46 0 0048 7 34 34 0 0012 13 20 20 0 01-2 4l-2-2-9 10-24 5s-15 2-32 18-45 25-45 25l-23-6s-25-14-25-18l-2 1-12-26s-24-58-39-44 25 63 25 63zm166 388l1-7c7-11 12-37 14-62l-3 60a40 40 0 00-12 9zm-31 126v9a56 56 0 00-6 15c0-5 3-14 6-24z"/><path fill="#3F3D56" d="M826 904c0 27-192 120-420 120S0 931 0 904s178 22 406 22 420-49 420-22z"/><path d="M826 904c0 27-192 120-420 120S0 931 0 904s178 22 406 22 420-49 420-22z" opacity=".1"/><path fill="#3F3D56" d="M0 904a413 49 0 10826 0 413 49 0 10-826 0z"/><path d="M279 895a137 29 0 10273 0 137 29 0 10-273 0z" opacity=".1"/><path fill="#2F2E41" d="M402 255a45 45 0 00-2-74 45 45 0 11-45 79 45 45 0 0047-5z"/><path fill="#6C63FF" d="M484 297h7a65 65 0 0110 54c-8 31-2 37-2 37s29 41 18 92-8 56-8 56l-21-40-11-108z"/><path d="M484 297h7a65 65 0 0110 54c-8 31-2 37-2 37s29 41 18 92-8 56-8 56l-21-40-11-108z" opacity=".1"/><path fill="#2F2E41" d="M366 203a65 65 0 10131 0 65 65 0 10-131 0z"/><path fill="#FBBEBE" d="M458 258s-7 26-3 26 14 14 14 14l8 27-6 19-20-4-24-27-8-7-6-24s8-10 2-18 43-6 43-6z"/><path d="M458 258s-7 26-3 26 14 14 14 14l8 27-6 19-20-4-24-27-8-7-6-24s8-10 2-18 43-6 43-6z" opacity=".1"/><path fill="#FBBEBE" d="M260 330l-18-29s-19-43-33-28 21 47 21 47l18 24zm239 256l-13 95s1 8-15 35-61 85-61 85l-13-24s16-78 43-94l-3-118z"/><path d="M499 586l-13 95s1 8-15 35-61 85-61 85l-13-24s16-78 43-94l-3-118z" opacity=".1"/><path fill="#2F2E41" d="M397 767l18 34s-14 42-9 46 13 41-2 37-28-21-28-23 9-37 4-45l-8-11-12 21-4-3 20-34s3-6 12-11z"/><path d="M397 767l18 34s-14 42-9 46 13 41-2 37-28-21-28-23 9-37 4-45l-8-11-12 21-4-3 20-34s3-6 12-11z" opacity=".1"/><path fill="#FBBEBE" d="M437 572s6 90-8 114v118l-19 2s-31-63-17-125-21-116-21-116zM398 243a34 34 0 1068 0 34 34 0 10-68 0z"/><path fill="#6C63FF" d="M467 334l-34-44-20-13-8 11-23 6s-15 4-30 22-44 28-44 28l-22-4s-27-12-27-15-24 22-18 31 18 22 24 29 9 25 49 20 55-26 55-26 7 38 28 45 91 12 91 12l15-49s16-21-6-52c0 0 0-17-3-29-1-4-2-8-4-9-5-5-35-13-35-13s4 16 7 17 8 28 5 33z"/><path fill="#2F2E41" d="M357 577c41-3 65 4 76 9a27 27 0 015 4l1 1c0 3 57 7 77 3s-14-111-23-120-4-42-4-42-18-3-23-2-30-2-39-7-20-2-28-3c-3-1-4 0-5 2a14 14 0 01-6 5c-17 10-31 79-42 118-11 41 11 32 11 32zm76 219l3 18s17 25 12 45c0 0 4 27 19 35s2 24-12 23-27 1-28-3l-12-44v29l-8 1v-37s-6-12 3-32l-3-32s23 6 26-3zM397 138a34 34 0 1069 0 34 34 0 10-69 0z"/><path fill="#2F2E41" d="M458 158a34 34 0 00-1-55 34 34 0 11-34 59 34 34 0 0035-4zM397 216a35 28 0 1071 0 35 28 0 10-71 0z"/><path d="M433 586a27 27 0 015 4c1-8 3-55 0-54z" opacity=".1"/><path fill="#FF6584" d="M29 196a115 115 0 10231 0 115 115 0 10-231 0z"/><path fill="#FBBEBE" d="M211 291a9 4 25 104-8 9 4 25 10-4 8z"/></svg>