<svg xmlns="http://www.w3.org/2000/svg" width="128" height="128" class="icon" viewBox="0 0 1024 1024"><defs/><path fill="#FF6E74" d="M25 73l405-42 10 100-405 42z"/><path fill="#EA3038" d="M35 173L25 73l405-42 11 100zm21-74l5 43 348-37-4-43z"/><path fill="#FF6E74" d="M114 924l405-43 11 100-405 43z"/><path fill="#EA3038" d="M125 1024l-11-100 405-43 11 100zm13-81l6 57 362-38-6-57z"/><path fill="#FF6E74" d="M91 218l372-39 68 650-371 39z"/><path fill="#EA3038" d="M109 874L41 223l405-42 68 650zM72 249l62 593 349-36-62-594z"/><path fill="#FFF100" d="M185 782l-49-467 236-25 49 467zm-34-455l46 439 208-22-46-439z"/><path fill="#FF6E74" d="M608 95l7-95 383 27-7 94z"/><path fill="#EA3038" d="M991 121L608 95l7-95 383 27zM639 68l326 23 2-38-326-23z"/><path fill="#FF6E74" d="M552 898l7-94 382 26-6 95z"/><path fill="#EA3038" d="M935 925l-383-27 7-94 382 26zm-353-53l326 23 3-38-326-23z"/><path fill="#FF6E74" d="M605 753l43-614 351 24-43 615z"/><path fill="#EA3038" d="M945 783l-383-27 43-614 383 27zm-353-53l326 23 39-558-326-23z"/><path fill="#FFF100" d="M870 699l-223-16 31-441 223 15zm-208-29l195 14 29-413-195-14z"/></svg>