<svg xmlns="http://www.w3.org/2000/svg" width="128" height="128" class="icon" viewBox="0 0 1024 1024"><defs/><path fill="#2766D8" d="M556 666c0 27-21 49-47 49-25 0-46-22-46-49l-1-143c0-27 21-49 47-49 25 0 46 22 46 49l1 143z"/><path fill="#2B2B2B" d="M509 730c-34 0-61-29-61-64l-1-143c0-35 28-64 62-64s61 29 61 64l1 143c0 17-7 33-18 45a60 60 0 01-44 19zm0-241c-18 0-32 15-32 34l1 143c0 19 14 34 31 34 8 0 16-4 22-10s10-15 10-24l-1-143c0-19-14-34-31-34z"/><path fill="#F2D8AA" d="M403 334a106 106 0 10212 0 106 106 0 10-212 0z"/><path fill="#2B2B2B" d="M509 454a119 119 0 110-239 119 119 0 010 239zm0-212a92 92 0 00-90 74 92 92 0 1090-74z"/><path fill="#FFF" d="M174 246a34 34 0 11-67 0V129a34 34 0 1167 0v117z"/><path fill="#2B2B2B" d="M141 294c-27 0-49-21-49-48V129a49 49 0 0197 0v117c0 27-22 48-48 48zm0-184c-11 0-19 8-19 19v117a19 19 0 0037 0V129c0-11-8-19-18-19z"/><path fill="#FFF" d="M917 246a34 34 0 11-67 0V129a34 34 0 1167 0v117z"/><path fill="#2B2B2B" d="M883 294c-26 0-48-21-48-48V129a49 49 0 0197 0v117c0 27-22 48-49 48zm0-184c-10 0-18 8-18 19v117a19 19 0 0037 0V129c0-11-8-19-19-19z"/><path fill="#FFF" d="M176 186h671"/><path fill="#2B2B2B" d="M847 201H176a15 15 0 010-30h671a15 15 0 010 30z"/><path fill="#2B2B2B" d="M561 521a15 15 0 01-10-27c49-41 132-111 142-124 8-10 42-99 70-179a15 15 0 1128 9c0 1-14 42-31 86-33 89-41 99-44 103-15 20-133 117-146 128a15 15 0 01-9 4zm-101 6c-3 0-7-2-10-4l-73-63-50-45c-23-22-27-27-27-34-4-14-45-122-71-188a15 15 0 0128-11l36 93 36 99c11 13 79 73 141 126 6 6 7 15 2 21a15 15 0 01-12 6zM349 945l-8-2c-7-5-9-14-4-21l140-215a15 15 0 1126 17L362 938c-3 5-8 7-13 7zm287 6a15 15 0 01-5-1c-8-2-12-10-10-18 0-1 10-33 18-67 14-58 12-75 12-79-12-10-74-39-127-61a15 15 0 1112-27l61 26c57 27 71 37 77 43 7 8 14 23-4 99-9 38-20 73-20 74-2 7-8 11-14 11z"/></svg>