<svg xmlns="http://www.w3.org/2000/svg" width="128" height="128" class="icon" viewBox="0 0 1024 1024"><defs/><path fill="#FF7F15" d="M772 766H325V396a223 223 0 11447 0v370z"/><path fill="#FF9E3D" d="M722 733H314V376a204 204 0 01408 0v357z"/><path fill="#007C56" d="M483 668a325 325 0 00-242 224h595a324 324 0 00-244-224 290 290 0 00-109 0"/><path fill="#009370" d="M460 682a298 298 0 00-218 209h537a297 297 0 00-221-210 253 253 0 00-98 1"/><path fill="#FFF" d="M445 818c53-9 67-52 67-52-56 0-105-31-131-77 10-4-47 21-78 45 41 72 98 91 142 84z"/><path fill="#FFE67D" d="M445 818c53-9 67-52 67-52-46 0-86-20-114-52-6-8-3-3-8-6 9-4-35 19-71 51 39 51 87 65 126 59z"/><path fill="#FFE67D" d="M576 818c-53-9-67-52-67-52 56 0 105-31 130-77-9-4 48 21 79 45-41 72-98 91-142 84z"/><path fill="#FFF" d="M455 604h109v82H455zm-1-383c-1-6-6-9-12-9l-15 6a10 10 0 009 18c4-3 7-3 9-4 6-1 10-6 9-11zm-56 13c-16 8-29 24-29 25-3 4-3 11 2 14l6 2c3 0 6-2 8-4 0 0 10-14 21-19 5-3 7-9 5-14-3-5-9-7-14-4z"/><path fill="#FFF" d="M646 417c-82-52-139-68-186-140-71 16-118 100-118 187v8l3 4c25 77 90 131 165 131 83 0 153-65 172-154v-2c-10-13-22-24-36-34z"/><path fill="#FFE67D" d="M646 417l-33-20 8 5c15 10 27 22 37 35v2c-19 90-78 161-175 157-16-1-32-3-47-8 22 12 48 19 74 19 84 0 153-65 172-154v-2c-10-13-22-24-36-34z"/><path fill="#FFF" d="M512 766c56 0 105-31 131-77a340 340 0 00-261 0c25 46 74 77 130 77z"/><path fill="#003D3D" d="M512 895c-5 0-8-4-8-8v-30c0-5 3-8 8-8s8 3 8 8v30c0 4-4 8-8 8z"/><path fill="#003D3D" d="M843 889c-15-44-39-84-69-117V399c0-64-26-123-73-168s-109-70-175-70-129 25-176 70-73 104-73 168v346c-42 38-76 88-96 144-1 4 1 9 5 10l3 1c3 0 6-2 7-6 21-58 58-109 104-148 20 31 43 53 69 67a127 127 0 0078 13c36-6 55-27 65-42 9 15 29 36 65 42l19 1c19 0 36-5 53-15 23-13 45-37 68-71 50 39 89 92 111 154a8 8 0 0010 4c5-1 7-6 5-10zm-399-79c-23 3-46 0-67-11-25-13-46-34-64-63 20-15 42-27 65-37 26 43 72 71 122 75-8 11-24 30-56 36zm64-205c-36 0-70-12-99-34a171 171 0 01-59-88v-22c0-42 11-83 31-116 19-32 46-54 75-62 35 51 75 74 126 103 19 10 38 21 59 35 12 7 23 17 32 28l-5 26c-9 37-29 70-58 93-29 24-64 37-102 37zm-55 71c4-1 7-5 6-9v-53a177 177 0 00103-2v55c0 4 3 8 7 9 21 3 42 9 62 16a141 141 0 01-238 1c19-8 39-13 60-17zm188 122a86 86 0 01-61 12c-32-5-48-24-56-36 50-4 96-32 122-75 20 8 40 19 58 32-21 33-42 55-63 67zm-63-137v-55a176 176 0 0089-82h7c12 0 23-4 31-12l6 22c10 45 10 91 8 122 0 4 3 8 7 9h1c4 0 8-4 8-8 2-32 2-80-9-127-12-57-38-99-76-123l-60-35c-49-28-89-51-122-100l-4-8-3-3c-2-4-7-5-11-3-3 2-4 7-3 11-31 10-59 34-79 67-22 36-34 80-34 125v93c0 5 3 8 8 8s8-3 8-8v-29a186 186 0 0093 84v53c-22 4-44 11-64 19h-1c-30 13-59 30-84 50V399c0-59 24-115 68-157s102-65 164-65 121 23 165 65c43 42 68 98 68 157v357c-49-48-112-82-181-95zm96-153l10-29 2-11 13 26-2 3c-6 7-14 11-23 11z"/><path fill="#003D3D" d="M580 434h-21c-4 0-8 4-8 8s4 8 8 8h21c4 0 8-3 8-8s-4-8-8-8zm-107 8c0-4-4-8-8-8h-21c-4 0-8 4-8 8s4 8 8 8h21c4 0 8-3 8-8zm81 38c-4-2-9-1-11 3a35 35 0 01-62 0 8 8 0 00-14 8 51 51 0 0090 0c2-4 0-9-3-11z"/><path fill="#FF8650" d="M495 838a17 17 0 1033 0 17 17 0 10-33 0z"/><path fill="#003D3D" d="M512 862a25 25 0 110-49 25 25 0 010 49zm0-33a8 8 0 100 17 8 8 0 000-17z"/></svg>