<svg xmlns="http://www.w3.org/2000/svg" width="128" height="128" class="icon" viewBox="0 0 1024 1024"><defs/><path d="M819 207L608 81a39 39 0 00-54 15L185 756a42 42 0 0014 57l211 125c9 6 20 7 30 5 10-3 19-10 24-20l369-660c11-19 5-45-14-56zM213 789c-6-4-8-12-5-18l369-661c4-6 12-8 18-4l37 22-381 683-38-22zm597-540l-16 28-80-48c-5-5-14-4-19 2a14 14 0 006 22l80 48-19 34-45-27c-6-5-14-4-19 2s-4 15 2 19l4 3 45 26-19 34-45-27c-6-4-14-4-19 2s-4 15 2 20l4 2 44 27-18 34-80-48c-7-3-15 1-18 8-2 6 0 12 4 16l80 48-19 34-44-27c-7-3-15 1-18 8-2 6 0 12 4 16l45 26-19 34-45-27c-6-4-14-4-19 2-4 6-4 15 2 20l4 2 45 27-19 34-80-48c-7-3-15 1-18 8-2 6 0 12 5 16l80 48-19 34-45-27c-7-3-15 1-18 8-2 6 0 12 4 16l45 26-19 34-44-27c-7-2-15 1-18 9-2 5 0 12 4 15l45 27-19 34-80-48c-7-3-15 1-17 8-2 6-1 12 4 16l80 48-21 37-45-26c-6-5-14-4-19 2s-4 15 2 19l3 3 45 26-15 28a13 13 0 01-8 6c-3 1-6 1-9-1l-150-89 382-683 149 89c6 4 8 12 5 18z"/><path fill="#80D8FF" d="M633 128L251 811l-38-22c-6-4-8-12-5-18l369-661c4-6 12-8 18-4l38 22z"/><path fill="#FFEA8F" d="M810 249l-16 28-80-48c-5-5-14-4-19 2a14 14 0 006 22l80 48-19 34-45-27c-6-5-14-4-19 2s-4 15 2 19l4 3 45 26-19 34-45-27c-6-4-14-4-19 2s-4 15 2 20l4 2 44 27-18 34-80-48c-7-3-15 1-18 8-2 6 0 12 4 16l80 48-19 34-44-27c-7-3-15 1-18 8-2 6 0 12 4 16l45 26-19 34-45-27c-6-4-14-4-19 2-4 6-4 15 2 20l4 2 45 27-19 34-80-48c-7-3-15 1-18 8-2 6 0 12 5 16l80 48-19 34-45-27c-7-3-15 1-18 8-2 6 0 12 4 16l45 26-19 34-44-27c-7-2-15 1-18 9-2 5 0 12 4 15l45 27-19 34-80-48c-7-3-15 1-17 8-2 6-1 12 4 16l80 48-21 37-45-26c-6-5-14-4-19 2s-4 15 2 19l3 3 45 26-15 28a13 13 0 01-8 6c-3 1-6 1-9-1l-150-89 382-683 149 89c6 4 8 12 5 18z"/></svg>