<svg xmlns="http://www.w3.org/2000/svg" width="128" height="128" class="icon" viewBox="0 0 1024 1024"><defs/><path fill="#E3F0D5" d="M32 532a480 480 0 10959 0 480 480 0 10-959 0z"/><path fill="#FFF" d="M512 1024A492 492 0 01320 78a492 492 0 01383 907 489 489 0 01-191 39zm0-959a467 467 0 00-182 897 467 467 0 00364-860 464 464 0 00-182-37z"/><path fill="#D2A597" d="M271 398s-58-5-46 44c0 0 20 81 64 100 0 0 10 3 24 1s-42-145-42-145zm496 18s58-5 46 44c0 0-20 81-64 99 0 0-10 3-24 1s42-144 42-144zM473 659l2 42 61 44 42-14 4-84-109 12z"/><path fill="#F4D5C1" d="M267 368s21 240 138 291c0 0 58 28 116 24 0 0 87-4 142-39 0 0 91-55 121-254 0 0-44-104-116-109 0 0-7 42-118 45l-44 16-21-16-47-13s-69-60-71-23c0 0-35 7-15-2 0 0-59 44-85 80z"/><path fill="#D2A597" d="M786 417s-20-68-46-78c0 0-27 23-44 46 0 0-10-35-48-25 0 0 2 26-1 30s-113-40-113-40l-2 22s-134 40-179-50c0 0-45 39-94 120 0 0-27-133-18-182l-24-9s15-77 76-129c0 0 12-14-8-29 0 0-12-21 135-35 0 0 101-64 230-41l2 25s59 4 68 15l-6 21 46 16-28 16s83 83 91 186l-18 4s-12 88-19 117z"/><path fill="#374968" d="M809 218s-90 109-240 108c0 0-173 3-237-143 0 0-42-39-56-89 0 0 41-30 137-26 0 0 75-62 240-45l-3 29 67 16-5 25 37 3-11 44s55 35 71 78z"/><path fill="#374968" d="M805 209s-81 105-231 104c0 0-173 3-238-144 0 0-40-29-54-79 0 0 47-35 136-35 0 0 75-63 240-46l-3 29 67 17-5 24 46 14-16 33s42 39 58 83z"/><path fill="#FFF" d="M414 696s-53 17-57 59l-65 199s28 24 76 35c75 17 198 28 326-20 16-6 33-17 46-25l-55-210s-4-29-101-52l-56 33-58-32s-6-5-56 13z"/><path fill="#1664B2" d="M588 685s61-5 75 67l23 200 3 37s-60 18-85 20-68 2-79 2-52-6-63-8-92-23-94-32 27-208 32-225c6-19 6-51 76-62l58 34z"/><path fill="#3390FF" d="M589 684s61-5 75 67l22 200 3 38s-145-43-205-101-79-141-79-141l-1-2c1 0-6-54 70-65l61 37z"/><path fill="#374968" d="M451 685s-3 79 20 99c0 0 25 29 63 29 0 0 62-7 76-76 0 0 5-32 1-50 0 0-27-7-32-7-2 0-50 34-50 34s-39-27-55-34c-8 0-23 5-23 5z"/><path fill="#E4F3F9" d="M473 721s-3 51 50 67c0 0 50 5 65-63l-55-12z"/><path fill="#FFF" d="M474 680l56 31 51-36 27 54-79-15-86 14 31-48z"/><path fill="#1A191E" d="M520 743a10 10 0 1019 0 10 10 0 10-19 0z"/><path fill="#DC6965" d="M478 602a42 23 0 1084 0 42 23 0 10-84 0z"/><path fill="#1E2C3F" d="M357 473a25 25 0 1050 0 25 25 0 10-50 0zM640 473a25 25 0 1050 0 25 25 0 10-50 0z"/><path fill="#374968" d="M791 418l-5-1-27 37a96 96 0 00-190 19h-91a96 96 0 00-184-38l-23-37h-5l24 49a96 96 0 10188 36h91a96 96 0 00192-10l-1-6zM382 563a90 90 0 1190-90 90 90 0 01-90 90zm283 0a90 90 0 1189-102 90 90 0 01-89 102z"/><path fill="#28395E" d="M785 411s-21-68-47-78c0 0-27 22-44 46 0 0-10-35-48-26 0 0 2 27-1 31s-113-40-113-40l-2 21s-134 40-179-49c0 0-45 38-94 119 0 0-27-132-18-181l-24-9s15-77 76-130c0 0 12-14-7-28 0 0-13-21 134-35 0 0 101-64 230-42l2 26s59 3 69 15l-7 21s46 39 57 42l-39-11s83 83 91 186l-18 5s-12 88-18 117z"/><path fill="#1D2D49" d="M807 212s-90 109-240 108c0 0-173 3-237-143 0 0-42-39-56-90 0 0 41-29 137-25 0 0 75-62 240-45l-2 29 66 16-5 25 28 16-2 30s55 35 71 79z"/><path fill="#374968" d="M803 203s-81 104-231 103c0 0-173 3-237-143 0 0-41-29-55-79 0 0 47-36 136-36 0 0 75-62 240-45l-3 29 80 15s-17 13-16 28l52 39-24 6s42 39 58 83z"/></svg>