<svg xmlns="http://www.w3.org/2000/svg" width="128" height="128" class="icon" viewBox="0 0 1024 1024"><defs/><path fill="#FEDEBB" d="M1002 805h39"/><path d="M525 520h-1v-1h1v1z"/><path fill="#FEDEBB" d="M862 805h76"/><path d="M514 514z"/><path fill="#FEDEBB" d="M112 805h673"/><path d="M512 512z"/><path fill="#FEDEBB" d="M2 805h39"/><path d="M435 562h-7a2 2 0 010-4h7a2 2 0 010 4z"/><path fill="#FD5C1E" d="M-6 370a13 13 0 11-26 0 13 13 0 0126 0z"/><path fill="#FDD72C" d="M834 203a8 8 0 1015 0 8 8 0 10-15 0zM276 278a5 5 0 01-4 5 5 5 0 01-5-5 5 5 0 119 0z"/><path fill="#FD5C1E" d="M164 276a21 21 0 110-42 21 21 0 010 42zm0-38a16 16 0 100 33 16 16 0 000-33z"/><path fill="#2BA9FC" d="M916 348a21 21 0 110-42 21 21 0 010 42zm0-37a16 16 0 100 32 16 16 0 000-32zM775 137a5 5 0 01-5-5v-5a5 5 0 00-6-6 5 5 0 00-5 6v5a5 5 0 01-5 5h-5a5 5 0 100 11h5a5 5 0 015 5v5a5 5 0 1011 0v-5a5 5 0 015-5h5a5 5 0 000-11h-5z"/><path fill="#FD5C1E" d="M953 439a5 5 0 01-4-5v-4a5 5 0 00-5-5 5 5 0 00-5 5v4a5 5 0 01-5 5h-4a5 5 0 100 10h4a5 5 0 015 5v4a5 5 0 005 5 5 5 0 005-5v-4a5 5 0 014-5h5a5 5 0 000-10h-5z"/><path fill="#FED62C" d="M76 280a6 6 0 01-6-6v-7a7 7 0 10-14 0v7a6 6 0 01-6 6h-6a7 7 0 00-7 6 7 7 0 007 7h6a6 6 0 016 6v6a7 7 0 007 7 7 7 0 007-7v-6a6 6 0 016-6h6a7 7 0 007-7 7 7 0 00-7-6h-6zM259 123a4 4 0 00-3 4v17a4 4 0 003 4 4 4 0 004-4v-17c0-2-1-4-4-4zm0 59a4 4 0 00-3 3v17a4 4 0 003 4 4 4 0 004-4v-17a4 4 0 00-4-3zm-17-29a4 4 0 006-6l-12-12a4 4 0 00-6 0 4 4 0 000 6l12 12zm35 24a4 4 0 00-6 0 4 4 0 000 5l12 12a4 4 0 106-5l-12-12zm-34-12a4 4 0 00-4-4h-17a4 4 0 100 7h17a4 4 0 004-3zm54-4h-17a4 4 0 00-4 4 4 4 0 004 3h17a4 4 0 100-7zm-55 16l-12 12a4 4 0 000 5 4 4 0 006 0l12-12a4 4 0 000-5 4 4 0 00-6 0zm35-24l12-12a4 4 0 000-6 4 4 0 00-6 0l-12 12a4 4 0 000 6 4 4 0 006 0z"/><path fill="#FDD72C" d="M857 523c-38-20-67-54-73-63 16-26 21-48 21-80 0-104-98-188-219-188s-219 84-219 188 98 188 219 188c61 0 103-12 143-46 29 19 94 21 128 1z"/><path fill="#F47A22" d="M776 394c0 32-5 53-21 80 5 8 32 40 68 60 13-2 25-6 34-12-34-18-61-47-71-59v-7c15-25 19-46 19-77 0-103-98-187-219-187-46 0-88 12-124 33 29-12 61-18 95-18 120 0 219 83 219 187z"/><path d="M699 223l-4-1a248 248 0 00-26-12 7 7 0 01-3-10 7 7 0 019-4 263 263 0 0127 14 7 7 0 01-3 13zM564 587c-33 0-65-5-95-15a7 7 0 01-4-10 7 7 0 019-4c28 10 59 15 90 15 65 0 108-12 146-42 6-4 15-5 21-2 30 14 81 15 115 3-34-20-58-47-65-55-5-5-5-15-1-22 12-22 17-42 17-74 0-44-18-87-52-121a7 7 0 1110-10c36 36 57 83 57 131 0 28-4 53-20 81v6c7 8 32 36 66 55 4 2 7 6 7 11 0 4-3 8-8 9-36 16-97 16-132-1-2-1-5 0-6 1-41 31-86 44-155 44zM350 479a7 7 0 01-6-3c-18-29-28-62-28-95 0-114 111-206 248-206 19 0 38 1 57 5a7 7 0 015 8 7 7 0 01-8 6c-18-3-36-5-54-5-129 0-233 86-233 192 0 31 8 60 25 87a7 7 0 01-6 11zm176-89a20 20 0 11-40 0 20 20 0 0140 0z"/><path d="M677 390a20 20 0 11-40 0 20 20 0 0140 0zm-59 28c0-2-1-4-4-4h-65c-3 0-5 2-4 4a37 37 0 0073 0z"/><path fill="#FD631F" d="M597 440c0 5-7 8-16 8-10 0-17-3-17-8s7-8 17-8c9 0 16 4 16 8z"/><path fill="#48B9F8" d="M175 578c23-12 40-33 44-38a81 81 0 01-13-48c0-62 59-113 132-113s132 51 132 113-59 112-132 112c-36 0-62-6-86-27a90 90 0 01-77 1z"/><path d="M361 493a13 13 0 1026 0 13 13 0 00-26 0zm-79 0a13 13 0 1026 0 13 13 0 00-26 0z"/><path fill="#318AE4" d="M338 379l-17 1c65 8 115 55 115 112 0 58-51 105-117 112h19c73 0 132-50 132-112s-59-113-132-113z"/><path d="M321 517a22 22 0 000 3c0 10 7 18 16 18s16-8 16-18v-3c0-2-2-3-3-3h-26l-3 3z"/><path fill="#46B9FA" d="M330 531a7 6 0 1014 0 7 6 0 10-14 0z"/><path d="M213 413a6 6 0 01-4-10 142 142 0 0120-16 6 6 0 117 10l-19 15a6 6 0 01-4 1z"/><path d="M321 610c-42 0-69-8-94-28h-1c-21 11-58 11-81 1-3-1-5-4-5-7s1-6 4-7c22-12 37-29 40-33a1 1 0 000-1 90 90 0 01-12-50c0-17 4-34 12-50a6 6 0 018-2 6 6 0 013 8c-7 14-11 29-11 44 0 19 3 31 10 44 3 5 3 10-1 14-3 5-17 20-36 32 20 6 48 4 64-3 4-2 10-2 13 1 23 18 48 25 87 25 75 0 136-51 136-113 0-61-61-112-136-112-20 0-39 4-57 10a6 6 0 01-4-11c19-7 40-11 61-11 82 0 148 56 148 124 0 69-66 125-148 125z"/></svg>