<svg xmlns="http://www.w3.org/2000/svg" width="150.5" height="128" class="icon" viewBox="0 0 1204 1024"><defs/><path fill="#FFF" d="M87 671c0 142 182 253 411 253s410-111 410-253-181-252-410-252S87 529 87 671"/><path fill="#D52B2A" d="M900 474c-15-8-31-8-23-32 15-47 23-87 0-118-40-55-150-55-269 0 0 0-39 16-31-16 31-63 23-118 0-142-64-63-245 0-395 158C71 434 0 561 0 663c0 198 253 324 505 324 332 0 545-189 545-339 0-103-79-158-150-174zM505 908c-197 24-371-71-387-205-15-126 135-253 340-269 197-23 371 71 387 206 8 126-142 245-340 268z"/><path fill="#E89214" d="M1121 103A323 323 0 00813 8a59 59 0 00-39 55c16 24 39 40 63 32 79-16 158 8 213 71 56 63 72 150 48 221-8 24 8 47 31 55 24 8 48-8 56-31 39-95 15-214-64-308"/><path fill="#E89214" d="M1003 213c-39-39-95-55-150-47-24 8-32 24-32 47 8 24 24 32 48 32 23-8 55 0 71 24 16 23 24 47 16 71-8 23 7 39 23 47 24 8 40-8 48-24 23-47 15-102-24-150"/><path fill="#040000" d="M521 529c-95-24-197 24-245 111-39 87 0 181 95 213 103 32 221-16 261-111 39-94-8-181-111-213zm-71 221c-16 32-63 48-95 32-31-16-39-47-23-79 15-32 55-40 87-32 39 16 47 48 31 79zm63-79c-8 16-23 16-31 16-16-8-16-16-8-32 8-7 24-15 31-15 8 8 16 15 8 31z"/></svg>