<svg xmlns="http://www.w3.org/2000/svg" width="128" height="128" class="icon" viewBox="0 0 1024 1024"><defs/><path fill="#707070" d="M877 264c-5-65-59-117-125-117H209c-69 0-126 57-126 126v488c0 70 57 126 126 126h609c69 0 126-56 126-126V374c0-48-27-89-67-110zm-67 497c0 32-26 58-58 58H209c-32 0-58-26-58-58V273c0-31 26-57 58-57h543c32 0 58 26 58 57v488z"/><path fill="#fa6e33" d="M220 403h1c10 0 18-8 18-18v-62l53 72c3 5 9 8 14 8h4c10 0 18-8 18-18V269c0-10-8-18-18-18h-2c-9 0-17 8-17 18v62l-53-73c-3-5-9-7-15-7h-3c-10 0-18 8-18 17v117c0 10 8 18 18 18zm216-36h-55v-24h45c10 0 18-8 18-17v-2c0-10-8-17-18-17h-45v-19h53c10 0 18-8 18-18v-1c0-10-8-18-18-18h-72c-10 0-18 8-18 18v116c0 10 8 18 18 18h74c10 0 18-8 18-18s-8-18-18-18zm80 36h2c7 0 14-5 17-12l22-66 22 66c2 7 9 12 17 12h2c7 0 14-5 16-12l40-117c2-5 1-11-2-16-4-4-9-7-15-7h-2c-7 0-14 5-17 12l-21 66-22-66c-3-7-10-12-17-12h-3c-7 0-14 5-17 12l-21 66-22-66c-3-7-10-12-17-12h-2c-6 0-11 3-15 7-3 5-4 11-2 16l39 117c3 7 10 12 18 12zm197 0c39 0 57-23 57-46 0-35-31-44-49-50-20-6-22-8-22-13 0-3 7-6 18-6 7 0 15 2 20 5 8 5 19 2 24-6l1-1c2-4 3-9 2-14s-4-8-8-11c-11-6-26-10-39-10-38 0-55 21-55 43 0 34 29 43 48 48 21 7 23 9 23 15s-10 9-20 9c-9 0-20-4-26-10a18 18 0 00-25 0l-1 1c-3 3-5 8-5 12 0 5 2 10 5 13 13 13 33 21 52 21z"/><path fill="#8a8a8a" d="M404 454H235a34 34 0 000 69h169a34 34 0 000-69z"/><path fill="#bfbfbf" d="M404 568H235a34 34 0 000 68h169a34 34 0 000-68z"/><path fill="#cdcdcd" d="M404 682H235a34 34 0 000 68h169a34 34 0 000-68z"/><path fill="#15c9d7" d="M750 450H490c-11 0-20 8-20 19v266c0 11 9 20 20 20h260c11 0 20-9 20-20V469c0-10-9-19-20-19z"/></svg>