<svg xmlns="http://www.w3.org/2000/svg" width="128" height="128" class="icon" viewBox="0 0 1024 1024"><defs/><path fill="#d4237a" d="M405 734c-28-28-65-44-105-44H0v-31h300c48 0 93 19 127 52l-22 23zM240 956h527v32H240z"/><path fill="#d4237a" d="M984 723c-27 0-48 21-48 48 0 97-79 176-176 176H264c-97 0-176-79-176-176 0-27-21-48-48-48"/><path fill="#d4237a" d="M800 723c-27 0-48 21-48 48 0 97-79 175-176 175h184c97 0 176-78 176-175 0-27 21-48 48-48H800zM216 723c27 0 48 21 48 48 0 97 79 175 176 175H256c-97 0-176-78-176-175 0-27-21-48-48-48h184zM240 980h527v31H240zM433 771h158v31H433z"/><path fill="#d4237a" d="M0 706v31h40c18 0 32 16 32 34 0 105 86 191 192 191h496c106 0 192-86 192-191 0-18 14-34 32-34h40v-31H0zm920 65H608v31h309c-15 74-79 129-157 129H264c-78 0-142-55-157-129h309v-31H104a63 63 0 00-10-34h836a63 63 0 00-10 34zM319 600l-30-11 16-40c9-22 9-47 0-69-11-29-11-62 0-91 9-22 9-47 0-69-11-29-11-62 0-91 9-22 9-47 0-69l-16-40 30-11 16 40c11 29 11 62 0 91-9 22-9 47 0 69 11 29 11 62 0 91-9 22-9 47 0 69 11 29 11 62 0 91l-16 40zm144 64l-30-11 16-40c9-22 9-47 0-69-11-29-11-62 0-91l16-40 30 11-16 40c-9 22-9 47 0 69 11 29 11 62 0 91l-16 40zm-30-416l-16-40c-11-29-11-62 0-91l16-40 30 11-16 40c-9 22-9 47 0 69l16 40-30 11zm142 256l-30-11 16-40c9-22 9-47 0-69-11-29-11-62 0-91 9-22 9-47 0-69-11-29-11-62 0-91 9-22 9-47 0-69l-16-40 30-11 16 40c11 29 11 62 0 91-9 22-9 47 0 69 11 29 11 62 0 91-9 22-9 47 0 69 11 29 11 62 0 91l-16 40zm144 96l-30-11 16-40c9-22 9-47 0-69-11-29-11-62 0-91 9-22 9-47 0-69-11-29-11-62 0-91l16-40 30 11-16 40c-9 22-9 47 0 69 11 29 11 62 0 91-9 22-9 47 0 69 11 29 11 62 0 91l-16 40z"/></svg>