<svg xmlns="http://www.w3.org/2000/svg" width="128" height="128" class="icon" viewBox="0 0 1024 1024"><defs/><path fill="#FDD042" d="M46 16h862v858H46z"/><path fill="#F2C127" d="M46 16h72v858H46zm359 0h144v858H405z"/><path fill="#E1A527" d="M405 123h144v179H405z"/><path fill="#FDD042" d="M46 159h862v107H46z"/><path fill="#E1A527" d="M46 159h72v107H46z"/><path fill="#FFF" d="M118 409h718v214H118z"/><path fill="#74757B" d="M284 314a285 285 0 000 404 288 288 0 00406 0 285 285 0 000-404 288 288 0 00-406 0zm355 354c-84 84-221 84-305 0s-84-220 0-303c84-84 221-84 305 0 84 83 84 219 0 303z"/><path fill="#6AC8B7" d="M969 997a36 36 0 01-51 0L766 845l51-51 152 152a36 36 0 010 51z"/><path fill="#2DB59F" d="M786 824l-20 21 152 152a36 36 0 0046 4L786 824z"/><path d="M404 569a17 17 0 0017-17v-72a17 17 0 00-17-16 17 17 0 00-17 16v72a17 17 0 0017 17zm72 0a17 17 0 0017-17v-72a17 17 0 00-17-16 17 17 0 00-17 16v72a17 17 0 0017 17zm72 0a17 17 0 0016-17v-72a17 17 0 00-16-16 17 17 0 00-17 16v72a17 17 0 0017 17z"/><path d="M651 680a229 229 0 000-327 233 233 0 00-397 163 232 232 0 00396 164zm-87 18v-57h77l-14 16c-19 18-40 31-63 41zm77-305h-77v-58c23 9 44 24 63 42l14 16zm-110-69v69H421v-64a207 207 0 01110-5zm-144 20v49h-55l14-16c12-13 28-24 41-33zm-77 83h353a194 194 0 010 181H310a201 201 0 010-181zm22 214h55v47c-13-9-29-19-41-31l-14-16zm89 62v-62h110v68c-36 8-74 6-110-6z"/><path d="M980 934l-57-56V409a17 17 0 00-16-17 17 17 0 00-17 17v435l-62-62a17 17 0 00-24 0l-13 14-78-77c21-24 38-51 51-78h72c9 0 16-8 16-18V409c0-9-7-16-16-16h-72a305 305 0 00-555 0h-91c-9 0-18 7-18 16v214c0 10 9 18 18 18h91c15 32 35 63 62 90 34 34 76 57 116 72v55H62V284h217a17 17 0 0017-17 17 17 0 00-17-17H62v-73h828v73H692a17 17 0 00-17 17 17 17 0 0017 17h198v53a17 17 0 0017 17 17 17 0 0016-17V16c0-10-6-16-15-16H46c-9 0-18 6-18 16v858c0 9 9 18 18 18h742l118 117c21 20 54 20 75 0 20-21 20-54-1-75zM421 143V34h110v109H421zm469 0H564V34h326v109zM387 34v109H62V34h325zm431 393v181h-41c18-61 18-123 0-181h41zM134 608V427h63c-19 58-19 120 0 181h-63zm161-282a270 270 0 01383 381 271 271 0 01-383 0 269 269 0 010-381zm126 486a316 316 0 00110 3v43H421v-46zm143 46v-49c45-12 88-35 125-67l78 78-13 13c-7 7-7 18 0 24v1H564zm393 127c-7 7-19 7-27 0L790 845l27-27 140 140a19 19 0 010 27z"/></svg>