<svg xmlns="http://www.w3.org/2000/svg" width="128" height="128" class="icon" viewBox="0 0 1024 1024"><defs/><path fill="#FFD581" d="M959 428C921 214 737 58 512 58S103 214 65 428c-36 15-65 57-65 98 0 44 28 80 67 93a457 457 0 00890 0c39-13 67-49 67-93 0-41-29-83-65-98z"/><path fill="#0096E6" d="M239 758a45 45 0 01-45-43c0-25 43-91 43-91s46 64 46 89a45 45 0 01-44 45zm547 0a45 45 0 01-45-43c-1-25 43-91 43-91s46 64 46 89a45 45 0 01-44 45z"/><path fill="#CB8252" d="M661 879a22 22 0 01-22-22 124 124 0 00-247 0 22 22 0 11-43 0 167 167 0 01334 0 22 22 0 01-22 22z"/><path fill="#9D6019" d="M959 428C921 214 734 51 509 51S103 214 65 428c0 0 369 95 616-103 12-9 29-7 38 6 45 66 127 147 240 97z"/><path fill="#B27821" d="M425 597a22 22 0 01-16-6 109 109 0 00-154 0 22 22 0 11-31-31c60-59 156-59 216 0a22 22 0 01-15 37zm359 0a22 22 0 01-15-6 109 109 0 00-154 0 22 22 0 11-31-31c60-59 156-59 216 0a22 22 0 01-16 37z"/></svg>