<svg xmlns="http://www.w3.org/2000/svg" width="128" height="128" class="icon" viewBox="0 0 1024 1024"><path fill="#2C3AC4" d="M859 845H188c-17 0-30-13-30-30V455c0-9 6-16 14-18a6 6 0 112 12c-2 0-4 3-4 6v360c0 10 8 18 18 18h671c10 0 18-8 18-18V455c0-3-2-5-4-6-3-1-5-4-4-8 0-3 4-5 7-4 8 2 13 10 13 18v360c0 17-13 30-30 30z"/><path fill="#2C3AC4" d="M593 647c-2 0-4-1-5-3-2-2-1-6 2-8l280-193c3-2 7-1 9 2s1 6-2 8L596 646l-3 1zm-141 0l-4-1-280-192c-3-2-3-6-1-9 1-2 5-3 8-1l280 192c3 2 3 6 2 8-2 2-3 3-5 3z"/><path fill="#FFDEF1" d="M367 583L161 810l16 23 276-190zm309 2l205 226-15 24-277-191z"/><path fill="#2C3AC4" d="M872 842l-3-1-279-192c-3-2-3-5-2-8 2-3 6-4 9-2l278 192c3 1 4 5 2 8-1 2-3 3-5 3z"/><path fill="#E1FFFB" d="M245 497V254c0-3 2-5 4-5h466l87 78-1 172-279 180-277-182z"/><path fill="#FFB3E2" d="M684 355c5 6 8 13 10 21a44 44 0 01-75 38m-11-5a47 47 0 01-64-69m62-58l16-5a59 59 0 0164 77"/><path fill="#FFB3E2" d="M569 360c-14-5-26-18-28-34a42 42 0 0179-26m41 81a43 43 0 01-82-3M648 326a28 28 0 11-21 38"/><path fill="#FFB3E2" d="M576 339c-3-19 10-36 28-39s36 10 39 28c2 14-4 27-14 34"/><path fill="#FFB3E2" d="M617 368a24 24 0 01-47-5c-2-13 7-26 20-28 7-1 13 1 18 5"/><path fill="#FFB3E2" d="M607 350a13 13 0 1026 0 13 13 0 10-26 0z"/><path fill="#2C3AC4" d="M657 597c-2 0-4-2-5-4s-24-48-34-97-11-82-11-83c0-3 2-6 5-6h1c3 0 6 2 6 6 0 0 1 33 10 80 10 48 33 94 33 95 2 3 1 7-2 8l-3 1z"/><path fill="#07B1AE" d="M703 519c-19 30-61 39-61 39s-12-42 7-72 61-39 61-39 11 42-7 72z"/><path fill="#2C3AC4" d="M613 460c-2 0-3 0-5-2l-15-17c-3-2-2-6 0-8s6-2 8 0l16 17a6 6 0 01-4 10zm8 28l-3-1c-2-2-3-6-2-8l9-15c2-3 6-4 8-2 3 2 4 5 2 8l-8 15-6 3z"/><path fill="#2C3AC4" d="M621 501l-3-1-14-9c-3-1-4-5-2-8 1-3 5-4 8-2l14 9c3 1 4 5 3 8l-6 3zM454 339H312c-4 0-6-3-6-6s2-6 6-6h142c3 0 6 2 6 6s-3 6-6 6zM454 408H312c-4 0-6-3-6-6s2-6 6-6h142c3 0 6 3 6 6s-3 6-6 6zM532 477H312c-4 0-6-2-6-6s2-6 6-6h220c3 0 6 3 6 6s-3 6-6 6zM570 547H312c-4 0-6-3-6-6s2-6 6-6h258c3 0 6 2 6 6s-3 6-6 6zM843 224c-4 0-6-3-6-6v-12c0-3 2-6 6-6s6 3 6 6v12c0 3-3 6-6 6zm0 72c-4 0-6-3-6-6v-12c0-3 2-6 6-6s6 3 6 6v12c0 3-3 6-6 6zm-30-42h-12c-4 0-6-3-6-6s2-6 6-6h12c3 0 6 3 6 6s-3 6-6 6zm72 0h-12c-4 0-6-3-6-6s2-6 6-6h12c3 0 6 3 6 6s-3 6-6 6zM822 233l-5-2-8-8c-3-3-3-7 0-9 2-2 6-2 8 0l9 9c2 2 2 6 0 8l-4 2zm50 51l-4-2-8-9c-3-2-2-6 0-8s6-2 8 0l9 9c2 2 2 6 0 8l-5 2zm-59 0l-4-2c-3-2-3-6 0-8l8-9c3-2 7-2 9 0s2 6 0 8l-9 9-4 2zm51-51l-4-2c-3-2-3-6 0-8l8-9c3-2 6-2 9 0 2 3 2 6 0 9l-9 8-4 2z"/><path fill="#EA68C5" d="M573 335l13-30 25-6 27 13 3 14 23 1 14 17v19l-13 13-9 19-23 13-25 1-22-13-7-18-12-19z"/><path fill="#FFEEF9" d="M441 245l82-60 81 59z"/><path fill="#2C3AC4" d="M801 496c-4 0-6-2-6-6l1-96c0-3 2-6 6-6 3 0 6 3 6 6l-1 96c0 4-3 6-6 6z"/><path fill="#FFEEF9" d="M240 398v92l-63-46zM807 398v93l63-46z"/><path fill="#2C3AC4" d="M859 845H188c-17 0-30-13-30-30V455c0-9 6-16 14-18a6 6 0 112 12c-2 0-4 3-4 6v360c0 10 8 18 18 18h671c10 0 18-8 18-18V455c0-3-2-5-4-6-3-1-5-4-4-8 0-3 4-5 7-4 8 2 13 10 13 18v360c0 17-13 30-30 30z"/><path fill="#2C3AC4" d="M593 647c-2 0-4-1-5-3-2-2-1-6 2-8l280-193c3-2 7-1 9 2s1 6-2 8L596 646l-3 1zm-141 0l-4-1-280-192c-3-2-3-6-1-9 1-2 5-3 8-1l280 192c3 2 3 6 2 8-2 2-3 3-5 3z"/><path fill="#2C3AC4" d="M177 839l-5-2c-2-3-2-7 1-9l277-190c3-2 6-1 8 2s2 6-1 8L180 838l-3 1zm695 3l-3-1-279-192c-3-2-3-5-2-8 2-3 6-4 9-2l278 192c3 1 4 5 2 8-1 2-3 3-5 3zM441 251l-5-2c-2-3-1-7 1-9l82-60c2-2 5-2 7 0l81 59c3 2 3 6 1 9-2 2-5 3-8 1l-77-57-79 58-3 1zM174 447l-5-2c-2-3-1-7 1-9l66-48c3-2 7-2 9 1s1 6-1 8l-67 49-3 1zm700 2l-4-1-67-50c-2-2-3-5-1-8s6-3 8-1l67 49c3 2 3 6 1 8l-4 3z"/><path fill="#2C3AC4" d="M801 505c-3 0-6-3-6-6l1-170-84-74H251v242c0 3-3 6-6 6s-6-3-6-6V254c0-6 4-11 10-11h466l4 1 87 78 2 5-1 172c0 3-3 6-6 6z"/><path fill="#B3BEFF" d="M716 249v72c0 3 2 5 5 5l81 1-86-78z"/><path fill="#B3BEFF" d="M802 333l-41-1h-40c-6 0-11-5-11-11v-72c0-3 1-5 3-6 3-1 5 0 7 1l86 78c1 2 2 5 1 7s-3 4-5 4zm-80-13h64l-64-58v58zm-1 0z"/><path fill="#E84091" d="M584 592a41 41 0 00-59 0l-2 3-3-3c-16-16-42-16-58 0s-16 42 0 58l61 61 60-61c17-16 17-42 1-58z"/><path fill="#E84091" d="M523 719l-65-65a47 47 0 0165-68 47 47 0 0165 68l-65 65zm-32-133c-9 0-18 3-25 10a35 35 0 000 50l57 57 56-57a35 35 0 000-50 35 35 0 00-49 0l-7 7-7-7c-7-7-16-10-25-10z"/><path fill="#2C3AC4" d="M650 433c-13 0-26-5-35-15-3-3-3-6 0-9 2-2 6-2 8 1 9 8 21 13 33 11a38 38 0 0023-62c-2-3-2-7 1-9 2-2 6-1 8 1 6 8 10 16 11 25a50 50 0 01-49 57zm-71-9c-25 0-48-18-52-44-3-16 2-32 12-44 3-2 6-3 9-1 2 3 3 6 0 9-8 9-11 21-9 34 3 22 24 37 47 34 7-1 13-4 18-8 3-2 6-1 8 1s2 7-1 9a52 52 0 01-32 10z"/><path fill="#2C3AC4" d="M686 360h-2c-3-1-4-5-3-8 3-8 4-16 2-25a53 53 0 00-74-39c-3 1-7 0-8-3s0-7 3-8c6-3 12-5 17-5 35-6 68 18 74 53 2 11 1 22-3 32-1 2-3 3-6 3z"/><path fill="#2C3AC4" d="M569 366l-2-1a48 48 0 018-93c21-3 41 7 50 25 2 3 1 7-2 8-3 2-7 1-8-2a36 36 0 00-68 23c2 13 11 24 24 28 3 1 5 5 4 8-1 2-3 4-6 4zm52 50c-22 0-42-15-48-36 0-4 1-7 5-8 3-1 6 1 7 4 5 20 25 32 45 27 12-3 21-12 25-24 1-3 5-4 8-3s5 4 3 7a48 48 0 01-45 33z"/><path fill="#2C3AC4" d="M652 387c-13 0-26-8-31-21-1-3 0-6 3-7 3-2 7 0 8 3 4 9 13 14 23 13a22 22 0 0010-39c-5-4-11-5-16-4-3 1-7-2-7-5-1-3 2-6 5-7a34 34 0 0138 28c3 18-9 36-28 39h-5z"/><path fill="#2C3AC4" d="M629 368c-2 0-4-1-5-3-2-3-1-6 2-8 8-6 13-17 11-28a28 28 0 00-50-12c-5 6-7 14-5 21 0 3-2 7-5 7-4 1-7-2-7-5a40 40 0 1179-13c2 16-4 31-17 40l-3 1z"/><path fill="#2C3AC4" d="M594 390c-7 0-13-2-18-6-7-5-11-12-12-20a30 30 0 0148-29c2 2 3 5 1 8s-5 4-8 2c-4-3-9-4-14-4-10 2-17 11-15 21 1 5 3 9 7 12s9 4 14 4c6-1 12-6 14-12 1-3 5-5 8-3 3 1 5 4 3 7-4 11-13 18-23 20h-5z"/><path fill="#2C3AC4" d="M620 369c-10 0-19-9-19-19s9-19 19-19 19 9 19 19-8 19-19 19zm0-26c-4 0-7 3-7 7s3 7 7 7 7-3 7-7-3-7-7-7zM657 597c-2 0-4-2-5-4s-24-48-34-97-11-82-11-83c0-3 2-6 5-6h1c3 0 6 2 6 6 0 0 1 33 10 80 10 48 33 94 33 95 2 3 1 7-2 8l-3 1z"/><path fill="#2C3AC4" d="M642 564c-3 0-5-2-6-5 0-2-12-44 8-76s63-41 65-42c3 0 6 2 7 5 0 1 12 44-8 76s-63 41-65 41l-1 1zm63-109c-11 3-38 13-51 34-13 22-10 49-8 61 12-3 38-13 52-34 13-22 10-49 7-61zm-2 64z"/><path fill="#2C3AC4" d="M645 559l-3-1c-3-1-4-5-2-8l34-56c2-2 5-3 8-2 3 2 4 6 2 9l-34 55c-1 2-3 3-5 3zM613 460c-2 0-3 0-5-2l-15-17c-3-2-2-6 0-8s6-2 8 0l16 17a6 6 0 01-4 10zM621 488l-3-1c-2-2-3-6-2-8l9-15c2-3 6-4 8-2 3 2 4 5 2 8l-8 15-6 3z"/><path fill="#2C3AC4" d="M621 501l-3-1-14-9c-3-1-4-5-2-8 1-3 5-4 8-2l14 9c3 1 4 5 3 8l-6 3zM454 339H312c-4 0-6-3-6-6s2-6 6-6h142c3 0 6 2 6 6s-3 6-6 6zM454 408H312c-4 0-6-3-6-6s2-6 6-6h142c3 0 6 3 6 6s-3 6-6 6zM532 477H312c-4 0-6-2-6-6s2-6 6-6h220c3 0 6 3 6 6s-3 6-6 6zM570 547H312c-4 0-6-3-6-6s2-6 6-6h258c3 0 6 2 6 6s-3 6-6 6z"/><path fill="#FFA4E1" d="M204 304c-11-5-25 1-30 13l-1 2-2-1c-12-5-25 1-30 13-2 4-4 19 7 28 17 13 50 21 50 21s19-29 21-51c2-14-10-23-15-25z"/><path fill="#2C3AC4" d="M843 224c-4 0-6-3-6-6v-12c0-3 2-6 6-6s6 3 6 6v12c0 3-3 6-6 6zm0 72c-4 0-6-3-6-6v-12c0-3 2-6 6-6s6 3 6 6v12c0 3-3 6-6 6zm-30-42h-12c-4 0-6-3-6-6s2-6 6-6h12c3 0 6 3 6 6s-3 6-6 6zm72 0h-12c-4 0-6-3-6-6s2-6 6-6h12c3 0 6 3 6 6s-3 6-6 6zM822 233l-5-2-8-8c-3-3-3-7 0-9 2-2 6-2 8 0l9 9c2 2 2 6 0 8l-4 2zm50 51l-4-2-8-9c-3-2-2-6 0-8s6-2 8 0l9 9c2 2 2 6 0 8l-5 2zm-59 0l-4-2c-3-2-3-6 0-8l8-9c3-2 7-2 9 0s2 6 0 8l-9 9-4 2zm51-51l-4-2c-3-2-3-6 0-8l8-9c3-2 6-2 9 0 2 3 2 6 0 9l-9 8-4 2z"/></svg>