<svg xmlns="http://www.w3.org/2000/svg" width="128" height="128" class="icon" viewBox="0 0 1024 1024"><defs/><path fill="#ED5564" d="M599 119c-20 0-37 8-49 21a68 68 0 00-117 48c0 78 117 146 117 146s117-68 117-146c0-38-31-69-68-69z"/><path fill="#FFF" d="M599 119c-7 0-13 1-18 3 29 8 50 34 50 66 0 59-66 112-99 135l18 11s117-68 117-146c0-38-31-69-68-69z" opacity=".2"/><path fill="#343A42" d="M723 424c-208 1-116 241-187 300 0 0 39 35 187 35s186-35 186-35c-71-59 21-299-186-300z"/><path fill="#EC87C0" d="M908 794l-1-1c-25-6-42-13-53-17-38-14-48-25-50-30l-1-46-161 1-1 45c-2 5-12 16-50 30-11 4-28 11-52 17l-2 1c-22 7-36 27-36 50v65h443v-65c0-23-14-43-36-50z"/><path fill="#EAC6BB" d="M848 615c0 82-78 160-125 160-48 0-126-78-126-160s56-136 126-136c69 0 125 54 125 136z"/><path fill="#5D9CEC" d="M577 769h-1c-30-8-51-16-64-21-46-17-58-30-61-36v-1l-1-56-195 2-1 54v1c-3 6-15 19-61 36-13 5-34 13-63 21h-2c-27 9-45 34-45 62v78h539v-78c0-28-18-53-45-62z"/><path fill="#EAC6BB" d="M505 553c0 99-95 194-153 194s-152-95-152-194 68-165 152-165c85 0 153 66 153 165z"/><path fill="#A85D5D" d="M451 370c-26-23-113-52-200 0-44 27-76 144-76 144s86 48 197-4c67-31 66-15 85 14 11 17 48 29 48 29s29-108-54-183z"/><path fill="#434A54" d="M749 426l-8 88s58 52 128 55c-9-68-30-132-120-143z"/><path fill="#656D78" d="M810 447c-20-14-49-23-88-23-129 0-142 94-150 179 124-7 238-156 238-156z"/></svg>