<svg xmlns="http://www.w3.org/2000/svg" width="128" height="128" class="icon" viewBox="0 0 1024 1024"><defs/><path fill="#FFE3DB" d="M60 510a451 451 0 10902 0 451 451 0 10-902 0z"/><path fill="#F23D4F" d="M755 283c-103-68-188-27-243 24-55-51-139-92-243-24-68 45-97 108-87 181h213l44-94c4-10 14-18 25-20 16-3 32 8 37 23l39 133 14-24a33 33 0 0129-18h99c18 0 33 14 34 32a33 33 0 01-33 34h-81l-42 77a33 33 0 01-41 15c-10-4-17-12-20-22l-37-125-16 36a33 33 0 01-30 19H200c37 87 124 184 260 278a92 92 0 00104 0c294-202 356-417 191-525z"/><path fill="#FC4956" d="M798 324v-6c-12-12-26-24-43-35-103-68-188-27-243 24-55-51-139-92-243-24-68 45-97 108-87 181h213l44-95a33 33 0 0132-19 33 33 0 0130 23l39 133 14-24a33 33 0 0129-18h100a33 33 0 010 66h-81l-42 77a33 33 0 01-29 17h-3a33 33 0 01-28-23l-38-126-17 36a33 33 0 01-29 19H200c32 76 102 159 209 241a451 451 0 00389-447z"/><path fill="#FF5C64" d="M182 464h213l44-95a33 33 0 0132-19 33 33 0 0130 23l34 117c67-64 114-147 132-241-64-8-116 23-155 58-55-51-139-92-243-24-68 45-97 108-87 181z"/><path fill="#FF5C64" d="M480 535l-18-60-16 36a33 33 0 01-30 19H200c12 27 28 55 49 84a448 448 0 00231-79z"/><path fill="#FF716E" d="M471 275c-52-32-121-45-202 8-64 42-93 100-89 167 119-18 222-83 291-175z"/></svg>