<svg xmlns="http://www.w3.org/2000/svg" width="128" height="128" class="icon" viewBox="0 0 1024 1024"><defs/><path fill="#FBB03B" d="M352 646l-89 163c-82 17-153 48-218 82l130-129c10 6 27 3 34-7 13-14 13-31 0-45s-31-13-45 0a33 33 0 00-6 35L35 874c34-61 65-136 82-218l163-89 72 79zm627-532c-7-17-24-24-48-31-10 21-20 45-37 72 17 0 27 7 27 17a562 562 0 01-232 273c-44 23-85 47-58 78 24 24 123-38 218-133 99-102 147-228 130-276zM914 8c-48-47-242 120-385 263-72 71-187 204-225 249-7 6-7 20 0 27l75 75c7 7 17 7 27 0 45-38 178-154 249-225C795 254 962 56 914 8zm65 938c-10-11-27-7-38 3-20 27-37 24-40 20-4-3-11-17 10-75 3-13-4-30-17-34-14-3-28 4-31 21-20 82-68 99-75 88-10-13 7-64 10-81 0-11-7-24-17-28-13-3-27 4-34 17-13 38-51 116-75 96-27-27 34-232 45-276 3-14-4-27-18-31-13-3-27 4-34 17-44 143-133 280-160 280-7-7-10-62 31-181 3-14 0-27-14-34-13-7-27 0-34 10-44 85-102 194-266 201-13 0-27 14-24 28 0 13 14 27 28 23 105-3 177-47 225-98-7 75 24 98 58 98s75-37 109-92c-4 79 27 103 64 103 28 0 48-11 65-31 14 20 34 27 58 27s44-10 61-30c4 13 24 30 58 30 17 0 45-7 72-41-3-7-3-24-17-30z"/></svg>