<svg xmlns="http://www.w3.org/2000/svg" width="128" height="128" class="icon" viewBox="0 0 1024 1024"><defs/><path fill="#3793DF" d="M768 628H256c-14 0-26-8-31-20s-3-28 7-38l143-148V242a137 137 0 01273 0v180l144 148c10 10 12 24 7 38-5 12-17 20-31 20zm-432-68h352l-97-101c-7-7-11-15-11-24V242a68 68 0 00-137 0v193c1 9-3 17-10 24l-97 101z"/><path fill="#EB4AF4" d="M329 918h-6c-19-3-31-20-28-39l34-193c4-19 21-31 40-27 18 3 30 20 27 39l-34 193c-2 15-16 27-33 27zm171 0c-19 0-34-15-34-34V691a34 34 0 0168 0v193c0 19-15 34-34 34zm171 0c-17 0-31-12-34-29l-35-193c-3-18 9-36 28-39s36 9 39 27l34 193c4 19-8 36-27 39-2 2-4 2-5 2z"/><path fill="#3793DF" d="M807 918H217c-22 0-41-10-55-27a65 65 0 01-10-62l72-245c5-19 23-29 42-24s29 24 24 42l-72 246h591l-72-246c-5-18 5-37 24-42s38 5 43 24l72 245c6 21 1 43-11 60a80 80 0 01-58 29z"/></svg>