<svg xmlns="http://www.w3.org/2000/svg" width="130.8" height="128" class="icon" viewBox="0 0 1046 1024"><defs/><path fill="#00F2AE" d="M1045 635c1 51-3 103-13 153-31 146-106 221-255 231-146 9-294 8-436-32A447 447 0 014 573c-7-89-7-178 13-266C59 122 161 32 350 18 478 8 606 6 733 0a385 385 0 01109 11c108 27 161 102 179 207 15 81 6 163 15 244 6 57 6 115 9 173"/><path fill="#FDFEFE" d="M727 628c-1 38 1 77-2 116-5 61-30 87-92 92-66 6-132 5-199 0-30-2-58-12-79-36-18-9-22-26-23-44-10-170-14-339-1-509 2-19 4-37 21-50 19-24 43-36 73-39 74-8 147-11 220 1 56 9 75 30 80 87 2 23 1 47 2 71-8 13-20 17-34 12-12-8-12-21-14-33-7-40-21-57-60-62-56-6-113-7-169 1-38 5-55 24-56 63-3 115-3 231 0 346 0 39 17 58 55 64 57 10 115 9 172 1 34-5 56-23 58-59 1-12 2-25 13-34 15-5 26-2 35 12"/><path fill="#00C85C" d="M727 628l-30-10c-4-2-10 0-14-2-53-17-89-84-86-157 3-66 45-121 100-133l30-9c32-12 43 0 39 33-2 22 0 45 0 67 0 67-8 58 57 59h75c19-1 26 4 21 26-16 75-74 125-151 125l-41 1"/><path fill="#FCFEFD" d="M795 367v-41c0-45 4-47 47-31 58 20 92 61 105 121 5 25 1 38-28 35-13-2-27 0-41 0-83 0-83 0-83-84"/><path fill="#00C95D" d="M352 197c-14 44-13 91-14 137a5624 5624 0 005 423c1 15 7 29 12 43-30-3-37-25-42-50-8-48-7-97-7-145 0-100-2-201 1-301 2-35-5-76 29-104 5-3 9-10 16-3"/><path fill="#00F2AE" d="M697 326c-90 59-116 143-70 227 16 30 43 48 70 65-1 4-5 9-5 13-8 75-20 89-94 92-51 3-102 5-154-4-39-6-61-28-62-67-3-120-5-241 0-361 2-37 21-60 59-66 60-10 120-8 180-2 53 5 67 24 70 78 1 9-2 18 6 25"/><path fill="#0ACC68" d="M534 756c17 5 28 14 26 31-1 15-13 25-28 24-18-1-27-13-25-30 1-16 13-23 27-25"/></svg>