<svg xmlns="http://www.w3.org/2000/svg" width="128" height="128" class="icon" viewBox="0 0 1024 1024"><defs/><path fill="#F40009" d="M854 1024H170C76 1024 0 948 0 854V170C0 76 76 0 170 0h684c94 0 170 76 170 170v684c0 94-76 170-170 170z"/><path fill="#FFF" d="M292 149L97 286l195 143V149zm15 0v280l201-139-201-141zM97 306v278l191-139L97 306zm195 154v278L97 596l195-136zm15 0v278l191-139-191-139zm7 290l197 142-1-280-196 138zm210-138v280l196-142-196-138zm12-12l191-141 2 279-193-138zm205-141v279l197-141-197-138zm5-15l192 140V305L746 444zm-5-295v280l197-142-197-138zm-12 0L525 291l203 138V149z"/><path fill="#F40009" d="M392 240c0 7-6 12-14 12s-15-5-15-12c-17 3-23 8-35 14-2 1-2 3-1 5l10 15 6-5v55c0 3 2 5 5 5h58c4 0 7-2 7-6v-55l5 6 10-13c1-1 2-6 0-7-13-6-20-12-36-14zm-187 87s4 6 11 7c6 0 10-4 11-5 1 1 6 5 12 4 7-1 10-5 11-6 0 0 6 4 11 1 6-2 6-10 5-14l-4-7-9-16-9-14 4-14c1-5 2-8 1-10l-4-7c2-4 2-8 0-10h-3c-3 1-4 4-4 8-2 1-5 1-7 3l-4 3c-1-1-2-3-6-5l-4-1c0-3-2-7-4-8h-3c-2 1-3 5-1 10l-3 8c-1 5 0 9 1 12l3 10c-1 3-2 5-4 6l-18 34c-1 4 1 9 5 11 4 3 8 2 12 0zm-56 89c0-11 8-19 18-20 11-1 22 8 23 20 3 0 8 2 13 5 2 2 4 5 7 17l4 32-5 8c-4 4-8 4-10 5h-59c-2-1-6-2-10-6-4-3-5-7-5-9s-1-26 6-39c1-2 3-6 7-9s8-4 11-4z"/><path fill="#FFF" d="M156 416h27s-2-12-13-12-14 12-14 12z"/><path fill="#F40009" d="M259 637h6v-34c2-10 11-27 10-34-2-13-14-21-16-20s-17 17-21 29-13 29-14 30-15 2-27 6c-11 4-20 9-18 13s14 10 31 10c19 0 26-2 30-16 3-15 3-22 10-28 0-1 4-5 6-4l3 4v43zm75-4h87l3-1 3-5v-58l-3-3-5-3h-14l-6-8-5-3h-32l-4 3-6 8a1059 1059 0 00-21 3c-2 1-2 3-2 4v58a7 7 0 005 5zm109 57l-5 7h11l-6-7zm-54 59c0-4 3-25 22-38 17-12 38-13 52-8a64 64 0 0129 25c6 13 4 20 6 20a26 26 0 00-27 0 26 26 0 00-22-3v43l-4 7c-5 5-12 7-19 5-10-3-14-13-14-17l1-4c1 0 3-4 6-4 2 0 4 3 5 5l1 5c1 3 6 4 9 3l3-4 1-39a27 27 0 00-22 3c-2-1-7-3-14-3-6 0-11 2-13 4zm169-17v50c0 5 4 8 8 8h49c4 0 7-3 7-7v-51c0-3-2-5-5-5h-54c-3 0-5 2-5 5zm5-13h56c1 0 3-1 3-3 0-1-1-3-5-3h-54c-2 0-3 1-3 3s1 3 3 3zm2-6s8-15 21-15c26 0 29 15 29 15h-50z"/><path fill="#F40009" d="M593 703h-4c-2 0-3-1-3-2v-6c0-1 1-3 3-3h4c2 0 3 1 3 3v6l-3 2zm52-140c3-2 9-5 18-6 11-1 19 4 21 6l-4-15c-1-3-3-4-5-4h-22c-2 0-3 1-4 3l-4 16zm39 67c-3 2-9 5-18 6-11 0-19-4-21-6l4 15c1 2 3 4 5 4h22c2 0 3-2 4-4l4-15zm-51-34a31 31 0 1063 0 31 31 0 00-63 0zm149-40h-3l-2-2v-12l2-2h3c2 0 3 1 3 2v12c0 1-1 2-3 2zm28 0h-3c-2 0-3-1-3-2v-15c0-1 1-2 3-2h3l3 2v15l-3 2zm28 0h-4l-2-2v-12l2-2h4c2 0 3 1 3 2v12c0 1-1 2-3 2zm2 86h-63c-4 0-8-4-8-8v-66c0-2 1-4 3-4h74l3 3v66c0 5-4 9-9 9z"/><path fill="#F40009" d="M847 583s15 2 20 10c5 9 2 20-4 25s-14 5-14 5v-8s13-4 12-13-14-11-14-11v-8zm-37-142v8c4 6 11 14 20 19 11 8 20 6 20 6s15 13 19 14 5-1 5-4v-14s10-4 16-9 8-9 11-8 10 11 16 12 10-2 8-8l-5-12s6-8 6-14-6-10-11-7-11 12-15 12-11-10-18-13l-8-4s2-15 0-18-8 1-12 4l-11 10s-13 0-27 10c-7 4-11 11-14 16zm-43-149a43 43 0 0085 0 43 43 0 10-85 0zm10-66s10-2 18 1c10 4 12 18 12 18s-10 6-20-2-10-17-10-17zm56 5s-8-2-14 1c-8 3-9 14-9 14s7 4 15-2 8-13 8-13zm-190 98h44s1 0 0 0l-11-6c-7-2-9-4-9-4v-15l15-12c6-5 16-17 16-28s-4-28-4-28h-60s-4 24-2 34c4 13 15 22 21 27l8 8v15l-18 8v1z"/><path fill="#FFF" d="M442 386l20-41 15 40 16 2v14l24-5-18-50 48 20-11 33 23-5 20-50 34 27-33 26 33-1 8 26h-21l-7 31 27 6 9 24-33 4-7 52-18 12-12-66-21-2-13 57-19 11-2-64-16-2-6-19-8 9-10 77-39-28 25-7-5-37-14 11-12-40 28-4-3-28-8-2-14-24 20-7z"/><path fill="#F40009" d="M484 408l-8 10-4 29 24-2-7 16 24-8-5-25-16-5-8-15zm60 20l21-5 2 29-27 5 4-29z"/></svg>