<svg xmlns="http://www.w3.org/2000/svg" width="128" height="128" class="icon" viewBox="0 0 1024 1024"><defs/><path fill="#FFF" d="M185 665a275 275 0 10550 0 275 275 0 10-550 0z"/><path fill="#2E66FF" d="M460 948a283 283 0 010-566 283 283 0 010 566zm0-550a267 267 0 101 535 267 267 0 00-1-535z"/><path fill="#C9E6FF" d="M261 665a200 200 0 10399 0 200 200 0 10-399 0z"/><path fill="#FFB5EC" d="M460 870a205 205 0 111-410 205 205 0 01-1 410zm0-399a195 195 0 101 389 195 195 0 00-1-389z"/><path fill="#FFF" d="M598 205a126 126 0 10252 0 126 126 0 10-252 0z"/><path fill="#2E66FF" d="M724 339a134 134 0 110-269 134 134 0 010 269zm0-253a119 119 0 100 238 119 119 0 000-238z"/><path fill="#FFB5EC" d="M638 205a86 86 0 10171 0 86 86 0 10-171 0z"/><path fill="#FFF152" d="M724 293a88 88 0 110-176 88 88 0 010 176zm0-171a83 83 0 100 166 83 83 0 000-166zM459 585a49 49 0 1098 0 49 49 0 10-98 0z"/><path fill="#FFF152" d="M687 179a23 23 0 1045 0 23 23 0 10-45 0z"/></svg>