<svg xmlns="http://www.w3.org/2000/svg" width="128" height="128" class="icon" viewBox="0 0 1024 1024"><defs/><path fill="#FFCC67" d="M891 630c-6-4-13-6-21-6l44-166s-36-124-36-130c0-9-81-68-100-90-21-21-168 22-211 17-42-4-142 0-142 0l-251 43-45 241 6 87c-10-2-19 0-27 4-26 15-32 56-13 90 15 25 40 42 64 40a352 352 0 00681 0c23 0 47-15 62-40 21-34 14-75-11-90"/><path fill="#666766" d="M870 624c-5 8 6-447-235-294-102 66-234 60-312-32l-15-19s-173 28-171 345c0 0-127-185 26-430 0 0-7 59 13 83 0 0 27-109 87-154 0 0-15 41-4 77 0 0 72-125 151-162 0 0-24 56-9 88 0 0 92-51 124-126 0 0 42 106 166 170 0 0 21-66 8-93 0 0 83 53 126 172 0 0 19-36 0-70-2 0 226 200 45 445m-117 36c-24 4-52 13-77 32-36 25-219 85-351 0-26-17-54-26-77-30-21-4-38 21-26 38 28 41 49 88 60 111 38 92 117 179 219 179 100 2 179-87 220-179 10-25 32-72 59-113 9-19-6-42-27-38"/><path fill="#ED7061" d="M657 909c-49 58-105 81-158 81s-108-23-157-81c23-38 61-62 100-57 23 2 42 14 57 34 15-20 34-30 58-34 40-5 76 17 100 57"/><path fill="#FFF" d="M738 662c-71 100-158 138-241 138-81 0-168-36-238-136 19 4 42 13 61 28 132 85 315 25 352 0 23-15 47-24 66-30"/><path fill="#666766" d="M529 581s83-106 207 0c0 0-111-51-207 0m-60 0s-83-106-206 0c0 0 111-51 206 0M323 470c-7-2-11-10-7-17 32-44 96-53 141-25 4 4 6 11 2 15-4 6-11 6-15 4a82 82 0 00-109 19c-4 4-8 4-12 4m353 0c6-2 11-10 6-17-32-44-95-53-140-25-4 4-7 11-2 15 4 4 10 6 15 2 36-23 85-13 108 19 4 6 9 6 13 6"/></svg>