<svg xmlns="http://www.w3.org/2000/svg" width="128" height="128" class="icon" viewBox="0 0 1024 1024"><defs/><path fill="#8CEEF9" d="M10 512a502 502 0 101004 0 502 502 0 10-1004 0z"/><path fill="#508DEF" d="M937 692c-33 0-61-27-61-61a61 61 0 01-121 0 61 61 0 01-122 0 61 61 0 01-122 0 61 61 0 01-121 0 61 61 0 01-122 0 61 61 0 01-122 0 61 61 0 01-117 23 502 502 0 00964 0c-9 22-30 38-56 38z"/><path fill="#1C1D21" d="M512 1024A508 508 0 0121 657c-2-6 1-11 6-13s11 1 13 6a50 50 0 0098-19c0-6 4-10 10-10s10 4 10 10a51 51 0 00101 0c0-6 5-10 11-10s10 4 10 10a51 51 0 00101 0c0-6 4-10 10-10s10 4 10 10a51 51 0 00102 0c0-6 4-10 10-10s10 4 10 10a51 51 0 00101 0c0-6 5-10 10-10s11 4 11 10a51 51 0 00101 0c0-6 4-10 10-10s10 4 10 10a51 51 0 00102 0c0-6 4-10 10-10s10 4 10 10a51 51 0 0097 19c3-5 8-8 13-6 6 2 8 7 7 13a516 516 0 01-493 367zM56 695c74 184 255 309 456 309s382-125 456-309a71 71 0 01-92-27 71 71 0 01-122 0 71 71 0 01-121 0 71 71 0 01-122 0 71 71 0 01-121 0 71 71 0 01-122 0 71 71 0 01-122 0 71 71 0 01-61 34c-9 0-20-3-29-7z"/><path fill="#FFECE9" d="M147 562v65a63 63 0 10126 0v-65a63 63 0 10-126 0z"/><path fill="#1C1D21" d="M210 700c-41 0-74-33-74-73v-66a74 74 0 01147 0v25c0 5-4 10-10 10s-10-5-10-10v-25a53 53 0 00-106 0v66a53 53 0 00106 0c0-6 4-10 10-10s10 4 10 10c0 40-33 73-73 73z"/><path fill="#FFECE9" d="M157 743v18h105v-18a52 52 0 10-105 0z"/><path fill="#1C1D21" d="M262 771c-6 0-10-4-10-10v-18a42 42 0 00-84 0v18c0 6-5 10-11 10s-10-4-10-10v-18a63 63 0 11125 0v18c0 6-4 10-10 10zm-52-180c-26 0-51-9-70-27-4-4-5-10-1-14s10-5 15-1a83 83 0 00112 0c4-4 10-3 14 1s4 10 0 14c-19 18-44 27-70 27z"/><path fill="#1C1D21" d="M179 540a11 11 0 1021 0 11 11 0 10-21 0zM191 774c-5 0-10-5-10-10v-25c0-6 5-11 10-11s11 5 11 11v25c0 5-5 10-11 10zm37 0c-6 0-10-5-10-10v-25c0-6 4-11 10-11s10 5 10 11v25c0 5-4 10-10 10z"/><path fill="#1C1D21" d="M512 1024A509 509 0 010 512 509 509 0 01512 0a509 509 0 01512 512 509 509 0 01-512 512zm0-1004a492 492 0 101 985 492 492 0 00-1-985z"/><path fill="#0ABFB2" d="M149 858a500 500 0 00726 0H149z"/><path fill="#1C1D21" d="M512 1024a506 506 0 01-371-159c-3-3-3-7-2-11s6-6 10-6h726c4 0 8 2 10 6s1 8-2 11a512 512 0 01-371 159zM173 868c92 88 211 136 339 136s247-48 339-136H173z"/><path fill="#C67552" d="M352 332c-12 0-22 10-22 23v625l45 15V355c0-13-10-23-23-23z"/><path fill="#1C1D21" d="M375 1005h-3l-46-16c-3-1-6-5-6-9V355a33 33 0 1165 0v640c0 3-1 6-4 8l-6 2zm-35-32l25 8V355a12 12 0 00-25 0v618z"/><path fill="#FFC5B3" d="M407 288h11v-50h-11c-13 0-23 11-23 24v2c0 14 10 24 23 24zm211 0h-11v-50h11c13 0 23 11 23 24v2c0 14-10 24-23 24z"/><path fill="#1C1D21" d="M418 298h-11c-19 0-34-15-34-33v-3c0-19 16-34 34-34h11c6 0 10 5 10 10v50c0 5-4 10-10 10zm-11-50c-7 0-13 6-13 14v2c0 8 6 14 13 14h1v-30h-1zm211 50h-11c-6 0-11-4-11-10v-50c0-6 5-10 11-10h11c18 0 33 15 33 34v2c0 19-15 34-33 34zm-1-20h1c7 0 13-6 13-13v-3c0-7-6-13-13-13h-1v29z"/><path fill="#FFC5B3" d="M600 477l-37-22c-15-9-23-25-23-42v-15c0-8 5-16 12-20 32-14 54-47 54-85v-43a94 94 0 10-188 0v43c0 38 22 70 54 85 8 4 13 11 13 20v15c0 17-9 33-24 42l-36 22c-30 19-48 51-48 87v431a503 503 0 00271 0V563c0-35-18-67-48-86z"/><path fill="#1C1D21" d="M512 1024c-47 0-94-6-139-19-4-1-7-5-7-10V563c0-39 20-74 53-94l37-23c11-7 18-20 18-34v-14c0-5-2-8-6-10-37-18-60-55-60-95v-43a104 104 0 01208 0v43c0 40-23 77-60 95-4 2-6 5-6 10v14c0 14 7 27 18 34l37 23c33 20 53 55 53 94v432c0 5-3 9-7 10-45 13-92 19-139 19zm-126-37a488 488 0 00252 0V563c0-31-17-60-44-77l-37-23a59 59 0 01-28-51v-14c0-13 7-24 18-29 30-14 49-44 49-76v-43a83 83 0 00-84-84c-46 0-84 38-84 84v43c0 33 19 62 48 76 11 5 18 16 18 29v14c0 21-10 40-28 51l-37 23a91 91 0 00-43 77v424z"/><path fill="#FF8939" d="M575 308c-14 0-26 6-35 16-7 8-17 13-28 13s-21-5-28-13c-9-10-21-16-35-16h-30c0 51 41 93 92 93h2c51 0 92-42 92-93h-30z"/><path fill="#1C1D21" d="M513 411h-2c-57 0-103-46-103-103 0-5 5-10 11-10h30c16 0 32 7 43 19 5 6 12 10 20 10s15-4 20-10c11-12 27-19 43-19h30c6 0 10 5 10 10 0 57-45 103-102 103zm-83-92c5 40 39 71 81 71h2c42 0 76-31 82-71h-20c-10 0-20 4-27 12a48 48 0 01-71 0c-7-8-17-12-27-12h-20z"/><path fill="#AA4D2D" d="M672 197h-55c-12 0-22-10-22-23a83 83 0 00-166 0c0 13-10 23-22 23h-55c-12 0-22 9-22 21s9 21 21 21h321c12 0 22-9 22-21s-10-21-22-21z"/><path fill="#1C1D21" d="M673 250H351c-8 0-16-4-22-10s-9-14-9-23c0-17 15-30 32-30h55c6 0 12-6 12-13a93 93 0 01186 0c0 7 6 13 12 13h55c17 0 32 13 32 30a31 31 0 01-31 33zm-321-43c-6 0-11 5-11 11 0 3 1 6 3 8s5 3 7 3h322c3 0 5-1 7-3s4-5 3-8c0-6-5-11-11-11h-55c-18 0-33-15-33-33a73 73 0 00-145 0c0 18-14 33-32 33h-55z"/><path fill="#1C1D21" d="M477 207h-70c-6 0-11-4-11-10s5-10 11-10h70c6 0 10 4 10 10s-4 10-10 10zm63 0h-19c-6 0-10-4-10-10s4-10 10-10h19c6 0 10 4 10 10s-4 10-10 10z"/><path fill="#FF3E63" d="M600 477l-9-5v83c0 17-14 31-31 31h-96c-17 0-30-14-30-31v-83l-10 5c-30 19-48 51-48 87v431a503 503 0 00272 0V563c0-35-18-67-48-86z"/><path fill="#FFAEC3" d="M417 973c-6 0-10-4-10-10V643c0-5 4-10 10-10s10 5 10 10v320c0 6-4 10-10 10zm0-356c-6 0-10-5-10-11v-3c0-6 4-10 10-10s10 4 10 10v3c0 6-4 11-10 11z"/><path fill="#1C1D21" d="M512 1024c-47 0-94-6-139-19-4-1-7-5-7-10V563c0-39 20-74 53-94l9-6c3-2 7-2 10 0 4 1 6 5 6 9v83c0 11 9 20 20 20h96c11 0 20-9 20-20v-83c0-4 2-8 6-9 3-2 7-2 10 0l9 6c34 20 53 55 53 94v432c0 5-3 9-7 10-45 13-92 19-139 19zm-126-37a488 488 0 00252 0V563c0-29-14-56-37-73v65c0 22-19 41-41 41h-96c-22 0-41-19-41-41v-65a91 91 0 00-37 73v424z"/><path fill="#FF9E5C" d="M376 807v188a503 503 0 00272 0V807H376z"/><path fill="#FFC5B3" d="M364 754h-30c-14 0-25-11-25-25v-15c0-14 11-25 25-25h30a32 32 0 010 65z"/><path fill="#1C1D21" d="M364 764h-30c-19 0-35-16-35-35v-15c0-20 15-35 35-35h30a43 43 0 010 85zm-30-65c-8 0-15 7-15 15v15c0 8 7 15 15 15h30a22 22 0 000-45h-30zM210 509c-6 0-11-5-11-11a179 179 0 01151-176h1c5-1 11 3 11 9 1 5-2 10-8 11h-1c-77 13-133 78-133 156 0 6-5 11-10 11z"/><path fill="#FF8939" d="M254 860a38 38 0 1076 0 38 38 0 10-76 0z"/><path fill="#1C1D21" d="M292 909a48 48 0 010-97 48 48 0 010 97zm0-76a28 28 0 100 55 28 28 0 000-55zm220 191c-6 0-10-5-10-10V898c0-5 4-10 10-10s10 5 10 10v116c0 5-4 10-10 10z"/><path fill="#1C1D21" d="M512 904l-6-2-34-23a10 10 0 0111-17l29 19 28-19a10 10 0 0112 17l-35 23-5 2z"/><path fill="#FFC9A4" d="M417 973c-6 0-10-4-10-10V806c0-6 4-10 10-10s10 4 10 10v157c0 6-4 10-10 10z"/><path fill="#1C1D21" d="M512 1024c-47 0-94-6-139-19-4-1-7-5-7-10V807c0-6 4-10 10-10h272c6 0 10 4 10 10v188c0 5-3 9-7 10-45 13-92 19-139 19zm-126-37a488 488 0 00252 0V817H386v170z"/></svg>