<svg xmlns="http://www.w3.org/2000/svg" width="130.3" height="128" class="icon" viewBox="0 0 1042 1024"><defs/><path fill="#7598D9" d="M766 942H162a13 13 0 01-13-13V181l26-27h591c7 0 13 6 13 14v761c0 8-6 13-13 13"/><path fill="#B1CDFC" d="M714 890H109a13 13 0 01-13-13V233l132-131h486c7 0 13 6 13 13v762a13 13 0 01-13 13"/><path fill="#7598D9" d="M228 102L96 233h132z"/><path fill="#85ABEF" d="M149 627h72v-92h-72z"/><path fill="#7598D9" d="M221 627h72V496h-72z"/><path fill="#3353B6" d="M293 627h73V430h-73z"/><path fill="#1D3285" d="M366 627h72V365h-72z"/><path fill="#3353B6" d="M196 830c-18 0-34-10-41-26a10 10 0 1118-7c4 8 13 14 23 14 13 0 24-10 24-22 0-14-8-21-24-21-32 0-44-21-44-40 0-23 20-41 44-41 18 0 34 10 41 26a10 10 0 11-18 7c-4-8-13-13-23-13-13 0-24 9-24 21 0 14 8 21 24 21 32 0 44 21 44 40 0 23-20 41-44 41"/><path fill="#3353B6" d="M344 834h-64a10 10 0 010-20h64a10 10 0 110 20m116 0h-64a10 10 0 010-20h64a10 10 0 110 20M344 703h-64a10 10 0 110-20h64a10 10 0 110 20m116 0h-64a10 10 0 110-20h64a10 10 0 110 20m-64 65H280a10 10 0 010-19h116a10 10 0 010 19m129 0h-76a10 10 0 010-19h76a10 10 0 010 19m-329 79a10 10 0 01-10-10v-17a10 10 0 0120 0v17a10 10 0 01-10 10m0-140a10 10 0 01-10-10v-17a10 10 0 0120 0v17a10 10 0 01-10 10"/><path fill="#EBF3FD" d="M924 312a26 26 0 11-53 0 26 26 0 0153 0M241 440h-79a10 10 0 110-20h79a10 10 0 110 20m65-66H162a10 10 0 110-19h144a10 10 0 010 19m-39-65H162a10 10 0 110-20h105a10 10 0 010 20m151 0h-98a10 10 0 110-20h98a10 10 0 110 20m151 0h-98a10 10 0 110-20h98a10 10 0 110 20m-105-66H280a10 10 0 010-20h184a10 10 0 010 20m197 0H517a10 10 0 110-20h144a10 10 0 110 20"/><path fill="#3353B6" d="M897 348a36 36 0 01-36-36 36 36 0 0136-36 36 36 0 010 72m0-52a16 16 0 00-16 16 16 16 0 0033 0 16 16 0 00-17-16"/><path fill="#EBF3FD" d="M871 168a26 26 0 11-52 0 26 26 0 0152 0"/><path fill="#3353B6" d="M845 204a36 36 0 010-73 36 36 0 010 73m0-53a16 16 0 00-17 17 16 16 0 1017-17"/><path fill="#EBF3FD" d="M897 824a26 26 0 11-52 0 26 26 0 0152 0"/><path fill="#3353B6" d="M871 860a36 36 0 01-36-36 36 36 0 0136-36 36 36 0 0136 36c0 20-16 36-36 36m0-52a16 16 0 000 33 16 16 0 000-33"/><path fill="#1D3285" d="M490 562a223 223 0 0081 171l143-171V338a223 223 0 00-224 224"/><path fill="#3353B6" d="M714 338v224l100-200a222 222 0 00-100-24"/><path fill="#85ABEF" d="M814 362L714 562l214-64a224 224 0 00-114-136"/><path fill="#3353B6" d="M571 733a222 222 0 00143 52 223 223 0 00164-72L714 562 571 733z"/><path fill="#7598D9" d="M928 498l-214 64 164 151a222 222 0 0059-151 223 223 0 00-9-64"/><path fill="#E39C26" d="M825 562a112 112 0 10-223 0 112 112 0 00223 0"/><path fill="#DF751B" d="M682 641a111 111 0 01-62-18 112 112 0 00205-61 112 112 0 00-50-94 112 112 0 01-93 173"/></svg>