<svg xmlns="http://www.w3.org/2000/svg" width="128" height="128" class="icon" viewBox="0 0 1024 1024"><defs/><path fill="#E7402E" d="M263 517c-67 8-135 42-142 116-9 87 42 135 114 152 71 17 138 0 196-28 58-29 115-93 115-93l300 146s19-28 33-55 25-57 25-57L591 594s20-29 40-85c21-57 24-102 24-102l-162-2v-55l196-1v-46H493v-89h-96v87H211v46l183-1v59H248v45h302s-3 26-14 57l-24 58s-93-32-169-45"/><path fill="#3D100B" d="M846 823l-6-1-291-142a363 363 0 01-209 120c-37 7-73 6-108-2-87-21-133-81-124-166 3-38 22-70 54-92 33-24 72-32 100-35a13 13 0 113 25c-37 5-123 23-131 105-10 96 61 127 104 137 59 14 120 5 187-27 55-27 110-89 111-89a13 13 0 0115-3l290 141a751 751 0 0046-88L587 606a13 13 0 01-6-20c1-2 19-29 38-82 13-36 19-67 21-84l-147-2c-7 0-13-6-13-13v-55c0-7 6-13 13-13l183-1v-20H493c-7 0-13-6-13-13v-76h-70v74c0 8-6 13-13 13H224v20l170-1c3 0 7 1 9 4a13 13 0 014 9v59c0 7-6 13-13 13H261v19h289a13 13 0 0113 15 284 284 0 01-15 60l-24 58c-3 7-10 10-17 7 0 0-93-32-166-44a13 13 0 014-26c61 10 132 33 159 42a7088 7088 0 0020-47l11-39H248c-7 0-13-5-13-13v-45c0-7 6-13 13-13h133v-33l-170 1a13 13 0 01-13-13v-46c0-7 6-13 13-13h173v-74c0-8 6-13 13-13h96c8 0 13 5 13 13v76h183c7 0 13 6 13 13v46c0 7-6 13-13 13l-183 1v29l149 2a13 13 0 0113 13 467 467 0 01-57 179l297 100a13 13 0 018 17 602 602 0 01-59 114 13 13 0 01-11 6z"/><path fill="#F4DD50" d="M282 740c-106 0-127-52-127-89s22-78 112-84c89-6 211 64 211 64s-90 109-196 109z"/><path fill="#FFF" d="M382 643l-5-1a500 500 0 00-14-5 448 448 0 00-11-3 15 15 0 118-29 479 479 0 0112 4 527 527 0 0115 5 15 15 0 01-5 29zm-195 1a15 15 0 01-8-27c21-14 50-23 87-25l30 1a15 15 0 01-2 29h-26c-32 2-56 9-72 20a15 15 0 01-9 2z"/></svg>