<svg xmlns="http://www.w3.org/2000/svg" width="128" height="128" class="icon" viewBox="0 0 1024 1024"><defs/><path fill="#00A8F1" d="M860 0c90 0 164 74 164 164v531s-33-4-180-53l-158-57c37-64 65-138 86-216H569v-72h248v-41H569V135H469c-19 0-19 19-19 19v104H201v41h249v70H244v41h401a731 731 0 01-57 142c-129-43-269-78-357-56-55 15-92 39-112 64-96 117-27 295 176 295 121 0 237-67 327-178 135 66 402 176 402 176v7a164 164 0 01-164 164H164A164 164 0 010 860V164A164 164 0 01164 0zM250 556c94-10 182 27 287 78-76 94-168 154-261 154-159 0-206-125-127-195 27-23 74-35 101-37z"/></svg>