<svg xmlns="http://www.w3.org/2000/svg" width="128" height="128" class="icon" viewBox="0 0 1024 1024"><defs/><path fill="#FFE3BA" d="M216 166h544a48 48 0 0148 48v597a48 48 0 01-48 48H264a48 48 0 01-48-48V166z"/><path fill="#FFC670" d="M266 108a48 48 0 00-50 46v659a48 48 0 0150-46h61V108z"/><path fill="#F6716F" d="M855 774a34 34 0 01-48 0l-97-96 24-24 24-24 97 96a34 34 0 010 48z"/><path fill="#FFF6E6" d="M393 482a171 171 0 10341 0 171 171 0 10-341 0z"/><path fill="#3D3D63" d="M395 304h73a17 17 0 100-34h-73a17 17 0 000 34zm261 401h-49a17 17 0 000 34h49a17 17 0 000-34zm-126 0H395a17 17 0 000 34h135a17 17 0 000-34z"/><path fill="#3D3D63" d="M867 714l-42-42V214a65 65 0 00-65-65H344v-41a17 17 0 00-17-17h-61a65 65 0 00-67 63v657a65 65 0 0065 64h496a65 65 0 0065-64v-11a51 51 0 0042-87zM233 154a31 31 0 0133-30h44v623h-44a68 68 0 00-33 8zm527 688H264a30 30 0 112-60h61a17 17 0 0017-17V183h416a31 31 0 0131 31v424l-20-20a17 17 0 00-25 0l-11 12-28-28a188 188 0 10-296-229h-16a17 17 0 00-17 17 17 17 0 0014 17 187 187 0 0027 197h-24a17 17 0 000 34h62a188 188 0 00226-11l27 27-12 12a17 17 0 000 24l92 93v28a31 31 0 01-30 31zM410 482a154 154 0 11153 154 154 154 0 01-153-154zm433 280a17 17 0 01-24 0l-85-85 24-24 84 84a17 17 0 011 25z"/><path fill="#3D3D63" d="M614 556a17 17 0 00-17-17h-17V438h29v6a17 17 0 1034 0v-22a17 17 0 00-17-18H501a17 17 0 00-18 18v22a17 17 0 1035 0v-5h28v101h-16a17 17 0 100 34h67a17 17 0 0017-18z"/></svg>