<svg xmlns="http://www.w3.org/2000/svg" width="128" height="128" class="icon" viewBox="0 0 1024 1024"><defs/><path fill="#F9CA06" d="M147 0c-45 0-81 35-81 80v862c0 45 35 82 81 82h731c45 0 82-37 82-82V325L658 0H147z"/><path fill="#F7BC04" d="M960 325v16H755s-101-19-97-107c0 0 3 91 96 91h206z"/><path fill="#FFF" d="M658 0v232c0 27 17 93 97 93h205L658 0z" opacity=".5"/><path fill="#3566FF" d="M386 563h-56c-5 0-8 3-8 8v157c0 6-6 12-12 12h-10c-6 0-12-6-12-12V571c0-5-3-8-8-8h-56c-5 0-8-3-8-8v-7c0-5 3-8 8-8h162c5 0 8 3 8 8v7c0 5-3 8-8 8zm206 177h-11c-4 0-7-2-10-5l-46-63c-5-6-15-6-19 0l-47 63c-2 3-5 5-9 5h-11c-10 0-16-12-9-19l60-75c3-4 3-11 0-15l-55-71c-6-8-1-19 10-19h9c4 0 7 1 9 5l43 57c4 7 14 7 19 0l43-57c2-4 6-5 10-5h8c9 0 16 11 9 19l-54 70c-3 4-3 10 0 14l60 77c7 8 1 19-9 19zm216-177h-53c-6 0-12 6-12 12v153c0 6-5 12-12 12h-9c-7 0-12-6-12-12V575c0-6-6-12-12-12h-53c-5 0-8-3-8-8v-7c0-5 3-8 8-8h163c5 0 8 3 8 8v7c0 5-3 8-8 8z"/></svg>