<svg xmlns="http://www.w3.org/2000/svg" width="128" height="128" class="icon" viewBox="0 0 1024 1024"><defs/><path fill="#1078FF" d="M597 765H427c-5 0-8-4-8-8v-59c0-5 3-8 8-8h170c5 0 8 3 8 8v59c0 4-3 8-8 8zm-162-16h154v-43H435v43zm408 144l-818-1c-5 0-9-4-9-8 0-5 4-8 9-8l818 1c5 0 9 4 9 8 0 5-4 8-9 8zm157-1h-52c-4 0-8-4-8-8 0-5 4-8 8-8h52c5 0 8 3 8 8 0 4-3 8-8 8zm-615 43c-5 0-8-4-8-8 0-5 3-8 8-8l356-1c5 0 9 4 9 8 0 5-4 8-9 8l-356 1zm-35-1h-67c-4 0-8-3-8-8 0-4 4-8 8-8h67c5 0 8 4 8 8 0 5-3 8-8 8zm-51-383V129c0-38-29-68-67-69V48h426c26 0 45 20 45 46l4 449-408 8zM274 60c23 14 38 39 38 68v410l382-8-3-437c0-19-14-34-33-34H274z"/><path fill="#1078FF" d="M305 553c-2 0-4-1-5-3-2-1-3-3-3-5V129c0-37-29-66-65-67-4 0-8-4-8-8 0-5 4-8 8-8h426c27 0 47 21 47 47l3 444c0 5-3 8-8 8l-395 8zM280 62c20 15 33 39 33 67v408l379-8-3-435c0-18-14-32-32-32H280z"/><path fill="#1078FF" d="M305 137c-4 0-8-4-8-8a66 66 0 10-133 0c0 4-4 8-8 8-5 0-9-4-9-8 0-46 38-83 83-83 46 0 83 37 83 83 0 4-3 8-8 8z"/><path fill="#5CD8FF" d="M156 129h149"/><path fill="#1078FF" d="M156 122h149v13H156z"/><path fill="#1078FF" d="M305 137H156c-4 0-8-4-8-8 0-5 4-9 8-9h149c5 0 8 4 8 9 0 4-4 8-8 8zm207 221H352c-5 0-8-4-8-8s3-8 8-8h160c5 0 8 3 8 8s-4 8-8 8zm-29 142H362c-9 0-16-3-16-8s7-8 16-8h121c9 0 16 3 16 8s-7 8-16 8zm29-175H352c-5 0-8-3-8-8s3-8 8-8h160c5 0 8 3 8 8s-4 8-8 8zm-64-33h-97c-4 0-8-4-8-8 0-5 4-9 8-9h97c5 0 8 4 8 9 0 4-3 8-8 8zm29-42H352c-5 0-8-4-8-8s3-9 8-9h125c4 0 8 4 8 9s-4 8-8 8zm-29 192h-97c-4 0-8-3-8-8 0-4 4-8 8-8h97c5 0 8 4 8 8 0 5-3 8-8 8zm29-42H352c-5 0-8-3-8-8 0-4 3-8 8-8h125c4 0 8 4 8 8 0 5-4 8-8 8zm0-188H352c-5 0-8-3-8-8 0-4 3-8 8-8h125c4 0 8 4 8 8 0 5-4 8-8 8zm-29-38h-97c-4 0-8-4-8-8s4-8 8-8h97c5 0 8 3 8 8s-3 8-8 8zm154 804H351c-4 0-8-4-8-8 0-5 4-8 8-8h251c4 0 8 4 8 8 0 5-4 8-8 8zm71 0h-47c-5 0-9-4-9-8 0-5 4-8 9-8h47c4 0 8 3 8 8 0 4-4 8-8 8z"/><path fill="#06F" d="M495 495l-3-1c-4-3-3-6 1-13 6-12 21-45 24-72 7-60 103-187 166-188h5v5a641 641 0 01-24 124h1l-1 7c-2 16-9 32-18 45-9 11-11 13-22 16l14 3-9 8c-23 19-45 37-90 23l-5-2 2-6c10-20 24-41 37-62a865 865 0 00-14 18l-52 79c-8 13-10 16-12 16zm52-51c32 9 49-2 68-17l-32-6 18-6 15-5c13-4 13-4 20-14 8-9 13-22 16-34l-37 5 21-13 7-3 14-8c5-8 18-83 20-111-58 8-144 125-150 179-1 9-4 19-7 29l30-45 4 2-4-2c5-8 52-79 69-93l16-14-8 19c-12 27-29 54-46 81-12 19-24 37-34 56z"/><path fill="#1078FF" d="M826 570a90 90 0 111-179 90 90 0 01-1 179zm0-162a73 73 0 000 145c40 0 73-32 73-72s-33-73-73-73zm151 408c-4 0-8-4-8-9V687c0-43-35-79-78-79H766c-43 0-78 35-78 79v120c0 5-4 9-9 9s-9-4-9-9V687c0-53 43-96 95-96h126c52 0 95 43 95 96v120c0 5-3 9-9 9zm-53 0c-5 0-9-4-9-9v-66c0-5 4-9 9-9 4 0 8 4 8 9v66c0 5-4 9-8 9zm-190 0c-5 0-9-4-9-9v-66c0-5 4-9 9-9 4 0 8 4 8 9v66c0 5-4 9-8 9z"/><path fill="#1078FF" d="M828 771c-4 0-8-4-8-9V650h-23c-4 0-9-4-9-9s4-9 9-9h62c4 0 8 4 8 9s-3 9-8 9h-23v112c1 5-3 9-8 9zm149 48H679c-4 0-8-3-8-9s3-8 8-8h298c5 0 9 3 9 8s-3 9-9 9zM700 295h160c9 0 17 8 17 17v106h16V312c0-18-14-33-33-33H700c-5 0-8 3-8 8 0 4 3 8 8 8zm-19 395H147V312c0-9 8-17 17-17h141c5 0 8-4 8-8 0-5-3-8-8-8H164c-18 0-33 15-33 33v379c0 8 6 15 14 15h536v-16z"/><path fill="#1078FF" d="M91 753v-47h590v-16H82c-4 0-8 3-8 8v55c0 34 28 63 63 63h544v-17H137c-25 0-46-21-46-46z"/></svg>