<svg xmlns="http://www.w3.org/2000/svg" width="128" height="128" class="icon" viewBox="0 0 1024 1024"><defs/><path fill="#FA4" d="M683 341a137 137 0 01273 0v546a68 68 0 01-69 69H683V341z"/><path fill="#F74" d="M68 819a137 137 0 00137 137h682a68 68 0 01-68-69V205A137 137 0 00683 68H205A137 137 0 0068 205v614z"/><path fill="#FFF" d="M188 273a51 51 0 0151-51h68a51 51 0 110 102h-68a51 51 0 01-51-51zm0 205a51 51 0 0151-51h410a51 51 0 010 102H239a51 51 0 01-51-51zm51 153a51 51 0 000 103h205a51 51 0 000-103H239z"/></svg>