<svg xmlns="http://www.w3.org/2000/svg" width="128" height="128" class="icon" viewBox="0 0 1024 1024"><defs/><path fill="#FED29A" d="M108 277h808v464H108z"/><path fill="#29ADB4" d="M471 320H327l-91 184 59-32 18 32 86-175 85 175 18-32 59 32-90-184z"/><path fill="#20C8C7" d="M189 211c-53 25-53 121 0 146s150-39 150-39v-68s-97-64-150-39z"/><path fill="#29ADB4" d="M608 357c53-25 53-121 0-146s-149 39-149 39v68s96 64 149 39z"/><path fill="#FC642B" d="M108 601h808v74H108z"/><path fill="#475A61" d="M676 415h163a14 14 0 000-28H676a14 14 0 000 28zm163 52H676a14 14 0 000 28h163a14 14 0 000-28z"/><path fill="#6AE1DB" d="M339 270H236a14 14 0 000 28h103a14 14 0 000-28z"/><path fill="#20C8C7" d="M561 270H459a14 14 0 000 28h102a14 14 0 000-28z"/><path fill="#FD9025" d="M839 819l-731-78h731v78z"/><path fill="#6AE1DB" d="M339 224h120v120H339z"/></svg>