<svg xmlns="http://www.w3.org/2000/svg" width="128" height="128" class="icon" viewBox="0 0 1024 1024"><defs/><path d="M653 605c6 19 24 16 29 2 4-15 4-40-11-41-16-1-23 21-18 39zm99 0c5 19 24 16 28 2 5-15 5-40-10-41-16-1-23 21-18 39z"/><path fill="#FFDF29" d="M898 898l-19-46a108 108 0 01-89 46H656c-60 0-108-48-108-108V234c0-60 48-108 108-108h134c60 0 108 48 108 108v664z"/><path d="M639 525a9 9 0 0112-3l37 24c6 4 5 13-2 16h-1l-54 13a9 9 0 01-5-18h1l33-8-18-11a9 9 0 01-3-12v-1zm159 0a9 9 0 00-11-3h-1l-36 24c-7 4-5 13 1 16h1l54 13a9 9 0 005-18h-1l-33-8 18-11a9 9 0 004-12l-1-1z"/><path fill="#101549" d="M723 746c57 0 103-53 103-103 0-51-46-68-103-68s-103 17-103 68c0 50 46 103 103 103z"/><path fill="#FF6F6F" d="M726 687c26 0 48 14 61 35-18 14-40 24-64 24-22 0-43-9-60-21 12-23 36-38 63-38z"/><path fill="#FFF" d="M723 575c24 0 47 3 64 10-13 12-37 19-64 19s-51-7-64-18c17-8 40-11 64-11z"/><path fill="#FFB957" d="M449 126c55 0 99 44 99 99v215h54l-54 54v36c0 55-44 99-99 99H225c-55 0-99-44-99-99V225c0-55 44-99 99-99h224z"/><path fill="#101549" d="M332 341v162c-63 0-112-44-121-83a178 178 0 01-4-51c1-16 14-28 29-28h96zm97 0c15 0 28 12 29 28a178 178 0 01-4 51c-9 39-56 82-118 83h-4V341h97z"/><path fill="#FF6F6F" d="M332 503c-35 0-66-13-88-32a112 112 0 0193-49 112 112 0 0189 44c-22 21-53 36-90 37h-4z"/><path fill="#FFF" d="M332 341v36h-63a36 36 0 01-35-36h98zm97 0h2a36 36 0 01-36 36h-63v-36h97z"/><path d="M271 291c5 18 24 16 28 1 5-14 5-39-10-40-16-2-23 21-18 39zm99 0c5 18 24 16 28 1 5-14 5-39-11-40-15-2-22 21-17 39z"/><path fill="#7AABFF" d="M476 629a72 72 0 0172 69v128a72 72 0 01-70 72h-93l-26 28-25-28H198a72 72 0 01-72-69V701a72 72 0 0169-72h281z"/><path d="M305 802a9 9 0 0113 13c-35 34-67 47-95 37-28-11-43-42-46-91a9 9 0 0118-1c3 43 15 67 35 75 19 7 45-3 75-33z"/><path fill="#FFF" d="M193 690a36 36 0 1069 23 36 36 0 10-69-23z"/><path d="M233 666a27 27 0 11-41 33 36 36 0 0140-33z"/><path fill="#FFF" d="M291 731a36 36 0 1068 22 36 36 0 10-68-22z"/><path d="M330 707a27 27 0 11-41 33 36 36 0 0140-34z"/><path fill="#FFF" d="M781 198a72 72 0 0172 71v59a72 72 0 01-45 67v27l-23-22a73 73 0 01-4 0H665a72 72 0 01-72-72v-59a72 72 0 0172-71h116z"/><path d="M652 296c5 15 18 12 20 0s0-33-11-34c-11 0-14 19-9 34zM719 305a4 4 0 01-5-5c0-24 7-37 22-37 14 0 22 13 22 37a4 4 0 11-9 0c0-20-5-28-13-28s-13 8-13 28a4 4 0 01-4 5zm21 22a4 4 0 017 5c-11 17-33 21-64 12a4 4 0 112-8c28 7 46 4 55-9z"/><path d="M733 335a4 4 0 016 0h1l9 10a4 4 0 01-6 7l-1-1-9-9a4 4 0 010-7z"/></svg>