<svg xmlns="http://www.w3.org/2000/svg" width="128" height="128" class="icon" viewBox="0 0 1024 1024"><defs/><path fill="#EEECF6" d="M23 287l372 671 535-10 60-275z"/><path fill="#141515" d="M395 968c-4 0-7-1-9-5L16 291c-1-4-1-9 2-12 2-3 7-4 11-3l967 387c5 1 8 7 6 11l-60 275c-1 5-6 9-10 9l-537 10zM47 307l354 641 522-10 57-259L47 307z"/><path fill="#EC748B" d="M219 642l79 142 648 92 14-64z"/><path fill="#141515" d="M946 888h-1l-648-92c-3 0-6-3-7-6l-79-142c-2-3-2-7 1-12 3-3 7-4 10-4l741 170c5 1 8 7 7 11l-15 65c0 6-4 10-9 10zM304 775l634 91 10-45-708-163 64 117z"/><path fill="#AFCEE9" d="M309 246v155l605 241a509 509 0 00-228-351c-92-61-369-162-377-45z"/><path fill="#141515" d="M914 652l-4-1-604-240c-5-1-6-6-6-10V246c1-29 19-65 92-65 94 0 238 59 301 101a527 527 0 01233 359c0 4-1 7-4 10l-8 1zM319 394l582 232a501 501 0 00-221-326c-61-41-202-98-291-98-67 0-70 34-70 44v148z"/><path fill="#7ADCFF" d="M389 635a73 73 0 104-147 73 73 0 10-4 147z"/><path fill="#141515" d="M391 644h-2a83 83 0 013-165h2c21-1 42 10 58 26 15 16 23 36 23 58-2 44-39 81-84 81zm1-145c-35 0-63 28-64 61-2 34 26 63 61 65h2c33 0 61-28 62-62 0-16-5-32-17-44a59 59 0 00-44-20z"/><path fill="#7ADCFF" d="M555 671a57 57 0 103-114 57 57 0 10-3 114z"/><path fill="#141515" d="M557 682h-1c-37-2-66-32-66-69 2-37 31-66 67-66h2c17 0 35 7 47 21s19 30 19 48c-2 36-31 66-68 66zm2-114c-27 0-47 20-47 45 0 26 20 47 45 47l2 10v-10c25 0 45-21 47-46 0-11-5-24-14-33-10-8-21-13-33-13z"/><path fill="#7ADCFF" d="M694 702a44 44 0 102-88 44 44 0 10-2 88z"/><path fill="#141515" d="M696 712s-1 0 0 0a54 54 0 110-108c31 0 54 25 54 56-1 29-26 52-54 52zm0-87c-19 0-33 14-33 32 0 19 14 33 32 33l1 11v-11c18 0 34-14 34-32 0-17-15-32-34-33z"/><path fill="#7ADCFF" d="M813 728a32 32 0 101-64 32 32 0 10-1 64z"/><path fill="#141515" d="M813 739s-1 0 0 0c-13 0-23-5-30-13s-12-19-12-31c0-24 20-43 42-43 25 0 44 21 43 44 0 24-19 43-43 43zm0-65c-13 0-22 11-23 22 0 6 1 12 6 16 4 5 10 8 16 8v10-10c12 0 22-11 22-22 1-13-7-24-21-24zM494 445c-5 0-10-5-10-11V284c0-6 5-10 10-10s11 4 11 10v150c0 6-5 11-11 11z"/><path fill="#EEECF6" d="M475 32h145v223c-42-21-95-40-145-52V32z"/><path fill="#141515" d="M620 266l-4-1c-47-22-97-40-142-51-4-2-7-6-7-11V32c0-6 4-10 10-10h145c6 0 10 4 10 10v223c0 2-2 7-4 8l-8 3zm-134-70c39 10 83 25 123 44V44H486v152z"/><path fill="#EEECF6" d="M645 136h126v224c-25-25-53-48-83-69-12-7-25-16-41-23V136h-2z"/><path fill="#141515" d="M771 370c-3 0-6-1-7-3a608 608 0 00-123-91c-3-1-6-5-6-8V136c0-6 4-10 10-10h126c6 0 10 4 10 10v224c0 4-3 7-6 10h-4zM655 260l37 22c25 16 47 34 67 53V145H654l1 115z"/><path fill="#6ABAD6" d="M56 859c1 26 30 48 67 48 35 0 64-19 67-44 3 25 32 44 67 44 36 0 65-19 68-44 3 25 32 44 67 44s64-19 67-44c3 25 33 44 68 44s64-19 67-44c3 25 32 44 67 44s65-19 68-44c2 25 32 44 67 44s64-19 67-44c3 25 32 44 67 44 37 0 66-22 68-48h3v133H54l2-133z"/><path fill="#141515" d="M998 1002H51c-6 0-10-4-10-10V859c0-6 4-11 10-11h3c6 0 10 5 10 11 0 20 27 38 57 38s55-16 57-35c0-6 5-9 11-9s10 4 10 9c3 20 28 35 57 35s54-16 57-35c0-6 4-9 10-9s11 4 11 9c2 20 27 35 57 35s54-16 57-35c0-6 4-9 10-9s10 4 10 9c3 20 28 35 57 35s54-16 57-35c0-6 5-9 10-9 6 0 11 4 11 9 3 20 27 35 57 35s54-16 57-35c0-6 4-9 10-9s10 4 10 9c3 20 28 35 57 35s54-16 57-35c0-6 5-9 11-9 5 0 10 4 10 9 3 20 28 35 57 35 31 0 56-18 57-38 0-6 4-11 10-11h3c6 0 10 5 10 11v133c-1 6-5 10-11 10zM61 982h926v-87a91 91 0 01-60 22c-29 0-54-11-67-29-13 18-38 29-67 29s-54-11-67-29c-14 18-38 29-68 29s-54-11-67-29c-13 18-38 29-67 29s-54-11-68-29c-13 18-38 29-67 29s-54-11-67-29a83 83 0 01-67 29c-30 0-55-11-68-29a83 83 0 01-67 29c-25 0-47-9-60-22v87h1z"/></svg>