<svg xmlns="http://www.w3.org/2000/svg" width="128" height="128" class="icon" viewBox="0 0 1024 1024"><defs/><path fill="#0097FF" d="M512 114c4 0 8 2 9 5l163 281 162 281c2 4 2 7 0 11s-6 6-10 6H188c-4 0-8-2-10-6s-2-7 0-11l162-281 163-281c1-3 5-5 9-5m0-57c-23 0-46 11-59 34L291 372 129 653a67 67 0 0059 102h648c52 0 85-57 59-102L733 372 571 91a68 68 0 00-59-34z"/><path fill="#0097FF" d="M836 326c4 0 8 2 10 6s2 7 0 11L684 624 521 905c-1 3-5 5-9 5s-8-2-9-5L340 624 178 342c-2-4-2-7 0-11s6-6 10-6h648m0-56H188c-52 0-85 57-59 102l162 280 162 281a68 68 0 00118 0l162-281 162-280c27-45-7-102-59-102z"/></svg>