<svg xmlns="http://www.w3.org/2000/svg" width="128" height="128" class="icon" viewBox="0 0 1024 1024"><defs/><path fill="#C2C7E5" d="M784 201h38v707h-38z"/><path fill="#F5BB1B" d="M822 188v-19h-38v19H684v35h237v-35zm-138 64h237v35H684z"/><path fill="#C2C7E5" d="M218 201h39v707h-39z"/><path fill="#F5BB1B" d="M135 139l219 91-14 33-219-92z"/><path fill="#35464E" d="M73 347h318v36H73z"/><path fill="#E72845" d="M88 383h287v136H88z"/><path fill="#35464E" d="M73 519h318v35H73z"/><path fill="#C7161E" d="M88 383h287v39H88z"/><path fill="#35464E" d="M136 383h42v92h-42zm151 0h42v92h-42zM644 347h318v36H644z"/><path fill="#E72845" d="M660 383h286v136H660z"/><path fill="#35464E" d="M644 519h318v35H644z"/><path fill="#C7161E" d="M660 383h286v39H660z"/><path fill="#35464E" d="M707 383h42v92h-42zm151 0h42v92h-42z"/><path fill="#C2C7E5" d="M727 880l-33 28-52-63 33-28zm-360-63l33 28-52 63-34-28z"/><path fill="#526C78" d="M297 671a225 225 0 10450 0 225 225 0 10-450 0z"/><path fill="#263137" d="M522 914a243 243 0 01-243-243 243 243 0 01243-242 243 243 0 01242 242 243 243 0 01-242 243zm0-450a207 207 0 00-208 207 207 207 0 00415 0 207 207 0 00-207-207z"/></svg>