<svg xmlns="http://www.w3.org/2000/svg" width="132.5" height="128" class="icon" viewBox="0 0 1060 1024"><defs/><path fill="#FFDBE0" d="M1016 446c0-10-3-18-8-25a92 92 0 00-109-142v-14l6-4a76 76 0 000-130 76 76 0 00-93-93H686v592l20 41c18 11 39 15 60 10a76 76 0 00131 0 76 76 0 0092-93c43-25 49-82 18-116 6-7 9-16 9-26zm0 0"/><path fill="#FFB5C0" d="M812 38a76 76 0 00-131 0 76 76 0 00-92 93 76 76 0 000 130 77 77 0 00-3 21 77 77 0 00-7 11 76 76 0 00-93 93 76 76 0 000 130 76 76 0 0093 93c21 36 65 46 99 30 6 13 16 24 28 32V214c0-32 21-60 50-71v-32c0-35 24-64 56-73zM361 320a76 76 0 00-93-93 76 76 0 00-132 0 76 76 0 00-93 93 76 76 0 000 132c-9 34 6 66 32 83 17 11 38 16 61 10a76 76 0 00132 0 76 76 0 0093-93 76 76 0 000-132zm0 0"/><path fill="#D6948C" d="M963 354c-6-16-24-24-40-18l-28 11-14-33c-6-16-25-24-41-16-15 7-22 25-15 40l23 56-30 73h-1l-66 36-29-55 14-70a31 31 0 00-60-12l-19 94-63-13c-16-3-33 6-37 23s6 34 24 37l36 8 45 84-27 90a124 124 0 01-148 84h-60v207l62 43h276c11 0 18-11 15-21-5-14-15-25-27-32a61 61 0 01-32-53v-47c0-29 5-57 13-84l48-156h60v-66l67-155 36-15c16-7 24-24 18-40zm0 0"/><path fill="#CE857A" d="M468 823c0-18 7-37 19-50-42-10-77-41-90-84l-28-90 110-206 63-27-23-57-83 35-37-88a31 31 0 10-57 24l25 61-86 162-68-36-39-95a31 31 0 00-57 24l49 117-59 24 26 56 31-13 84 45 50 161a286 286 0 0112 84v47c0 22-12 42-31 53-13 7-22 18-27 32-4 10 4 21 14 21h223a70 70 0 01-21-49V823zm0 0"/><path fill="#FFB5C0" d="M802 220a41 41 0 1183 0 41 41 0 110 83 41 41 0 11-83 0 41 41 0 110-83zm0 0"/><path fill="#FFDBE0" d="M820 261c0 9 4 17 12 21a24 24 0 1035-21c0-8-4-16-12-20a24 24 0 00-23 0 24 24 0 00-12 20zm0 0"/><path fill="#FF8E9E" d="M399 133a62 62 0 00-123 0 62 62 0 000 123 62 62 0 00123 0 62 62 0 000-123zm0 0"/><path fill="#FFB5C0" d="M314 194a24 24 0 1047 0 24 24 0 00-47 0zm695 436a62 62 0 00-88-87 62 62 0 00-87 87 62 62 0 0087 87 62 62 0 0088-87zm0 0"/><path fill="#FFDBE0" d="M898 630c0 9 4 16 12 21a24 24 0 0023 0 24 24 0 0012-21 24 24 0 00-35-20 24 24 0 00-12 20zm0 0"/><path fill="#FF8E9E" d="M75 535a41 41 0 1158 58 41 41 0 11-58 58 41 41 0 11-58-58 41 41 0 0158-58zm0 0"/><path fill="#FFB5C0" d="M51 593a24 24 0 1048 0 24 24 0 00-48 0zm0 0"/><path fill="#FF8E9E" d="M523 266a41 41 0 1182 0 41 41 0 110 82 41 41 0 11-82 0 41 41 0 110-82zm0 0"/><path fill="#FFB5C0" d="M541 307c0 8 4 16 12 20a24 24 0 1023-41 24 24 0 00-23 0 24 24 0 00-12 21zm0 0"/><path fill="#313D40" d="M387 837c-8 0-15 7-15 16v25a15 15 0 1031 0v-25c0-4-2-8-5-11a15 15 0 00-11-5zm257 0c-4 0-8 2-11 5a15 15 0 00-4 11v25a15 15 0 1031 0v-25c0-4-2-8-5-11a15 15 0 00-11-5zm-84 28a15 15 0 00-22 2 29 29 0 01-44 0 15 15 0 00-24 20c24 28 67 28 91 0a15 15 0 00-1-22zm0 0"/></svg>