<svg xmlns="http://www.w3.org/2000/svg" width="128" height="128" class="icon" viewBox="0 0 1024 1024"><defs/><path fill="#231814" d="M174 48h687v928H163V48h11zm666 21H185v886h655V69z"/><path fill="#231814" d="M219 701h591v214H214V701h5zm580 11H225v192h574V712z"/><path fill="#040000" d="M549 131l254 443c16 38 4 61-37 66H259c-41-5-54-27-38-65l254-444c24-33 50-33 74 0z"/><path fill="#F4D825" d="M512 184l112 198 113 198H287l113-198z"/><path fill="#231814" d="M273 807h70v13h-64v16h64v15h-70v15h70v7h16v-81h-34v-40a34 34 0 011-8c1-1-4-2-12-2h-5v50h-36v15zm57-27l7 4a191 191 0 017 4 5501 5501 0 0120-29l-17-10c-3 11-9 21-17 31zm-40 8l14-9-10-16-7-13-14 11c7 9 13 18 17 27zm162 5l16-8-17-37a85 85 0 00-15 7c6 12 12 24 16 38zm-25 63c-1 10 3 14 13 13h23c8 0 13-2 15-6 3-3 4-11 5-24-7-1-13-3-17-5-1 13-3 19-7 18h-13c-2 0-4-1-4-4v-50l1-10c2-4 1-5-1-5l-10-1h-5v74zm61-12l16-9c-7-20-13-37-20-50l-4 3-12 7c8 11 15 27 20 49zm-93 0l17 4a889 889 0 0011-58l-16-4c-2 20-6 39-12 58zm138-9h16v-10h22v49h17v-49h23v9h17v-64h-40v-15a36 36 0 012-12l-3-1h-16v28h-38v65zm16-50h22v25h-22v-25zm62 25h-23v-25h23v25zm94-47v4h-30v12h30v4h-44v12h102v-12h-44v-4h30v-12h-30v-4h36v-14h-36v-1l1-4a3 3 0 000-2l-12-1h-3v8h-36v14h36zm-47 71h20l-3 24h55c0 2-4 3-12 3a40 40 0 015 14l15-2 6-8a18 18 0 002-7h9v-13h-9l1-11h19v-13h-19l1-21h-68l-1 21h-21v13zm45-18l6 5h-17l1-9h13l-3 4zm30-4v9h-14l5-5-5-4h14zm-43 33l1-11h15l-5 6 8 5h-19zm29 0l5-5-6-6h15l-1 11h-13zM403 469l7-13-3-16v-4h1v-1h3l1 1h2v1h1l1 1 1 1 1 1h1l2 2 1 1h1l1 2 2 1 2 2 2 2 2 2 2 1 1 1 1 1 1 1 1 1h1l1 1 1 1h1l1 1 2 1 1 1h1l1 1h2l1 1h1l1 1h3l1 1v-1h3v-2h-2l-7-5-1-1h-1v-1h-2v-1h-1v-2h-1v-2l1-1v-1l1-1 1-1h-1v-11l1-1v-5l1-1v-2l1-1v-1l1-1v-2l1-1 2-2 1-2h-1l-1-1h-1v-1h-1l-1-1-1-1-1-1-1-1v-1h-1v-1l-1-1v-1l-1-1v-2l-1-1v-12l1-2v-3l1-2v-1l1-2v-1l1-2v-1l1-1 1-2v-1l2-2 1-2 1-1 1-1 1-1v-1h1l1-1v-1l1-1h1l1-1 1-1v-1h1l1-1 1-1h1l1-1 1-1h1l1-1v-1h1l2-1 1-1h1l1-1h1l1-1h1l1-1 1-1h2l1-1h1l1-1h2l1-1h1l2-1h2l2-1h1l2-1h3l1-1h3l2-1h3l2-1h7l2-1h4l2 1h6l1 1h3l1 1h2l1 1h1l2 1h1l1 1h2l1 1h1l2 1 1 1h1l2 1 1 1h1l1 1 1 1 2 1h1l1 1 1 1 1 1 1 1 1 1h1l1 1 1 1 1 1 1 1 1 1 1 1 1 1 1 2 1 1v1l1 1 1 1 1 1 1 1v1l1 2 1 1 1 1v1l1 1v2l1 1 1 1v1l1 2v1l1 1v13l-1 2v2l-1 2v2l-1 1v2l-1 1-1 1v2l-1 1-1 1v2l-1 1-1 1-1 1-1 2v1l-1 1-1 1-1 1v10l1 1v3h1v2l1 1v9l-1 1v3l-1 2v2l-1 2-1 4-1 4 1-1h2l1-1 2-1 2-1 1-1 3-1 3-1 3-2 6-2 3-2 3-1 3-1 2-1 1-1h1l2-1 1-1 1-1h2l1-1 1-1 1-1h1v-1h1v-1h2l1-1h1v1h3v1h1v1h1l3 6v-1h-1v1h-1v1h-1v1l-1 1v3l-1 1v8h-1v3h-1v1l-1 1v1h-1v2h-1v1l-1 1h-1v1h-1v1l-1 1h-1v1h-4l-1-1h-1l-1-1h-3l-1-1h-5v-1h-8l-1 1h-6v1h-5l-1 1h-2l-1 1-2 1-2 1h-1l-1 1h-1l-1 1h-1v1h-1l-1 1h-1v1h-1l-1 1-1 1h-1l-1 2-2 1h-1v1h3v1l1 1h2l1 1 1 1 1 1h1l2 1h1l1 1 1 1h2l1 1h3l1 1h1l2 1h2l3 1 2 1h3l2 1h11l4-1h2l1-1h12l1 1h3l1 1h3v1h1l1 1v2l-5 10-11 6-5 10-1 2v1l-1 1-1 1v1h-3v-1h-2l-1-1-1-1-1-1-1-1-2-1-3-3-4-2-1-2-2-1-2-2-1-1-2-1-2-2-2-1-2-1-2-2h-1l-1-1h-1l-1-1-1-1h-1l-1-1h-2l-1-1h-2l-1-1h-6v-1h-1l-1 1h-5v1h-1l-1 1h-1l-1 1h-1l-1 1v1h-1l-1 1-1 1h-1l-1 1h-1v1h-1l-1 1h-1l-1 1h-1l-1 1h-1l-1 1h-3l-1 1h-3l-1 1h-11l-1-1h-4l-1-1h-2l-1-1h-2l-1-1-2-1-2-1h-1l-2-1-2-1-2-1-2-1-4-3-2-1-2-1-2-1h-2l-1-1h-1l-1-1h-3l-1-1h-15l-1 1h-2l-1 1h-1l-1 1h-1v1h-1l-1 1-1 1h-1l-1 1-1 1-1 1-2 2-1 1-1 1v1l-1 1-1 1-1 1-2 2-2 2-1 2-2 2-1 1h-1v1h-6v-1h-1l-1-1-9-13h-1v-1l-1-1v-3h-1v-7h1v-3l1-1v-1h1l5-4 13 6h7l1-1h2l1-1h2l1-1h1l1-1 1-1h1l1-1h1l2-2 2-1 2-1 1-1 2-1 1-1 1-1 1-1v-1h1v-1h1v-2h1l-1-1v-1l-1-1h-1v-1h-2v-1h-1l-2-2-1-1h-1l-1-1-2-1h-1l-2-1-1-1h-1l-2-1h-2l-1-1h-1l-2-1h-2l-1-1h-2l-2-1h-1l-4-1-4-1-7-2h-4l-4-1zm164 10l-4 4-3 3-3 3-3 2-2 3-3 2-2 2-2 2-2 2-2 1-2 2-2 1-2 1-2 1-1 2-2 1-1 1h-1l-1 1h-4l-1 1h-11l-1-1h-5l-1-1h-2l-1-1-4-3-2-1-2-1-2-2-3-1-2-2-3-2-3-2-3-3-3-2-3-3-4-3-3-3-5-3-4-4v1l1 1v2l1 1v1h1v1l1 1 1 1v1l2 2 1 2 2 3 2 2v1h1v1l1 1v1l1 1v2h1l1 1 1 1 1 1 2 1 1 1 1 1 2 1 1 1 1 1 2 1 1 1 1 1 2 1 1 1h2l1 1 1 1 2 1h1l1 1 2 1h1l1 1 1 1h2l1 1h2l1 1h11l1-1h3l1-1h2v-1h2l1-1 2-1 1-1h2l1-1 2-1 1-1 2-1 1-1 1-1 2-1 1-1 2-2 1-1 1-1 2-1 1-1 1-1 3-3 2-2v-7l1-1v-2l1-1v-1l1-1 1-1v-1l1-1v-1h1v-1h1v-1h1v-1h1zm-37-18l-9 2h-1v-3h-1v-1h-1v-1h-3v1h-1v1h-1v1l-1 1v1l-8-2h1v-3l1-1v-6l1-2v-4l1-1v-2h1v-3h1v-1l1-1h1v-4l1-1v-1l1-1v-1h3v1h1v1l1 1v1l1 1v2l1 1v2l1 1 1 2v2l2 3 1 3 1 3v2l1 1v1l1 2v1l1 1zm-4 25v7h-5v-7h5zm14-3v7h-5v-7h5zm-28 7h-6v-7h6v7zm9 16h-6v-7h6v7zm-18-4h-5v-7h5v7zm33-5v7h-5v-7h5zm-12-149h-8l-2 1h-5l-2 1h-3l-2 1h-2l-1 1h-2l-2 1h-1l-2 1-2 1h-1l-2 1-1 1-2 1-1 1h-2l-1 1-2 1-1 1-2 1-1 1-1 1-2 1-1 1-1 1-1 2-2 1-1 1-1 1-1 1-1 2-1 1-1 1-1 2-1 1v1l-1 2-1 1-1 2v2l-1 1v2l-1 1v5l-1 1v9l1 1v6l1 1v1h1v1h1v1h5v-1h1v-1h1v-2h1v-3l1-1v-4l1-3v-6l1-2v-4h1v-3h1v-2h1v-1h2v-1h2v15l-1 2v6l-1 2v4l-1 1v2l-1 2v2l-1 1v4l-1 1-1 2v2l-1 1-1 1v2l-1 2h-1v1l-1 1v3h-1v10l1 1v3h1v1l1 1 4 2 2 1 2 1 2 1 2 1 2 1 2 1 2 1h3l2 1 2 1 2 1 2 1h3l2 1 2 1h2l3 1 2 1h5l2 1h21l35-21v-17l-1-2v-5h-1v-3l-1-1v-1l-2-5-1-2-1-2-1-1v-3l-1-1v-1l-1-1v-3l-1-1v-19l1-2h2v1h1v1h1v1l1 1v6l1 1v12l1 1v2l1 1v1h1v1l1 1h1v-1h1v-1l1-1 1-1v-1h1v-2h1v-1l1-1v-3l1-1v-11l-1-1v-3l-1-1v-2l-1-1-1-1v-2l-1-1-1-2-1-1-1-1v-1l-1-2-2-1-1-1-1-1-1-2-1-1-1-1-1-1-2-1-1-1-1-2-2-1-1-1-1-1h-2l-1-1-2-1-1-1-2-1h-1l-2-1-1-1h-2l-1-1h-2l-1-1h-3l-2-1h-6zm29 130v6h-6v-6h6zm-59 0v6h-5v-6h5zm66-52l-4 14v1h-3v1h-4l-1-1h-5l-1-1h-3l-1-1h-2l-1-1h-2v-1h-2v-2l-1-1v-2l-1-1v-2l-1-1v-13h1l1 1h21l1 1h2l1 1h1l1 1 1 1v1h1v4h1v1zm5 43v7h-5v-7h5zm-85 3v7h-6v-7h6zm0-32l-4-14v-3h1v-2l1-1 1-1 1-1h1v-1h3l1-1h21l1-1h1v10l-1 1v5h-1v3h-1v2l-1 1h-1l-1 1h-1l-1 1h-3l-1 1h-2l-1 1h-5l-1 1h-4v-1h-3v-1z"/></svg>