<svg xmlns="http://www.w3.org/2000/svg" width="128" height="128" class="icon" viewBox="0 0 1024 1024"><defs/><path d="M443 908h-1c-22-15-39-14-50-11h-1c0-3-2-13-1-20 0-9 3-19 3-19 0-2-1-4-3-5-2 0-4 1-5 3l-4 20a137 137 0 003 25 59 59 0 00-27 37c0 2 1 4 3 4l1 1c2 0 4-2 4-4 0 0 5-23 24-32 4 5 11 12 15 19 9 13 13 29 13 29 0 2 2 3 4 3h1c2 0 3-3 3-5-1 0-5-18-14-31l-14-18c10-2 23-1 40 10l1 1c2 1 5 0 6-2s1-4-1-5zm155-3h1c21-15 38-14 50-11l2-20c0-9-3-19-3-19-1-2 0-4 2-5 2 0 5 1 5 3 1 0 4 11 4 20l-2 23-1 2c22 11 27 36 27 37 1 2-1 4-3 4l-1 1c-2 0-3-2-4-4 0 0-5-23-24-32l-15 19c-8 13-12 29-12 29l-4 3h-1c-2 0-4-3-3-5 0 0 4-18 14-31l13-18c-9-2-23-1-40 10l-1 1c-2 1-4 0-6-2-1-2 0-4 2-5z"/><path fill="#FFA891" d="M509 881c-57 0-115-19-154-35-36-14-63-29-70-33-5 2-19 7-30 1-12-6-17-22-19-28-5-3-22-15-30-33-11-27 1-57 4-63 0-7 2-54 19-85 16-30 65-80 77-93l-5-5a30 30 0 01-25-25l-5 1c-6 2-9 6-9 6l-6 8-1-9c0-1-2-16 5-29l10-12h-3l-15 8-9 7 3-11c0-1 6-23 14-35 6-10 22-23 27-27 0-7 0-30 6-61 7-33 22-80 57-117 38-40 92-60 159-60 73 0 129 21 169 63 34 36 48 80 54 111 6 28 6 50 6 57 5 3 15 10 21 21 8 17 25 16 25 16l5-1v5s-1 11-12 17c-5 3-16 5-22 5l6 9c5 5 16 10 16 10l-3 4c-1 0-9 9-19 11-7 2-15 1-20 0a58 58 0 01-20 31c14 11 57 50 76 85 26 50 25 88 24 96 3 5 14 30 2 58-8 19-27 32-32 35-2 6-7 22-19 27-14 5-24 1-28-2-8 5-28 20-61 35-37 17-95 37-167 37h-1z"/><path fill="#FFD3C1" d="M509 151c72 0 129 21 169 63 34 36 48 80 54 111 6 28 6 50 6 57 5 3 15 10 21 21 8 17 25 15 25 15h5v5s-1 11-12 17c-5 3-16 5-22 5l6 9c5 5 16 10 16 10l-3 4c-1 0-9 9-19 11-7 2-15 1-20 0a58 58 0 01-20 31c14 11 58 50 76 85 26 49 25 88 25 96 2 5 13 30 1 58-7 19-26 32-32 35-1 6-7 22-18 27-15 5-25 1-29-2-7 5-35 20-68 35 0 0 121-90 102-192-13-70-90-122-90-122l-36 3s103-61 52-237c-39-129-189-145-189-145"/><path fill="#FF6159" d="M355 846c-36-14-63-29-70-33-5 2-19 7-30 1-12-6-18-22-19-28-5-3-22-15-30-33-11-27 1-57 4-63 0-7 1-54 19-85 16-30 65-80 77-93l-5-5a30 30 0 01-25-25l-5 1c-6 2-9 6-9 6l-6 8-1-9c0-1-3-16 5-29l10-12h-3c-8 3-15 8-15 8l-9 7 3-11c0-1 6-23 13-35 7-10 23-23 28-27 0-7 0-30 6-61 7-33 22-79 57-117 53-58 172-60 172-60s-151 36-185 148c-47 154 30 233 30 233l-30-3s-85 61-75 176c7 81 123 147 123 147l-30-6z"/><path fill="#FFF" d="M410 861s-40-119-14-196c21-66 59-95 134-95 47 1 98 16 118 83 26 81-8 199-8 199s-45 25-115 25c-49 0-115-16-115-16z"/><path d="M509 881c-57 0-116-19-154-35-36-14-63-29-70-33-5 2-19 7-30 1-12-6-18-22-19-28-5-3-22-15-30-33-11-27 1-57 4-63 0-7 1-54 19-85 16-30 65-80 77-93l-5-5a30 30 0 01-25-25l-5 1c-6 2-9 6-9 6l-6 8-1-9c0-1-3-16 5-29l10-12h-3c-8 3-15 8-15 8l-9 7 3-11c0-1 6-23 13-35 7-10 23-23 28-27 0-7 0-30 6-61 7-33 22-80 57-117 38-40 92-60 159-60 73 0 129 21 169 63 34 36 48 80 54 111 6 28 6 50 6 57 5 3 15 10 21 21 8 17 25 16 25 16l5-1-1 5s0 11-11 17c-6 3-16 5-22 5l6 9c5 5 16 10 16 10l-3 4c-1 0-9 9-19 11-7 2-15 1-20 0l-7 16c-4 7-9 12-13 15 13 11 57 50 76 85 26 50 25 88 24 96 3 5 14 30 2 58-8 19-27 32-32 35-2 6-8 22-19 27-15 5-24 1-29-2-7 5-28 20-60 35-37 17-96 37-168 37zm0-8c70 0 128-20 164-36 39-18 57-32 64-36l20-17-8 12-6 7s7 5 20 0c8-2 13-17 14-22s3-17 3-35c1-22-2-46-2-46a175 175 0 007 74s19-15 24-28 4-31 1-44c-4-16-10-25-13-30-7-10-15-18-15-18l14 12 11 13s1-32-24-80c-18-35-76-84-76-84s-15 11-30 16c-19 4-38 2-38 2s22-2 36-8c17-7 31-18 31-18 0-1 9-7 15-16 4-7 7-17 7-17l-5-7 10 4c5 1 11 3 19 1 5-1 10-5 13-7 0 0-10-5-16-14-7-12-7-26-7-26l5 8 4 5s13 0 22-5c3-2 5-4 6-7-9-1-21-5-28-20-5-11-19-18-19-18l-3-1 1-2c0-1 1-26-6-58-6-30-20-73-52-108-38-40-93-60-163-60-65 0-116 19-153 58-34 35-47 81-55 112-7 30-6 57-6 57l9-2h8l-18 11s-21 15-28 25l-9 23c2-1 5-3 8-3 7-3 11-2 16-2 5 1 9 4 9 4s-3 0-7 3c-5 3-11 10-16 18-3 5-4 11-4 15l5-3c18-8 28 1 28 1l-7 1-5 2s0 7 6 13 13 7 13 7h2s11 12 24 20c15 8 39 13 39 13s-17 0-30-3-26-12-26-12c0 1-60 59-76 92-19 37-17 70-17 70l9-11 12-11-15 20c-2 2-5 8-7 15-6 15-12 40-4 58 7 17 23 27 23 27s-2-18 0-34l8-40-3 46 3 37c0 1 6 16 14 21 9 5 20-1 20-1l-12-12a583 583 0 00242 79z"/><path d="M410 865l-4-2c0-1-10-31-17-70-9-53-8-97 3-130 23-69 63-97 138-97 63 1 104 30 122 86 7 23 14 66 5 132-5 39-14 69-14 69a4 4 0 01-8-2c1-1 34-117 9-197-16-52-55-79-114-79-37-1-64 6-85 21-20 15-35 37-46 70-25 75 14 193 14 194 1 2 0 5-2 5h-1z"/><path fill="#EE3324" d="M559 506c-17 28-40 0-40 0s-17 32-36 18c-39-26 19-86 34-86 13 0 55 44 42 67z"/><path fill="#BE1E26" d="M559 506c-17 28-40 0-40 0s-17 32-36 18c-22-14-13-43 3-62 13-16 31-24 31-24s-15 10-24 27c-7 13-12 34-3 37 16 7 20-15 30-16 11-1 9 17 26 17 8-1 11-25 11-25s6 20 2 27z"/><path d="M493 532c-5 0-9-2-12-4-14-10-19-24-13-41 3-12 12-25 23-36 4-4 17-17 26-17 11 0 31 19 40 36 9 15 11 28 5 38-5 9-11 14-19 14-9 1-18-5-23-10-4 6-12 16-22 19l-5 1zm24-89c-3 0-11 4-21 14a87 87 0 00-20 32c-5 14-2 25 9 32 4 2 7 3 11 2 9-2 17-15 20-19l2-6 4 5c3 3 12 12 20 11 5 0 9-4 13-11 6-9-1-22-5-29-11-19-28-31-33-31z"/><path fill="#FFF" d="M543 468c4 3 4 8 2 11-3 2-8 2-11-1s-4-8-1-11c2-2 7-2 10 1z"/><path fill="#FBAF1D" d="M580 414s-27 45-70 45c-40 0-71-47-71-47s32-7 38-26c13-43 26-41 35-41 12 0 29 5 35 46 4 26 33 23 33 23z"/><path fill="#CB5B1B" d="M571 425s-18 34-61 34c-40 0-71-47-71-47l20-8s20 36 49 39c45 4 63-18 63-18z"/><path d="M683 393c-2 0-36-16-82 0-7 3-13 8-19 14h-1c-1 0-29 2-32-23-3-20-10-42-38-42-24 0-29 17-37 38v2c-7 22-33 25-34 25-6-5-13-10-21-13-41-18-79-1-81-1-2 1-3 4-2 6s4 2 6 2c0-1 36-16 73 0 16 7 26 18 36 30 14 16 29 33 60 33 32 0 51-23 67-40 9-11 17-20 26-23 43-15 75-1 75-1 2 1 5 0 6-2 1-1 0-4-2-5zm-201-9v-1c8-23 12-33 29-33 18 0 26 9 30 35 3 20 18 28 30 29-18 7-51 17-62 17-13 0-46-12-61-18 10-2 27-9 34-29zm29 72c-27 0-39-14-53-30 16 6 39 13 50 13 12 0 41-9 58-14-13 15-30 31-55 31z"/><path fill="#FF837A" d="M614 430a45 23 0 1090 0 45 23 0 10-90 0z"/><path fill="#FFF" d="M657 421l-12 16c-1 2-2 2-3 1l-1-3 12-16 3-1 1 3zm24 0l-12 16c-1 2-2 2-3 1l-1-3 12-16 3-1c1 0 2 2 1 3z"/><path fill="#FF837A" d="M326 430a45 23 0 1090 0 45 23 0 10-90 0z"/><path fill="#FFF" d="M368 421l-11 16c-1 2-3 2-4 1v-3l12-16 3-1v3zm25 0l-12 16c-1 2-2 2-3 1l-1-3 12-16 3-1c1 1 2 2 1 3z"/><path fill="#EE3324" d="M592 171c-9 23-33 35-42 30-11-5-21-30-11-53s40-32 48-29c12 6 15 29 5 52z"/><path fill="#BE1E26" d="M590 175s-25 35-41 30c-11-4-22-31-11-53 23-46 51-31 51-31s-51 31-31 64c6 10 32-10 32-10z"/><path d="M552 205l-4-1c-11-6-22-31-12-56s43-35 52-31c4 2 8 6 10 11 5 11 3 28-3 44-7 17-22 28-32 31-4 2-8 2-11 2zm32-83c-3-1-11 0-19 5-7 3-18 10-24 23-9 21 0 44 10 49 2 1 6 1 10-1 9-3 22-13 29-28 6-15 7-30 3-40-2-4-4-7-7-8h-2z"/><path fill="#EE3324" d="M514 130c8 27-5 55-17 58-13 3-39-13-47-40s13-58 22-60c15-5 34 14 42 42z"/><path fill="#BE1E26" d="M515 136s3 48-15 55c-13 5-42-12-48-40-12-57 23-63 23-63s-23 63 18 79c13 5 22-31 22-31z"/><path d="M503 189l-5 2c-14 3-42-12-51-42-8-30 14-61 25-64 5-2 11-1 16 2 13 7 24 23 29 42 6 21 1 40-6 51-2 4-5 7-8 9zm-31-98c-4 3-10 9-14 19-4 7-9 22-5 37 7 25 32 40 44 38 3-1 6-4 9-9 5-9 10-27 5-46-5-17-15-31-26-37-4-3-8-3-11-3l-2 1z"/><path fill="#EE3324" d="M563 143c-10 35-42 57-56 52-17-6-35-40-25-75s53-53 65-50c18 5 26 38 16 73z"/><path fill="#BE1E26" d="M561 150s-30 54-54 49c-17-3-37-40-25-74 26-70 68-53 68-53s-68 53-34 98c10 13 45-20 45-20z"/><path d="M511 199l-6-1c-18-6-38-41-27-79 11-37 56-57 70-53 6 2 12 7 16 14 9 16 10 40 3 64-8 26-26 44-40 51-6 3-11 4-16 4zm32-125c-5 0-15 3-27 10-9 6-24 18-30 37-9 32 7 64 22 70 3 1 9 0 15-3 13-7 30-23 36-46 7-22 6-44-2-58-3-5-7-9-11-10h-2z"/><path fill="#FFF" d="M548 328a56 56 0 10112 0 56 56 0 10-112 0z"/><path d="M604 388a60 60 0 110-120 60 60 0 010 120zm0-112a52 52 0 100 104 52 52 0 000-104z"/><path d="M585 329a38 38 0 1077 0 38 38 0 10-77 0z"/><path fill="#FFF" d="M631 320a8 8 0 1016 0 8 8 0 10-16 0z"/><path d="M638 210s-12-16-31-17c-17 0-31 18-31 18s13-8 30-8c15 1 32 7 32 7z"/><path fill="#FFF" d="M365 329a56 56 0 10112 0 56 56 0 10-112 0z"/><path d="M421 389a60 60 0 110-121 60 60 0 010 121zm0-113a52 52 0 100 105 52 52 0 000-105z"/><path d="M402 330a38 38 0 1077 0 38 38 0 10-77 0z"/><path fill="#FFF" d="M448 321a8 8 0 1016 0 8 8 0 10-16 0z"/><path d="M455 211s-12-16-31-17c-17-1-31 17-31 17s12-7 30-7c15 0 32 7 32 7z"/></svg>