<svg xmlns="http://www.w3.org/2000/svg" width="128" height="128" class="icon" viewBox="0 0 1024 1024"><defs/><path fill="#F15A4A" d="M189 147c48 0 87 35 87 78s-39 79-87 79c-49 0-88-36-88-79s39-78 88-78zm73 471c-23 71-18 45-110 244L20 779s149-135 179-196c33-65-35-100-35-100L61 420l55-85c77 57 83 62 134 114 40 40 35 96 12 169z"/><path fill="#F15A4A" d="M985 711c-26 243-343 152-343 152l18-69 61 16c136 8 111-110 111-110V356c0-130-112-144-334-64l57 6c-4 15-15 58-36 58h275v75H645v74h149v38H645v150c0-9 50-20 70-35l-13-55 79-25 66 161-97 40-17-64c-43 33-134 81-291 77-168 4-125-199-125-199l4-13h119c-1 37-11 76 3 98 11 18 33 26 52 27 2 0 0 6 0 6V543H308v-38h187v-74h-30c-39 37-74 74-74 74l-52-45c37-38 74-99 97-140l-57 24a894 894 0 01-66 73c1 2-84-47-84-47 88-76 137-237 137-237l123 34s-10 24-31 61c492-139 521 85 521 85s32 155 6 398z"/></svg>