<svg xmlns="http://www.w3.org/2000/svg" width="128" height="128" class="icon" viewBox="0 0 1024 1024"><defs/><path fill="#3A4BC1" d="M767 965H281c3-51 30-100 79-140a288 288 0 0199-52c1 1 24 21 64 21 36 0 59-20 60-21a8 8 0 002-2c91 24 177 100 182 194z" opacity=".7"/><path fill="#CE7C45" d="M753 327a8 8 0 000 4 171 171 0 013 33 253 253 0 01-5 50l-3 15v1l-3 1v-2l-1-4a2885 2885 0 00-20-101c-4-11-11-22-24-37a56 56 0 00-64-13c-30 13-73 20-118 20s-88-7-118-20a57 57 0 00-45 1 8 8 0 00-3 2c-19 24-34 49-43 65a8 8 0 00-1 2 86 86 0 00-2 9v2l-3 12-9 48-3 16-1 8-3-8v-1l-4-16a262 262 0 01-4-47 181 181 0 019-54 8 8 0 000-2v-1c-8-88 9-133 16-141a67 67 0 015 6c5 8 14 20 28 20a30 30 0 008-1c16-4 25-30 34-58l11-29c5-10 8-12 8-12 6 0 13 10 20 18 9 12 19 26 35 21 11-3 21-20 35-47 7-12 13-24 20-33 8-12 12-12 12-12 1 0 5 0 13 12 7 9 13 21 20 33 12 22 22 41 33 47 5 2 14 5 25-5 5-5 9-13 14-20 6-10 14-22 20-23 1 1 3 3 7 14l8 33c6 30 12 56 27 61a25 25 0 008 2c14 0 25-13 33-22l8-9c19 9 28 51 26 120-1 13-4 27-9 42z" opacity=".6"/><path fill="#FFBAB3" d="M796 456c-1-19-10-35-24-44a52 52 0 00-16-8 227 227 0 01-3 16 35 35 0 0110 5c10 6 16 18 17 32 1 15-4 31-14 45-8 12-19 22-32 27l-3 18 3-1c18-6 34-18 46-35s17-36 16-55z"/><path fill="#FFBAB3" d="M768 462a6 6 0 01-8 3c-3-1-11 0-18 5a33 33 0 00-5 5v-16c8-5 19-8 28-5a6 6 0 013 8zm-490 67c-12-5-24-15-32-27a72 72 0 01-14-45c1-14 7-26 17-32a35 35 0 0110-5l-3-16a51 51 0 00-16 8 57 57 0 00-24 44c-1 19 5 38 17 55a89 89 0 0048 36l-3-18z"/><path fill="#FFBAB3" d="M276 459v16a32 32 0 00-6-5c-7-5-14-6-17-5a6 6 0 01-5-11c8-3 20 0 28 5z"/><path fill="#31296B" d="M749 873c-14-26-34-50-59-71a286 286 0 00-116-59l-16-3v12l-5 3a85 85 0 01-42 11 93 93 0 01-42-9 74 74 0 01-8-5v-10l-16 4-23 8a305 305 0 00-84 48c-26 21-46 45-61 71-16 29-24 59-24 89a8 8 0 008 8h503a8 8 0 008-8c0-30-8-60-23-89zm-479 81c2-51 30-100 78-140a288 288 0 01100-52c1 1 24 20 63 20 36 0 59-19 60-20a8 8 0 002-2c91 24 178 100 182 194z"/><path fill="#FFBAB3" d="M737 459v36a234 234 0 01-3 34l-3 18a231 231 0 01-157 168v28l-16-3v-20a234 234 0 01-97 1v21l-16 4v-29a231 231 0 01-164-170l-3-18a233 233 0 01-2-34v-36a8 8 0 0013-4l3-12v52a213 213 0 001 22l2 16 3 16a215 215 0 00147 152l16 4a215 215 0 0097-2l16-5a215 215 0 00140-149l3-16 3-16a213 213 0 001-22v-57l2 17a8 8 0 006 6 8 8 0 002 0 8 8 0 006-2z"/><path fill="#F47A8F" d="M502 570h-2c-16-1-26-14-27-16l-2-2V421a10 10 0 0120 0v124c2 2 6 5 10 5s9-3 14-8a10 10 0 1115 13c-9 10-18 15-28 15z"/><path fill="#31296B" d="M591 438c0 18 13 32 28 32s28-14 28-32-12-31-28-31-28 14-28 31zm-242 0c0 18 13 32 28 32s28-14 28-32-12-31-28-31-28 14-28 31zm58-56l-60-1a6 6 0 010-12l60 1a6 6 0 010 12zm242 0l-60-1a6 6 0 010-12l60 1a6 6 0 010 12z"/><path fill="#E83F63" d="M540 629l-74-1a10 10 0 110-20l74 1a10 10 0 010 20z"/><path fill="#31296B" d="M755 167c-6-15-14-25-26-29-10-3-17 6-25 14-9 11-16 18-23 16-1 0-4-2-8-15l-9-35c-7-31-12-59-30-59h-1c-14 1-24 16-33 30l-12 17c-3 3-4 3-6 2-7-4-18-24-27-40-15-29-29-54-46-54s-30 25-46 54l-16 28c-7 10-10 12-10 12-5 1-12-8-18-16-8-11-18-24-32-24-16 0-24 23-34 52-4 12-8 24-13 33-6 12-9 14-10 14-8 3-12-2-19-12-5-7-11-16-21-14-14 3-22 31-25 47-5 21-9 58-5 111a196 196 0 00-8 56 280 280 0 004 49l3 16c7 26 16 37 16 38a4 4 0 001 1 8 8 0 0013-4l3-12 3-18 3-16 12-63v-1a8 8 0 001-1 64 64 0 011-6 502 502 0 0140-61 41 41 0 0130 1c32 13 77 21 124 21 48 0 93-8 125-21 16-7 34-4 45 9 8 8 18 20 21 30 6 19 13 59 19 91l2 16c0 5 2 10 3 14l2 17a8 8 0 006 6 8 8 0 002 0 8 8 0 006-2 8 8 0 001-1 153 153 0 0018-54 270 270 0 005-52 186 186 0 00-3-33 282 282 0 00-3-151zm-5 106c0 13-3 28-8 43a8 8 0 000 4 171 171 0 013 32 253 253 0 01-5 50l-3 15-1 2h-2v-2l-1-3a2885 2885 0 00-21-102c-3-10-10-21-24-36a56 56 0 00-63-13c-30 12-73 20-119 20-45 0-88-8-118-20a57 57 0 00-45 0 8 8 0 00-3 3c-18 24-33 48-43 65a8 8 0 00-1 2 86 86 0 00-1 9l-1 1-2 13-9 48-3 15-2 9-2-9h-1l-3-17a262 262 0 01-4-47 181 181 0 018-53 8 8 0 001-2v-1c-9-88 9-133 16-142a67 67 0 014 7c6 8 14 20 29 20a30 30 0 008-1c16-5 25-30 34-58l11-30c5-10 8-11 8-11 6 0 13 9 19 17 9 13 20 27 35 22 12-4 22-20 36-47l19-33c9-12 13-13 13-13 1 0 5 1 13 12l19 33c12 22 23 41 34 47 5 3 14 6 24-4 6-6 10-13 15-20 6-10 14-22 20-23 0 1 3 3 7 14l8 33c6 29 11 55 26 61a25 25 0 009 1c14 0 25-12 33-21l8-9c19 8 28 51 25 119zM513 862a36 36 0 1135-36 36 36 0 01-35 36zm0-55a20 20 0 1019 19 20 20 0 00-19-19zm0 141a36 36 0 1135-36 36 36 0 01-35 36zm0-56a20 20 0 1019 20 20 20 0 00-19-20z"/><path fill="#31296B" d="M455 245h-1a8 8 0 01-7-9c0-3 5-90 34-133a8 8 0 1113 9c-26 39-31 124-31 125a8 8 0 01-8 8zm101 6a8 8 0 01-2 0 8 8 0 01-5-10c0-1 15-52-19-125a8 8 0 0115-6c36 79 20 133 19 136a8 8 0 01-8 5zm-51 11h-1a8 8 0 01-7-8l4-103a8 8 0 0116 0l-4 103a8 8 0 01-8 8zm-108-45a8 8 0 01-8-8v-2a364 364 0 00-3-86 8 8 0 1116-3 379 379 0 013 91v1a8 8 0 01-8 7zm8-8zm203-8h-1a8 8 0 01-7-9c0-2 5-61 20-86a8 8 0 1114 8c-13 22-18 79-18 80a8 8 0 01-8 7zm108 68a8 8 0 01-2-1 8 8 0 01-6-9c4-16 13-59 9-79a8 8 0 0116-3c6 27-9 83-10 86a8 8 0 01-7 6zm-414-3a8 8 0 01-2 0 8 8 0 01-6-7l-1-3c-2-10-8-36-3-68a8 8 0 0115 2c-4 29 2 53 4 62v8a8 8 0 01-7 6zm-8-10zm0 0z"/></svg>