<svg xmlns="http://www.w3.org/2000/svg" width="128" height="128" class="icon" viewBox="0 0 1024 1024"><defs/><path fill="#4A8BFE" d="M240 384H80a32 32 0 010-64h160a32 32 0 010 64z"/><path fill="#4A8BFE" d="M160 640a32 32 0 01-32-32V384a32 32 0 0164 0v224a32 32 0 01-32 32zm784-256H784a32 32 0 010-64h160a32 32 0 010 64z"/><path fill="#4A8BFE" d="M864 640a32 32 0 01-32-32V384a32 32 0 0164 0v224a32 32 0 01-32 32zm-400 0H336a32 32 0 01-32-32V352a32 32 0 0132-32h128a32 32 0 010 64h-96v192h96a32 32 0 010 64z"/><path fill="#4A8BFE" d="M464 512H336a32 32 0 010-64h128a32 32 0 010 64zm96 128a30 30 0 01-14-4 32 32 0 01-14-42l128-256a32 32 0 1156 28L588 622a32 32 0 01-28 18z"/><path fill="#4A8BFE" d="M688 640a32 32 0 01-28-18L532 366a32 32 0 0156-28l128 256a32 32 0 01-12 42 30 30 0 01-16 4z"/><path fill="#3BD5B3" d="M246 722H128a16 16 0 01-16-16 16 16 0 0116-16h118a16 16 0 0116 16 16 16 0 01-16 16z"/><path fill="#3BD5B3" d="M187 912a16 16 0 01-16-16V711a16 16 0 0116-16 16 16 0 0116 16v185a16 16 0 01-16 16zm581-190H650a16 16 0 01-16-16 16 16 0 0116-16h118a16 16 0 0116 16 16 16 0 01-16 16z"/><path fill="#3BD5B3" d="M709 912a16 16 0 01-16-16V713a16 16 0 0116-16 16 16 0 0116 16v183a16 16 0 01-16 16zm-297 0h-96a16 16 0 01-16-16V706a16 16 0 0116-16h96a16 16 0 0116 16 16 16 0 01-16 16h-78v158h78a16 16 0 010 32z"/><path fill="#3BD5B3" d="M412 817h-96a16 16 0 01-16-16 16 16 0 0116-16h96a16 16 0 0116 16 16 16 0 01-16 16zm72 95a19 19 0 01-8-2 16 16 0 01-7-21l96-190a16 16 0 0122-7 16 16 0 017 22l-96 189a16 16 0 01-14 9z"/><path fill="#3BD5B3" d="M578 912a15 15 0 01-14-9l-96-189a16 16 0 018-22 16 16 0 0121 7l96 190a16 16 0 01-7 21 19 19 0 01-8 2zm-34-768h-80a16 16 0 010-32h80a16 16 0 010 32z"/><path fill="#3BD5B3" d="M504 272a16 16 0 01-16-16V144a16 16 0 0132 0v112a16 16 0 01-16 16zm392-128h-80a16 16 0 010-32h80a16 16 0 010 32z"/><path fill="#3BD5B3" d="M856 272a16 16 0 01-16-16V144a16 16 0 0132 0v112a16 16 0 01-16 16zm-200 0h-64a16 16 0 01-16-16V128a16 16 0 0116-16h64a16 16 0 010 32h-48v96h48a16 16 0 010 32z"/><path fill="#3BD5B3" d="M656 208h-64a16 16 0 010-32h64a16 16 0 010 32zm48 64a17 17 0 01-7-2 16 16 0 01-7-21l64-128a16 16 0 1128 14l-64 128a16 16 0 01-14 9z"/><path fill="#3BD5B3" d="M768 272a16 16 0 01-14-9l-64-128a16 16 0 0128-14l64 128a16 16 0 01-7 21 17 17 0 01-7 2z"/></svg>