<svg xmlns="http://www.w3.org/2000/svg" width="128" height="128" class="icon" viewBox="0 0 1024 1024"><defs/><path fill="#497EE0" d="M324 101h-60a17 17 0 01-17-21l9-60a26 26 0 0124-20h60a17 17 0 0117 20l-9 60a25 25 0 01-24 21m83 0h60a25 25 0 0024-21l9-60a17 17 0 00-17-20h-60a25 25 0 00-24 20l-9 60a17 17 0 0017 21M298 216h-48a21 21 0 01-21-25l7-48a30 30 0 0130-23h48a20 20 0 0121 25l-8 46a31 31 0 01-29 25m-140 0h-47a20 20 0 01-22-25l8-48a30 30 0 0129-23h48a21 21 0 0121 25l-8 46a30 30 0 01-29 25m116 115h-39a24 24 0 01-23-29l6-37a34 34 0 0132-29h40a24 24 0 0124 29l-6 37a35 35 0 01-33 29m-25 115h-30a26 26 0 01-26-31l5-30a38 38 0 0136-30h29a26 26 0 0126 30l-5 30a37 37 0 01-36 31m-24 116h-20a28 28 0 01-29-34l4-21a40 40 0 0140-34h21a28 28 0 0128 34l-3 21a40 40 0 01-41 34m-20 114h-20a27 27 0 01-27-34l3-20a40 40 0 0140-33h20a27 27 0 0127 33l-3 20a40 40 0 01-40 32m-24 117h-11a29 29 0 01-30-35l2-12a43 43 0 0140-35h12a29 29 0 0129 35l-2 12a43 43 0 01-40 35m-25 115a33 33 0 01-34-40 48 48 0 0146-41 33 33 0 0133 41 48 48 0 01-45 40m241-690h47a31 31 0 0029-25l8-48a21 21 0 00-21-23h-50a30 30 0 00-29 25l-6 46a21 21 0 0022 25m-12 115h40a35 35 0 0033-29l6-37a24 24 0 00-24-29h-40a34 34 0 00-33 29l-6 37a24 24 0 0024 29m-13 115h30a38 38 0 0036-31l4-30a26 26 0 00-26-30h-29a38 38 0 00-36 30l-5 30a26 26 0 0026 31m-12 116h21a40 40 0 0040-34l3-21a28 28 0 00-28-34h-22a40 40 0 00-40 34l-4 20a28 28 0 0029 34m-15 115h20a40 40 0 0038-34l3-20a27 27 0 00-28-33h-20a40 40 0 00-37 33l-4 20a27 27 0 0028 32m-14 117h12a43 43 0 0040-35v-12a29 29 0 00-29-35h-12a43 43 0 00-41 35v12a30 30 0 0030 35m-10 115a48 48 0 0046-40 33 33 0 00-33-41 47 47 0 00-45 41 32 32 0 0032 40m438-687h-59a17 17 0 01-17-21l9-59a25 25 0 0124-19h60a17 17 0 0117 21l-9 59a25 25 0 01-25 21m-27 113h-46a21 21 0 01-21-25l8-47a30 30 0 0129-26h47a21 21 0 0121 26l-7 47a30 30 0 01-29 25m-140 0h-48a21 21 0 01-20-25l6-47a31 31 0 0129-26h47a21 21 0 0122 26l-7 47a31 31 0 01-29 25m115 115h-38a23 23 0 01-23-28l6-40a34 34 0 0132-28h40a23 23 0 0124 28l-6 40a34 34 0 01-33 28m-26 115h-29a26 26 0 01-26-31l4-30a40 40 0 0136-31h30a26 26 0 0126 31l-5 30a38 38 0 01-36 31m-24 115h-21a28 28 0 01-28-34l3-21a40 40 0 0140-33h21a28 28 0 0128 33l-3 21a40 40 0 01-40 34m-20 115h-20a28 28 0 01-28-33l4-19a40 40 0 0137-33h20a27 27 0 0128 33l-4 19a40 40 0 01-37 33m-24 115h-12a29 29 0 01-29-35v-12a43 43 0 0140-35h12a30 30 0 0129 35v12a43 43 0 01-40 35m-26 115a32 32 0 01-33-40 48 48 0 0146-40 32 32 0 0133 40 47 47 0 01-46 40m252-805h60a25 25 0 0023-21l10-59a17 17 0 00-18-19h-59a26 26 0 00-24 21l-9 59a17 17 0 0017 21m-11 113h48a30 30 0 0029-25l7-47a21 21 0 00-21-26h-47a30 30 0 00-29 26l-7 47a21 21 0 0022 25m-14 115h39a34 34 0 0032-28l6-40a23 23 0 00-24-28h-38a34 34 0 00-32 28l-6 40a23 23 0 0023 28m-12 115h30a38 38 0 0035-31l5-30a26 26 0 00-26-31h-30a40 40 0 00-35 31l-5 30a26 26 0 0026 31m-12 115h20a40 40 0 0041-34l3-21a28 28 0 00-29-33h-21a40 40 0 00-40 33l-3 21a28 28 0 0028 34m-15 115h19a40 40 0 0038-33l3-19a27 27 0 00-27-33h-20a40 40 0 00-38 33l-3 20a27 27 0 0028 33m-13 114h12a43 43 0 0040-35v-12a29 29 0 00-30-35h-11a43 43 0 00-41 35l-2 12a29 29 0 0030 35m-9 115a48 48 0 0046-40 33 33 0 00-33-40 48 48 0 00-46 40 33 33 0 0033 40"/></svg>