<svg xmlns="http://www.w3.org/2000/svg" width="128" height="128" class="icon" viewBox="0 0 1024 1024"><defs/><path fill="#FFC229" d="M503 465a202 202 0 017-81 157 157 0 01100-102 26 26 0 1113 50 128 128 0 00-59 26 116 116 0 00-29 36 163 163 0 00-19 58l-1 7v6c0 3-3 6-7 6-3-1-5-3-5-6z"/><path fill="#FFE045" d="M537 499l4-5 4-4a191 191 0 0178-47l27-5h21l7 1c19 3 37 9 54 18a26 26 0 11-28 44l-1-1-4-3-4-3-8-6-18-8-5-2-5-1-2-1h-3l-5-1-21-1a138 138 0 00-64 21l-10 6-4 3-5 3v1c-3 2-7 1-9-1-1-3-1-6 1-8z"/><path fill="#FFC229" d="M534 540l6 2 6 2a225 225 0 0133 16 177 177 0 0155 54c5 7 9 16 13 24l1 3 1 4 2 6 3 14c2 9 2 18 3 28a26 26 0 11-52-4v-1c2-6 3-12 3-19v-10l-1-5v-2-2l-5-20-9-18a150 150 0 00-44-49l-10-6-4-3-5-3h-1c-2-2-3-5-2-8s4-4 7-3zm-71-47l-5-5-5-5a171 171 0 00-32-24 200 200 0 00-47-21 115 115 0 00-49-3h-3l-3 1-5 1-12 4-21 9-1 1a26 26 0 11-20-48l31-8 16-2h16a152 152 0 0162 15 189 189 0 0149 33 236 236 0 0130 32l4 6 4 6c2 3 1 7-1 9-3 1-6 1-8-1z"/><path fill="#CE111B" d="M451 382a144 144 0 00-6-19 234 234 0 00-55-81c-9-8-19-15-30-22a26 26 0 1132-41v1a234 234 0 0171 150v11c0 3-2 6-6 6-3 0-5-2-6-5zm-93 152a203 203 0 00-106 50l-25 28c-8 11-25 13-36 5a26 26 0 01-1-41 229 229 0 01124-53l22-1h22c3 0 6 3 5 7 0 3-2 5-5 5zm313 21a156 156 0 0121 5 211 211 0 0160 27 226 226 0 0164 62l1 1a26 26 0 11-46 24 186 186 0 00-85-98l-9-5-9-4c-3-2-5-5-4-8 2-3 5-4 7-4z"/><path fill="#FF2528" d="M499 611l5 46a1024 1024 0 017 139 26 26 0 11-51-5 1525 1525 0 0027-180 6 6 0 0112 0zm135-217a122 122 0 0119-12 236 236 0 01106-29c15-1 31 0 46 3h1a26 26 0 11-14 49 191 191 0 00-114-11 190 190 0 00-38 10c-4 2-7 0-8-3s0-6 2-7z"/><path fill="#FFE045" d="M471 547a99 99 0 00-12 4l-11 5a187 187 0 00-59 43 108 108 0 00-25 61l-1 11v6l1 5v1a26 26 0 11-52-2l1-8 1-7 4-15a146 146 0 0149-75 176 176 0 0175-37 199 199 0 0120-4h7c4-1 7 2 7 5s-2 6-4 7h-1z"/><path fill="#FF2528" d="M455 219a18 18 0 1036 0 18 18 0 10-36 0z"/><path fill="#FFC229" d="M806 572a17 17 0 1033 0 17 17 0 10-33 0z"/><path fill="#FF2528" d="M389 801a13 13 0 1026 0 13 13 0 10-26 0zM815 332a13 13 0 1026 0 13 13 0 10-26 0z"/><path fill="#FFC229" d="M214 677a13 13 0 1026 0 13 13 0 10-26 0z"/></svg>