<svg xmlns="http://www.w3.org/2000/svg" width="128" height="128" class="icon" viewBox="0 0 1024 1024"><defs/><path fill="#268EED" d="M688 686H514c-2 0-4-2-4-4V353c0-2 2-4 4-4h174c2 0 4 2 4 4v329c0 2-2 4-4 4z"/><path fill="#EFBB24" d="M614 376h61v7h-61z"/><path fill="#465161" d="M676 384h-63v-9h63v9zm-61-2h59v-5h-59v5z"/><path fill="#EFBB24" d="M614 412h61v6h-61z"/><path fill="#465161" d="M676 419h-63v-8h63v8zm-61-2h59v-4h-59v4z"/><path fill="#EFBB24" d="M614 447h61v7h-61zm0 36h61v6h-61zm0 35h61v7h-61zm0 36h61v6h-61zm0 35h61v7h-61zm0 36h61v6h-61zm0 35h61v7h-61zm-85-263h36v22h-36zm0 39h36v22h-36zm0 39h36v22h-36zm0 39h36v22h-36zm0 39h36v22h-36zm0 39h36v22h-36zm0 39h36v22h-36z"/><path fill="#465161" d="M676 455h-63v-9h63v9zm-61-2h59v-5h-59v5zm61 37h-63v-8h63v8zm-61-2h59v-4h-59v4zm61 38h-63v-9h63v9zm-61-2h59v-5h-59v5zm61 37h-63v-8h63v8zm-61-2h59v-4h-59v4zm61 38h-63v-9h63v9zm-61-2h59v-5h-59v5zm61 37h-63v-8h63v8zm-61-2h59v-4h-59v4zm61 38h-63v-9h63v9zm-61-2h59v-5h-59v5zm-49-246h-38v-24h38v24zm-36-2h34v-20h-34v20zm36 41h-38v-24h38v24zm-36-2h34v-20h-34v20zm36 41h-38v-24h38v24zm-36-2h34v-20h-34v20zm36 41h-38v-24h38v24zm-36-2h34v-20h-34v20zm36 41h-38v-24h38v24zm-36-2h34v-20h-34v20zm36 41h-38v-24h38v24zm-36-2h34v-20h-34v20zm36 41h-38v-24h38v24zm-36-2h34v-20h-34v20z"/><path fill="#268EED" d="M492 686H347c-3 0-4-2-4-4V425c0-3 1-4 4-4h145c3 0 4 1 4 4v257c0 2-1 4-4 4z"/><path fill="#EFBB24" d="M375 457h6v16h-6zm-24 38h18v16h-18zm49 63h18v16h-18zm-37 47h18v16h-18zm37-142h25v32h-25zm70-32h7v8h-7z"/><path fill="#465161" d="M382 474h-8v-18h8v18zm-6-2h4v-14h-4v14zm-6 40h-20v-18h20v18zm-18-2h16v-14h-16v14zm67 65h-20v-18h20v18zm-18-2h16v-14h-16v14zm-19 49h-20v-18h20v18zm-18-2h16v-14h-16v14zm62-124h-27v-34h27v34zm-25-2h23v-30h-23v30zm77-54h-9v-10h9v10zm-7-2h5v-6h-5v6zm-98-62h90v32h-90z"/><path fill="#EFBB24" d="M448 408h-60v-32h59v32zm-59-1h58v-30h-58v30z"/><path fill="#EFBB24" d="M464 408h-92v-32h92v32zm-91-1h90v-30h-90v30z"/><path fill="#EFBB24" d="M435 408h-34v-32h34v32zm-33-1h32v-30h-32v30z"/><path fill="#EFBB24" d="M424 408h-12v-32h12v32zm-11-1h10v-30h-10v30z"/><path fill="#EFBB24" d="M347 395h145v13H347z"/><path fill="#465161" d="M353 395l12 13 13-13 12 13 13-13 13 13 13-13 13 13 13-13 13 13 12-13M332 528l-2-2v-50l2-2 2 2v50l-2 2zm0 41l-2-2v-15l2-2 2 2v15l-2 2z"/><path fill="#465161" d="M495 688H336c-3 0-6-3-6-6v-97l2-2 2 2v97l2 2h159c2 0 3-1 3-2V412l-2-2H336l-2 2v47l-2 2-2-2v-47c0-3 3-6 6-6h159c4 0 7 3 7 6v270c-1 3-3 6-7 6z"/><path fill="#465161" d="M688 688H504c-4 0-6-3-6-6V342c0-3 2-6 6-6h97l2 2-2 2h-97l-2 2v340l2 2h184l2-2V342l-2-2h-49c-2 0-2-1-2-2l2-2h49c3 0 6 3 6 6v340c0 3-3 6-6 6z"/></svg>