<svg xmlns="http://www.w3.org/2000/svg" width="128" height="128" class="icon" viewBox="0 0 1024 1024"><defs/><path fill="#886230" d="M450 75c-2-20 31-18 40-6-12 7-26 8-40 6z" opacity=".6"/><path fill="#E0A34F" d="M490 69h76c12 7 26 8 40 6 257 26 430 336 329 572-68 195-295 328-496 271l7-14c191 36 391-72 464-251 86-196-13-437-203-528-28-31-70-28-109-26-112-38-230 10-322 74l-22-9c56-45 124-82 196-89 14 2 28 1 40-6z" opacity=".9"/><path fill="#8F6732" d="M566 69c9-12 42-14 40 6-14 2-28 1-40-6z" opacity=".6"/><path fill="#FCE376" d="M276 173c92-64 210-112 322-74-37 22-137 74-76 116 40-80 133-40 185-90a417 417 0 01203 528 451 451 0 01-398 18c-7-43 55-46 54-86-54 43-122 50-181 11-39-50-82-103-85-169 47-9 55-63 14-87-37-42-97-27-146-33 17-38 43-71 68-103 29 6 49 43 81 40 36-19-32-49-41-71m174 139l-23 20c-38 7-33 66 2 76 6 21 55 10 46-14 82-26 176-37 251 11 80 13 83-111 3-116-24-3-48-11-71-20l15-13c-67 7-180-9-223 56m226 139c-13 5-25 12-35 20-26 93 174 93 147 0-30-28-74-28-112-20z"/><path fill="#B2541B" d="M598 99c39-2 81-5 109 26-52 50-145 10-185 90-61-42 39-94 76-116z"/><path fill="#A84915" d="M204 208c-77-2 2-85 50-44l22 9c9 22 77 52 41 71-32 3-52-34-81-40l-32 4z"/><path fill="#D69E51" d="M204 208l32-4c-25 32-51 65-68 103l-18 13-22 11c21-44 45-86 76-123z" opacity=".9"/><path fill="#5D5A40" d="M450 312c43-65 156-49 223-56l-15 13c-72-10-144 11-208 43z"/><path fill="#F8F8F8" d="M450 312c64-32 136-53 208-43 23 9 47 17 71 20-1 31-42 44-39 79-70 3-157-27-215 26l-46 14a91 91 0 01-2-76l23-20z"/><path fill="#353429" d="M729 289c80 5 77 129-3 116-75-48-169-37-251-11 58-53 145-23 215-26-3-35 38-48 39-79z"/><path fill="#736B59" d="M150 320l18-13c49 6 109-9 146 33l-14 6c-41-38-100-22-150-26z"/><path fill="#F9F9F9" d="M150 320c50 4 109-12 150 26-21 9-33 28-42 48-44-13-91-16-131 10-21 7-43 11-65 12l3-39c10-27 40-34 63-46l22-11z"/><path fill="#55503D" d="M429 408c-35-10-40-69-2-76a91 91 0 002 76z"/><path fill="#2E2D28" d="M314 340c41 24 33 78-14 87a421 421 0 00-44-24l2-9c9-20 21-39 42-48l14-6z"/><path fill="#050505" d="M62 416c-18 0-17-44 3-39l-3 39z" opacity=".6"/><path fill="#927F5F" d="M127 404c40-26 87-23 131-10l-2 9-129 1z"/><path fill="#524D36" d="M429 408l46-14c9 24-40 35-46 14z"/><path fill="#726350" d="M62 416c22-1 44-5 65-12l-23 35-7-3c-12-7-26-10-35-20z" opacity=".9"/><path fill="#FCC971" d="M127 404l129-1c15 7 30 15 44 24 3 66 46 119 85 169l-23 13c-72-54-170-62-253-31l-4-11c-10-87 80-21 118-58 13-77-97-24-119-70l23-35z"/><path fill="#EA8E4B" d="M97 436l7 3c22 46 132-7 119 70-38 37-128-29-118 58-26-26-3-91-8-131z"/><path fill="#F0A151" d="M676 451c38-8 82-8 112 20 27 93-173 93-147 0 10-8 22-15 35-20z"/><path fill="#D96073" d="M109 578c83-31 181-23 253 31 61 39 71 119 128 162-16 44-31 89-44 133l-7 14-25 41c-58-29-106-76-161-110 25-16 43-10 16-47 58-11-36-104-46-48-32-20-40-17-42 17-44-47-77-103-118-152 9-19 31-27 46-41m19 30c19 17 19 37 0 53a98 98 0 0164 0c-19-16-19-36 0-53a98 98 0 01-64 0m118 11c19 16 18 36 0 53 25-10 72 14 58-28 17-43-36-8-58-25m108 100c2 20 0 39-2 59 17-18 37-19 53 0-6-46 5-71-51-59m9 113a98 98 0 010 64c16-19 36-19 53 0a98 98 0 010-64c-17 19-37 19-53 0z"/><path fill="#882518" d="M385 596c59 39 127 32 181-11 1 40-61 43-54 86-5 34-12 67-22 100-57-43-67-123-128-162l23-13z"/><path fill="#DFDBDC" d="M128 608c21 7 43 7 64 0-19 17-19 37 0 53a98 98 0 00-64 0c19-16 19-36 0-53zm235 224c16 19 36 19 53 0a98 98 0 000 64c-17-19-37-19-53 0a98 98 0 000-64z"/><path fill="#DFD1D4" d="M246 619c22 17 75-18 58 25 14 42-33 18-58 28 18-17 19-37 0-53z"/><path fill="#FECD73" d="M512 671c129 57 274 49 398-18a425 425 0 01-464 251c13-44 28-89 44-133 10-33 17-66 22-100z"/><path fill="#DFD2D4" d="M354 719c56-12 45 13 51 59-16-19-36-18-53 0 2-20 4-39 2-59z"/><path fill="#EB9D20" d="M181 771c2-34 10-37 42-17 23 7 36 28 46 48 27 37 9 31-16 47-13 58-105 121-136 44v-48c8-34 37-55 64-74m25 10c-45 21-115 83-54 124 63 27 137-133 54-124z"/><path fill="#F1AC70" d="M223 754c10-56 104 37 46 48-10-20-23-41-46-48z"/><path fill="#FFDD69" d="M206 781c83-9 9 151-54 124-61-41 9-103 54-124z"/><path fill="#6F4708" d="M117 893c-20 0-20-47 0-48v48z" opacity=".6"/></svg>