<svg xmlns="http://www.w3.org/2000/svg" width="139.4" height="128" class="icon" viewBox="0 0 1115 1024"><path fill="#FFFFFE" d="M244 232s-108-64-167-24-58-17-48 57c9 74 67 22 49 67s141-7 102-4c-40 3-66 45-121 49-53 3 37 41 61 87 24 48 63 64 138 0s-5-109-5-109l-9-123z"/><path fill="#545971" d="M175 515l-12-1c-21-5-38-20-51-46-10-18-32-36-50-50-20-17-33-26-29-38s19-12 25-13c12-1 23-4 33-8-7-1-13-3-18-6-3-3-10-11-4-25l3-8-5-1c-14-1-41-5-47-53l-3-22c-2-16-3-21 1-26 4-4 9-4 13-4 7 1 19 2 41-14 63-42 172 22 177 25l4 2 10 123c10 7 34 25 37 53 2 24-10 46-35 67-35 31-65 45-90 45zM54 386c4 5 13 12 19 17 20 16 43 35 55 58 10 21 23 33 38 35 21 5 50-8 85-39 21-18 31-35 29-51-2-26-31-42-31-43l-5-2-9-123c-20-11-107-54-153-23-24 17-40 18-49 17l2 8 3 23c4 34 17 36 31 37 7 1 15 2 19 9 5 7 2 17-2 26l-1 3c2 1 13 5 45-1 16-9 30-18 49-18 4 0 13-1 16 6 1 4 0 9-5 13s-28 12-53 17l-3 2c-20 13-42 26-73 29h-7z"/><path fill="#FFE04A" d="M969 457c0 197-166 357-372 357S225 654 225 457s167-357 372-357 372 160 372 357"/><path fill="#545971" d="M597 833c-215 0-390-168-390-376S382 82 597 82s391 168 391 375-175 376-391 376zm0-729c-203 0-368 158-368 353s165 354 369 354 369-159 369-354-166-353-370-353z"/><path fill="#545971" d="M597 833c-215 0-390-168-390-376S382 82 597 82s391 168 391 375-175 376-391 376zm0-729c-203 0-368 158-368 353s165 354 369 354 369-159 369-354-166-353-370-353z"/><path fill="#FFD05A" d="M383 598c-89-128-124-267-72-382a369 369 0 00404 583c-125 9-244-73-332-201"/><path fill="#545971" d="M808 740c0-41 8-172 8-172 0-5-3-9-7-9H552c-4 0-8 4-8 9v147c0 13 0 63 15 97s115 82 147 181c31 99 51-63 68-145 6-81 41-75 34-108z"/><path fill="#FFE04A" d="M777 588v138c0 10-9 19-20 19H611c-12 0-20-9-20-19V588h186z"/><path fill="#545971" d="M742 772c0 14-12 26-26 26h-46c-14 0-26-12-26-26l9-64c0-14 12-26 26-26h29c14 0 26 12 26 26l8 64zm-49-121c-44 0-70-19-71-20-5-4-6-10-2-15 3-6 10-6 14-3 1 0 23 15 58 15s53-13 53-13c4-4 12-3 15 2 4 5 3 11-1 16-1 0-23 18-66 18zM400 358a115 115 0 00229 0H400z"/><path fill="#FFF" d="M400 328a115 115 0 00229 0H400z"/><path fill="#545971" d="M515 450c-67 0-122-54-122-122 0-4 3-7 7-7h229c5 0 8 3 8 7-1 68-55 122-122 122zM407 336c4 56 51 99 107 99s103-43 106-99H407z"/><path fill="#545971" d="M524 412a25 19 0 1051 0 25 19 0 10-51 0zM721 358a94 94 0 00187 0H721z"/><path fill="#FFF" d="M721 334a94 94 0 00187 0H721z"/><path fill="#545971" d="M815 435c-56 0-102-46-102-101 0-5 3-8 8-8h188c5 0 8 3 8 8-1 55-47 101-102 101zm-87-94a87 87 0 00173 0H728z"/><path fill="#545971" d="M832 397a21 16 0 1042 0 21 16 0 10-42 0z"/><path fill="#FFE04A" d="M546 983c-25-15-43-59-40-98 0-131 234-169 232-83 0 0 46 26 15 61 0 0 42 22 9 54-35 34-52-24-120 9-17 22-36 76-96 57"/><path fill="#545971" d="M569 998c-8 0-17-1-27-4l-3-2c-28-18-47-65-44-108 0-46 26-85 73-112 53-30 119-36 155-15 15 9 24 22 25 39 9 6 23 18 26 36 1 10 0 19-6 28 7 6 15 15 17 28 1 13-3 25-16 36-21 21-40 15-56 9-17-6-34-12-64 1l-7 10c-12 21-32 54-73 54zm-19-25c42 12 59-16 74-40l9-14 4-4c41-19 66-10 84-3 15 5 21 8 33-4 7-7 10-12 9-17-1-9-12-16-16-18-3-1-5-4-6-8s0-7 3-10c7-7 9-14 8-20-1-11-15-21-19-24-4-2-6-6-6-9 0-12-5-20-15-26-28-17-88-10-133 15-23 14-62 43-62 94v1c-2 33 13 73 33 87z"/><path fill="#FFE04A" d="M741 805c-25-14-66-25-101 4"/><path fill="#545971" d="M640 821c-3 0-6-2-9-4-3-4-2-12 2-15 31-26 72-28 113-6 5 3 8 9 5 15s-10 7-15 4c-20-10-56-23-89 4l-7 2z"/><path fill="#FFE04A" d="M757 865c13 10-56-42-104 0"/><path fill="#545971" d="M759 878c-3 0-7-2-8-3-39-21-69-21-90-2-5 4-12 4-16-1s-4-12 1-15c19-17 55-32 112-3l6 3c8 8 4 15 4 17-3 2-6 4-9 4z"/><path fill="#FFFFFE" d="M957 293a873 873 0 00-730 29c-8-5 25-306 338-313s410 284 392 284z"/><path fill="#545971" d="M226 333l-5-3c-14-10 7-78 8-81C251 176 328 5 565 0c221-4 330 137 367 199 23 38 42 85 34 99-2 4-5 6-9 6h-2l-1-1a871 871 0 00-723 28l-5 2zM576 19h-10c-110 2-196 41-257 116-54 67-70 144-73 173a880 880 0 01713-27A382 382 0 00577 19z"/><path fill="#545971" d="M936 246a429 429 0 00-158-79c-6-2-10-8-8-13 1-6 7-10 13-8 3 1 72 16 159 80 5 4 6 11 2 16-1 2-5 4-8 4zm-703 28c-3 0-6-1-7-3-5-4-5-11 0-16 74-73 182-87 187-87a11 11 0 112 21c-1 0-106 14-174 81-2 3-5 4-8 4z"/></svg>