<svg xmlns="http://www.w3.org/2000/svg" width="128" height="128" class="icon" viewBox="0 0 1024 1024"><defs/><path fill="#2FCAED" d="M667 323h158c33 55 25 34 25 72l1 212c0 39-13 40-44 59l-243-1-36 14-80 65-13-54 4-9c-39 0-54-34-54-72V391c0-39 32-69 72-69h211v1z"/><path fill="#1C1B55" d="M347 489c-10 0-11-8-11-18v-44c0-10 1-18 11-18s10 8 10 18v44c0 11 0 18-10 18z"/><path fill="#1C1B55" d="M434 753l-4-60c-49 0-90-34-90-84v-89c0-10 1-18 11-18s10 8 10 18v89c0 31 25 55 55 55h18c5 0 10 2 13 6 3 3 5 8 5 13v54l71-68c3-3 8-5 12-5h258c31 0 55-24 55-55V379c0-30-24-55-55-55H417c-30 0-58 25-58 55 0 10-1 18-11 18-9 0-10-8-10-18 0-50 29-76 79-76h376c50 0 76 25 76 76v231c0 50-25 76-76 76H542l-92 81c-4 3-16 6-16-14z"/><path fill="#1C1B55" d="M792 469H461c-9 0-17-1-17-10s8-9 17-9h331c9 0 17 1 17 9-1 9-8 10-17 10zm-78 79H461c-9 0-17-1-17-10s8-9 17-9h253c9 0 17 1 17 9s-8 10-17 10z"/></svg>