<svg xmlns="http://www.w3.org/2000/svg" width="128" height="128" class="icon" viewBox="0 0 1024 1024"><defs/><path fill="#FFD524" d="M631 771H390a160 160 0 110-319h241a160 160 0 110 319z"/><path fill="#333" d="M641 844H380a232 232 0 01-233-233 232 232 0 01233-233h261a232 232 0 01233 233 231 231 0 01-233 233zM380 428a183 183 0 000 366h261a183 183 0 000-366H380z"/><path fill="#333" d="M473 630H310a25 25 0 010-50h163a25 25 0 010 50z"/><path fill="#333" d="M392 712c-14 0-25-11-25-25V523a25 25 0 0150 0v164c0 13-12 25-25 25zm286-126a46 46 0 110-92 46 46 0 010 92zm0-50a4 4 0 100 8 4 4 0 000-8zm-42 187a46 46 0 110-92 46 46 0 010 92zm0-50a4 4 0 100 8 4 4 0 000-8zM515 425c-5 0-10-1-14-4-12-7-15-22-8-34l55-86H429a25 25 0 01-22-37l50-94a25 25 0 1144 23l-31 58h123c9 0 18 5 22 13s4 17-1 25l-78 124c-5 8-13 12-21 12z"/></svg>