<svg xmlns="http://www.w3.org/2000/svg" width="128" height="128" class="icon" viewBox="0 0 1024 1024"><defs/><path fill="#BE9567" d="M543 555c-22 0-41-11-53-28-12 4-26 6-39 6H254c-15 0-29-3-42-7a64 64 0 01-117-35c0 88 72 160 160 160h192c88 0 160-72 160-160 0 35-29 64-64 64zm361 73L706 453c-3-3-8-3-11 0l-6 6c-3 3-3 8 0 11l174 198c17 20 39 31 47 23l17-17c8-8-3-29-23-46z"/><path fill="#BE9567" d="M699 424l1-1c29-29-25-68-61-75l-24-5c-8-2-17 1-23 6l-7 8c-5 5-8 14-6 23l4 23 2 8c-28-48-79-80-138-80H255c-88 0-160 72-160 160a64 64 0 11128 5c10 3 20 5 31 5h197c10 0 19-1 28-4v-6a64 64 0 01128 0c0-18-3-36-9-52 16 26 41 45 60 26l2-2c-2-10 1-22 9-29v-1c8-8 19-11 30-9z"/></svg>