<svg xmlns="http://www.w3.org/2000/svg" width="128" height="128" class="icon" viewBox="0 0 1024 1024"><defs/><path fill="#FFF" d="M885 113H598a48 48 0 01-97 0H130c-28 0-51 23-51 51v749h866V173c0-33-27-60-60-60z"/><path fill="#F52F57" d="M593 117v1c0 25-21 45-47 45s-47-20-47-45v-1H123c-24 0-44 20-44 43v108h649V160c0-23-20-43-44-43h-91z"/><path fill="#7353BA" d="M449 431H146a8 8 0 01-8-8v-82a8 8 0 018-7h303a8 8 0 017 7v82a8 8 0 01-7 8z"/><path fill="#2F195F" d="M449 446H146c-13 0-23-10-23-23v-82c0-12 10-22 23-22h303c12 0 22 10 22 22v82c0 13-10 23-22 23zm-296-30h288v-67H153v67z"/><path fill="#FFF" d="M283 170H138a10 10 0 110-20h145a10 10 0 110 20zm79 0h-22a10 10 0 110-20h22a10 10 0 110 20z"/><path fill="#7353BA" d="M651 434h5l18-4v-89a8 8 0 00-8-7h-53a8 8 0 00-8 7v104a235 235 0 0146-11z"/><path fill="#F52F57" d="M138 913h807V195l-65 135a284 284 0 01-216 155l-5 1c-51 7-97 35-127 77l-85 122a283 283 0 01-173 115c-49 11-93 41-119 85l-17 28z"/><path fill="#2F195F" d="M79 798c-8 0-15-7-15-15v-15a15 15 0 0130 0v15c0 8-7 15-15 15zM549 401c8 0 15-6 15-15v-49a15 15 0 00-30 0v49c0 9 6 15 15 15zM223 537h136a15 15 0 000-30H223a15 15 0 000 30zm-85 0h45a15 15 0 000-30h-45a15 15 0 000 30zm47 26h-47a15 15 0 000 30h47a15 15 0 000-30zm0 56h-47a15 15 0 000 30h47a15 15 0 000-30z"/><path fill="#2F195F" d="M885 98H597c-8 0-15 7-15 15 0 17-14 32-31 33a15 15 0 00-2-1l-2 1c-17-2-31-16-31-33 0-8-6-15-15-15H124c-33 0-60 27-60 60v501c0 33 27 60 60 60h132a15 15 0 000-30H124c-16 0-30-13-30-30V287h440v1a15 15 0 0030 0v-1h149v115a221 221 0 01-24 9v-70c0-12-11-22-23-22h-53c-13 0-23 10-23 22v94a251 251 0 00-26 12v-12a15 15 0 00-30 0v31c-22 16-41 36-57 58l-28 39H223a15 15 0 000 30h205l-17 26H223a15 15 0 000 30h167c-32 45-79 75-133 87-53 11-101 40-136 81-6 6-5 15 1 21a15 15 0 0010 4c4 0 8-2 11-6 31-35 74-61 120-71 63-13 117-49 153-101l15-22 38-55 33-45a25 25 0 000-1c27-39 66-68 111-83h1a220 220 0 014-1l2-1 3-1h2l3-1 3-1h2l3-1h3l3-1 3-1h2l6-1h5l4-1c81-13 150-63 186-136l44-89a15 15 0 00-18-21l-72 27a15 15 0 0011 28l35-13-27 55a220 220 0 01-78 87V192a15 15 0 00-30 0v65H564v-18a15 15 0 00-30 0v18H94v-99c0-16 14-30 30-30h364c6 22 23 40 46 46v16a15 15 0 0030 0v-16c22-5 41-23 46-46h275c25 0 45 20 45 45v68h-29a15 15 0 000 30h29v98h-29a15 15 0 000 30h29v98h-29a15 15 0 000 30h29v98h-29a15 15 0 000 30h29v98h-29a15 15 0 000 30h29v115h-83v-29a15 15 0 00-30 0v29h-98v-29a15 15 0 00-30 0v29h-98v-29a15 15 0 00-30 0v29h-98v-29a15 15 0 00-30 0v29h-99v-29a15 15 0 00-30 0v29h-97v-29a15 15 0 00-30 0v29H94v-66a15 15 0 00-30 0v81a15 15 0 0015 15h866c9 0 15-7 15-15V173c0-42-33-75-75-75zM659 418l-5 1h-5a251 251 0 00-7 2h-2a247 247 0 00-5 1h-2l-5 1-2 1-4 1h-2v-76h39v69z"/></svg>