<svg xmlns="http://www.w3.org/2000/svg" width="128" height="128" class="icon" viewBox="0 0 1024 1024"><defs/><path fill="#DCB8B4" d="M390 801l-1-12h-1v-10c-56-12-67-30-67-30v-2h-1 1v-4l-16-477v-13a364 364 0 0112-93c11-34 43-88 57-141a512 512 0 0042 996l1-17c-1-34-16-119-27-197zm153 132a1034 1034 0 01-17-135v-9l-14 1-14-1v9a1034 1034 0 01-17 135 667 667 0 00-7 70l1 19a517 517 0 0074 0l1-19a667 667 0 00-7-70zM650 19c14 54 46 107 57 141a364 364 0 0112 93v13l-16 483s-11 18-67 30l-2 22c-11 78-26 163-27 197l1 17a512 512 0 0042-996z"/><path fill="#EDE2E0" d="M386 759a1467 1467 0 01-1-17 320 320 0 01-64 7v-2 2s11 18 67 30l-1-7-1-14zm149-91l-1-1a320 320 0 01-41 32c2 29 5 61 5 90l14 1 14-1c1-30 3-64 6-94l3-27zm-214 75v4z"/><path fill="#9D7971" d="M484 789l-1-17c-12-12-41 3-68 12a93 93 0 01-26 5l1 12c11 78 26 163 27 197l-1 17 47 7v-10c0-31 23-143 21-223zm-98-30l1 13-1-14zm248 42l2-22-2 21c-11 79-26 164-27 198l1 17a288 288 0 01-1-17c1-34 16-119 27-197zM634 658a668 668 0 01-4-74 473 473 0 0115-83l-1-1a473 473 0 00-14 84 668 668 0 004 74 526 526 0 012 121 526 526 0 00-2-121zm-16-5a181 181 0 01-3-30v1c-7 32-49 82-86 118l3-47c-3 30-5 64-6 94v9a1034 1034 0 0017 135 667 667 0 017 70l-1 19a513 513 0 0051-6v-7c0-40 17-168 21-210l2-18a454 454 0 00-5-128z"/><path fill="#82615B" d="M388 779v10h1l-1-10zm-2-20l-1-17 1 16zM387 772l1 7-1-7z"/><path fill="#82615B" d="M498 798v-9c0-29-3-61-5-90l-6 3-14 8a317 317 0 01-88 32l1 16 1 14 1 7 1 10a93 93 0 0026-5c27-9 56-24 68-12l1 17c2 80-21 192-21 223v10h12a256 256 0 01-1-19 667 667 0 017-70 1034 1034 0 0017-135zm37-131h-1l1 1-3 27 3-27z"/><path fill="#82615B" d="M630 584a473 473 0 0114-84l-4-51a319 319 0 01-12 70l-10 28a319 319 0 01-83 120v1a3194 3194 0 00-6 74c37-36 79-86 86-118v-1a181 181 0 003 30 454 454 0 015 128l-2 18c-4 42-21 170-21 210v7l8-1a288 288 0 01-1-17c1-34 16-119 27-198l2-21a526 526 0 00-2-121 668 668 0 01-4-74z"/><path fill="#FFF" d="M492 697l1 2a320 320 0 0041-32l-1-1a320 320 0 01-41 31zm-165 50h-6v2a320 320 0 0064-7v-1a320 320 0 01-58 6zm22-388l11 57h31c-21-18-39-36-42-57zm138 342v1l6-3-1-2-5 4zm52-353h61-61a9 9 0 00-9 10v2-2a9 9 0 019-10zm89 171a319 319 0 0012-70 319 319 0 01-12 69zM385 741v1-1zm0 0v1a317 317 0 0088-32v-1a317 317 0 01-88 32zM473 709v1l14-8v-1l-14 8z"/><path fill="snow" d="M600 348c0-116-37-240-13-342a512 512 0 00-213 13c-14 53-46 107-57 141a364 364 0 00-12 93v13l16 477v4h6a244 244 0 0058-12l1-1a271 271 0 0084-46l13-12 7-6a306 306 0 0049-63 446 446 0 0053-157 653 653 0 005-34 745 745 0 003-68z"/><path fill="#FFF" d="M535 665l-2 1 1 1h1v-2zM535 665v2a319 319 0 0083-120v-2a319 319 0 01-83 120zM618 545v2l10-28v-1a317 317 0 01-10 27z"/><path fill="#EDE2E0" d="M320 747h0zm1 0zm0 0h6-6zm354-388a1145 1145 0 01-11 57l11-57a9 9 0 00-2-7 9 9 0 012 7zm-28 132l-3 9 1 1 2-10 18-75h-1a1688 1688 0 01-17 75zm17-143a5 5 0 013 0 9 9 0 016 4 9 9 0 00-6-4 5 5 0 00-3 0h-64z"/><path fill="#EDE2E0" d="M707 160c-11-34-43-87-57-141a509 509 0 00-63-13c-24 102 13 226 13 342h1-1a491 491 0 010 31 740 740 0 01-3 37 653 653 0 01-5 34 446 446 0 01-53 157 306 306 0 01-49 63l-7 6-13 12a271 271 0 01-84 46l-1 1a244 244 0 01-58 12 320 320 0 0058-6 317 317 0 0088-32l14-8 5-4a320 320 0 0041-31l2-1a319 319 0 0083-120l10-27a319 319 0 0012-69l4 51 3-9a27 27 0 011-3l-1 3-2 10a473 473 0 00-15 83 668 668 0 004 74 526 526 0 012 121c56-12 67-30 67-30l16-483v-13a364 364 0 00-12-93z"/><path fill="#EDE2E0" d="M628 518l-4-16-2 3a1406 1406 0 00-4 40l10-27z"/></svg>