<svg xmlns="http://www.w3.org/2000/svg" width="128" height="128" class="icon" viewBox="0 0 1024 1024"><defs/><path fill="#548AFF" d="M512 864a32 32 0 01-32-32v-96a32 32 0 1164 0v96a32 32 0 01-32 32z"/><path fill="#548AFF" d="M896 160H128a32 32 0 00-32 32v512a32 32 0 0032 32h768a32 32 0 0032-32V192a32 32 0 00-32-32z"/><path fill="#FFC431" d="M960 32H64a32 32 0 00-32 32v128a32 32 0 0032 32h896a32 32 0 0032-32V64a32 32 0 00-32-32zM512 992a96 96 0 100-192 96 96 0 000 192zm448-256H64a32 32 0 010-64h896a32 32 0 010 64zM512 608H256a32 32 0 010-64h256a32 32 0 010 64zm128-128H256a32 32 0 010-64h384a32 32 0 010 64zm128-128H256a32 32 0 010-64h512a32 32 0 010 64z"/></svg>