<svg xmlns="http://www.w3.org/2000/svg" width="128" height="128" class="icon" viewBox="0 0 1024 1024"><defs/><path fill="#306CFF" d="M375 332c13 10 30 17 45 15 18 0 32-8 45-19 16-12 26-29 35-48 16-37 16-82 2-120a132 132 0 00-45-64c-12-8-31-12-49-10-10 1-20 7-31 12-19 12-31 35-40 55-10 38-12 77-1 116a108 108 0 0039 63zm213 1c16 13 35 21 54 21 17 2 31-2 47-10 15-9 28-21 36-37 11-17 19-34 26-53 4-16 7-31 4-49-2-24-13-45-28-64-10-12-24-26-38-31-11-3-24-9-35-7a88 88 0 00-38 19c-16 12-28 28-36 45-9 16-18 31-19 52-2 21-2 43 1 62 4 20 11 39 26 52zM292 508c16-12 25-29 30-46 8-28 8-56 7-84 0-10-4-20-9-31a115 115 0 00-54-57c-19-9-38-12-55-9-21 2-38 18-52 35-17 24-26 54-30 81-1 18 0 35 4 52 7 26 19 49 38 66a88 88 0 0054 19c24-1 46-8 67-26zm613-64c-1-17-7-31-15-47-9-17-25-34-40-43-19-10-43-12-64-10-11 1-24 3-35 10-15 9-26 24-34 40-9 21-13 45-13 68 0 20 0 45 7 65 4 16 12 31 28 40 16 12 35 17 54 19 15 2 31 2 46-2 16-3 30-12 39-26 10-12 17-29 19-45 12-20 8-45 8-69zm-59 324c-1-29-17-61-38-83-3-4-8-9-15-12-28-24-56-49-83-75-28-27-54-57-77-90-17-27-39-53-72-67a135 135 0 00-64-11c-38 4-73 26-96 56-7 7-10 15-15 24a700 700 0 01-100 107c-8 7-16 13-21 19-26 19-52 45-66 73a154 154 0 00-19 64c0 19 1 38 8 56 7 19 16 38 28 53 21 26 54 44 85 45 40 2 81 0 119-7 18-1 35-8 54-10 38-3 76-2 113 9 29 10 62 15 93 17s66-2 95-19c21-10 38-29 49-52 17-31 26-64 22-97zm-358 87h-99c-10 0-21 0-31-2-21-4-40-17-54-36a81 81 0 01-19-46 260 260 0 010-51c4-19 16-37 28-49 10-10 26-19 40-26 7-2 12-3 19-3h57v-82h55c4 101 4 199 4 295zm220 0H573a69 69 0 01-38-16 59 59 0 01-19-43V650h55v135c0 7 2 11 7 16a26 26 0 0017 7h57V650h56v205z"/><path fill="#306CFF" d="M370 697c-10 4-21 12-28 26-3 10-6 21-6 31 0 12 3 26 10 37 9 12 24 20 38 19h45V694h-48c-2-2-6 1-11 3z"/></svg>