<svg xmlns="http://www.w3.org/2000/svg" width="128" height="128" class="icon" viewBox="0 0 1024 1024"><defs/><path fill="#F8C44F" d="M344 857a167 167 0 11-168-168 167 167 0 01168 168z"/><path fill="#FFF" d="M233 837a57 57 0 11-57-56 57 57 0 0157 56z"/><path fill="#282D33" d="M176 915a78 78 0 1178-78 78 78 0 01-78 78zm0-113a36 36 0 1036 35 36 36 0 00-36-35z"/><path fill="#FFF" d="M219 900h-85a57 57 0 00-57 57v5a144 144 0 00198 0v-5a57 57 0 00-56-57z"/><path fill="#282D33" d="M176 1022a165 165 0 01-113-45l-7-6v-14a78 78 0 0178-78h85a78 78 0 0177 78v14l-6 6a165 165 0 01-114 45zm-78-69a123 123 0 00156 0 36 36 0 00-35-32h-85a36 36 0 00-36 32z"/><path fill="#FFF" d="M611 21a383 383 0 00-300 622l-23 84 84-23A383 383 0 10611 21z"/><path fill="#282D33" d="M611 809a400 400 0 01-243-82l-109 29 29-109a400 400 0 01-82-243 404 404 0 11405 405zM377 681l8 7a359 359 0 00226 79 363 363 0 10-363-363 359 359 0 0079 226l6 9-15 59z"/><path fill="#34CA9D" d="M611 715a310 310 0 11310-311 311 311 0 01-310 311z"/><path fill="#282D33" d="M631 416l-26-32 32-26c10-7 14-13 14-16v-28a21 21 0 00-21-21h-34a21 21 0 00-21 21v14h-43v-14a63 63 0 0163-63h35a63 63 0 0162 63v29c0 13-5 32-32 50z"/><path fill="#282D33" d="M612 464h-42v-29c0-13 6-32 33-50l29-24 26 33-31 26c-11 7-15 12-15 15zM570 496h42v41h-42z"/></svg>