<svg xmlns="http://www.w3.org/2000/svg" width="128" height="128" class="icon" viewBox="0 0 1024 1024"><defs/><path fill="#996E28" d="M55 529l457 456 456-456v-17L512 73 55 512v17z"/><path fill="#D5382E" d="M512 80l432 432-432 432L80 512z"/><path fill="#E8D4AB" d="M512 968L56 512 512 56l456 456zM104 512l408 408 408-408-408-408z"/><path fill="#E8D4AB" d="M472 419c-3 4-8 5-18 6a333 333 0 01-42 62c82 35 40 98 6 67a160 160 0 00-8-45v170c0 4-18 17-45 17h-9V542a326 326 0 01-54 34l-4-3c47-45 83-108 99-161h-84l-4-11h86l29-29zM347 312c119 16 61 103 14 63-1-22-9-45-17-62zm112 46l-3-11h157l27-37 51 42c-2 4-6 6-12 6zm233 170c-3 3-9 7-17 9v144c-1 3-27 13-45 13h-10v-27H513v13c0 6-22 17-45 17h-7V495l55 21h100l25-27zm-88-38v-16h-72v6c0 5-23 16-45 16h-7V375l54 21h66l25-27 51 38c-2 4-8 7-16 9v62c-1 3-29 12-46 12zm-91 38v56h32v-56zm0 128h32v-61h-32zm91-193v-56h-72v56zm-13 65v56h29v-56zm29 128v-61h-29v61z"/><path fill="#E8D4AB" d="M512 876L148 512l364-364 364 364zM160 512l352 352 352-352-352-352z"/></svg>