<svg xmlns="http://www.w3.org/2000/svg" width="128" height="128" class="icon" viewBox="0 0 1024 1024"><defs/><path fill="#EEA44F" d="M311 100c124-59 273-61 397-3l-15 21a445 445 0 00-365 1l-17-19z"/><path fill="#8F0D00" d="M196 136c0-58 83-84 115-36l17 19c-1 24-3 48-20 65l-3-57-6-2c-15-9-28-25-47-21-20 8-36 23-56 32z"/><path fill="#A03E0E" d="M717 86c23-12 52-20 76-4 17 13 40 34 24 56-14-10-26-23-40-34l-60-18z" opacity=".9"/><path fill="#FDED78" d="M328 119c114-51 250-53 365-1-5 22 1 44 17 60l-1 34 46 6-21 17c-56 3-116 26-146 77-19 36 20 78 58 68l18 15-62 18a393 393 0 01-366 232c25 32 52 63 79 95l-18-1c-61-41-93-110-109-179-5 46 7 90 27 130-29-22-51-57-90-61l-18 36c-32-85-34-178-14-266 41-13 76-40 119-47 30-4 60-4 89-1 33 5 61 25 94 31 31-3 57-41 40-70-20-37-60-59-99-70-65-17-131 2-195 12l-8-2c41-47 83-94 135-128l31 1 6 2 3 57c17-17 19-41 20-65M163 410c-34 3-76 35-60 73 31 49 109 54 149 14 19-16 18-50-1-66-24-21-57-26-88-21z"/><path fill="#93390E" d="M708 97l9-11 60 18c-15-2-30 1-43 8-15 19-21 43-24 66a64 64 0 01-17-60l15-21z" opacity=".9"/><path fill="#FFD074" d="M710 178c3-23 9-47 24-66 60 31 107 79 150 129l2 8-2 11c-48-16-99-27-150-25l21-17-46-6 1-34z"/><path fill="#1F1F1F" d="M141 254c64-10 130-29 195-12 39 11 79 33 99 70 17 29-9 67-40 70-33-6-61-26-94-31-29-3-59-3-89 1-43 7-78 34-119 47l-16-24c-28-51 30-93 64-121m-28 38c-29 16-50 61-20 87 14 9 27-4 40-10 62-42 145-39 215-20-12-33 18-66 52-62-84-60-203-47-287 5zm475 20c30-51 90-74 146-77 51-2 102 9 150 25l2-11 5-2c16 42 85 71 57 125l-13 26c-51-10-92-49-145-48-50-5-101 4-144 30-38 10-77-32-58-68m37-27l35 12c-14 1-29 1-43 3l37 15 14 31c4-11 6-23 4-35 6 12 7 25 4 38 50-16 105-17 157-6 31 6 54 28 83 39 20 1 32-23 28-40-6-49-61-65-100-82-72-18-156-22-219 25z"/><path fill="#FFF" d="M625 285c63-47 147-43 219-25 39 17 94 33 100 82 4 17-8 41-28 40-29-11-52-33-83-39-52-11-107-10-157 6 3-13 2-26-4-38l-12-14-35-12zm-512 7c84-52 203-65 287-5-34-4-64 29-52 62-70-19-153-22-215 20-13 6-26 19-40 10-30-26-9-71 20-87z"/><path fill="#050505" d="M617 300c14-2 29-2 43-3l12 14c2 12 0 24-4 35l-14-31-37-15z"/><path fill="#FFD374" d="M646 380c43-26 94-35 144-30 53-1 94 38 145 48 15 86 18 176-13 259a436 436 0 01-409 290 436 436 0 01-406-282l18-36c39 4 61 39 90 61 114 175 384 198 536 61 48-48 87-115 77-185-14 61-40 121-91 160a362 362 0 01-440 13l18 1c-27-32-54-63-79-95 155 6 304-92 366-232l62-18-18-15m169 30c-32 4-72 34-59 70 31 60 133 60 165 0 12-58-61-81-106-70z"/><path fill="#EEA650" d="M245 885A457 457 0 0177 375l16 24a436 436 0 00420 548 436 436 0 00422-549l13-26a455 455 0 01-329 587c-128 29-269 5-374-74z"/><path fill="#F3A461" d="M163 410c31-5 64 0 88 21 19 16 20 50 1 66-40 40-118 35-149-14-16-38 26-70 60-73m-34 39c5 15 4 34 18 44 28 13 59 4 86-5-3-15 3-37-13-47-28-21-64-8-91 8z"/><path fill="#F29A5B" d="M815 410c45-11 118 12 106 70-32 60-134 60-165 0-13-36 27-66 59-70m-12 31c-16 10-9 31-12 47 33 15 92 21 101-26-16-34-60-42-89-21z"/><path fill="#EC973B" d="M129 449c27-16 63-29 91-8 16 10 10 32 13 47-27 9-58 18-86 5-14-10-13-29-18-44z"/><path fill="#ED8739" d="M803 441c29-21 73-13 89 21-9 47-68 41-101 26 3-16-4-37 12-47z"/><path fill="#6B0000" d="M188 560c16 69 48 138 109 179 126 97 319 91 440-13 51-39 77-99 91-160 10 70-29 137-77 185-152 137-422 114-536-61-20-40-32-84-27-130z"/></svg>