<svg xmlns="http://www.w3.org/2000/svg" width="128" height="128" class="icon" viewBox="0 0 1024 1024"><defs/><path fill="#2B64AF" d="M214 47c19-3 26 4 21 23-14 12-24 9-31-9l10-14z" opacity=".9"/><path fill="#E62951" d="M298 75c42-2 57 16 44 56-20 25-40 25-61 0-11-24-6-43 17-56zm4 14c31 1 39 14 24 39-20 12-32 6-38-16 2-10 6-18 14-23z" opacity=".8"/><path fill="#7CCAE2" d="M400 84a39 39 0 0119 2c5 10 11 19 19 26 12-9 26-11 39-5 3 5 2 10-2 14l-28 19c10 12 13 26 9 40-4 3-9 3-14 0a322 322 0 01-21-31c-11 11-23 14-37 10-3-7-3-13 0-19 10-5 19-11 26-19-10-11-13-24-10-37z" opacity=".9"/><path fill="#E51F19" d="M158 117c6-6 11-4 16 4 5-11 8-9 9 5l7-5a93 93 0 0019 17c-10 1-11 5-5 11-15 3-17 9-4 17-5 3-9 2-12-3-5 19-9 19-14 0a32 32 0 01-7 14 218 218 0 00-28-25l9-5v-21c4-6 8-6 12 0 3-4 2-7-2-9zm9 23c6-1 10 1 14 5-7 6-12 4-14-5z" opacity=".6"/><path d="M190 187a6876 6876 0 01357 4c4 8 3 15-2 21-112 3-224 3-336 3 1 84 0 168-2 252-8 6-16 6-24 0a3926 3926 0 010-271c4-2 6-6 7-9z" opacity=".9"/><path fill="#04070C" d="M792 551c-15 6-26 17-32 32a120 120 0 01-28 28 3877 3877 0 00-224 229l-14 7-122 2a1041 1041 0 01-135-7c-52-35-70-84-54-147 7-9 15-11 24-4 1 30 4 59 9 88 9 20 24 32 44 38a1823 1823 0 00224 2l283-282a3924 3924 0 000-271l-7-14c0-3-2-5-5-5-9-16-23-26-42-30l-103-5c-6-7-6-15 0-23 38-3 75-3 112 0 37 12 61 36 73 72 4 97 3 194-3 290z" opacity=".9"/><path fill="#2B64AF" d="M92 187c6 0 11 2 14 7-12 10-12 20 0 30-7 4-14 2-21-5-5 9-12 11-21 5l10-14-10-14c9-6 16-4 21 5 5-4 8-8 7-14z" opacity=".8"/><path fill="#47A2F9" d="M755 247c3 0 5 2 5 5l7 14a3924 3924 0 010 271L484 819c-75 4-149 3-224-2a74 74 0 01-21-38 15431 15431 0 010-536 8693 8693 0 01493-3 199 199 0 0023 7z"/><path fill="#F2AC3C" d="M536 299c2 6 7 9 14 9 27 16 44 40 53 70 4 19 4 37 0 56l-23 37a422 422 0 00-70 80 245 245 0 00-14 65c-13 12-25 12-37 0-10-42-1-80 28-112l56-65c23-50 8-82-45-96-68-6-100 26-95 96-19 20-34 18-47-5 3-117 63-163 180-135z"/><path fill="#4F4D47" d="M536 299c7-1 12 2 14 9-7 0-12-3-14-9z"/><path d="M186 541c7-1 14 1 21 5a414 414 0 01-3 107c-8 7-15 5-21-4-3-36-3-72 3-108z" opacity=".9"/><path fill="#3883CA" d="M792 551c-9 12-20 23-32 32 6-15 17-26 32-32z" opacity=".7"/><path fill="#020407" d="M900 686a18312 18312 0 00-248 245 8388 8388 0 01-121 26c-10-5-16-13-19-24a3874 3874 0 0024-116c3 0 4-2 4-5 4 0 5-1 5-5 3 0 5-1 5-4 3 0 4-2 4-5 4 0 5-1 5-5 3 0 5-1 5-4 3 0 4-2 4-5 4 0 5-1 5-5 3 0 5-1 5-4 3 0 4-2 4-5 4 0 5-1 5-5 3 0 5-1 5-4 3 0 4-2 4-5 4 0 5-1 5-5 3 0 5-1 5-4 3 0 4-2 4-5 4 0 5-1 5-5a1290651 1290651 0 00191-177c7 1 13 3 19 7l82 82c10 15 8 27-7 37zm-80-79c-6-1-10 0-14 4h-14c9-20 18-21 28-4zm-46 23a27 27 0 01-5 14l-28 33a1962 1962 0 00-163 158l-14 10a3412 3412 0 01210-215z" opacity=".9"/><path fill="#04070D" d="M792 611h14l47 33c11 38-3 56-42 54-19-15-33-33-42-54a27 27 0 005-14c3 0 4-1 4-5 4 0 5-1 5-4 3 0 5-2 5-5 3 0 4-1 4-5z"/><path fill="#3781C6" d="M806 611c4-4 8-5 14-4 0 3 2 4 5 4 0 4 2 5 5 5 0 3 1 5 4 5 0 3 2 4 5 4 0 4 2 5 5 5 0 3 1 5 4 5 0 3 2 4 5 4v5l-47-33z" opacity=".7"/><path fill="#3E92E2" d="M802 639c12 6 23 15 32 26-3 6-8 7-14 5-11-8-17-18-18-31z"/><path fill="#4095E6" d="M769 644c9 21 23 39 42 54 39 2 53-16 42-54h5c0 3 1 5 4 5 0 3 2 4 5 4 0 4 2 5 5 5 0 3 1 5 4 5a23 23 0 01-2 14 5556 5556 0 00-236 233l-93 19a364 364 0 0114-80c3 0 5-1 5-4l14-10c-15 69 8 85 70 49a3375 3375 0 01147-151c3-6 3-13 0-19l-35-35a39 39 0 00-19-2l28-33z"/><path fill="#EFA939" d="M466 663c41-1 52 17 32 53-27 13-42 4-46-25 0-12 5-21 14-28z"/><path fill="#03060A" d="M741 677a39 39 0 0119 2l35 35c3 6 3 13 0 19a3375 3375 0 00-147 151c-62 36-85 20-70-49a1962 1962 0 01163-158z"/><path fill="#429BEF" d="M900 686c4 6 5 12 2 19L652 954a3461 3461 0 00-84 21h-32c-4-5-5-11-5-18a8388 8388 0 00121-26 18312 18312 0 01248-245z" opacity=".9"/><path fill="#4096E7" d="M746 700c12 7 19 16 21 28L624 870a60 60 0 01-23 3 86 86 0 012-28 6228 6228 0 00143-145z"/><path fill="#4198EA" d="M732 611a2043 2043 0 01-112 122c-3 0-5 1-5 4-3 0-5 2-5 5-3 0-4 2-4 5-3 0-5 1-5 4-3 0-5 2-5 5-3 0-4 2-4 5-3 0-5 1-5 4-3 0-5 2-5 5-3 0-4 2-4 5-3 0-5 1-5 4-3 0-5 2-5 5-3 0-4 2-4 5-3 0-5 1-5 4-3 0-5 2-5 5-3 0-4 2-4 5-3 0-5 1-5 4-3 0-5 2-5 5-3 0-4 2-4 5l-28 23a3877 3877 0 01224-229z" opacity=".5"/></svg>