<svg xmlns="http://www.w3.org/2000/svg" width="128" height="128" class="icon" viewBox="0 0 1024 1024"><defs/><path fill="#EDA755" d="M240 144a457 457 0 01658 120c92 140 98 332 13 476l-25-20 34-16-6-26a435 435 0 10-817-39 436 436 0 00340 301c102 21 206-5 298-50l-6-5 22-25 43 15c-79 63-181 98-282 95a457 457 0 01-271-827z"/><path fill="#FDED78" d="M264 159a435 435 0 01674 268c19 84 6 171-24 251l-76-26c19-13 38-26 53-44-27-19-59 3-87 9l-12-28-67 29-19-11c-45 19-91 36-138 53-16-8-33-14-50-21l-2-9h94a497 497 0 01-196-185c-46 2-91 4-137 4l-26-8-7-4c56 0 111 3 167-3-49-30-108-14-162-15l5-17c51-4 104 7 153-7 6-25 6-51 0-75-48-16-100-2-150-10l-19-8c28-6 57-13 86-16 45-5 99 14 136-19-82-11-165-4-247-6l5-10c14-6 29-10 43-15l30-67-27-10m298 119c38 16 80 11 121 12 47-1 95 5 141-11-34-27-80-12-120-15-47 4-100-13-142 14m72 38c-18 0-25 20-24 36 0 18-2 45 21 49 45 3 90 3 135 0 23-4 21-32 20-49 2-15-5-35-23-36a1042 1042 0 00-129 0m-10 108l-1 14c53 0 107 3 161-5-52-15-107-7-160-9z"/><path fill="#FFCA73" d="M97 639a433 433 0 01167-480l27 10-30 67c-14 5-29 9-43 15l-5 10-12 23c41 2 82 2 123 2-29 3-58 10-86 16l19 8-21 20v54l18 18-5 17-5 18 7 4 26 8c45 40 61 100 100 144 39 50 91 89 151 109l-17 23 19 7 39 22c-23 13-44 27-65 42 28-3 56-8 84-10l64 56 25-8 52 51 6 5c-92 45-196 71-298 50A436 436 0 0197 639z"/><path fill="#9F3914" d="M201 284l12-23c82 2 165-5 247 6-37 33-91 14-136 19-41 0-82 0-123-2z"/><path fill="#9C310A" d="M562 278c42-27 95-10 142-14 40 3 86-12 120 15-46 16-94 10-141 11-41-1-83 4-121-12z"/><path fill="#1F1F1F" d="M257 310c50 8 102-6 150 10 6 24 6 50 0 75-49 14-102 3-153 7l-18-18v-54l21-20zm377 6a1042 1042 0 01129 0c18 1 25 21 23 36 1 17 3 45-20 49-45 3-90 3-135 0-23-4-21-31-21-49-1-16 6-36 24-36z"/><path fill="#D79B4C" d="M249 419c54 1 113-15 162 15-56 6-111 3-167 3l5-18z"/><path fill="#C5883C" d="M624 424c53 2 108-6 160 9-54 8-108 5-161 5l1-14z"/><path fill="#FEDD76" d="M277 449c46 0 91-2 137-4 49 77 113 144 196 185h-94l2 9 4 20c16 10 34 19 51 28l-43 45-19-7 17-23c-60-20-112-59-151-109-39-44-55-104-100-144z"/><path fill="#A3400E" d="M725 618l67-29 12 28c28-6 60-28 87-9-15 18-34 31-53 44l76 26 6 26-34 16 25 20c10 11 42 28 19 44l-36-2c14 15 37 27 37 50-19 26-52-5-77-5 13 26 45 58 15 85-24-14-49-28-75-37l-43-15-22 25-52-51-25 8-64-56-4-20c48 19 92 46 141 64 44 17 90 28 134 45-18-21-34-43-50-64l82-1c-23-18-46-35-68-54l75-2-72-48 52-16-87-32-22-5-4-32-59 37-23-17c-30 12-59 23-91 28l-24-9c47-17 93-34 138-53l19 11z"/><path fill="#DB4100" d="M706 658l59-37 4 32 22 5 87 32-52 16 72 48-75 2c22 19 45 36 68 54l-82 1c16 21 32 43 50 64-44-17-90-28-134-45-49-18-93-45-141-64-3-33 3-65 8-97 32-5 61-16 91-28l23 17z"/><path fill="#7F2815" d="M518 639a1389 1389 0 0174 30c-5 32-11 64-8 97l4 20c-28 2-56 7-84 10 21-15 42-29 65-42l-39-22 43-45c-17-9-35-18-51-28l-4-20z"/></svg>