<svg xmlns="http://www.w3.org/2000/svg" width="128" height="128" class="icon" viewBox="0 0 1024 1024"><path fill="#7D4F46" d="M986 840l-848 6 48-239 728-12 72 245z"/><path d="M973 855H407a10 10 0 010-19h566a3 3 0 003-1 3 3 0 000-3l-69-225a3 3 0 00-3-3h-29a10 10 0 010-19h29a22 22 0 0122 16l69 226a22 22 0 01-22 28zm-843-31a10 10 0 01-2 0 10 10 0 01-7-12l16-55a10 10 0 1118 5l-16 55a10 10 0 01-9 7z"/><path d="M973 855H407a10 10 0 010-19h566a3 3 0 003-1 3 3 0 000-3l-69-225a3 3 0 00-3-3h-29a10 10 0 010-19h29a22 22 0 0122 16l69 226a22 22 0 01-22 28zm-843-31a10 10 0 01-2 0 10 10 0 01-7-12l16-55a10 10 0 1118 5l-16 55a10 10 0 01-9 7z"/><path fill="#E8E0DA" d="M435 746c38 4 82 5 127 5 150 0 272-19 280-43h1l32-113 79-283a36 36 0 002-6v-1a45 45 0 001-8c0-70-177-127-395-127-219 0-396 57-396 127a44 44 0 004 18l72 253"/><path d="M562 761c-45 0-88-2-128-5a10 10 0 012-19c39 3 82 5 126 5 171 0 266-24 271-37l1-1 111-395 1-1a26 26 0 001-4 10 10 0 010-1 35 35 0 001-6c0-56-156-117-386-117-231 0-387 61-387 117a35 35 0 004 14 9 9 0 010 2l72 252a10 10 0 11-18 6l-72-252a54 54 0 01-5-22c0-76 178-136 406-136 227 0 405 60 405 136a52 52 0 01-1 8 9 9 0 010 3l-1 1a45 45 0 01-1 6L852 711a9 9 0 01-1 2c-20 38-197 48-289 48z"/><path fill="#F6F6F6" d="M298 598a10 10 0 01-10-7l-47-178a10 10 0 1118-5l48 178a10 10 0 01-7 12 10 10 0 01-2 0z"/><path fill="#B1E160" d="M377 862a94 94 0 011 13s-40 83-134 47c-89-35-96-82-161-100 38 0 60-13 89-24"/><path d="M289 941a134 134 0 01-49-10 287 287 0 01-94-60c-19-17-36-32-66-40a10 10 0 013-18c31-1 51-9 73-19l12-5a10 10 0 118 17l-12 5a262 262 0 01-44 16 246 246 0 0139 30 271 271 0 0088 56 92 92 0 00121-41l-1-9a10 10 0 0119-2 104 104 0 011 14 10 10 0 01-1 4c0 1-30 62-97 62zm89-66z"/><path fill="#B1E160" d="M219 844l-43-8"/><path d="M219 854a10 10 0 01-2 0l-43-8a10 10 0 113-19l44 8a10 10 0 01-2 19z"/><path fill="#B1E160" d="M378 875l16 4"/><path d="M394 888a9 9 0 01-2 0l-17-4a10 10 0 115-19l17 4a10 10 0 01-3 19z"/><path fill="#B1E160" d="M29 510c77 83 45 157 142 287 103 136 235 51 235 51s99-149-66-239c-151-82-209-38-311-99z"/><path d="M311 884c-45 0-100-18-147-82-51-67-67-120-81-167-13-43-25-80-61-119a10 10 0 0112-15c46 28 83 34 125 40 48 7 104 16 186 60 52 28 84 66 95 111 19 73-24 139-26 142a10 10 0 01-3 3 205 205 0 01-100 27zM63 537c19 31 28 61 38 93 14 45 29 96 78 161 90 120 204 60 220 50 6-10 38-66 23-125-10-39-39-72-87-98-78-43-132-51-179-58-31-5-60-9-93-23zm343 311z"/><path fill="#B1E160" d="M362 806L150 613"/><path d="M362 815a10 10 0 01-6-2L143 620a10 10 0 1113-14l213 193a10 10 0 01-7 16z"/><path fill="#B1E160" d="M406 848l20 21"/><path d="M426 879a10 10 0 01-7-3l-20-21a10 10 0 1114-13l20 20a10 10 0 01-7 17z"/><path fill="#B1E160" d="M889 309c-18 53-158 94-327 94s-308-41-328-93c44-48 174-82 328-82 153 0 283 34 327 81z"/><path d="M562 412c-174 0-316-41-337-99a10 10 0 012-10c47-51 181-85 335-85 153 0 287 34 334 84a10 10 0 012 10c-20 58-161 100-336 100zM246 312c23 41 144 81 316 81 173 0 293-41 315-82-47-43-174-73-315-73-142 0-270 30-316 74z"/><path d="M562 412c-174 0-316-41-337-99a45 45 0 01-2-16 115 115 0 013-25 10 10 0 0119 4 97 97 0 00-3 21 26 26 0 001 9c16 43 139 87 319 87s303-44 318-87a25 25 0 001-9 92 92 0 00-2-21 10 10 0 0119-4 111 111 0 012 25 44 44 0 01-2 15c-20 58-161 100-336 100z"/><path fill="#FDFFFC" d="M638 371a10 10 0 01-1-20c72-9 99-29 99-39 0-16-62-39-174-39a10 10 0 010-19c89 0 193 15 193 58 0 39-81 54-116 59a10 10 0 01-1 0z"/><path fill="#FDFFFC" d="M563 352c-55 0-114-12-114-40 0-17 20-27 55-27a10 10 0 010 19c-26 0-35 7-36 8 2 6 33 21 95 21a325 325 0 0036-2 10 10 0 112 19 344 344 0 01-38 2z"/></svg>