<svg xmlns="http://www.w3.org/2000/svg" width="128" height="128" class="icon" viewBox="0 0 1024 1024"><defs/><path fill="#FFB6B6" d="M718 982l-18 1-10-72h26l2 71z"/><path fill="#2F2E41" d="M654 1015a5 5 0 005 5h36s3-12 18-18l1 18h18v-41s1-9-9-17l-4-18-29 3v28l-13 27-20 9a5 5 0 00-3 4z"/><path fill="#FFB6B6" d="M414 983l-18-4 11-72 26 8-19 68z"/><path fill="#2F2E41" d="M343 997a5 5 0 003 6l35 10s7-11 22-12l-4 18 18 5 12-40s4-8-4-19c-8-10 0 0 0 0l1-18-28-5-8 26-21 23-22 2a5 5 0 00-4 4zm291-727h-5l1-4c3-9-3-21-3-30-2 10 1 21-2 30l-2 3-122-7-7-68c0-38 31-69 70-69a70 70 0 0145 16c12 10 21 24 24 40 2 10 13 43 1 89z"/><path fill="#FFB6B6" d="M418 531l12-33 20 4-14 35a12 12 0 11-23 5 12 12 0 015-11zm264 19l-11-34 18-9 11 36a12 12 0 11-16 18 12 12 0 01-2-11zM504 395v58l126-15-35-72-91 29z"/><path fill="#6C63FF" d="M584 236h-47l-15 28h-42s-18 137 6 140l7 2 8 2c-3 3-3 7 0 11-3 2 0 5 3 9l121-11-2-16s16 0 9-19V275l-44-12-4-27z"/><path fill="#6C63FF" d="M617 283l16-8s15 1 22 15 7 114 7 114l32 116-28 16-38-108-11-145zm-119-10l-15-8s-16 1-23 15-7 114-7 114l-32 116 28 16 38-108 11-145z"/><path fill="#2F2E41" d="M623 417l-122 22v59c-2 4-2 9 0 15-5 6-3 15 0 26l-58 167-43 221 32 7 87-198 73-154 98 356 29-2s41-416-96-519z"/><path fill="#FFB6B6" d="M517 189a40 40 0 1079 0 40 40 0 10-79 0z"/><path fill="#2F2E41" d="M610 180v7l-45-12-33 7a35 35 0 00-5-15v16l-22 4v-7a52 52 0 01105 0z"/><path fill="#F2F2F2" d="M843 992c3 0 5-5 3-7l-1-1v-1c4-9 17-8 20 0 4 8 8 16 9 25a32 32 0 01-1 11 129 129 0 0011-68 128 128 0 00-1-11c-5-20-13-39-26-55-6-4-12-9-15-15l-2-8c1 1 3-10 2-11l4-3c5-8 12-6 16 3 8 4 9 11 4 18-4 4-4 10-7 14l1 1a131 131 0 0114 22c-1-8 0-19 3-25 3-8 9-14 14-21 6-7 19-4 20 6l-2 1c-4 3-3 10 2 10v1a55 55 0 01-1 8c6 25-8 35-28 35l-2 1a131 131 0 015 17 132 132 0 013 17l-1 20c2-8 6-15 12-20 9-7 21-9 31-15 4-3 10 1 9 6a37 37 0 00-6 3c-4 3-3 10 2 10h1a55 55 0 01-11 16c-4 23-21 25-40 18a134 134 0 01-9 26h-33v-1h9l-7-9-4-5a53 53 0 012-13z"/><path fill="#CCC" d="M232 1021l2 2h720l2-2-2-2H234l-2 2z"/><path fill="#E6E6E6" d="M110 0C87 0 68 19 68 41v581h4V287C72 131 199 4 356 4l544-1V0H110z"/><path fill="#3F3D56" d="M228 127c0 8-7 15-16 15-8 0-15-7-15-15 0-9 7-16 15-16 9 0 16 7 16 16zm53 0c0 8-7 15-15 15s-16-7-16-15c0-9 7-16 16-16 8 0 15 7 15 16zm53 0c0 8-7 15-15 15-9 0-15-7-15-15 0-9 6-16 15-16s15 7 15 16zm588 509H298a11 11 0 000 22h624a11 11 0 000-22z"/><path fill="#6C63FF" d="M711 636v22H298a11 11 0 010-22h413zM369 576a39 39 0 1078 0 39 39 0 10-78 0z"/><path fill="#FFF" d="M398 596l-2-1a4 4 0 01-2-3v-29l2-3h4l28 16a4 4 0 012 3 4 4 0 01-2 4l-28 12-2 1z"/><path fill="#FF6584" d="M911 588a12 12 0 10-22 8h-1l9 22 20-8a12 12 0 009-16 12 12 0 00-15-6z"/></svg>