<svg xmlns="http://www.w3.org/2000/svg" width="128" height="128" class="icon" viewBox="0 0 1024 1024"><defs/><path fill="#D7E057" d="M361 248c-4 48-55 56-55 56 44 2 55 58 55 58 0-40 55-59 55-59-41-3-55-55-55-55z"/><path fill="#3A312A" d="M417 297c-37-2-50-51-50-51a6 6 0 10-12 1c-4 43-48 50-49 51a6 6 0 000 12c38 1 49 53 49 53a6 6 0 0012-1c0-35 51-53 51-53a6 6 0 00-1-12zm-57 44c-6-14-16-30-32-38 12-6 27-17 34-35 7 13 18 29 36 37-13 7-30 18-38 36z"/><path fill="#D7E057" d="M270 319c-3 34-38 39-38 39 30 2 38 42 38 42 1-29 39-42 39-42-29-2-39-39-39-39z"/><path fill="#3A312A" d="M310 352c-25-2-34-34-34-35a6 6 0 00-6-4 6 6 0 00-6 5c-2 29-32 34-33 34a6 6 0 000 12c26 1 33 36 33 37a6 6 0 0012-1c0-24 35-36 35-37a6 6 0 00-1-11zm-40 28c-4-8-10-17-20-22 8-5 16-11 21-21 5 8 12 17 22 22-8 5-18 12-23 21z"/><path fill="#D7E057" d="M270 207c-3 34-38 40-38 40 30 1 38 41 38 41 1-28 39-42 39-42-29-2-39-39-39-39z"/><path fill="#3A312A" d="M310 240c-25-1-34-34-34-35a6 6 0 10-12 2c-2 28-32 34-33 34a6 6 0 000 12c26 1 33 36 33 36a6 6 0 0012-1c0-24 35-36 35-36a6 6 0 00-1-12zm-40 29c-4-8-10-17-20-23 8-4 16-11 21-21 5 8 12 17 22 23-8 4-18 11-23 21zm-94 549H66a6 6 0 100 12h110a6 6 0 100-12zm782 0H234a6 6 0 000 12 203704 203704 0 00724 0 6 6 0 000-12z"/><path fill="#F16C7A" d="M733 513c-13-7-30-1-37 13l-98 190 48 25 98-190c7-14 2-32-11-38z"/><path fill="#3A312A" d="M751 526a32 32 0 00-41-20c-8 3-15 9-20 17l-98 190a6 6 0 003 8l48 25a6 6 0 008-2l98-190c4-9 5-19 2-28zm-13 22l-95 185-37-19 95-185c3-6 8-10 13-12 6-2 11-2 16 1 5 2 8 6 10 12s1 12-2 18z"/><path fill="#F16C7A" d="M538 736v-31h-59l-41 29 102 14-2-12z"/><path fill="#3A312A" d="M546 745a24 24 0 01-2-9v-31a6 6 0 00-6-6h-59l-4 1-40 29a6 6 0 003 11l101 14a6 6 0 007-9zm-92-15l27-19h51v30l-78-11z"/><path fill="#F16C7A" d="M706 574a84 84 0 00-168 0v162a31 31 0 0031 31h107a31 31 0 0030-31V574z"/><path fill="#3A312A" d="M712 574c0-50-40-90-90-90a90 90 0 00-64 26 90 90 0 00-26 64v162c0 21 17 37 37 37h107a37 37 0 0026-11 37 37 0 0010-26V574zm-19 180a25 25 0 01-17 7H569a25 25 0 01-25-25V574a78 78 0 0123-55 78 78 0 0155-23c43 0 78 35 78 78v162a25 25 0 01-7 18z"/><path fill="#87796F" d="M619 245a55 55 0 10-108 20 55 55 0 00108-20z"/><path fill="#3A312A" d="M625 244a61 61 0 10-120 22 61 61 0 00120-22zm-51 59a49 49 0 01-18-96 49 49 0 019-1 49 49 0 019 97z"/><path fill="#FCE8CB" d="M568 390a126 90 80 10177-32 126 90 80 10-177 32z"/><path fill="#3A312A" d="M751 357c-14-72-67-123-118-113-26 5-47 23-60 51s-17 62-10 96c12 66 57 114 105 114l12-1c26-5 47-23 60-51s17-62 11-96zm-21 91c-12 25-30 40-52 44-45 9-92-38-104-103-6-32-2-64 10-89 11-25 29-40 51-44a59 59 0 0110-1c42 0 83 44 94 104 6 32 2 63-9 89z"/><path fill="#3A312A" d="M739 434c-10 1-18-3-24-11a6 6 0 00-10 7 36 36 0 0035 16 6 6 0 10-1-12z"/><path fill="#F5978A" d="M690 389c-1-7-10-12-20-10s-17 9-16 17c2 7 11 12 21 10s17-9 15-17z"/><path fill="#3A312A" d="M706 343a6 6 0 00-7 5c0 5-5 12-15 13-8 2-14 0-19-7a6 6 0 00-9 7c6 8 14 13 24 13l7-1c14-2 23-14 24-23a6 6 0 00-5-7z"/><path fill="#87796F" d="M712 284a151 151 0 00-15-18c-24-26-55-39-87-33-57 10-91 79-78 153 14 75 71 127 128 116a80 80 0 0012-3c-35-9-67-48-76-99a161 161 0 01-3-39c45-18 86-42 119-77z"/><path fill="#3A312A" d="M717 281a7 7 0 00-1-1 157 157 0 00-14-18c-27-28-61-41-93-35-29 5-54 25-70 56-15 30-19 67-13 105 13 70 65 122 119 122a86 86 0 0029-5c2-1 4-4 4-6a6 6 0 00-5-6c-34-9-63-47-71-94a155 155 0 01-3-34c49-21 87-45 115-75a6 6 0 003-9zm-126 74a6 6 0 00-4 5 167 167 0 003 41c8 43 32 80 62 96-51 5-101-44-114-112-6-34-2-69 12-97 14-27 36-45 61-49 29-5 58 6 82 31a145 145 0 0111 13c-27 29-64 52-113 72z"/><path fill="#FCE8CB" d="M677 766l-39-5-5 59 33 3h22c6-1 17-6 19-22 4-19-10-33-30-35z"/><path fill="#3A312A" d="M707 774c-7-8-17-13-29-14l-40-5a6 6 0 00-6 5l-5 60a6 6 0 005 6l34 3a113 113 0 0024 0c6-2 20-7 23-27 2-10 0-20-6-28zm-5 26c-2 12-9 16-15 17a111 111 0 01-20 0l-28-2 4-48 34 5c9 1 16 4 20 10 4 5 6 11 5 18z"/><path fill="#F16C7A" d="M390 728a36 36 0 00-6 71l249 21 5-59-248-33z"/><path fill="#3A312A" d="M638 755l-248-33a42 42 0 00-7 83l249 21a6 6 0 007-5l5-60a6 6 0 00-6-6zm-11 59l-243-20a30 30 0 015-60l242 32-4 48z"/><path fill="#FCE8CB" d="M343 733l-33 29-32-39a25 25 0 00-35-4 25 25 0 00-3 35l46 56c0 2 1 3 3 4 13 18 28 8 46-5l44-31-36-45z"/><path fill="#3A312A" d="M383 774l-36-45a6 6 0 00-4-2 6 6 0 00-4 2l-28 24-28-34a31 31 0 00-21-11 31 31 0 00-22 6 31 31 0 00-5 44l46 56 3 4c7 9 14 12 21 12 11 0 23-8 34-16l43-32c2-1 3-2 3-4a6 6 0 00-2-4zm-51 30c-21 15-29 19-39 7a28 28 0 01-2-4 6 6 0 00-1-1l-46-56c-6-8-5-20 3-26a19 19 0 0114-4 19 19 0 0113 6l32 40a6 6 0 008 0l28-24 28 34-38 28z"/><path fill="#F16C7A" d="M782 747c-6-8-14-15-22-21-41-31-80-66-119-99l-65-55a40 40 0 00-29-10 39 39 0 00-13 3 39 39 0 00-10 6L343 733l36 45 170-124 11 11 85 85 43 43c13 13 25 30 45 31 18 0 35-10 46-23 12-16 15-37 3-54z"/><path fill="#3A312A" d="M787 744c-6-10-15-17-23-23-29-21-56-45-83-68l-36-31-65-54a46 46 0 00-33-12 45 45 0 00-16 4 45 45 0 00-11 6L339 729a6 6 0 00-1 8l36 44a6 6 0 008 1l166-120 135 136 6 6c12 12 25 25 44 26 19 0 38-10 51-26 14-18 16-42 3-60zm-13 53a54 54 0 01-41 21c-14-1-24-11-35-22a326 326 0 00-6-7L553 650a6 6 0 00-8-1L380 769l-29-35 177-158a33 33 0 0125-8 34 34 0 0116 7l3 2 65 54 36 31 83 69c8 5 16 12 21 19 10 14 9 33-3 47z"/><path fill="#F16C7A" d="M343 733l181-162z"/><path fill="#3A312A" d="M529 567a6 6 0 00-9-1L339 729a6 6 0 00-1 8 6 6 0 009 1l181-163c3-2 3-6 1-8z"/><path fill="#FCE8CB" d="M395 716l-20 40c-8 14-3 31 10 38 14 7 30 1 38-14l20-39-48-25z"/><path fill="#3A312A" d="M446 736l-48-25a6 6 0 00-8 2l-20 40c-5 9-6 19-3 28 3 8 8 14 16 18a31 31 0 0014 4l10-2c9-3 17-9 21-18l20-39a6 6 0 00-2-8zm-29 42c-3 5-8 10-14 12-5 1-10 1-15-1-4-3-8-7-10-12-1-6-1-13 2-18l18-35 37 19-18 35z"/><path fill="#F16C7A" d="M530 513c-13-7-29-1-37 13l-2 5-26 51-70 134 48 25 98-190c7-14 3-32-11-38z"/><path fill="#3A312A" d="M549 526a32 32 0 00-41-20c-9 3-16 9-20 17l-3 6a6 6 0 0011 5l3-5c2-6 7-10 13-12 5-2 11-2 16 1 4 2 8 6 9 12 2 6 2 12-1 18l-96 185-37-19 67-130a6 6 0 00-11-5l-69 134a6 6 0 003 8l47 25a6 6 0 008-2l98-190c5-9 6-19 3-28z"/><path fill="#CE4E61" d="M700 574c0-28-14-52-37-66h-2a85 85 0 01-20 2c20 14 34 37 34 64v74l6 5 19 17v-96zm83 190c-1-5-3-9-6-14-5-7-13-14-21-19l-83-69-36-31-65-54a34 34 0 00-19-9 36 36 0 00-15 2l-2 5 3 2 65 54 36 31c26 23 54 47 83 69 8 5 15 12 21 19a35 35 0 016 14c2 11-1 23-9 33-6 7-14 13-22 17 4 2 9 4 14 4l12-2c11-3 21-10 29-19 8-10 11-22 9-33z"/></svg>