<svg xmlns="http://www.w3.org/2000/svg" width="182.1" height="128" class="icon" viewBox="0 0 1457 1024"><defs/><path fill="red" d="M90 870c87-36 97-114 130-176l65-129c27-51 19-71-35-87-7-2-16-2-19-7-23-33-43-68-71-112 66 35 109 8 148-33 21-21 23-38-1-58-9-7-11-21-19-35 65 0 87-15 107-74 16-47 47-69 96-69h45c80 0 127 76 95 150a458 458 0 00-14 46c-9 28-16 54-47 69-47 22-48 55-8 88l45 37c32 26 33 50 1 78-40 36-49 91-19 132a28 28 0 0025 7 342 342 0 0052-24c69-37 137-77 208-110 44-21 81 8 110 38 37 40 68 87 107 125 63 60 131 116 200 177a175 175 0 01-46 8 410 410 0 01-89-17c-12-5-20-23-30-34-17-20-30-48-52-57-54-23-103-51-142-95s-89-35-127 10c-61 71-121 143-194 199-30 24-94 19-138 7-35-10-54-54-46-97a678 678 0 0125-102c11-33-9-146-37-168a34 34 0 00-34 1 728 728 0 00-51 74c-34 52-69 103-100 156-17 32-28 67-44 105z"/></svg>