<svg xmlns="http://www.w3.org/2000/svg" width="128" height="128" class="icon" viewBox="0 0 1024 1024"><defs/><path fill="#13227a" d="M608 416h288c35 0 64 28 64 64v416c0 35-28 64-64 64H480c-35 0-64-28-64-64V608H128c-35 0-64-28-64-64V128c0-35 28-64 64-64h416c35 0 64 28 64 64v288zm0 64v64c0 35-28 64-64 64h-64v256c0 18 14 32 32 32h352a32 32 0 0032-32V512a32 32 0 00-32-32H608zM128 160v352c0 18 14 32 32 32h352a32 32 0 0032-32V160a32 32 0 00-32-32H160a32 32 0 00-32 32zm64 244V243h113v-67h46c7 1 10 2 10 3a11 11 0 01-1 4c-3 7-4 16-4 26v34h119v157h-51v-21h-68v119h-50V379h-67v25h-47zm47-122v60h67v-60h-67zm185 60v-60h-68v60h68zm204 488h-52l92-254h65l89 254h-55l-19-53H647l-19 53zm33-96h73l-34-108h-2l-37 108zm235-414h-64a128 128 0 00-128-128v-64a192 192 0 01192 192zM128 704h64a128 128 0 00128 128v64a192 192 0 01-192-192z"/></svg>