<svg xmlns="http://www.w3.org/2000/svg" width="128" height="128" class="icon" viewBox="0 0 1024 1024"><defs/><path fill="#FFD500" d="M733 759H351c-31 0-57-25-57-57V320c0-32 26-57 57-57h382c32 0 57 25 57 57v382c0 32-25 57-57 57z"/><path fill="#FFB600" d="M703 263h-43c32 0 57 25 57 57v382c0 32-25 57-57 57h43c32 0 57-25 57-57V320c0-32-25-57-57-57z"/><path fill="#5C3290" d="M576 832H204c-4 0-8-4-8-8s4-8 8-8h372c5 0 8 3 8 8s-3 8-8 8zm308 0h-74c-4 0-8-4-8-8s4-8 8-8h74c5 0 8 3 8 8s-3 8-8 8zm-126 0h-24c-4 0-8-4-8-8s4-8 8-8h24c5 0 8 3 8 8s-3 8-8 8zm-75 0h-72c-4 0-8-4-8-8s4-8 8-8h72c5 0 8 3 8 8s-3 8-8 8zm-519 0h-28c-4 0-8-4-8-8s4-8 8-8h28c5 0 8 3 8 8s-3 8-8 8z"/><path fill="#AD98C7" d="M577 880H393c-4 0-8-4-8-8s4-8 8-8h184c5 0 8 3 8 8s-3 8-8 8zm-210 0h-28c-5 0-8-4-8-8s3-8 8-8h28c4 0 8 3 8 8s-4 8-8 8zm349 0h-98c-5 0-8-4-8-8s3-8 8-8h98c4 0 8 3 8 8s-4 8-8 8zm-405 0h-4c-4 0-8-4-8-8s4-8 8-8h4c4 0 8 3 8 8s-4 8-8 8z"/><path fill="#EEEAF4" d="M479 928h-28c-4 0-8-3-8-8s4-8 8-8h28c4 0 8 4 8 8s-4 8-8 8zm125 0h-98c-5 0-8-3-8-8s3-8 8-8h98c4 0 8 4 8 8s-4 8-8 8zm-181 0h-4c-4 0-8-3-8-8s4-8 8-8h4c5 0 8 4 8 8s-3 8-8 8z"/><path fill="#B6EFFF" d="M164 135l-10 5a12 12 0 11-9 23l1 7a28 28 0 1018-35z"/><path fill="#5C3290" d="M180 154a20 20 0 01-17 26 20 20 0 114-39c2 1 4 0 6-1 3-3 2-9-2-10a32 32 0 00-42 28 32 32 0 1062-8c-1-4-7-5-10-2-2 1-2 4-2 6z"/><path fill="#4CC6F4" d="M697 106a8 8 0 1016 0 8 8 0 10-16 0z"/><path fill="#5C3390" d="M297 152a8 8 0 1016 0 8 8 0 10-16 0z"/><path fill="#FFA819" d="M848 294a10 10 0 1020 0 10 10 0 10-20 0z"/><path fill="#FFE404" d="M564 112c2 2 4 4 4 7 1 6-3 10-8 11-4 1-8-2-10-5v6a16 16 0 1032-4c-1-9-9-16-18-15z"/><path fill="#5C3290" d="M792 178c-12 0-22 10-22 22s10 22 22 22 22-10 22-22-10-22-22-22zm0 30c-4 0-8-4-8-8s4-8 8-8 8 4 8 8-3 8-8 8z"/><path fill="#EEEAF4" d="M82 348a18 18 0 100 36 18 18 0 000-36zm0 24a6 6 0 110-13 6 6 0 110 13z"/><path fill="#AD98C7" d="M910 383h14c2 0 5 2 5 5s-3 5-5 5h-14c-3 0-5-2-5-5s2-5 5-5zm17 26v-14c0-2 2-5 5-5s5 3 5 5v14c0 3-2 5-5 5s-5-2-5-5zm27-17h-14c-3 0-5-3-5-5s2-5 5-5h14c2 0 5 2 5 5 0 2-3 5-5 5zm-18-27v14c0 3-2 5-5 5s-5-2-5-5v-14c0-2 2-5 5-5s5 3 5 5z"/><path fill="#FCDDCC" d="M866 170a5 5 0 1010 0 5 5 0 10-10 0zM902 168a5 5 0 1010 0 5 5 0 10-10 0zM882 154a5 5 0 1010 0 5 5 0 10-9 0zM884 187a5 5 0 1010 0 5 5 0 10-10 0zM867 144l15 14v6c-2 2-4 2-6 0l-15-15v-5c2-2 4-2 6 0zm-6 47l15-15h6v6l-15 15h-6v-6zm49 5l-15-15c-1-2-1-4 1-6h5l15 15c2 2 2 4 0 6s-4 2-6 0zm4-48l-15 14c-1 2-4 2-5 1-2-2-2-5 0-6l15-15c1-2 4-2 5 0 2 2 2 4 0 6z"/><path fill="#7BD721" d="M171 291l-7-7c-2-2-2-4 0-6h5l8 7v6c-2 2-5 2-6 0zm-1 12h-10c-3 0-4-2-4-4s1-4 4-4h10c2 0 4 2 4 4s-2 4-4 4zm7 10l-7 7h-6v-6l8-7c1-2 4-2 5 0 2 1 2 4 0 6zm12 1v10c0 2-1 4-4 4s-4-2-4-4v-10c0-2 2-4 4-4s4 2 4 4zm10-8l7 7c2 2 2 4 0 6s-4 2-6 0l-7-7v-6h6zm1-12h10c2 0 4 2 4 4s-2 4-4 4h-10c-2 0-4-2-4-4s2-4 4-4zm-8-9l7-8h6c2 2 2 4 0 6l-7 7c-2 2-4 2-6 0v-6zm-12-2v-10c0-2 2-4 4-4s4 2 4 4v10c0 3-2 4-4 4s-4-1-4-4z"/><path fill="#5C3290" d="M430 638h75v28H389v-21c13-20 29-36 46-49 25-19 36-32 34-41 0-14-7-21-21-21s-23 9-26 27l-32-7c5-31 26-47 63-47 33 1 50 16 52 44 3 20-9 37-34 53-16 10-30 22-41 34zm129 0h74v28H518v-21c13-20 28-36 46-49 24-19 36-32 34-41-1-14-8-21-21-21-15 0-23 9-27 27l-32-7c6-31 27-47 64-47 32 1 50 16 52 44 3 20-9 37-35 53-15 10-29 22-40 34z"/><path fill="#04B1FF" d="M790 424H294V320c0-32 26-57 57-57h382c32 0 57 25 57 57v104z"/><path fill="#0291F1" d="M703 263h-43c31 0 57 25 57 57v104h43V320c0-32-25-57-57-57z"/><path fill="#EF8686" d="M416 343c-19 0-34-15-34-34v-76a34 34 0 0168 0v76c0 19-15 34-34 34z"/><path fill="#E26060" d="M416 199l-12 2c13 5 22 17 22 32v76c0 15-9 27-22 32l12 2c19 0 34-15 34-34v-76c0-19-15-34-34-34z"/><path fill="#EF8686" d="M607 343c-18 0-34-15-34-34v-76a34 34 0 0168 0v76c0 19-15 34-34 34z"/><path fill="#E26060" d="M607 199l-12 2c13 5 23 17 23 32v76c0 15-10 27-23 32l12 2c19 0 34-15 34-34v-76c0-19-15-34-34-34z"/></svg>