<svg xmlns="http://www.w3.org/2000/svg" width="128" height="128" class="icon" viewBox="0 0 1024 1024"><defs/><path fill="#54C0EB" d="M7 512a505 505 0 101010 0A505 505 0 107 512z"/><path fill="#324A5E" d="M177 308h391v23H177zm282 415h-79l-19-67h117z"/><path fill="#2B3B4E" d="M470 685l8-29H361l8 29z"/><path fill="#324A5E" d="M632 662H207c-3 0-6-2-6-5V413c0-4 3-6 6-6h425c3 0 6 2 6 6v244c0 3-3 5-6 5z"/><path fill="#FFF" d="M220 425h399v204H220z"/><path fill="#E6E9EE" d="M619 425L220 629h399z"/><path fill="#2B3B4E" d="M480 737H359v-20c0-2 1-3 3-3h115c2 0 3 1 3 3v20z"/><path fill="#CC8B3E" d="M653 779v218l-10 3a503 503 0 01-448-95l-9-7V779h467z"/><path fill="#FFD05B" d="M886 791H138c-2 0-3-2-3-3v-51c0-1 1-3 3-3h748c2 0 3 2 3 3v51c0 1-1 3-3 3z"/><path fill="#F9B54C" d="M868 791v79a493 493 0 01-225 130V791h225zm-673 0v114l-9-7-22-20v-87h31z"/><path fill="#FFD05B" d="M665 813h180v73H665zm159 96c-38 30-81 55-127 73h-32v-73h159z"/><path fill="#FF7058" d="M783 836h-55c-3 0-5-2-5-5s2-5 5-5h55c2 0 5 2 5 5s-3 5-5 5zm0 96h-55c-3 0-5-2-5-5s2-5 5-5h55c2 0 5 3 5 5s-3 5-5 5z"/><path fill="#324A5E" d="M600 206a90 90 0 10180 0 90 90 0 10-180 0z"/><path fill="#FFF" d="M617 206a73 73 0 10146 0 73 73 0 10-146 0z"/><path fill="#ACB3BA" d="M688 141h4v11h-4zm0 119h4v11h-4zm56-56h11v4h-11zm-119 0h10v4h-10zm109-46l3 4-7 7-3-3zm-84 85l3 3-7 7-4-3zm87 7l-3 3-7-7 3-3zm-84-84l-3 3-8-7 4-4z"/><path fill="#84DBFF" d="M690 206v-40"/><path fill="#324A5E" d="M690 209c-2 0-3-1-3-3v-40c0-1 1-3 3-3s3 2 3 3v40c0 2-1 3-3 3z"/><path fill="#84DBFF" d="M690 206l23 23"/><path fill="#324A5E" d="M713 232h-2l-23-24c-2-1-2-3 0-4h4l23 23c2 1 2 3 0 5h-2z"/><path fill="#FF7058" d="M677 206a13 13 0 1026 0 13 13 0 10-26 0z"/><path fill="#FFF" d="M284 308h-39l-1-2V176l1-1h39l1 1v130l-1 2z"/><path fill="#FF7058" d="M249 186h31v71h-31z"/><path fill="#E6E9EE" d="M255 286a9 9 0 1019 0 9 9 0 10-19 0z"/><path fill="#FFF" d="M330 308h-39l-1-2V176l1-1h39l1 1v130l-1 2z"/><path fill="#FFD05B" d="M295 186h31v71h-31z"/><path fill="#E6E9EE" d="M301 286a9 9 0 1019 0 9 9 0 10-19 0z"/><path fill="#FFF" d="M394 302l-39 5-1-1-19-129 1-1 39-6 1 1 19 129-1 2z"/><path fill="#84DBFF" d="M342 187l31-5 10 70-31 5z"/><path fill="#E6E9EE" d="M362 283a9 9 0 1019 0 9 9 0 10-19 0z"/><path fill="#2B3B4E" d="M849 573l-92 149v1h42l63-144-13-7 14-14-111-91-4 4 100 103z"/><path fill="#324A5E" d="M850 733H714v-20l3-3h130l3 3v20z"/><path fill="#FFF" d="M835 566a20 20 0 1040 0 20 20 0 10-40 0z"/><path fill="#FF7058" d="M845 566a10 10 0 1020 0 10 10 0 10-20 0z"/><path fill="#FFF" d="M698 513a19 19 0 1038 0 19 19 0 10-38 0z"/><path fill="#F1543F" d="M750 500l-23-23 21-22a16 16 0 0124 23l-22 22z"/><path fill="#FF7058" d="M745 544l4-3a42 42 0 10-64-55l60 58z"/></svg>