<svg xmlns="http://www.w3.org/2000/svg" width="128" height="128" class="icon" viewBox="0 0 1024 1024"><defs/><path fill="#1296db" d="M505 234c140 0 252 115 252 257 0 87-45 169-117 216-31 20-54 56-56 94l-7 50v2c0 11-11 20-22 20H453c-11 0-20-9-22-20v-2l-5-52c-2-38-24-74-56-94a257 257 0 01119-473c5 2 9 2 16 2m0-54h-20a309 309 0 00-144 567c18 12 31 32 34 54l4 54c2 39 36 70 74 70h104c38 0 72-29 74-70l5-54c2-22 13-42 31-54 86-54 142-151 142-261 0-166-135-306-304-306zM571 952c9 0 13 11 9 18a97 97 0 01-75 39c-31 0-58-16-74-39-5-7 0-18 9-18h131z"/><path fill="#1296db" d="M613 425c-6-51-51-90-108-90h-13c-30 5-54 18-72 41-18 22-27 49-23 79 2 11 14 22 25 22h2c7 0 14-4 16-9 4-4 7-11 4-18-2-13 3-29 12-40 9-12 24-21 40-23 34-4 63 18 66 47 2 21-7 39-23 50 0 0-2 0-2 2l-11 7c-5 2-9 7-14 9-29 22-45 58-41 94 3 14 12 23 25 23h2c7 0 14-4 16-9 5-5 7-11 5-18-2-18 4-36 20-50l9-6c2-3 5-3 9-5l9-4c36-27 52-63 47-102zM496 637c-11 0-20 5-29 14-7 9-11 18-11 29 2 22 20 38 40 38h2c12 0 21-4 30-13 7-9 11-18 11-30-2-20-20-38-43-38zM510 115h-12c-20 0-36-16-36-36V34c0-21 16-36 36-36h12c20 0 36 15 36 36v45c0 20-16 36-36 36zM773 229l-7-9a35 35 0 010-49l32-32c13-13 36-13 49 0l9 9c14 14 14 36 0 50l-31 31c-16 14-38 14-52 0zM879 495v-11c0-20 16-36 36-36h45c20 0 36 16 36 36v11c0 20-16 36-36 36h-45c-20 0-36-16-36-36zM129 484v11c0 20-16 36-36 36H48c-20 0-36-16-36-36v-11c0-20 16-36 36-36h45c20 0 36 16 36 36zM244 220l-9 9a35 35 0 01-49 0l-32-31a35 35 0 010-50l9-9c14-13 36-13 50 0l31 32c14 13 14 36 0 49z"/></svg>