<svg xmlns="http://www.w3.org/2000/svg" width="128" height="128" class="icon" viewBox="0 0 1024 1024"><defs/><path fill="#FFCC67" d="M891 628c0-220-47-458-379-458-337 0-379 238-379 458s168 396 379 396c209 0 379-177 379-396"/><path fill="#666766" d="M646 807c-25-56-74-94-132-94s-104 38-132 94c-6 12 4 27 17 27 9 0 15-4 17-10 19-43 56-73 96-73s77 28 96 73c2 6 11 10 17 10 17 0 25-15 21-27M467 532c0 47-36 83-83 83s-83-36-83-83 36-83 83-83 83 38 83 83m258 0c0 47-36 83-83 83s-83-36-83-83 36-83 83-83 83 38 83 83"/><path fill="#666766" d="M685 57c10-21 36-28 72-34 0 0-79-22-128 21-15 0-28 0-40-2 21-15 49-28 87-41 0 0-143-12-177 39-27 2-55 4-83 8-530 73-260 720-260 720-70-511 160-466 160-466 77 162 303 74 303 74-241-78-107-144-107-144 460-109 364 502 364 502 120-353 66-611-191-677"/><path fill="#55B3E5" d="M727 615s-10 115 9 147 59 43 91 23c32-19 43-59 24-91s-124-79-124-79m-426 0s11 115-8 147-60 43-92 23a66 66 0 01-23-91c17-32 123-79 123-79"/></svg>