<svg xmlns="http://www.w3.org/2000/svg" width="128" height="128" class="icon" viewBox="0 0 1024 1024"><defs/><path fill="#FC6" d="M466 102c-36 1-66 9-92 16l-62 15c-5 2-19 6-38 7h-11c-24-1-38-26-53-38-13-10-38-18-87-5a509 509 0 0021 34c20 28 29 35 31 50 3 21-11 39-15 44-19 27-25 145 10 488-5-66-19-271 50-294 4-2 14-5 47 7 97 35 172 108 244 137 9 3 25 9 44 6 23-4 38-19 45-28 86-90 108-123 151-134 9-3 28-9 50-5 58 12 102 88 115 193 3 18 47-233-90-391a373 373 0 00-39-39 205 205 0 007-37c2-25 3-80-13-84-24-7-82 93-120 99l-13 1c-18-1-30-11-39-16-8-5-24-9-56-15-27-6-53-11-87-11z"/><path d="M681 600c-29 15-77 18-113 9-21-6-28-6-40 2-8 6-32 13-52 16-30 5-44 4-68-3s-30-8-27-2c9 23 111 29 214 12 55-8 112-29 115-41 3-9-4-7-29 7zm69 138c-7 4-12 8-11 11 2 3 1 4-18 0-20-3-45 3-51 12-4 7-6 6-10 1s-10-6-23-4c-10 2-17 6-16 8s-1 7-6 11c-5 6-5 9-1 10 5 1 4 3 0 4-3 1-19 13-35 27l-32 25c-1 0-1-3 2-5 2-2-3-2-12-1-22 5-54 1-75-11-16-9-24-10-45-7-36 5-43-5-14-21 23-12 22-14-4-8-10 2-20 3-22 2-6-3-6 7 0 12a264 264 0 00-101-5c-13 1-51-8-50-12 1-3-4-8-11-13-7-4-17-15-23-25-11-17-21-20-20-6 1 5 3 8 6 7 2-1 2 3-1 8s-3 10 0 10c3 1 5 5 4 9-3 9-1 10 15 7 13-2 13-2 1 3s-13 6-2 21c6 9 13 16 16 14 3-1 4 1 3 5-2 3 0 8 6 10s7 2 6-1c0-3 2-7 5-8 5-2 5-5 0-12-8-9-8-10 2-5 7 4 8 8 3 20-3 8-3 17-1 19 7 8 51 27 50 22-1-2 3-4 9-4s9 2 7 3c-4 4 76 25 86 22 4-2 6 0 6 2-1 3 20 11 48 18 27 8 49 12 50 11 1-10 4-12 6-5 4 14 38 21 55 12 8-5 14-11 13-14-1-4 0-5 4-3 3 1 7-1 8-5 1-5 5-8 9-5 5 1 14 0 21-4 13-6 14-8 8-15-5-7-5-8 3-12 9-4 10-4 5 3-3 4-3 8 0 9 8 2 48-19 51-27 1-4 4-6 6-6 3 1 6-2 7-6s5-6 8-6c2 1 2 4 0 7-3 3 0 2 7-1 14-7 20-12 9-9-3 1-5 0-4-3 0-3 5-5 10-4 15 1-9-23-35-35-23-11-23-12 2-7 7 1 13 4 12 6 0 2 3 5 7 6 5 2 13 9 19 16l11 13 13-8c17-11 24-21 19-30-4-6-3-6 3-2 5 4 6 9 3 13-4 5-3 6 5 2 12-5 33-28 31-33-1-2-3-1-4 2-1 4-4 6-6 5-2 0-3-4-2-8s3-7 5-6c13 5 17 3 11-6-9-16-44-28-61-20zm198-140c-5 1-9 5-10 9-1 6-1 6-3-1-1-7-3-9-11-7-13 1-19 10-9 11 5 1 5 1-3 3-7 2-11 7-15 18-8 18-8 18-13 25-1 2-1 4 3 4 2 1 5 4 4 7 0 4-2 4-4 2-5-6-28 10-34 22-2 4-5 8-7 7-2 0-15 4-29 10-26 10-30 17-11 15 8-1 9 0 3 2-3 1-5 5-3 6 7 8 9 11 14 22 5 10 6 11 11 5 3-4 9-11 15-15 8-5 8-7 1-10-9-3-9-3 1-2 16 1 22-11 9-16-11-4-11-5 3-3 9 1 13-1 12-5-3-7 10-16 16-10 11 11 20 13 36 8 22-7 40-34 28-43-4-3-8-10-10-14-2-7 0-6 7 2 9 11 9 11 11 0 1-6-2-17-8-24-10-12-10-19 1-18 8 0 13-6 8-10h-13zm-14 31c3 6 3 8-1 5-3-2-8-8-9-13-4-10 3-6 10 8zm-7 39c-9 2-19 8-24 12-7 7-17 9-24 3-2-1-1-3 3-2 4 0 11-3 17-7 7-5 8-9 3-18-6-11-6-10 5-1 12 11 25 7 16-5-4-4-1-3 6 3l13 10-15 5zm-9 36c-1 1-5-1-10-5-4-3-6-7-2-8 4-2 15 10 12 13zm-83 32c-1 2-4 2-7 2-3-1-5-3-3-5s5-3 7-1c3 2 4 4 3 4zM505 439c-51 19-52 58-2 84 21 11 32 10 55-3 30-18 43-63 23-77a92 92 0 00-76-4zm11 23c-1 6-18 15-21 10-4-6 7-17 15-16 4 1 7 4 6 6zM236 330c-17 14-20 36-5 42 8 3 11 1 17-11 6-15 8-16 22-9 26 12 29 12 33 1 5-13-9-24-37-30-12-3-20-1-30 7zm482-34c-15-2-17-1-21 12-3 13-5 15-14 10-7-3-11-2-15 7-5 11-4 13 13 21 26 13 50 4 60-21 8-19 4-24-23-29z"/><path fill="#F69" d="M519 636c-4 7 0 10 2 34 2 25-3 28 3 38 6 12 23 26 42 24 23-3 32-29 33-32 2-5 1-14 0-32-1-19-2-28-5-32-14-17-64-16-75 0z"/><path fill="#FFF" d="M671 225c-13 8-25 24-21 36 7 20 55 31 72 10 8-10 9-29 0-41-12-15-36-14-51-5zm-441 16c-9 8-18 26-10 41 7 13 23 17 36 15 17-3 25-18 26-21 5-11 6-30-6-40-13-12-34-6-46 5z"/></svg>