<svg xmlns="http://www.w3.org/2000/svg" width="136.8" height="128" class="icon" viewBox="0 0 1094 1024"><defs/><path fill="#96DDFF" d="M629 875l286 47c20 3 38-10 41-29l122-754c3-19-10-37-29-41L544 17c-20-3-38 10-41 29l-9 54"/><path fill="#333" d="M921 938h-8l-287-47a16 16 0 115-32l287 47c10 1 20-6 22-16l122-754c1-10-6-20-16-22L541 33c-10-2-20 5-22 15l-9 55a16 16 0 11-32-5l9-55c5-28 31-47 59-42l505 81c28 5 47 31 43 59L972 895c-4 25-26 43-51 43z"/><path fill="#333" d="M818 852l-2-1-142-23a16 16 0 115-32l127 21c13-37 48-62 88-63l81-502a94 94 0 01-63-87l-223-36a16 16 0 116-32l237 38a16 16 0 0113 19c-5 33 17 65 51 70 9 2 15 10 13 19l-86 531c-1 9-10 15-18 13-34-5-65 18-71 51-1 8-8 14-16 14z"/><path fill="#FFF" d="M642 630a189 189 0 00234-17c10-8 2-23-10-20a109 109 0 1132-199c10 7 22-4 16-15a190 190 0 00-255-74s-30 14-81 72"/><path fill="#333" d="M749 679a209 209 0 01-116-36 16 16 0 0118-27 173 173 0 00202-5 125 125 0 01-91-222 125 125 0 01130-16 172 172 0 00-225-54h-1c-1 1-29 16-76 69a16 16 0 11-25-22c51-56 83-74 87-76a204 204 0 01213 11c26 18 48 42 64 70 6 11 4 25-5 34-10 9-24 10-35 3a92 92 0 00-34-12 93 93 0 107 181c13-3 25 3 31 14 6 12 4 25-6 34-38 35-87 54-138 54zm121-70zm30-222zm6-6z"/><path fill="#F6716F" d="M674 928l-486 79c-24 4-47-12-51-37L17 236c-4-25 12-48 37-52l486-79c24-4 47 12 51 37l120 734c4 25-12 48-37 52z"/><path fill="#333" d="M181 1024a60 60 0 01-60-51L1 238a61 61 0 0150-70l486-79a61 61 0 0170 50l120 735a61 61 0 01-50 70l-3-16 3 16-486 79-10 1zm366-904l-5 1-486 79a28 28 0 00-23 33l120 735a28 28 0 0033 23l486-79a28 28 0 0023-33L575 144a28 28 0 00-28-24z"/><path fill="#FFF" d="M578 521s-66 133-195 154-232-84-232-84 65-133 194-154 233 84 233 84z"/><path fill="#333" d="M349 694c-45 0-92-13-138-39-44-25-71-52-72-53a16 16 0 01-3-18c1-2 18-36 51-73 45-49 99-81 155-90s117 3 175 36c44 25 71 52 72 53a16 16 0 013 18c-1 2-18 36-51 73-45 50-99 81-155 90-12 2-24 3-37 3zM171 588c10 9 30 25 56 39 53 29 104 40 154 32 49-8 95-35 135-79 20-22 34-43 41-56-10-9-30-25-56-39-53-29-104-40-154-32-49 8-95 35-135 79-20 22-34 43-41 56z"/><path fill="#96DDFF" d="M279 641a120 120 0 10170-170 120 120 0 10-170 170z"/><path fill="#333" d="M364 693a136 136 0 01-135-115 136 136 0 01113-157 136 136 0 01157 113 136 136 0 01-113 157l-22 2zm0-241a105 105 0 00-85 43 104 104 0 0024 146 104 104 0 00146-24 104 104 0 00-24-146c-18-13-39-19-61-19z"/><path fill="#FFF" d="M336 584a39 39 0 1056-56 39 39 0 10-56 56z"/><path fill="#333" d="M364 612a55 55 0 01-55-47 55 55 0 0146-64 55 55 0 0164 46 55 55 0 01-55 65zm0-79a23 23 0 100 46 23 23 0 000-46z"/><path fill="#FFF" d="M337 393l-31-192"/><path fill="#333" d="M337 409c-8 0-14-6-16-14l-31-192a16 16 0 0132-5l31 192a16 16 0 01-16 19z"/><path fill="#FFF" d="M287 406L182 221"/><path fill="#333" d="M287 422c-6 0-11-3-14-8L168 229a16 16 0 1129-16l104 185a16 16 0 01-14 24z"/><path fill="#FFF" d="M235 432L80 276"/><path fill="#333" d="M235 448a16 16 0 01-11-4L69 287a16 16 0 0123-22l155 156c6 6 6 16 0 23a16 16 0 01-12 4z"/><path fill="#FFF" d="M185 471l-80-45"/><path fill="#333" d="M185 488l-7-2-81-46a16 16 0 0116-28l80 45a16 16 0 01-8 31z"/><path fill="#FFF" d="M390 389l39-209"/><path fill="#333" d="M390 406l-3-1c-9-1-15-10-13-19l39-209a16 16 0 0132 7l-40 208c-1 8-8 14-15 14z"/><path fill="#FFF" d="M446 398l98-198"/><path fill="#333" d="M446 414a16 16 0 01-14-23l97-198a16 16 0 0129 15l-97 197c-3 6-9 9-15 9z"/><path fill="#FFF" d="M506 419l62-68"/><path fill="#333" d="M506 435a16 16 0 01-12-27l62-68a16 16 0 0124 22l-62 68c-3 3-7 5-12 5z"/><path fill="#FFF" d="M391 720l31 191"/><path fill="#333" d="M422 928c-8 0-15-6-16-14l-31-192a16 16 0 0132-5l31 192a16 16 0 01-16 19z"/><path fill="#FFF" d="M338 723l-39 209"/><path fill="#333" d="M299 948l-3-1c-9-1-15-10-13-18l40-209a16 16 0 0131 6l-39 209c-2 7-9 13-16 13z"/><path fill="#FFF" d="M282 714l-98 198"/><path fill="#333" d="M184 928a16 16 0 01-14-23l97-198a16 16 0 0129 14l-97 198c-3 6-9 9-15 9z"/><path fill="#FFF" d="M222 693l-62 68"/><path fill="#333" d="M160 778a16 16 0 01-12-27l62-69a16 16 0 0124 22l-62 68c-3 4-8 6-12 6z"/><path fill="#FFF" d="M441 706l105 185"/><path fill="#333" d="M546 907c-6 0-12-3-15-8L427 714a16 16 0 1128-16l105 185a16 16 0 01-14 24z"/><path fill="#FFF" d="M493 680l155 156"/><path fill="#333" d="M648 852a16 16 0 01-12-5L481 691a16 16 0 0123-23l155 157c6 6 6 16 0 22a16 16 0 01-11 5z"/><path fill="#FFF" d="M543 641l80 45"/><path fill="#333" d="M623 702l-8-2-80-45a16 16 0 0116-28l80 45a16 16 0 01-8 30z"/></svg>