<svg xmlns="http://www.w3.org/2000/svg" width="128" height="128" class="icon" viewBox="0 0 1024 1024"><defs/><path fill="#5FCEFF" d="M974 225v569H48V225h926zM134 708h335a168 168 0 00-335 0zm280-285a112 112 0 10-225 0 112 112 0 00225 0z"/><path fill="#FFB578" d="M469 708H134a168 168 0 11335 0zM301 311a112 112 0 110 225 112 112 0 010-225z"/><path fill="#4F46A3" d="M974 816H48a22 22 0 01-22-22V225a22 22 0 0122-23h926a22 22 0 0123 23v569a22 22 0 01-23 22zM70 771h882V247H70v524z"/><path fill="#4F46A3" d="M301 558a135 135 0 111-270 135 135 0 01-1 270zm0-225a90 90 0 100 181 90 90 0 000-181z"/><path fill="#4F46A3" d="M469 731a22 22 0 01-22-23 145 145 0 00-291 0 22 22 0 11-45 0 190 190 0 01380 0c0 13-10 23-22 23zm420-334H570a22 22 0 110-45h319a22 22 0 110 45zm0 138H570a22 22 0 110-45h319a22 22 0 110 45zm0 137H570a22 22 0 110-45h319a22 22 0 110 45z"/></svg>