<svg xmlns="http://www.w3.org/2000/svg" width="129.3" height="128" class="icon" viewBox="0 0 1034 1024"><defs/><path fill="#F38989" d="M257 764a36 36 0 00-36 36 36 36 0 1072 0 36 36 0 00-36-36zm197-505c-52 0-102 20-139 57-74 75-76 198-3 275l17 17 278-278-18-17a195 195 0 00-135-54zM331 539c-39-58-33-138 18-189a147 147 0 01105-44c30 0 59 9 84 26L331 539zM792 77l-81 81a390 390 0 00-535 19 395 395 0 00-18 536l-79 79 180 180 713-714L792 77zM146 792l78-79-17-16a344 344 0 01-21-24l59-42-27-39-59 42a343 343 0 01-31-67l28-7-12-46-28 7a351 351 0 01-6-71l65 6 5-48-67-5c4-25 10-49 19-72l27 13 20-43-27-13a341 341 0 0143-61l47 48 34-34-48-47a345 345 0 0159-41l13 27 43-20-13-27a342 342 0 0172-19l5 66 48-4-6-66h5c23 0 45 2 66 6l-7 29 45 12 8-29a341 341 0 0169 33l-34 48 39 27 33-48a352 352 0 0122 20l17 17 80-80 113 113-646 647-113-113z"/></svg>