<svg xmlns="http://www.w3.org/2000/svg" width="128" height="128" class="icon" viewBox="0 0 1024 1024"><defs/><path fill="#FF6A48" d="M0 513a511 511 0 101022 0A511 511 0 100 513z"/><path fill="#FF6A48" d="M443 838c-166 0-334-110-334-318 0-168 113-276 302-289l212 3c148 0 297 89 297 286 0 178-149 318-339 318H443z"/><path fill="#7F0518" d="M411 241l213 3c142 0 286 85 286 276 0 151-123 308-329 308H443c-98 0-181-32-240-93-54-56-84-133-84-215 0-162 109-266 292-279m0-19C214 235 99 347 99 520c0 172 126 327 344 327h138c205 0 349-155 349-327 0-192-140-295-306-295l-213-3z"/><path fill="#FFF" d="M875 363c0 90-161 162-360 162s-361-72-361-162 161-163 361-163 360 73 360 163z"/><path fill="#7F0518" d="M515 535c-208 0-371-76-371-172s163-173 371-173 370 76 370 173-163 172-370 172zm0-326c-191 0-352 71-352 154s161 153 352 153c190 0 351-70 351-153S705 209 515 209z"/><path fill="#FFC831" d="M866 328c-19 82-169 146-351 146s-333-64-352-146c-6 12-9 24-9 37 0 90 161 163 361 163 199 0 360-73 360-163 0-13-3-25-9-37z"/><path fill="#7F0518" d="M515 537c-208 0-371-76-371-172 0-14 3-28 10-41a10 10 0 0119 2c17 77 167 138 342 138s324-61 342-138c1-4 4-7 8-8 4 0 8 2 10 6 7 13 10 27 10 41 0 96-163 172-370 172zM164 357l-1 8c0 83 161 153 352 153 190 0 351-70 351-153l-1-8c-42 74-184 126-350 126-167 0-309-52-351-126z"/><path fill="#7F0518" d="M533 501a18 18 0 11-36 0 18 18 0 0136 0zM394 486a18 18 0 11-36 0 18 18 0 0136 0zm-117-29c-2 9-11 13-21 11-10-3-16-11-14-20 3-8 12-13 22-11 9 3 15 12 13 20zm-82-51c-4 5-12 5-18 0-7-5-9-13-5-18s12-5 18 0c7 5 9 13 5 18zM635 486a18 18 0 1035 0 18 18 0 00-35 0zm116-29c2 9 12 13 22 11 9-3 15-11 13-20-2-8-12-13-21-11-10 3-16 12-14 20zm83-51c3 5 12 5 18 0s8-13 4-18-12-5-18 0-8 13-4 18z"/><path fill="#FFC831" d="M513 657a34 34 0 110-67 34 34 0 010 67z"/><path fill="#7F0518" d="M513 599c13 0 24 11 24 24s-11 24-24 24-24-11-24-24 11-24 24-24m0-19a43 43 0 100 87 43 43 0 000-87z"/><path fill="#FFC831" d="M513 870c-73 0-132-59-132-132 0-54 22-95 61-117 7-3 15-1 18 6 4 6 1 14-5 18-31 16-48 49-48 93a106 106 0 00212 0c0-39-17-69-49-90a13 13 0 0115-22c39 25 60 64 60 112 0 73-59 132-132 132z"/><path fill="#7F0518" d="M513 879c-78 0-142-63-142-141 0-58 24-102 67-125a23 23 0 0133 27c-2 6-6 10-11 13-28 15-43 45-43 85a96 96 0 00192 0c0-35-15-63-44-82-10-7-13-21-6-32 6-10 21-13 31-6 43 27 65 69 65 120 0 78-64 141-142 141zm-64-249h-2c-36 20-56 58-56 108a122 122 0 00244 0c0-45-19-80-55-104-2-1-4-1-5 1s-1 4 1 5c35 22 52 55 52 98a115 115 0 01-230 0c0-48 18-84 52-102 2-1 2-3 2-5l-3-1z"/><path fill="#FFC831" d="M248 560a30 30 0 11-54-26l149-313a30 30 0 1154 26L248 560z"/><path fill="#7F0518" d="M221 587a40 40 0 01-36-57l149-313c4-10 13-17 23-21 10-3 20-3 30 2 20 9 28 33 19 53L257 564a39 39 0 01-36 23zm149-374l-7 2c-5 1-9 5-11 10L203 538a20 20 0 0036 18l149-314a20 20 0 00-18-29z"/><path fill="#EE3E2B" d="M335 235l-52 58 38-8 11 31 29-14 18 37 9-80-53-24z"/><path fill="#7F0518" d="M379 348c-3 0-7-2-8-5l-14-28-21 10h-7c-3-1-5-3-6-6l-9-23-29 6c-4 1-9-1-11-5s-1-8 1-11l53-58c3-3 7-4 11-2l53 25c4 1 6 5 5 9l-8 80c-1 4-4 7-8 8h-2zm-18-56c3 0 7 2 9 6l3 7 4-40-40-19-27 31 9-2c4-1 9 2 11 6l7 21 19-9 5-1z"/><path fill="#EE3E2B" d="M435 230a57 57 0 11-103-49 57 57 0 01103 49z"/><path fill="#7F0518" d="M383 272a67 67 0 111-134 67 67 0 01-1 134zm1-114a47 47 0 10-1 95 47 47 0 001-95zm51 72z"/><path fill="#FFC831" d="M749 560a30 30 0 1054-26L654 221a30 30 0 10-54 26l149 313z"/><path fill="#7F0518" d="M776 587c-4 0-9-1-13-3-10-3-18-10-23-20L591 251a40 40 0 0172-34l149 313a40 40 0 01-36 57zM627 213l-8 2c-10 5-15 17-10 27l149 314c2 4 6 8 11 10a20 20 0 0025-28L646 225a20 20 0 00-19-12z"/><path fill="#EE3E2B" d="M662 235l53 58-38-8-12 31-29-14-18 37-9-80 53-24z"/><path fill="#7F0518" d="M618 348h-2c-4-1-7-4-8-9l-8-79c-1-4 2-8 5-9l53-25c4-2 8-1 11 2l53 58a10 10 0 01-10 16l-29-6-9 23a10 10 0 01-13 6l-20-10-14 28a10 10 0 01-9 5zm2-83l4 40 4-7c2-5 8-7 13-5l19 10 7-22c2-4 7-7 11-6l9 2-27-30-40 18z"/><path fill="#EE3E2B" d="M562 230a57 57 0 10103-49 57 57 0 00-103 49z"/><path fill="#7F0518" d="M614 272a66 66 0 01-61-38c-15-33-1-73 32-89a67 67 0 0157 121c-9 4-18 6-28 6zm-43-47a47 47 0 0063 23 48 48 0 00-41-86 48 48 0 00-22 63z"/></svg>