<svg xmlns="http://www.w3.org/2000/svg" width="186.4" height="128" class="icon" viewBox="0 0 1491 1024"><defs/><path fill="#66C6FE" d="M1228 466l-121-277A483 483 0 00838 36v952a485 485 0 00390-522z"/><path fill="#99D9FF" d="M1038 189A386 386 0 00837 40l-183-4a480 480 0 00-185 78L268 435a485 485 0 00-6 77c0 24 2 47 5 70l125 261c69 74 160 126 262 145l183-4c173-51 301-243 301-472l-100-323z"/><path fill="#84B044" d="M1107 189h-69l100 323h44a46 46 0 0046-46 484 484 0 00-121-277z"/><path fill="#A2C352" d="M1138 512h-85v-80H746v-95h92a46 46 0 0146-47h31V189h123c62 86 100 199 100 323zm-223 15v293H807c-33 0-61-28-61-62V651h-31a62 62 0 01-61-62 62 62 0 0161-62h200z"/><path fill="#CCECFF" d="M837 984l-86 13a485 485 0 0087-9 67 67 0 00-1-4zM751 27l86 13 1-4a482 482 0 00-87-9z"/><path fill="#FFF" d="M837 40a92 92 0 01-183-4 483 483 0 0197-9c30 1 58 5 86 13zm-91 865c46 0 85 34 91 79a322 322 0 01-86 13h-5a485 485 0 01-92-9c4-47 44-83 92-83z"/><path fill="#A2C352" d="M316 558a61 61 0 00-49 24 483 483 0 00125 261l69-83c21-26 39-76 39-109v-93H316zm153-444v321H268c21-133 96-247 201-321z"/><path fill="#99D9FF" d="M24 202v64a95 95 0 0047 82v601a48 48 0 0048 48 48 48 0 0048-48V348a95 95 0 0047-82v-64H24z"/><path fill="#66C6FE" d="M1468 544v95l-48 88-47-88V496z"/><path fill="#99D9FF" d="M1468 639v310a48 48 0 01-48 48 48 48 0 01-47-48V639h95zm-71-612a71 71 0 00-72 72v373a71 71 0 0072 72h71V99a71 71 0 00-71-72z"/><path d="M746 3a509 509 0 102 1018A509 509 0 00746 3zm307 405H770v-48h68c13 0 24-10 24-23s10-23 22-23h31c13 0 24-10 24-24v-77h157a460 460 0 01108 254 22 22 0 01-22 21h-105v-56a24 24 0 00-24-24zM808 55a68 68 0 01-62 41 68 68 0 01-63-41 462 462 0 0163-4c21 0 42 1 62 4zM446 163v248H297c22-98 75-184 148-248zm-54 643a460 460 0 01-100-216 37 37 0 0124-8h160v69c0 28-15 72-33 94l-51 61zm292 163a68 68 0 0162-41 68 68 0 0162 41 462 462 0 01-125 0zm172-9a115 115 0 00-110-79 115 115 0 00-110 79 460 460 0 01-212-118l55-67c25-30 45-85 45-124v-93a24 24 0 00-24-24H316c-10 0-20 2-30 5a465 465 0 010-27c0-18 1-36 3-53h156v7a24 24 0 1048 0V127a457 457 0 01143-63 115 115 0 00110 79 115 115 0 00110-79 459 459 0 01192 101H869a24 24 0 000 48h22v54h-7a70 70 0 00-66 46h-72c-13 0-24 10-24 24v71h-38a24 24 0 000 48h253v48H715a85 85 0 000 170h7v84c0 47 38 86 85 86h108c13 0 24-11 24-24v-99a24 24 0 00-24-23c-13 0-24 10-24 23v75h-84a38 38 0 01-37-38V651a24 24 0 00-24-24h-31a38 38 0 010-76h176v75a24 24 0 1048 0v-75h22c13 0 24-10 24-24v-71h44v133a24 24 0 1048 0v-53h105c8 0 16-2 24-4a462 462 0 01-350 428z"/><path d="M1007 698c-13 0-24 10-24 23v32a24 24 0 1048 0v-32a24 24 0 00-24-23zM684 275c14 0 24-11 24-24v-32a24 24 0 00-24-24c-13 0-23 11-23 24v32c0 13 10 24 23 24zM238 27a24 24 0 00-24-24c-13 0-24 11-24 24v151h-47V27a24 24 0 00-24-24c-13 0-24 11-24 24v151H48V27A24 24 0 0024 3C11 3 0 14 0 27v239a120 120 0 0048 95v588a72 72 0 00142 0V361a120 120 0 0048-95V27zm-83 301c-8 4-12 12-12 20v601c0 13-11 24-24 24a24 24 0 01-24-24V348c0-8-4-16-12-20a72 72 0 01-35-62v-40h142v40a72 72 0 01-35 62zM1397 3c-53 0-96 43-96 96v373c0 53 43 96 96 96h47v381c0 13-11 24-24 24a24 24 0 01-23-24V639a24 24 0 00-24-24c-13 0-24 11-24 24v310a72 72 0 00143 0V99c0-53-43-96-95-96zm47 517h-47a48 48 0 01-48-48V99c0-27 21-48 48-48a48 48 0 0147 48v421z"/></svg>