<svg xmlns="http://www.w3.org/2000/svg" width="128" height="128" class="icon" viewBox="0 0 1024 1024"><defs/><path fill="#5CB9FF" d="M673 942L115 833V290l558 96z"/><path d="M673 960a18 18 0 01-4 0L112 850a18 18 0 01-15-17V290a18 18 0 0121-18l558 96a18 18 0 0115 18v556a18 18 0 01-18 18zM133 818l522 102V401l-522-90v507z"/><path fill="#FF5757" d="M902 666L673 942V386l236-225z"/><path d="M673 960a18 18 0 01-18-18V386c0-5 2-10 6-13l236-225a18 18 0 0130 13l-7 505a18 18 0 01-4 12L687 954a18 18 0 01-14 6zm18-567v500l194-233 5-457-199 190zm211 273z"/><path fill="#FFDD50" d="M673 386l-558-96L399 82l510 79z"/><path d="M673 403a18 18 0 01-3 0l-558-96a18 18 0 01-7-32L388 67a18 18 0 0114-3l510 79a18 18 0 019 31L685 398a18 18 0 01-12 5zM160 279l507 87 203-193-466-72-244 178z"/><path d="M673 589h-3L112 488a18 18 0 016-35l549 99 227-233a18 18 0 0126 25L686 584a18 18 0 01-13 5z"/><path d="M673 774h-3L112 669a18 18 0 116-35l548 103 225-254a18 18 0 0127 24L686 768a18 18 0 01-13 6z"/><path d="M301 887a18 18 0 01-18-18V322c0-6 3-11 7-15L574 96a18 18 0 0122 29L319 331v538a18 18 0 01-18 18z"/><path d="M487 923a18 18 0 01-18-17V354c0-6 3-11 7-15l284-214a18 18 0 0122 29L505 362v544a18 18 0 01-18 17z"/><path d="M758 858a18 18 0 01-18-18V320l-533-82a18 18 0 115-35l548 84a18 18 0 0115 18v535a18 18 0 01-17 18z"/><path d="M832 768a18 18 0 01-18-18V249l-513-80a18 18 0 01-15-20 18 18 0 0121-15l528 82a18 18 0 0115 18v516a18 18 0 01-18 18z"/></svg>