<svg xmlns="http://www.w3.org/2000/svg" width="183.1" height="128" class="icon" viewBox="0 0 1465 1024"><defs/><path fill="#2F2E41" d="M769 167c-35 0-64 31-64 71v49h15l9-18-2 18h98l8-16-2 16h11v-39c0-45-33-81-73-81zm-74 325l-39 16-136 111c-5 6-8 14-9 22-1 13-42 79-27 88s67 35 70 18l19-94 131-117-9-44z"/><path fill="#2F2E41" d="M542 732l-17 49s18 18 9 34v54h-14l-4-28s-16 28-24 28c-16 1-49 7-50-2s25-18 25-18l27-75 12-46 36 4zm256-253s8 86-17 102c-26 16-139 66-139 66s48 45 39 56-54 40-60 34-72-77-64-99c8-23 117-96 117-96l13-46 4-38 41-26 66 47z"/><path fill="#FFB9B9" d="M712 237a41 41 0 1081 0 41 41 0 10-81 0z"/><path fill="#FFB9B9" d="M784 254s-2 37 29 49-76 88-76 88v-85s14-15 0-38l47-14zm65 175l-7 38-24 131s20 56-7 55c-26-1-13-61-13-61l13-108v-42l38-13zm-168-19l-9 34-40 98s-28 46-5 45 23-45 23-45l46-79v-44l-15-9z"/><path fill="#2F2E41" d="M674 697l32 30s23-5 32 21l14 44-11 7-15-21s-9 37-18 40-53 23-49 0l22-31s3-35-6-38-32-33-32-33l31-19z"/><path fill="#3F3D56" d="M799 509s-92-33-98-30c-4 2-9 3-14 3v-13s31-11 48-4 67 37 67 37l-3 7z"/><path fill="#D0CDE1" d="M743 372s26-31 34-50c5-11 14-20 26-24 0 0 59 13 58 36-1 24-38 60-38 60s5 130-21 129c-6-7-10-15-12-24-3-14-94-28-94-28s-8 13-9 7 8-150 8-150l47-31 1 75z"/><path fill="#D0CDE1" d="M853 325h1c4 2 7 7 7 12v73c0 4 1 7 4 10 4 3 8 8 0 10-11 4-57 24-58 17s-3-15 0-15c2 0 16-70 27-100 2-7 10-11 17-8l2 1zm-145 0l-14 4-15 67s-19 4-13 11 30 25 30 25l12-107z"/><path fill="#2F2E41" d="M787 186c-6-8-16-13-26-13h-2c-24 0-44 21-44 49h9l1-10 2 10h48l4-9-1 9h9c4 21-2 43-19 65h16l8-17-2 17h31l6-38c0-30-17-54-40-63z"/></svg>