<?xml version="1.0" standalone="no"?><!DOCTYPE svg PUBLIC "-//W3C//DTD SVG 1.1//EN" "http://www.w3.org/Graphics/SVG/1.1/DTD/svg11.dtd"><svg t="1697874201089" class="icon" viewBox="0 0 1024 1024" version="1.1" xmlns="http://www.w3.org/2000/svg" p-id="5105" xmlns:xlink="http://www.w3.org/1999/xlink" width="128" height="128"><path d="M782.848 641.536m-185.856 0a185.856 185.856 0 1 0 371.712 0 185.856 185.856 0 1 0-371.712 0Z" fill="#FFE200" p-id="5106"></path><path d="M194.56 156.16H128c-16.896 0-30.72-13.824-30.72-30.72s13.824-30.72 30.72-30.72h66.56c16.896 0 30.72 13.824 30.72 30.72s-13.824 30.72-30.72 30.72z" fill="#FFE200" p-id="5107"></path><path d="M558.08 914.944H128c-16.896 0-30.72-13.824-30.72-30.72s13.824-30.72 30.72-30.72h430.08c16.896 0 30.72 13.824 30.72 30.72s-13.824 30.72-30.72 30.72zM745.472 914.944h-96.256c-16.896 0-30.72-13.824-30.72-30.72s13.824-30.72 30.72-30.72h96.256c16.896 0 30.72 13.824 30.72 30.72s-13.312 30.72-30.72 30.72zM892.928 914.944h-50.176c-16.896 0-30.72-13.824-30.72-30.72s13.824-30.72 30.72-30.72h50.176c16.896 0 30.72 13.824 30.72 30.72s-13.824 30.72-30.72 30.72zM180.224 373.76h60.928l29.696 121.344 9.216 56.32h1.536c3.584-27.136 8.704-63.488 16.896-93.696L320.512 373.76h56.832l-67.584 253.44H249.344L220.16 504.832l-9.728-55.296h-1.536c-4.608 28.16-9.216 62.976-17.408 93.696L168.96 627.2H112.64L180.224 373.76zM435.2 373.76h157.696l-13.312 50.176H481.792L468.992 471.04h82.944l-13.824 51.2H455.68l-14.336 53.76H542.72l-13.824 51.2H367.616L435.2 373.76zM621.568 373.76h60.928l-14.848 115.2-11.264 80.384h1.536c11.776-27.136 24.064-54.272 36.352-80.384l56.32-115.2h50.176l-4.608 115.2c-2.048 26.112-4.608 53.248-7.168 80.384h1.536c10.24-27.136 20.992-54.272 30.72-80.384l46.592-115.2h56.832L814.08 627.2h-75.264l7.168-110.08c1.024-19.456 3.072-39.936 6.144-58.88h-1.536c-8.192 18.944-16.384 39.424-25.6 58.88l-51.2 110.08h-73.728l21.504-253.44zM887.808 156.16h-481.28c-16.896 0-30.72-13.824-30.72-30.72s13.824-30.72 30.72-30.72h481.28c16.896 0 30.72 13.824 30.72 30.72s-13.824 30.72-30.72 30.72zM887.808 284.16h-174.08c-16.896 0-30.72-13.824-30.72-30.72s13.824-30.72 30.72-30.72h174.08c16.896 0 30.72 13.824 30.72 30.72s-13.824 30.72-30.72 30.72z" fill="#405FD3" p-id="5108"></path></svg>