<?xml version="1.0" standalone="no"?><!DOCTYPE svg PUBLIC "-//W3C//DTD SVG 1.1//EN" "http://www.w3.org/Graphics/SVG/1.1/DTD/svg11.dtd"><svg t="1697873738449" class="icon" viewBox="0 0 1024 1024" version="1.1" xmlns="http://www.w3.org/2000/svg" p-id="3796" xmlns:xlink="http://www.w3.org/1999/xlink" width="128" height="128"><path d="M512 512m-512 0a512 512 0 1 0 1024 0 512 512 0 1 0-1024 0Z" fill="#FFD93B" p-id="3797"></path><path d="M1024 512c0 282.88-229.28 512-512 512-160.96 0-304.64-74.24-398.56-190.56A509.312 509.312 0 0 0 434.88 946.88c282.72 0 512-229.12 512-512 0-121.76-42.4-233.6-113.44-321.44C949.6 207.36 1024 351.04 1024 512z" fill="#F4C534" p-id="3798"></path><path d="M561.888 416.672a154.08 153.952 90 1 0 307.904 0 154.08 153.952 90 1 0-307.904 0Z" fill="#FFFFFF" p-id="3799"></path><path d="M745.28 367.456m-68.48 0a68.48 68.48 0 1 0 136.96 0 68.48 68.48 0 1 0-136.96 0Z" fill="#3E4347" p-id="3800"></path><path d="M759.551039 353.172031a18.752 13.184 44.999 1 0 18.644666-18.645317 18.752 13.184 44.999 1 0-18.644666 18.645317Z" fill="#FFFFFF" p-id="3801"></path><path d="M167.872 461.472a154.08 153.952 90 1 0 307.904 0 154.08 153.952 90 1 0-307.904 0Z" fill="#FFFFFF" p-id="3802"></path><path d="M292.352 510.688m-68.48 0a68.48 68.48 0 1 0 136.96 0 68.48 68.48 0 1 0-136.96 0Z" fill="#3E4347" p-id="3803"></path><path d="M306.636294 496.404031a18.752 13.184 44.999 1 0 18.644666-18.645317 18.752 13.184 44.999 1 0-18.644666 18.645317Z" fill="#FFFFFF" p-id="3804"></path><path d="M493.024 292.832a17.888 17.888 0 0 1-8.576 19.712 17.216 17.216 0 0 1-21.152-3.136c-3.136-2.848-79.2-74.336-241.28-47.168a17.344 17.344 0 0 1-20.288-14.56 17.632 17.632 0 0 1 14.56-20.576c112.928-19.168 189.248 6.304 231.552 29.152l-9.728-42.304a17.856 17.856 0 1 1 34.88-8l20.032 86.88zM844.096 204.224a18.048 18.048 0 0 1-20.576 14.592c-162.112-27.456-237.856 44.32-240.992 47.456a18.528 18.528 0 0 1-21.44 2.56 17.696 17.696 0 0 1-8.576-19.424l20.288-86.912c1.984-9.728 11.712-15.424 21.44-13.44a17.92 17.92 0 0 1 13.152 21.44l-9.728 42.304c42.592-22.88 118.912-48.32 231.84-29.152a17.664 17.664 0 0 1 14.592 20.576zM705.728 780.512c-15.264 77.12-99.52 176.768-193.856 176.544-94.08-3.392-178.336-102.464-193.6-175.872-15.584-74.24 71.36-140.032 193.536-144.352 122.496-0.032 209.536 65.664 193.92 143.68z" fill="#3E4347" p-id="3805"></path><path d="M631.904 895.936c1.088-5.408 2.304-10.752 2.88-16.192 1.952-20.064 0.288-38.24-4.992-54.432-12.832-42.24-63.104-63.168-105.568-41.984a132.224 132.224 0 0 1-67.36 14.144 185.664 185.664 0 0 1-13.824-1.344c-21.568-3.072-41.44 8.256-48 27.392-7.072 20.384-8.032 43.808-2.912 70.208 78.848 17.056 160.896 17.856 239.776 2.208z" fill="#E24B4B" p-id="3806"></path><path d="M647.84 864.256a2028.032 2028.032 0 0 1-271.808-1.6 19.584 19.584 0 0 0-14.976 5.024c36.672 47.456 91.808 87.264 150.816 89.376 59.168 0.128 114.368-39.008 151.072-87.264a19.648 19.648 0 0 0-15.104-5.536zM486.336 730.592a17.344 17.344 0 0 0 16.992-16.48c2.016-25.664 4.16-51.392 6.4-77.088-44.672 1.856-84.544 11.872-116.32 27.552l3.456 46.752a19.68 19.68 0 0 0 18.304 17.984c23.712 0.768 47.424 1.184 71.168 1.28zM514.24 636.928c2.24 25.664 4.384 51.328 6.432 76.992 0.672 9.568 8.32 16.416 16.992 16.256a2392.864 2392.864 0 0 0 71.136-2.4c9.344-0.48 17.632-8.832 18.336-18.592l3.456-47.712c-31.776-15.232-71.648-24.224-116.352-24.544z" fill="#FFFFFF" p-id="3807"></path></svg>