<?xml version="1.0" standalone="no"?><!DOCTYPE svg PUBLIC "-//W3C//DTD SVG 1.1//EN" "http://www.w3.org/Graphics/SVG/1.1/DTD/svg11.dtd"><svg t="1697856052667" class="icon" viewBox="0 0 2867 1024" version="1.1" xmlns="http://www.w3.org/2000/svg" p-id="8626" xmlns:xlink="http://www.w3.org/1999/xlink" width="358.375" height="128"><path d="M171.008 1015.5008V144.2816H0V8.4992h489.6768v135.7824H318.72v871.2192H171.008z m375.1936-769.3824c0-40.5504 7.2192-76.3904 21.7088-107.52a227.4816 227.4816 0 0 1 57.9584-77.824 246.3744 246.3744 0 0 1 79.0016-45.2096A266.6496 266.6496 0 0 1 793.9584 0c29.952 0 59.648 5.1712 89.088 15.5648a264.2432 264.2432 0 0 1 80.384 45.2608c23.1936 20.736 42.0352 46.6432 56.5248 77.824 14.4896 31.0784 21.76 66.9184 21.76 107.4688v531.7632c0 42.496-7.2704 78.7456-21.76 108.9024a225.1264 225.1264 0 0 1-56.4736 75.008 249.7536 249.7536 0 0 1-80.384 46.6432 266.6496 266.6496 0 0 1-89.1392 15.5648 266.6496 266.6496 0 0 1-89.088-15.5648 233.5744 233.5744 0 0 1-79.0016-46.6432 216.576 216.576 0 0 1-57.9584-75.008c-14.4896-30.1568-21.7088-66.4576-21.7088-108.9024V246.1184z m147.7632 531.7632c0 34.9184 9.9328 60.6208 29.696 77.1072 19.8144 16.4864 43.264 24.7296 70.2976 24.7296s50.4832-8.192 70.2464-24.7296c19.8144-16.4864 29.696-42.1888 29.696-77.1072V246.1184c0-34.9184-9.8816-60.6208-29.696-77.1072a106.2912 106.2912 0 0 0-70.2464-24.7296c-27.0336 0-50.4832 8.192-70.2976 24.7296-19.7632 16.4864-29.696 42.1888-29.696 77.1072v531.7632z m478.1056 237.6192V8.4992h218.7776c84.992 0 149.504 22.6304 193.4336 67.8912 43.9296 45.2608 65.8944 109.3632 65.8944 192.3584v470.9888c0 94.2592-23.3984 163.84-70.2464 208.5888-46.848 44.8-114.176 67.1744-202.0864 67.1744h-205.7728zM1319.936 144.2816v735.4368h68.096c41.472 0 70.9632-10.1376 88.3712-30.4128 17.408-20.2752 26.112-52.0704 26.112-95.4368V268.7488c0-39.6288-8.2432-70.2464-24.6784-91.9552-16.384-21.7088-46.336-32.512-89.8048-32.512h-68.096z m767.8464 519.0656l-72.448-364.9024h-2.8672l-72.448 364.9024h147.7632z m-365.056 352.1536L1952.9728 8.4992h123.136l230.3488 1007.0016h-147.7632l-43.52-216.3712H1913.856l-43.4176 216.3712h-147.8144z m793.9072 0V589.824L2313.728 8.4992h156.5184l118.784 400.2304h2.9184l118.784-400.2304H2867.2l-202.8544 581.2736v425.728h-147.7632z" fill="#FE6E00" p-id="8627"></path></svg>