<?xml version="1.0" standalone="no"?><!DOCTYPE svg PUBLIC "-//W3C//DTD SVG 1.1//EN" "http://www.w3.org/Graphics/SVG/1.1/DTD/svg11.dtd"><svg t="1698217928191" class="icon" viewBox="0 0 1024 1024" version="1.1" xmlns="http://www.w3.org/2000/svg" p-id="52542" xmlns:xlink="http://www.w3.org/1999/xlink" width="128" height="128"><path d="M511.2832 510.1568m-450.816 0a450.816 450.816 0 1 0 901.632 0 450.816 450.816 0 1 0-901.632 0Z" fill="#FFE3DB" p-id="52543"></path><path d="M755.3536 282.88c-103.8336-68.0448-188.0064-26.88-242.944 24.4224C457.4208 256 373.2992 214.8864 269.4144 282.88 201.1136 327.6288 171.7248 390.656 181.6064 463.5136h213.0944l43.9808-93.9008c4.7104-10.0864 13.9264-17.7152 24.8832-19.456 16.896-2.6624 32.3584 7.5776 37.0176 23.1424l39.68 132.864 13.5168-24.6272a33.05472 33.05472 0 0 1 28.928-17.152h98.816c18.0736 0 33.8432 13.9264 34.3552 32a32.99328 32.99328 0 0 1-32.9728 33.9968h-80.64l-42.0864 76.7488a33.02912 33.02912 0 0 1-40.96 14.8992c-9.7792-3.7888-16.9472-12.3904-19.9168-22.4256l-37.1712-124.416-16.5376 35.328a32.9728 32.9728 0 0 1-29.9008 18.9952H200.2432c36.8128 87.552 123.392 184.3712 260.1472 278.4768 15.2576 10.496 33.4336 16.0768 51.968 16.0768s36.7616-5.5808 52.0192-16.0768c293.9392-202.24 355.9424-417.024 190.976-525.1072z" fill="#F23D4F" p-id="52544"></path><path d="M798.1056 324.1984c0-1.8944-0.0512-3.84-0.0512-5.7344-11.9808-12.8512-26.1632-24.7296-42.7008-35.5328-103.8336-68.0448-188.0064-26.88-242.944 24.4224C457.4208 256 373.2992 214.8864 269.4144 282.88 201.1136 327.6288 171.7248 390.656 181.6064 463.5136h213.0944l44.3392-94.72a32.9728 32.9728 0 0 1 32.3072-18.8928 32.9728 32.9728 0 0 1 29.184 23.4496l39.68 132.864 13.5168-24.6272a33.05472 33.05472 0 0 1 28.928-17.152h100.1984c18.2272 0 33.024 14.7968 33.024 33.024s-14.7968 33.024-33.024 33.024h-80.64l-42.0864 76.7488a33.02912 33.02912 0 0 1-28.928 17.152c-1.1776 0-2.304-0.0512-3.4816-0.2048a32.97792 32.97792 0 0 1-28.16-23.3472l-37.5296-125.5424-16.5376 35.328a32.9728 32.9728 0 0 1-29.9008 18.9952H200.2432c32 76.032 101.4784 159.0272 208.7936 241.2032 219.7504-30.1568 389.0688-218.624 389.0688-446.6176z" fill="#FC4956" p-id="52545"></path><path d="M181.6064 463.5648h213.0944l44.3392-94.72a32.9728 32.9728 0 0 1 32.3072-18.8928 32.9728 32.9728 0 0 1 29.184 23.4496l34.8672 116.6848c66.56-63.5904 113.664-147.4048 131.4816-241.5616-63.5392-7.7312-116.1216 23.04-154.4704 58.88C457.4208 256 373.2992 214.8864 269.4144 282.88c-68.3008 44.7488-97.6896 107.8272-87.808 180.6848z" fill="#FF5C64" p-id="52546"></path><path d="M480 535.1424l-17.92-59.904-16.5376 35.328a32.9728 32.9728 0 0 1-29.9008 18.9952H200.2432c11.52 27.392 27.9552 55.7568 49.2544 84.5824a448.1024 448.1024 0 0 0 230.5024-79.0016z" fill="#FF5C64" p-id="52547"></path><path d="M470.9888 275.4048c-52.4288-32.3584-121.0368-45.2608-201.5744 7.5264-64 41.9328-93.8496 99.9936-89.2416 167.1168 118.528-18.432 221.7472-82.944 290.816-174.6432z" fill="#FF716E" p-id="52548"></path></svg>