<?xml version="1.0" standalone="no"?><!DOCTYPE svg PUBLIC "-//W3C//DTD SVG 1.1//EN" "http://www.w3.org/Graphics/SVG/1.1/DTD/svg11.dtd"><svg t="1697871644794" class="icon" viewBox="0 0 1024 1024" version="1.1" xmlns="http://www.w3.org/2000/svg" p-id="6914" xmlns:xlink="http://www.w3.org/1999/xlink" width="128" height="128"><path d="M512 512m-501.76 0a501.76 501.76 0 1 0 1003.52 0 501.76 501.76 0 1 0-1003.52 0Z" fill="#8CEEF9" p-id="6915"></path><path d="M937.1648 691.8144c-33.5872 0-60.8256-27.2384-60.8256-60.8256 0 33.5872-27.2384 60.8256-60.8256 60.8256s-60.8256-27.2384-60.8256-60.8256c0 33.5872-27.2384 60.8256-60.8256 60.8256s-60.8256-27.2384-60.8256-60.8256c0 33.5872-27.2384 60.8256-60.8256 60.8256s-60.8256-27.2384-60.8256-60.8256c0 33.5872-27.2384 60.8256-60.8256 60.8256s-60.8256-27.2384-60.8256-60.8256c0 33.5872-27.2384 60.8256-60.8256 60.8256s-60.8256-27.2384-60.8256-60.8256c0 33.5872-27.2384 60.8256-60.8256 60.8256s-60.8256-27.2384-60.8256-60.8256c0 33.5872-27.2384 60.8256-60.8256 60.8256-25.6 0-47.3088-15.7696-56.32-38.0928C91.7504 861.7984 284.0576 1013.76 512 1013.76s420.2496-151.9616 481.4848-360.0384c-9.0112 22.3232-30.9248 38.0928-56.32 38.0928z" fill="#508DEF" p-id="6916"></path><path d="M512 1024c-112.8448 0-219.7504-36.0448-309.4528-104.0384C115.9168 854.016 51.2 760.4224 20.6848 656.5888c-1.6384-5.3248 1.2288-10.8544 6.5536-12.4928 5.12-1.8432 10.8544 0.8192 12.9024 5.9392 7.7824 19.2512 26.2144 31.744 46.8992 31.744 27.8528 0 50.5856-22.7328 50.5856-50.5856 0-5.7344 4.5056-10.24 10.24-10.24s10.24 4.5056 10.24 10.24c0 27.8528 22.7328 50.5856 50.5856 50.5856s50.5856-22.7328 50.5856-50.5856c0-5.7344 4.5056-10.24 10.24-10.24s10.24 4.5056 10.24 10.24c0 27.8528 22.7328 50.5856 50.5856 50.5856s50.5856-22.7328 50.5856-50.5856c0-5.7344 4.5056-10.24 10.24-10.24s10.24 4.5056 10.24 10.24c0 27.8528 22.7328 50.5856 50.5856 50.5856s50.5856-22.7328 50.5856-50.5856c0-5.7344 4.5056-10.24 10.24-10.24s10.24 4.5056 10.24 10.24c0 27.8528 22.7328 50.5856 50.5856 50.5856s50.5856-22.7328 50.5856-50.5856c0-5.7344 4.5056-10.24 10.24-10.24s10.24 4.5056 10.24 10.24c0 27.8528 22.7328 50.5856 50.5856 50.5856s50.5856-22.7328 50.5856-50.5856c0-5.7344 4.5056-10.24 10.24-10.24s10.24 4.5056 10.24 10.24c0 27.8528 22.7328 50.5856 50.5856 50.5856s50.5856-22.7328 50.5856-50.5856c0-5.7344 4.5056-10.24 10.24-10.24s10.24 4.5056 10.24 10.24c0 27.8528 22.7328 50.5856 50.5856 50.5856 20.6848 0 39.1168-12.4928 46.8992-31.744 2.048-5.12 7.7824-7.5776 12.9024-5.9392 5.12 1.8432 7.9872 7.3728 6.5536 12.4928-30.5152 103.8336-95.0272 197.4272-181.8624 263.3728C731.7504 987.9552 624.8448 1024 512 1024zM55.7056 694.8864C129.6384 878.592 311.0912 1003.52 512 1003.52s382.3616-124.928 456.2944-308.6336c-9.4208 4.7104-20.0704 7.168-31.3344 7.168-25.8048 0-48.3328-13.7216-60.8256-34.2016-12.4928 20.48-35.0208 34.2016-60.8256 34.2016s-48.3328-13.7216-60.8256-34.2016c-12.4928 20.48-35.0208 34.2016-60.8256 34.2016s-48.3328-13.7216-60.8256-34.2016c-12.4928 20.48-35.0208 34.2016-60.8256 34.2016s-48.3328-13.7216-60.8256-34.2016c-12.4928 20.48-35.0208 34.2016-60.8256 34.2016s-48.3328-13.7216-60.8256-34.2016c-12.4928 20.48-35.0208 34.2016-60.8256 34.2016s-48.3328-13.7216-60.8256-34.2016c-12.4928 20.48-35.0208 34.2016-60.8256 34.2016s-48.3328-13.7216-60.8256-34.2016c-12.4928 20.48-35.0208 34.2016-60.8256 34.2016-9.6256 0-20.2752-2.6624-29.696-7.168z" fill="#1C1D21" p-id="6917"></path><path d="M146.6368 561.5616v65.536c0 35.0208 28.2624 63.2832 63.2832 63.2832 35.0208 0 63.2832-28.2624 63.2832-63.2832v-65.536c0-35.0208-28.2624-63.2832-63.2832-63.2832-35.0208 0-63.2832 28.4672-63.2832 63.2832z" fill="#FFECE9" p-id="6918"></path><path d="M209.7152 700.416c-40.5504 0-73.5232-32.9728-73.5232-73.5232v-65.536c0-40.5504 32.9728-73.5232 73.5232-73.5232s73.5232 32.9728 73.5232 73.5232V585.728c0 5.7344-4.5056 10.24-10.24 10.24s-10.24-4.5056-10.24-10.24v-24.3712c0-29.2864-23.7568-53.0432-53.0432-53.0432-29.2864 0-53.0432 23.7568-53.0432 53.0432v65.536c0 29.2864 23.7568 53.0432 53.0432 53.0432 29.2864 0 53.0432-23.7568 53.0432-53.0432 0-5.7344 4.5056-10.24 10.24-10.24s10.24 4.5056 10.24 10.24c0 40.5504-32.9728 73.5232-73.5232 73.5232z" fill="#1C1D21" p-id="6919"></path><path d="M157.4912 742.6048v18.432H262.144v-18.432c0-28.8768-23.3472-52.4288-52.4288-52.4288-28.8768 0-52.224 23.552-52.224 52.4288z" fill="#FFECE9" p-id="6920"></path><path d="M262.144 771.2768c-5.7344 0-10.24-4.5056-10.24-10.24v-18.432c0-23.1424-18.8416-42.1888-42.1888-42.1888s-42.1888 18.8416-42.1888 42.1888v18.432c0 5.7344-4.5056 10.24-10.24 10.24s-10.24-4.5056-10.24-10.24v-18.432c0-34.6112 28.0576-62.6688 62.6688-62.6688s62.6688 28.0576 62.6688 62.6688v18.432c0 5.7344-4.5056 10.24-10.24 10.24zM209.7152 591.4624c-26.0096 0-50.7904-9.6256-70.0416-27.2384-4.096-3.8912-4.5056-10.24-0.6144-14.5408 3.8912-4.096 10.24-4.5056 14.5408-0.6144 15.36 14.1312 35.2256 21.9136 56.1152 21.9136s40.7552-7.7824 56.1152-21.9136c4.096-3.8912 10.6496-3.4816 14.5408 0.6144 3.8912 4.096 3.4816 10.6496-0.6144 14.5408-19.2512 17.408-44.032 27.2384-70.0416 27.2384z" fill="#1C1D21" p-id="6921"></path><path d="M189.44 539.648m-10.8544 0a10.8544 10.8544 0 1 0 21.7088 0 10.8544 10.8544 0 1 0-21.7088 0Z" fill="#1C1D21" p-id="6922"></path><path d="M191.488 773.9392c-5.7344 0-10.24-4.5056-10.24-10.24v-24.9856c0-5.7344 4.5056-10.24 10.24-10.24s10.24 4.5056 10.24 10.24v24.9856c0 5.7344-4.5056 10.24-10.24 10.24zM227.9424 773.9392c-5.7344 0-10.24-4.5056-10.24-10.24v-24.9856c0-5.7344 4.5056-10.24 10.24-10.24s10.24 4.5056 10.24 10.24v24.9856c0 5.7344-4.5056 10.24-10.24 10.24z" fill="#1C1D21" p-id="6923"></path><path d="M512 1024c-136.8064 0-265.4208-53.248-362.0864-149.9136C53.248 777.4208 0 648.8064 0 512S53.248 246.5792 149.9136 149.9136C246.5792 53.248 375.1936 0 512 0s265.4208 53.248 362.0864 149.9136C970.752 246.5792 1024 375.1936 1024 512s-53.248 265.4208-149.9136 362.0864C777.4208 970.752 648.8064 1024 512 1024z m0-1003.52C241.0496 20.48 20.48 241.0496 20.48 512s220.5696 491.52 491.52 491.52 491.52-220.5696 491.52-491.52S782.9504 20.48 512 20.48z" fill="#1C1D21" p-id="6924"></path><path d="M148.6848 858.112c91.3408 95.8464 220.3648 155.648 363.3152 155.648s271.9744-59.8016 363.3152-155.648H148.6848z" fill="#0ABFB2" p-id="6925"></path><path d="M512 1024c-71.2704 0-140.288-14.336-205.0048-42.8032-62.6688-27.4432-118.3744-66.3552-165.6832-116.1216-2.8672-2.8672-3.6864-7.3728-2.048-11.0592s5.3248-6.144 9.4208-6.144h726.6304c4.096 0 7.7824 2.4576 9.4208 6.144s0.8192 8.192-2.048 11.0592c-47.3088 49.5616-103.0144 88.6784-165.6832 116.1216C652.288 1009.664 583.2704 1024 512 1024zM173.4656 868.352c91.7504 87.4496 210.944 135.168 338.5344 135.168s246.784-47.7184 338.5344-135.168H173.4656z" fill="#1C1D21" p-id="6926"></path><path d="M352.4608 332.3904c-12.288 0-22.3232 10.0352-22.3232 22.3232v625.2544c14.5408 5.7344 29.4912 10.6496 44.6464 14.9504V354.5088c0-12.288-10.0352-22.1184-22.3232-22.1184z" fill="#C67552" p-id="6927"></path><path d="M374.784 1004.9536c-1.024 0-1.8432-0.2048-2.8672-0.4096-15.1552-4.3008-30.5152-9.4208-45.4656-15.36-3.8912-1.4336-6.5536-5.3248-6.5536-9.6256V354.5088c0-18.0224 14.5408-32.5632 32.5632-32.5632s32.5632 14.5408 32.5632 32.5632v640.2048c0 3.2768-1.4336 6.144-4.096 8.192-1.8432 1.4336-3.8912 2.048-6.144 2.048zM340.3776 972.8c7.9872 3.072 15.9744 5.7344 24.1664 8.192V354.5088c0-6.5536-5.3248-12.0832-12.0832-12.0832s-12.0832 5.3248-12.0832 12.0832V972.8z" fill="#1C1D21" p-id="6928"></path><path d="M406.9376 287.9488h11.0592v-49.7664h-11.0592c-12.9024 0-23.3472 10.4448-23.3472 23.3472v2.8672c0 13.1072 10.4448 23.552 23.3472 23.552zM617.6768 287.9488h-11.0592v-49.7664h11.0592c12.9024 0 23.3472 10.4448 23.3472 23.3472v2.8672c0.2048 13.1072-10.4448 23.552-23.3472 23.552z" fill="#FFC5B3" p-id="6929"></path><path d="M417.9968 298.1888h-11.0592c-18.6368 0-33.5872-15.1552-33.5872-33.5872v-2.8672c0-18.6368 15.1552-33.5872 33.5872-33.5872h11.0592c5.7344 0 10.24 4.5056 10.24 10.24v49.7664c0 5.3248-4.5056 10.0352-10.24 10.0352z m-11.0592-49.7664c-7.168 0-13.1072 5.9392-13.1072 13.1072v2.8672c0 7.168 5.9392 13.1072 13.1072 13.1072h0.8192v-29.2864h-0.8192zM617.6768 298.1888h-11.0592c-5.7344 0-10.24-4.5056-10.24-10.24v-49.7664c0-5.7344 4.5056-10.24 10.24-10.24h11.0592c18.6368 0 33.5872 15.1552 33.5872 33.5872v2.8672c0.2048 18.6368-14.9504 33.792-33.5872 33.792z m-0.8192-20.48h0.8192c7.168 0 13.1072-5.9392 13.1072-13.1072v-2.8672c0-7.168-5.9392-13.1072-13.1072-13.1072h-0.8192v29.0816z" fill="#1C1D21" p-id="6930"></path><path d="M599.8592 477.3888l-36.864-22.7328c-14.5408-9.0112-23.3472-24.9856-23.3472-41.984v-14.9504c0-8.192 4.9152-15.5648 12.4928-19.2512 31.9488-14.9504 54.0672-47.5136 54.0672-85.1968v-43.2128c0-52.0192-42.1888-94.0032-94.0032-94.0032-52.0192 0-94.0032 42.1888-94.0032 94.0032v43.2128c0 37.6832 22.1184 70.0416 54.0672 85.1968 7.5776 3.4816 12.4928 10.8544 12.4928 19.2512v14.9504c0 17.2032-8.8064 32.9728-23.3472 41.984l-36.864 22.7328c-29.9008 18.432-47.9232 50.9952-47.9232 86.2208V995.328c43.2128 12.0832 88.6784 18.6368 135.7824 18.6368s92.5696-6.5536 135.7824-18.6368V563.4048c-0.4096-35.0208-18.432-67.584-48.3328-86.016z" fill="#FFC5B3" p-id="6931"></path><path d="M512 1024c-47.104 0-93.5936-6.3488-138.6496-19.0464-4.5056-1.2288-7.3728-5.3248-7.3728-9.8304V563.4048c0-38.912 19.8656-74.3424 52.8384-94.8224l36.864-22.7328c11.6736-7.168 18.6368-19.6608 18.6368-33.3824v-14.9504c0-4.3008-2.4576-7.9872-6.5536-9.8304-36.4544-17.2032-60.0064-54.272-60.0064-94.4128v-43.2128c0-57.5488 46.6944-104.2432 104.2432-104.2432 27.8528 0 54.0672 10.8544 73.728 30.5152 19.6608 19.6608 30.5152 45.8752 30.5152 73.728v43.2128c0 40.1408-23.552 77.2096-60.0064 94.4128-4.096 1.8432-6.5536 5.7344-6.5536 9.8304v14.9504c0 13.7216 6.9632 26.2144 18.6368 33.3824l36.864 22.7328c33.1776 20.48 52.8384 55.9104 52.8384 94.8224v431.7184c0 4.5056-3.072 8.6016-7.3728 9.8304-45.056 12.6976-91.5456 19.0464-138.6496 19.0464z m-125.5424-36.6592c40.7552 10.8544 82.944 16.1792 125.5424 16.1792s84.7872-5.5296 125.5424-16.1792v-423.936c0-31.744-16.1792-60.6208-43.2128-77.4144l-36.864-22.7328c-17.8176-10.8544-28.2624-29.9008-28.2624-50.7904v-14.9504c0-12.0832 7.168-23.1424 18.2272-28.4672 29.2864-13.7216 48.128-43.6224 48.128-75.776v-43.2128c0-22.3232-8.8064-43.4176-24.576-59.1872-15.7696-15.7696-36.864-24.576-59.1872-24.576-46.2848 0-83.7632 37.6832-83.7632 83.7632v43.2128c0 32.3584 18.8416 62.0544 48.128 75.776 11.0592 5.3248 18.2272 16.384 18.2272 28.4672v14.9504c0 20.8896-10.6496 39.7312-28.2624 50.7904l-36.864 22.7328c-27.0336 16.7936-43.2128 45.6704-43.2128 77.4144v423.936z" fill="#1C1D21" p-id="6932"></path><path d="M574.6688 308.4288c-13.312 0-25.8048 5.9392-34.6112 15.7696-6.9632 7.7824-16.9984 12.4928-28.0576 12.4928s-21.0944-4.9152-28.0576-12.4928c-8.8064-9.8304-21.2992-15.7696-34.6112-15.7696h-30.72c0 50.9952 41.1648 92.16 92.16 92.16h2.2528c50.9952 0 92.16-41.1648 92.16-92.16h-30.5152z" fill="#FF8939" p-id="6933"></path><path d="M513.024 410.8288h-2.2528c-56.5248 0-102.4-45.8752-102.4-102.4 0-5.7344 4.5056-10.24 10.24-10.24h30.72c15.9744 0 31.3344 6.9632 42.1888 19.2512 5.12 5.7344 12.6976 9.216 20.48 9.216s15.1552-3.2768 20.48-9.216c10.8544-12.288 26.2144-19.2512 42.1888-19.2512h30.5152c5.7344 0 10.24 4.5056 10.24 10.24 0 56.5248-45.8752 102.4-102.4 102.4z m-83.3536-92.16c5.12 40.3456 39.5264 71.68 81.3056 71.68h2.2528c41.7792 0 76.1856-31.3344 81.3056-71.68h-19.6608c-10.0352 0-19.8656 4.5056-27.0336 12.288-9.0112 10.24-22.1184 15.9744-35.6352 15.9744-13.5168 0-26.624-5.7344-35.6352-15.9744-6.9632-7.7824-16.7936-12.288-27.0336-12.288h-19.8656z" fill="#1C1D21" p-id="6934"></path><path d="M671.744 196.8128h-54.6816c-12.4928 0-22.528-10.0352-22.528-22.528 0-45.6704-37.0688-82.7392-82.7392-82.7392-45.6704 0-82.7392 37.0688-82.7392 82.7392 0 12.4928-10.0352 22.528-22.528 22.528h-54.6816c-11.6736 0-21.7088 9.216-21.9136 20.8896-0.2048 11.8784 9.4208 21.7088 21.2992 21.7088h321.1264c11.8784 0 21.504-9.8304 21.2992-21.7088 0-11.6736-10.0352-20.8896-21.9136-20.8896z" fill="#AA4D2D" p-id="6935"></path><path d="M672.5632 249.6512H351.4368c-8.6016 0-16.5888-3.2768-22.528-9.4208-5.9392-6.144-9.216-14.1312-9.0112-22.7328 0.4096-16.9984 14.7456-30.9248 32.1536-30.9248h54.6816c6.7584 0 12.288-5.5296 12.288-12.288 0-51.2 41.5744-92.9792 92.9792-92.9792s92.9792 41.5744 92.9792 92.9792c0 6.7584 5.5296 12.288 12.288 12.288H671.744c17.408 0 31.9488 13.9264 32.1536 30.9248 0.2048 8.6016-3.072 16.5888-9.0112 22.7328-5.7344 6.144-13.7216 9.4208-22.3232 9.4208zM352.256 207.0528c-6.3488 0-11.6736 4.9152-11.6736 10.8544 0 3.072 1.024 5.7344 3.072 7.9872 2.048 2.048 4.9152 3.2768 7.7824 3.2768h321.1264c3.072 0 5.7344-1.2288 7.7824-3.2768s3.2768-4.9152 3.072-7.9872c-0.2048-5.9392-5.3248-10.8544-11.6736-10.8544h-54.6816c-18.0224 0-32.768-14.7456-32.768-32.768 0-39.936-32.5632-72.4992-72.4992-72.4992s-72.4992 32.5632-72.4992 72.4992c0 18.0224-14.7456 32.768-32.768 32.768H352.256z" fill="#1C1D21" p-id="6936"></path><path d="M477.184 207.0528h-70.4512c-5.7344 0-10.24-4.5056-10.24-10.24s4.5056-10.24 10.24-10.24H477.184c5.7344 0 10.24 4.5056 10.24 10.24s-4.5056 10.24-10.24 10.24zM540.0576 207.0528h-19.0464c-5.7344 0-10.24-4.5056-10.24-10.24s4.5056-10.24 10.24-10.24h19.0464c5.7344 0 10.24 4.5056 10.24 10.24s-4.7104 10.24-10.24 10.24z" fill="#1C1D21" p-id="6937"></path><path d="M599.8592 477.3888l-9.216-5.7344v83.1488c0 16.9984-13.7216 30.72-30.72 30.72h-95.6416c-16.9984 0-30.72-13.7216-30.72-30.72v-83.1488l-9.216 5.7344c-29.9008 18.432-47.9232 50.9952-47.9232 86.2208V995.328c43.2128 12.0832 88.6784 18.6368 135.7824 18.6368s92.5696-6.5536 135.7824-18.6368V563.4048c-0.2048-35.0208-18.2272-67.584-48.128-86.016z" fill="#FF3E63" p-id="6938"></path><path d="M417.1776 973.2096c-5.7344 0-10.24-4.5056-10.24-10.24V643.2768c0-5.7344 4.5056-10.24 10.24-10.24s10.24 4.5056 10.24 10.24v319.6928c0 5.7344-4.7104 10.24-10.24 10.24zM417.1776 616.6528c-5.7344 0-10.24-4.5056-10.24-10.24v-3.2768c0-5.7344 4.5056-10.24 10.24-10.24s10.24 4.5056 10.24 10.24v3.2768c0 5.5296-4.7104 10.24-10.24 10.24z" fill="#FFAEC3" p-id="6939"></path><path d="M512 1024c-47.104 0-93.5936-6.3488-138.6496-19.0464-4.5056-1.2288-7.3728-5.3248-7.3728-9.8304V563.4048c0-38.912 19.8656-74.3424 52.8384-94.8224l9.216-5.7344c3.072-2.048 7.168-2.048 10.4448-0.2048 3.2768 1.8432 5.3248 5.3248 5.3248 9.0112v83.1488c0 11.264 9.216 20.48 20.48 20.48h95.6416c11.264 0 20.48-9.216 20.48-20.48v-83.1488c0-3.6864 2.048-7.168 5.3248-9.0112 3.2768-1.8432 7.168-1.6384 10.4448 0.2048l9.216 5.7344c33.1776 20.48 52.8384 55.9104 52.8384 94.8224v431.7184c0 4.5056-3.072 8.6016-7.3728 9.8304-45.2608 12.6976-91.7504 19.0464-138.8544 19.0464z m-125.5424-36.6592c40.7552 10.8544 82.944 16.1792 125.5424 16.1792s84.7872-5.5296 125.5424-16.1792v-423.936c0-29.2864-13.7216-56.1152-36.864-73.1136v64.3072c0 22.528-18.432 40.96-40.96 40.96h-95.6416c-22.528 0-40.96-18.432-40.96-40.96v-64.3072c-23.1424 17.2032-36.864 43.8272-36.864 73.1136v423.936z" fill="#1C1D21" p-id="6940"></path><path d="M376.2176 806.912v188.2112c43.2128 12.0832 88.6784 18.6368 135.7824 18.6368s92.5696-6.5536 135.7824-18.6368V806.912H376.2176z" fill="#FF9E5C" p-id="6941"></path><path d="M363.52 753.664H333.824c-13.7216 0-24.7808-11.0592-24.7808-24.7808v-15.1552c0-13.7216 11.0592-24.7808 24.7808-24.7808h29.696c17.8176 0 32.1536 14.5408 32.1536 32.1536 0 18.0224-14.336 32.5632-32.1536 32.5632z" fill="#FFC5B3" p-id="6942"></path><path d="M363.52 763.904H333.824c-19.2512 0-35.0208-15.5648-35.0208-35.0208v-15.1552c0-19.2512 15.5648-35.0208 35.0208-35.0208h29.696c23.3472 0 42.5984 19.0464 42.5984 42.5984s-19.2512 42.5984-42.5984 42.5984zM333.824 699.392c-7.9872 0-14.5408 6.5536-14.5408 14.5408v15.1552c0 7.9872 6.5536 14.5408 14.5408 14.5408h29.696c12.0832 0 22.1184-9.8304 22.1184-22.1184s-9.8304-22.1184-22.1184-22.1184H333.824zM209.7152 508.5184c-5.7344 0-10.24-4.5056-10.24-10.24 0-42.3936 15.1552-83.5584 42.8032-115.9168 27.648-32.3584 65.9456-53.6576 107.9296-60.2112l0.6144-0.2048c5.5296-0.8192 10.8544 2.8672 11.6736 8.6016 0.8192 5.5296-2.8672 10.8544-8.6016 11.6736l-0.6144 0.2048c-77.2096 12.0832-133.3248 77.6192-133.3248 155.8528 0 5.7344-4.5056 10.24-10.24 10.24z" fill="#1C1D21" p-id="6943"></path><path d="M292.0448 860.3648m-38.0928 0a38.0928 38.0928 0 1 0 76.1856 0 38.0928 38.0928 0 1 0-76.1856 0Z" fill="#FF8939" p-id="6944"></path><path d="M292.0448 908.6976c-26.624 0-48.3328-21.7088-48.3328-48.3328s21.7088-48.3328 48.3328-48.3328 48.3328 21.7088 48.3328 48.3328-21.7088 48.3328-48.3328 48.3328z m0-75.9808c-15.36 0-27.8528 12.4928-27.8528 27.8528s12.4928 27.8528 27.8528 27.8528 27.8528-12.4928 27.8528-27.8528-12.4928-27.8528-27.8528-27.8528zM512 1024c-5.7344 0-10.24-4.5056-10.24-10.24v-115.3024c0-5.7344 4.5056-10.24 10.24-10.24s10.24 4.5056 10.24 10.24V1013.76c0 5.7344-4.5056 10.24-10.24 10.24z" fill="#1C1D21" p-id="6945"></path><path d="M512 903.5776c-2.048 0-3.8912-0.6144-5.7344-1.8432l-34.2016-22.9376c-4.7104-3.072-5.9392-9.4208-2.8672-14.1312 3.072-4.7104 9.4208-5.9392 14.1312-2.8672l28.4672 19.2512 28.4672-19.2512c4.7104-3.072 11.0592-1.8432 14.1312 2.8672s1.8432 11.0592-2.8672 14.1312l-34.2016 22.9376c-1.4336 1.2288-3.2768 1.8432-5.3248 1.8432z" fill="#1C1D21" p-id="6946"></path><path d="M417.1776 973.2096c-5.7344 0-10.24-4.5056-10.24-10.24v-157.0816c0-5.7344 4.5056-10.24 10.24-10.24s10.24 4.5056 10.24 10.24v157.0816c0 5.7344-4.7104 10.24-10.24 10.24z" fill="#FFC9A4" p-id="6947"></path><path d="M512 1024c-47.104 0-93.5936-6.3488-138.6496-19.0464-4.5056-1.2288-7.3728-5.3248-7.3728-9.8304V806.912c0-5.7344 4.5056-10.24 10.24-10.24h271.5648c5.7344 0 10.24 4.5056 10.24 10.24v188.2112c0 4.5056-3.072 8.6016-7.3728 9.8304-45.056 12.6976-91.5456 19.0464-138.6496 19.0464z m-125.5424-36.6592c40.7552 10.8544 82.944 16.1792 125.5424 16.1792s84.7872-5.5296 125.5424-16.1792V817.152H386.4576v170.1888z" fill="#1C1D21" p-id="6948"></path></svg>