<?xml version="1.0" standalone="no"?><!DOCTYPE svg PUBLIC "-//W3C//DTD SVG 1.1//EN" "http://www.w3.org/Graphics/SVG/1.1/DTD/svg11.dtd"><svg t="1698215720187" class="icon" viewBox="0 0 1042 1024" version="1.1" xmlns="http://www.w3.org/2000/svg" p-id="26191" xmlns:xlink="http://www.w3.org/1999/xlink" width="130.25" height="128"><path d="M766.098286 942.445714H161.938286a13.147429 13.147429 0 0 1-13.165715-13.129143V180.662857L175.067429 154.368h591.030857c7.259429 0 13.110857 5.888 13.110857 13.165714v761.782857c0 7.259429-5.851429 13.129143-13.110857 13.129143" fill="#7598D9" p-id="26192"></path><path d="M713.563429 889.874286H109.403429a13.147429 13.147429 0 0 1-13.165715-13.129143V233.142857L227.620571 101.851429h485.961143c7.259429 0 13.129143 5.869714 13.129143 13.129142v761.782858a13.129143 13.129143 0 0 1-13.129143 13.129142" fill="#B1CDFC" p-id="26193"></path><path d="M227.602286 101.833143L96.256 233.142857h131.346286z" fill="#7598D9" p-id="26194"></path><path d="M148.790857 627.2h72.228572v-91.904h-72.228572z" fill="#85ABEF" p-id="26195"></path><path d="M221.037714 627.2h72.228572v-131.346286h-72.228572z" fill="#7598D9" p-id="26196"></path><path d="M293.284571 627.2h72.228572V430.189714h-72.228572z" fill="#3353B6" p-id="26197"></path><path d="M365.513143 627.2h72.228571V364.525714h-72.228571z" fill="#1D3285" p-id="26198"></path><path d="M196.059429 830.208c-18.194286 0-34.230857-10.166857-40.850286-25.910857a9.874286 9.874286 0 1 1 18.157714-7.625143c3.474286 8.283429 12.598857 13.860571 22.692572 13.860571 13.312 0 24.155429-9.472 24.155428-21.065142 0-13.988571-8.173714-21.065143-24.265143-21.065143-32.347429 0-43.885714-21.065143-43.885714-40.777143 0-22.454857 19.693714-40.704 43.885714-40.704 18.194286 0 34.230857 10.148571 40.850286 25.892571a9.837714 9.837714 0 1 1-18.157714 7.625143c-3.474286-8.283429-12.617143-13.842286-22.692572-13.842286-13.348571 0-24.173714 9.453714-24.173714 21.028572 0 14.006857 8.137143 21.083429 24.173714 21.083428 32.402286 0 43.958857 21.065143 43.958857 40.758858 0 22.473143-19.675429 40.740571-43.867428 40.740571" fill="#3353B6" p-id="26199"></path><path d="M343.68 834.066286h-63.542857a9.874286 9.874286 0 0 1 0-19.712h63.542857a9.856 9.856 0 1 1 0 19.712m116.114286 0h-63.579429a9.874286 9.874286 0 0 1 0-19.712h63.561143a9.856 9.856 0 1 1 0 19.712m-116.077714-131.346286h-63.561143a9.856 9.856 0 1 1 0-19.693714h63.542857a9.856 9.856 0 1 1 0 19.693714m116.114286 0h-63.561143a9.856 9.856 0 1 1 0-19.693714h63.542857a9.856 9.856 0 1 1 0 19.693714m-63.542857 65.682286h-116.114286a9.874286 9.874286 0 0 1 0-19.712h116.114286a9.874286 9.874286 0 0 1 0 19.712m129.225143 0h-76.690286a9.874286 9.874286 0 0 1 0-19.712h76.690286a9.856 9.856 0 0 1 0 19.712M195.949714 847.177143a9.837714 9.837714 0 0 1-9.874285-9.837714v-17.005715a9.856 9.856 0 0 1 19.712 0v17.005715a9.837714 9.837714 0 0 1-9.837715 9.837714m0-140.580572a9.874286 9.874286 0 0 1-9.874285-9.856v-17.005714a9.874286 9.874286 0 0 1 19.712 0v16.987429a9.856 9.856 0 0 1-9.837715 9.856" fill="#3353B6" p-id="26200"></path><path d="M923.721143 311.990857a26.276571 26.276571 0 1 1-52.534857 0 26.276571 26.276571 0 0 1 52.534857 0M240.713143 440.045714H161.901714a9.856 9.856 0 1 1 0-19.712h78.811429a9.856 9.856 0 1 1 0 19.712m65.682286-65.682285H161.92a9.856 9.856 0 1 1 0-19.693715h144.493714a9.874286 9.874286 0 0 1 0 19.693715m-39.424-65.645715H161.92a9.856 9.856 0 1 1 0-19.712h105.069714a9.837714 9.837714 0 0 1 0 19.693715m151.04 0H319.524571a9.856 9.856 0 1 1 0-19.693715h98.505143a9.837714 9.837714 0 1 1 0 19.693715m151.04 0H470.564571a9.837714 9.837714 0 1 1 0-19.693715h98.486858a9.837714 9.837714 0 1 1 0 19.693715m-105.033143-65.664H280.118857a9.856 9.856 0 0 1 0-19.712h183.899429a9.837714 9.837714 0 0 1 0 19.712m197.010285 0h-144.475428a9.856 9.856 0 1 1 0-19.712h144.457143a9.856 9.856 0 1 1 0 19.712" fill="#EBF3FD" p-id="26201"></path><path d="M897.444571 348.105143a36.150857 36.150857 0 0 1-36.114285-36.114286 36.150857 36.150857 0 0 1 36.114285-36.114286 36.132571 36.132571 0 0 1 0 72.228572m0-52.534857a16.457143 16.457143 0 0 0-16.420571 16.420571 16.457143 16.457143 0 0 0 32.841143 0 16.457143 16.457143 0 0 0-16.420572-16.420571" fill="#3353B6" p-id="26202"></path><path d="M871.149714 167.515429a26.258286 26.258286 0 1 1-52.608 0 26.258286 26.258286 0 0 1 52.662857 0" fill="#EBF3FD" p-id="26203"></path><path d="M844.873143 203.629714a36.132571 36.132571 0 0 1 0-72.228571 36.132571 36.132571 0 0 1 0 72.228571m0-52.534857a16.457143 16.457143 0 0 0-16.384 16.420572 16.438857 16.438857 0 1 0 16.402286-16.420572" fill="#3353B6" p-id="26204"></path><path d="M897.444571 824.283429a26.276571 26.276571 0 1 1-52.516571 0 26.258286 26.258286 0 0 1 52.516571 0" fill="#EBF3FD" p-id="26205"></path><path d="M871.149714 860.397714a36.150857 36.150857 0 0 1-36.096-36.114285 36.150857 36.150857 0 0 1 36.096-36.114286 36.150857 36.150857 0 0 1 36.132572 36.114286c-0.018286 19.931429-16.182857 36.096-36.132572 36.114285m0-52.534857a16.457143 16.457143 0 0 0 0 32.841143 16.438857 16.438857 0 0 0 0-32.841143" fill="#3353B6" p-id="26206"></path><path d="M490.313143 561.554286a222.774857 222.774857 0 0 0 80.749714 171.849143l142.500572-171.867429V338.285714c-123.337143 0-223.286857 99.968-223.286858 223.268572" fill="#1D3285" p-id="26207"></path><path d="M713.563429 338.285714v223.268572l100.699428-199.131429a221.878857 221.878857 0 0 0-100.699428-24.137143" fill="#3353B6" p-id="26208"></path><path d="M814.262857 362.422857l-100.717714 199.094857 214.089143-63.268571a223.670857 223.670857 0 0 0-113.371429-135.844572" fill="#85ABEF" p-id="26209"></path><path d="M571.062857 733.403429a222.409143 222.409143 0 0 0 142.500572 51.382857 222.72 222.72 0 0 0 164.333714-72.173715l-164.333714-151.076571-142.500572 171.867429z" fill="#3353B6" p-id="26210"></path><path d="M927.634286 498.230857L713.581714 561.536l164.333715 151.076571a222.445714 222.445714 0 0 0 58.916571-151.076571 222.902857 222.902857 0 0 0-9.161143-63.305143" fill="#7598D9" p-id="26211"></path><path d="M825.216 561.554286a111.652571 111.652571 0 1 0-223.305143 0 111.652571 111.652571 0 0 0 223.305143 0" fill="#E39C26" p-id="26212"></path><path d="M681.673143 641.28a111.268571 111.268571 0 0 1-61.348572-18.395429 111.652571 111.652571 0 0 0 204.891429-61.348571 111.506286 111.506286 0 0 0-50.322286-93.238857 111.634286 111.634286 0 0 1-93.257143 172.982857" fill="#DF751B" p-id="26213"></path></svg>