<?xml version="1.0" standalone="no"?><!DOCTYPE svg PUBLIC "-//W3C//DTD SVG 1.1//EN" "http://www.w3.org/Graphics/SVG/1.1/DTD/svg11.dtd"><svg t="1698206704670" class="icon" viewBox="0 0 1024 1024" version="1.1" xmlns="http://www.w3.org/2000/svg" p-id="18557" xmlns:xlink="http://www.w3.org/1999/xlink" width="128" height="128"><path d="M653.329965 605.453474c5.236772 18.351158 23.776561 15.674386 28.294737 1.338386 4.527158-14.336 4.527158-39.558737-10.922667-40.843228-15.449825-1.284491-22.608842 21.153684-17.37207 39.504842zM752.136982 605.453474c5.236772 18.351158 23.776561 15.674386 28.294737 1.338386 4.527158-14.336 4.527158-39.558737-10.922666-40.843228-15.449825-1.284491-22.608842 21.153684-17.372071 39.504842z" fill="#000000" p-id="18558"></path><path d="M898.245614 898.245614l-19.456-45.999158A107.663719 107.663719 0 0 1 790.45614 898.245614H655.719298c-59.526737 0-107.789474-48.262737-107.789473-107.789474V233.54386c0-59.526737 48.262737-107.789474 107.789473-107.789474h134.736842c59.526737 0 107.789474 48.262737 107.789474 107.789474v664.701754z" fill="#FFDF29" p-id="18559"></path><path d="M639.038877 525.087439a8.982456 8.982456 0 0 1 11.506527-3.188772l0.91621 0.520982 36.082526 23.309474c6.350596 4.104982 5.030175 13.563509-1.814456 15.988772l-1.015017 0.296421-53.894737 12.629333a8.982456 8.982456 0 0 1-5.102035-17.201403l1.006035-0.296421 33.31593-7.805755-18.324211-11.829895a8.982456 8.982456 0 0 1-3.188772-11.506526l0.512-0.91621zM798.154105 525.087439a8.982456 8.982456 0 0 0-11.506526-3.188772l-0.916211 0.520982-36.073543 23.309474c-6.359579 4.104982-5.030175 13.563509 1.805473 15.988772l1.015018 0.296421 53.894737 12.629333a8.982456 8.982456 0 0 0 5.102035-17.201403l-1.006035-0.296421-33.31593-7.805755 18.32421-11.829895a8.982456 8.982456 0 0 0 3.197755-11.506526l-0.520983-0.91621z" fill="#000000" p-id="18560"></path><path d="M723.087719 745.54386C780.135298 745.54386 826.385965 692.933614 826.385965 642.551018 826.385965 592.177404 780.135298 574.877193 723.087719 574.877193S619.789474 592.177404 619.789474 642.551018C619.789474 692.933614 666.04014 745.54386 723.087719 745.54386z" fill="#101549" p-id="18561"></path><path d="M725.962105 686.690807c25.743719 0 48.325614 13.922807 60.981895 34.816C769.374316 736.148211 747.196632 745.54386 723.087719 745.54386c-22.330386 0-43.008-8.066246-59.912982-20.893193 12.234105-22.635789 35.759158-37.95986 62.787368-37.95986z" fill="#FF6F6F" p-id="18562"></path><path d="M723.087719 574.877193c24.279579 0 46.609965 3.134877 64.242527 10.617263-12.979649 11.264-36.890947 18.809263-64.242527 18.809263s-51.262877-7.545263-64.251508-18.80028C676.468772 578.01207 698.80814 574.877193 723.087719 574.877193z" fill="#FFFFFF" p-id="18563"></path><path d="M449.122807 125.754386c54.568421 0 98.807018 44.238596 98.807018 98.807018v215.578947h53.894736l-53.894736 53.894737v35.929824c0 54.568421-44.238596 98.807018-98.807018 98.807018H224.561404c-54.568421 0-98.807018-44.238596-98.807018-98.807018V224.561404c0-54.568421 44.238596-98.807018 98.807018-98.807018h224.561403z" fill="#FFB957" p-id="18564"></path><path d="M332.350877 341.333333v161.684211h-0.637754c-63.029895 0-111.939368-43.789474-120.724211-83.087719a178.373614 178.373614 0 0 1-3.997193-51.137123C208.033684 353.342877 220.698947 341.333333 235.942175 341.333333H332.350877z m96.408702 0c15.252211 0 27.908491 12.000561 28.950456 27.459369a178.373614 178.373614 0 0 1-3.997193 51.137123c-8.63214 38.624561-56.050526 81.605614-117.526456 83.051789L332.979649 503.017544H332.350877V341.333333h96.408702z" fill="#101549" p-id="18565"></path><path d="M331.713123 503.017544c-34.959719 0-65.57193-13.473684-87.399298-32.175158A112.154947 112.154947 0 0 1 336.842105 422.175439a112.101053 112.101053 0 0 1 88.953263 43.753543c-21.414175 20.623719-53.023439 36.190316-89.608982 37.052632L332.979649 503.017544h-1.275509z" fill="#FF6F6F" p-id="18566"></path><path d="M332.350877 341.333333l-0.008982 35.929825H269.473684a35.929825 35.929825 0 0 1-35.929824-35.822035c0.790456-0.07186 1.589895-0.107789 2.398315-0.10779H332.350877z m96.408702 0c0.808421 0 1.60786 0.03593 2.398316 0.098807V341.333333a35.929825 35.929825 0 0 1-35.929825 35.929825h-62.877193v-35.929825h96.408702z" fill="#FFFFFF" p-id="18567"></path><path d="M271.180351 291.067509c5.227789 18.351158 23.767579 15.674386 28.294737 1.338386 4.518175-14.336 4.518175-39.558737-10.931649-40.843228-15.449825-1.284491-22.608842 21.153684-17.372071 39.504842zM369.987368 291.067509c5.227789 18.351158 23.767579 15.674386 28.294737 1.338386 4.518175-14.336 4.518175-39.558737-10.931649-40.843228-15.449825-1.284491-22.608842 21.153684-17.37207 39.504842z" fill="#000000" p-id="18568"></path><path d="M476.070175 628.77193a71.859649 71.859649 0 0 1 71.82372 69.614035L547.929825 700.631579v125.754386a71.859649 71.859649 0 0 1-69.614036 71.823719L476.070175 898.245614H384.970105L359.298246 925.956491 333.608421 898.245614H197.614035a71.859649 71.859649 0 0 1-71.823719-69.614035L125.754386 826.385965V700.631579a71.859649 71.859649 0 0 1 69.614035-71.823719L197.614035 628.77193h278.45614z" fill="#7AABFF" p-id="18569"></path><path d="M305.448421 802.133333a8.982456 8.982456 0 0 1 12.530526 12.880842c-35.310035 34.37586-67.027088 47.211789-94.908631 36.504702-27.881544-10.698105-42.873263-41.463018-46.106948-90.632982a8.982456 8.982456 0 0 1 17.928983-1.185684c2.820491 42.945123 14.749193 67.422316 34.609403 75.048421 19.869193 7.626105 45.109895-2.586947 75.946667-32.606316z" fill="#000000" p-id="18570"></path><path d="M227.487719 701.434434m-34.171293-11.102926a35.929825 35.929825 0 1 0 68.342587 22.205852 35.929825 35.929825 0 1 0-68.342587-22.205852Z" fill="#FFFFFF" p-id="18571"></path><path d="M233.29733 665.96825a26.947368 26.947368 0 1 1-41.674904 33.210333A35.938807 35.938807 0 0 1 231.699202 665.741773z" fill="#000000" p-id="18572"></path><path d="M324.68365 742.135412m-34.171294-11.102927a35.929825 35.929825 0 1 0 68.342587 22.205853 35.929825 35.929825 0 1 0-68.342587-22.205853Z" fill="#FFFFFF" p-id="18573"></path><path d="M330.49326 706.669227a26.947368 26.947368 0 1 1-41.674904 33.210334A35.938807 35.938807 0 0 1 328.895133 706.44275z" fill="#000000" p-id="18574"></path><path d="M781.473684 197.614035a71.859649 71.859649 0 0 1 71.859649 71.859649v58.385965a71.886596 71.886596 0 0 1-45.298526 66.793544V422.175439l-22.761544-22.554948A73.027368 73.027368 0 0 1 781.473684 399.719298H664.701754a71.859649 71.859649 0 0 1-71.859649-71.859649V269.473684a71.859649 71.859649 0 0 1 71.859649-71.859649h116.77193z" fill="#FFFFFF" p-id="18575"></path><path d="M651.722105 296.394105c5.15593 14.991719 18.171509 11.677193 20.291369-0.538947 2.110877-12.21614 0.152702-33.235088-10.958597-33.405754-11.129263-0.161684-14.488702 18.961965-9.341754 33.953684z" fill="#000000" p-id="18576"></path><path d="M718.955789 304.622035a4.491228 4.491228 0 0 1-4.491228-4.491228c0-24.117895 6.871579-37.429895 21.468071-37.429895 14.524632 0 21.764491 13.213193 22.545964 37.277193a4.491228 4.491228 0 1 1-8.982456 0.296421c-0.637754-19.851228-5.434386-28.591158-13.563508-28.591158-8.030316 0-12.485614 8.641123-12.485614 28.447439a4.491228 4.491228 0 0 1-4.491229 4.491228zM739.983719 326.593123a4.491228 4.491228 0 0 1 7.401544 5.08407c-11.686175 16.994807-33.567439 20.974035-64.700631 12.674246a4.491228 4.491228 0 1 1 2.317473-8.677053c27.863579 7.428491 45.882386 4.149895 54.981614-9.081263z" fill="#000000" p-id="18577"></path><path d="M733.399579 335.28814a4.491228 4.491228 0 0 1 5.748772-0.332351l0.601824 0.538948 8.838737 9.431579a4.491228 4.491228 0 0 1-5.946386 6.673965l-0.601824-0.538948-8.838737-9.431579a4.491228 4.491228 0 0 1 0.197614-6.341614z" fill="#000000" p-id="18578"></path></svg>