<?xml version="1.0" standalone="no"?><!DOCTYPE svg PUBLIC "-//W3C//DTD SVG 1.1//EN" "http://www.w3.org/Graphics/SVG/1.1/DTD/svg11.dtd"><svg t="1698218218312" class="icon" viewBox="0 0 1024 1024" version="1.1" xmlns="http://www.w3.org/2000/svg" p-id="85472" xmlns:xlink="http://www.w3.org/1999/xlink" width="128" height="128"><path d="M447.108785 6.595344l329.448962 69.883113C945.025965 112.667926 1052.34646 278.640319 1017.404904 447.108538l-69.883113 329.448961C911.332322 945.025718 745.359928 1052.346213 576.891709 1017.404656l-329.448961-69.883113C78.974529 911.332074-28.345966 745.359681 6.595591 576.891462l69.883113-329.448961C112.668173 78.974282 278.640567-28.346213 447.108785 6.595344z" fill="#9DDEFC" p-id="85473"></path><path d="M363.498632 62.751417h321.961485c172.211957 0 311.978183 139.766226 311.978183 311.978182v237.10342c0 207.153513-167.220306 374.37382-374.373819 374.373819H363.498632c-172.211957 0-311.978183-139.766226-311.978183-311.978183V374.729599c0-172.211957 139.766226-311.978183 311.978183-311.978182z" fill="#3595EC" p-id="85474"></path><path d="M504.512771 472.066793L203.765803 316.077701l293.259492 179.699433 11.231214 405.571638 9.983302-406.81955 340.680176-198.418125-354.407216 175.955696z" fill="#FFFFFF" p-id="85475"></path><path d="M269.905177 883.877994m-22.462429 0a22.462429 22.462429 0 1 0 44.924859 0 22.462429 22.462429 0 1 0-44.924859 0Z" fill="#CBEAFE" p-id="85476"></path><path d="M363.498632 930.050765m-22.462429 0a22.462429 22.462429 0 1 0 44.924858 0 22.462429 22.462429 0 1 0-44.924858 0Z" fill="#CBEAFE" p-id="85477"></path><path d="M478.306604 952.513194m-22.46243 0a22.462429 22.462429 0 1 0 44.924859 0 22.462429 22.462429 0 1 0-44.924859 0Z" fill="#CBEAFE" p-id="85478"></path><path d="M594.362488 952.513194m-22.462429 0a22.462429 22.462429 0 1 0 44.924858 0 22.462429 22.462429 0 1 0-44.924858 0Z" fill="#CBEAFE" p-id="85479"></path><path d="M697.939244 906.340423m-22.462429 0a22.462429 22.462429 0 1 0 44.924859 0 22.462429 22.462429 0 1 0-44.924859 0Z" fill="#CBEAFE" p-id="85480"></path><path d="M812.747216 269.90493l-237.103419-136.022488c-39.933207-19.966604-87.353891-19.966604-128.535012 0l-237.103419 136.022488c-37.437382 24.958255-61.147724 66.139375-63.643549 111.064233v273.292888c2.495825 44.924858 26.206167 86.105979 63.643549 111.064234l235.855507 136.022487c19.966604 9.983302 41.18112 16.222866 63.643549 14.974953 22.462429 0 44.924858-4.991651 63.643549-14.974953l237.103419-136.022487c37.437382-24.958255 61.147724-66.139375 63.64355-111.064234V380.969163c0-46.172771-23.710342-87.353891-61.147724-111.064233z" fill="#0B45C3" p-id="85481"></path><path d="M571.900059 92.701322c-37.437382-18.718691-82.36224-18.718691-119.799623 0l-235.855506 137.270401c-34.941556 22.462429-57.403986 61.147724-59.899811 103.576756v273.292889c2.495825 42.429033 24.958255 79.866415 59.899811 103.576756l235.855506 136.022488c37.437382 18.718691 82.36224 18.718691 119.799623 0l235.855506-136.022488c34.941556-22.462429 57.403986-61.147724 59.899811-103.576756v-274.540801c-2.495825-42.429033-24.958255-79.866415-59.899811-103.576757L571.900059 92.701322z" fill="#A9E9FF" p-id="85482"></path><path d="M512.000247 432.133585c-17.470778 0-34.941556-3.743738-51.164422-12.479127L224.980319 283.63197c-9.983302-6.239564-16.222866-12.479127-16.222865-19.966604s4.991651-13.72704 16.222865-19.966603L460.835825 107.676275c32.445731-16.222866 69.883113-16.222866 102.328844 0l235.855507 137.2704c9.983302 6.239564 16.222866 12.479127 16.222865 19.966604s-4.991651 13.72704-16.222865 19.966604L563.164669 419.654458c-16.222866 8.735389-33.693644 12.479127-51.164422 12.479127zM475.810778 836.45731c-6.239564 0-12.479127-2.495825-17.470778-6.239563l-237.103419-136.022488c-29.949906-19.966604-48.668597-52.412335-51.164422-88.601804V332.300567c0-7.487476 1.247913-24.958255 16.222865-24.958255 6.239564 0 12.479127 2.495825 17.470779 6.239564l237.103419 136.022487c29.949906 19.966604 48.668597 52.412335 51.164422 88.601804V811.499056c0 7.487476-1.247913 13.72704-4.991651 19.966603-2.495825 3.743738-6.239564 4.991651-11.231215 4.991651z m69.883113 0c-14.974953 0-16.222866-17.470778-16.222865-24.958254V538.206167c2.495825-36.189469 21.214516-68.6352 51.164422-88.601804l235.855506-136.022487c4.991651-3.743738 11.231215-4.991651 17.470778-6.239564 14.974953 0 16.222866 17.470778 16.222866 24.958255v273.292888c-1.247913 36.189469-21.214516 68.6352-51.164422 88.601804l-235.855507 137.2704c-4.991651 2.495825-11.231215 4.991651-17.470778 4.991651z" fill="#F5FAFC" p-id="85483"></path><path d="M435.877571 477.058444c-21.214516 29.949906-47.420684 54.90816-78.618502 73.626851 0 0 1.247913 14.974953 26.206167 17.470778 0 0 14.974953-2.495825 11.231215 13.72704 0 0-4.991651 11.231215-26.206168 3.743738-13.72704-4.991651-26.206167-14.974953-33.693644-27.45408l-7.487476 3.743738s13.72704 37.437382 41.18112 34.941557 16.222866 18.718691 11.231215 21.214516-43.676946 8.735389-69.883113-48.668596c0 0-43.676946 23.710342-37.437382 67.387287 0 0 13.72704 47.420684 69.883113 38.685295 18.718691-4.991651 34.941556-13.72704 48.668596-27.45408 0 0 8.735389-11.231215 18.718691 3.743738 0 0 6.239564 8.735389-18.718691 27.45408 0 0 24.958255 18.718691-41.18112 27.45408 0 0-52.412335 3.743738-69.883113-13.72704 0-7.487476 2.495825-14.974953 7.487477-21.214516 0 0-17.470778 14.974953-26.206168 14.974952-9.983302-6.239564-18.718691-14.974953-26.206167-24.958254 11.231215-7.487476 21.214516-17.470778 29.949905-27.45408-12.479127 6.239564-24.958255 11.231215-37.437381 13.72704 0 0-17.470778-11.231215-18.718691-46.172771 18.718691 4.991651 37.437382 6.239564 56.156072 3.743738 0 0-48.668597-16.222866-56.156072-27.45408 0-23.710342 7.487476-47.420684 22.462429-67.387288 18.718691 24.958255 42.429033 43.676946 69.883113 56.156073 0 0-59.899811-51.164422-44.924859-77.370589 0 0 26.206167-33.693644 157.237005-31.197818 0 0 6.239564 1.247913-7.487477 14.974952 0-2.495825 42.429033-13.72704 29.949906 3.743739z m-37.437382 1.247912c-1.247913-4.991651-7.487476-6.239564-16.222866-3.743738-3.743738 1.247913-6.239564 2.495825-8.735389 4.991651 7.487476-2.495825 13.72704-1.247913 16.222866 1.247913s-2.495825 9.983302-9.983302 13.72704c-1.247913 0-1.247913 1.247913-1.247913 1.247912 3.743738 0 7.487476-1.247913 11.231215-2.495825 6.239564-4.991651 9.983302-9.983302 8.735389-14.974953z" fill="#FF0000" p-id="85484"></path><path d="M676.724728 550.685295s-9.983302 8.735389-43.676946 9.983302c-13.72704 2.495825-24.958255 14.974953-28.701992 28.701992l-7.487477 34.941557s11.231215-47.420684 33.693644-53.660248c0 0 42.429033-1.247913 54.90816-8.735389l-8.735389-11.231214z m16.222866 18.718691s-9.983302 8.735389-43.676946 9.983302c-13.72704 3.743738-24.958255 14.974953-28.701993 28.701992l-8.735389 33.693644s11.231215-47.420684 33.693644-53.660247c0 0 42.429033-1.247913 54.90816-8.735389 1.247913 1.247913-7.487476-9.983302-7.487476-9.983302z m24.958254 17.470778s-9.983302 8.735389-43.676945 9.983302c-13.72704 2.495825-24.958255 14.974953-28.701993 28.701993l-8.735389 33.693643s11.231215-47.420684 33.693643-53.660247c0 0 42.429033-1.247913 54.908161-8.735389l-7.487477-9.983302z m-98.585106 87.353891c-3.743738 7.487476-6.239564 14.974953-6.239563 22.462429l-46.172771 17.470779s-6.239564 0-3.743739-9.983302l16.222866-4.991651h-16.222866l6.239564-9.983302 14.974953-1.247913-16.222866-3.743738 2.495826-4.991651h12.479127l-12.479127-4.991651 2.495825-4.991651 13.72704 4.991651-12.479127-12.479127 1.247913-7.487477 11.231214 7.487477-8.735389-17.470778s8.735389-6.239564 16.222866 6.239563l24.958254 23.710342z m39.933208-212.145164s102.328844-87.353891 175.955695 47.420684c0 0-57.403986-123.54336-172.211957-47.420684h-3.743738z m11.231214 7.487476s103.576757-64.891462 152.245354 58.651899c0 0-34.941556-113.560059-150.997441-57.403986l-1.247913-1.247913z m93.593455 94.841368s-4.991651-19.966604-48.668596-59.899811l-72.378939-56.156073 18.718691 36.189469-14.974953-7.487476s16.222866 73.626851 61.147724 123.54336c9.983302 12.479127 29.949906 14.974953 42.429033 4.991651 1.247913 0 21.214516-11.231215 13.72704-41.18112zM686.70803 523.231215c-3.743738-6.239564-2.495825-13.72704 3.743738-17.470779 4.991651-3.743738 13.72704-2.495825 17.470778 2.495826 3.743738 6.239564 2.495825 13.72704-3.743738 17.470778-4.991651 3.743738-12.479127 3.743738-17.470778-2.495825z m81.114327 69.883113c-11.231215 19.966604-36.189469 28.701993-57.403985 18.718691 0 0 3.743738 46.172771-49.91651 62.395636-12.479127 3.743738-26.206167 3.743738-38.685294 1.247913l-7.487477 26.206167c11.231215 3.743738 22.462429 4.991651 33.693644 6.239564 0-4.991651 0-9.983302 2.495826-13.72704 0 4.991651 1.247913 9.983302 3.743738 14.974953 13.72704 1.247913 27.45408 0 39.933207-3.743739-3.743738-6.239564-7.487476-13.72704-7.487476-21.214516 0 0 12.479127 18.718691 13.72704 19.966604 12.479127-2.495825 23.710342-8.735389 32.445731-17.470779-7.487476-3.743738-13.72704-9.983302-18.718691-16.222865 0 0 21.214516 12.479127 27.45408 9.983302 6.239564-8.735389 12.479127-17.470778 16.222866-26.206168-9.983302 0-19.966604-2.495825-28.701993-7.487476 11.231215 1.247913 22.462429 0 33.693644-2.495825 7.487476-16.222866 8.735389-33.693644 4.99165-51.164422zM680.468466 296.111097h-24.958254l-14.974953-7.487476v-14.974953c6.239564 0 12.479127 1.247913 17.470778 2.495826 9.983302 3.743738 18.718691 9.983302 22.462429 19.966603z m-84.858066 11.231215c3.743738-3.743738 6.239564-8.735389 8.73539-13.72704h13.72704v13.72704h-22.46243z m8.73539 3.743738v9.983302h-24.958255c4.991651-3.743738 8.735389-6.239564 13.72704-9.983302h11.231215z m1.247912-22.462429c1.247913-4.991651 2.495825-9.983302 2.495826-14.974953h26.206167v14.974953h-28.701993z m2.495826 22.462429c4.991651 0 9.983302 0 13.72704 1.247913 7.487476 1.247913 12.479127 6.239564 14.974953 13.72704h-18.718691l-9.983302-6.239564v-8.735389z m27.45408 3.743738l-13.72704-6.239563v-13.72704c4.991651 0 11.231215 1.247913 16.222865 2.495825 8.735389 2.495825 14.974953 8.735389 18.718691 17.470778h-21.214516z m31.197818-98.585105c0 7.487476-3.743738 14.974953-9.983302 19.966603-7.487476 8.735389-14.974953 14.974953-24.958254 21.214517-7.487476 3.743738-14.974953 7.487476-22.46243 9.983302v-1.247913c0-9.983302-3.743738-18.718691-9.983301-24.958255l17.470778-17.470778h9.983302c12.479127 1.247913 24.958255-3.743738 34.941556-11.231215 2.495825-1.247913 2.495825-3.743738 4.991651-6.239563v9.983302zM649.270648 183.798952c6.239564 4.991651 11.231215 9.983302 13.72704 16.222865 0 1.247913 0 1.247913-1.247913 1.247913-1.247913 2.495825-2.495825 4.991651-4.991651 6.239563-9.983302 7.487476-21.214516 11.231215-33.693643 9.983302-3.743738 0-9.983302-1.247913-9.983302-1.247912-28.701993-4.991651-53.660247-18.718691-73.626852-38.685295 0 0 28.701993 2.495825 46.172772 2.495825 9.983302 0 18.718691-2.495825 27.45408-8.735389 2.495825-1.247913 3.743738-3.743738 4.991651-6.239563 9.983302 4.991651 21.214516 11.231215 31.197818 18.718691z m-98.585106 38.685294c0 4.991651-4.991651 8.735389-9.983302 7.487477-4.991651 0-8.735389-3.743738-9.983302-7.487477 1.247913-4.991651 6.239564-8.735389 11.231215-7.487476 4.991651 0 8.735389 3.743738 8.735389 7.487476z m62.395637-57.403985c0 2.495825-1.247913 4.991651-3.743739 6.239563-7.487476 6.239564-17.470778 8.735389-26.206167 7.487477h-2.495825c-14.974953-6.239564-31.197818-11.231215-48.668597-13.72704 26.206167-7.487476 53.660247-7.487476 81.114328 0z m-119.799623 0c-16.222866 2.495825-32.445731 6.239564-48.668596 13.72704h-2.495826c-9.983302 1.247913-18.718691-1.247913-26.206167-7.487477-1.247913-1.247913-2.495825-3.743738-3.743738-6.239563 26.206167-7.487476 54.90816-7.487476 81.114327 0z m-1.247912 57.403985c0 4.991651-4.991651 7.487476-9.983302 7.487477s-8.735389-2.495825-9.983302-7.487477c1.247913-4.991651 6.239564-8.735389 11.231215-7.487476 4.991651 0 7.487476 3.743738 8.735389 7.487476z m-116.055884-38.685294c9.983302-7.487476 21.214516-12.479127 32.445731-17.470779 0 2.495825 2.495825 4.991651 4.991651 6.239564 7.487476 4.991651 17.470778 8.735389 26.206167 8.735389 16.222866 1.247913 44.924858-1.247913 44.924858-1.247913-19.966604 21.214516-46.172771 33.693644-73.626851 37.437382 0 0-7.487476 1.247913-11.231214 1.247913-11.231215 1.247913-23.710342-2.495825-32.445732-9.983302-2.495825-1.247913-3.743738-3.743738-4.99165-6.239564 0-1.247913 0-1.247913-1.247913-1.247912 2.495825-7.487476 8.735389-12.479127 14.974953-17.470778z m-17.470779 22.462429c1.247913 2.495825 2.495825 3.743738 4.991651 6.239563 9.983302 8.735389 22.462429 12.479127 36.18947 11.231215h9.983301l17.470779 17.470778c-6.239564 6.239564-9.983302 16.222866-9.983302 24.958255v1.247913c-7.487476-2.495825-16.222866-6.239564-22.462429-9.983302-9.983302-4.991651-18.718691-12.479127-24.958255-21.214517-4.991651-4.991651-8.735389-12.479127-9.983302-19.966603-2.495825-2.495825-2.495825-6.239564-1.247913-9.983302z m47.420684 101.080931v-13.72704h13.72704c2.495825 4.991651 4.991651 8.735389 8.735389 13.72704h-22.462429z m26.206168 3.743738c3.743738 3.743738 8.735389 7.487476 13.72704 9.983302h-24.958255v-9.983302h11.231215z m-29.949906 3.743738c4.991651-2.495825 9.983302-2.495825 13.72704-2.495825v9.983302l-9.983302 6.239563h-17.470778c1.247913-7.487476 6.239564-12.479127 13.72704-13.72704z m-36.189469-1.247912c3.743738-8.735389 9.983302-14.974953 18.718691-17.470779 6.239564-1.247913 13.72704-1.247913 16.222865-2.495825v13.72704l-13.72704 6.239564h-21.214516z m22.462429-24.958255v-14.974953h26.206167c0 4.991651 1.247913 9.983302 2.495826 14.974953h-28.701993z m-23.710342-12.479127c6.239564-2.495825 12.479127-2.495825 17.470778-2.495826v16.222866l-14.974953 7.487476h-26.206167c4.991651-9.983302 13.72704-17.470778 23.710342-21.214516zM348.52368 337.292218c-4.991651-8.735389-6.239564-18.718691-6.239564-28.701993 0-2.495825 0-6.239564 1.247913-8.735389l24.958254 1.247912c-1.247913-1.247913-19.966604 37.437382-19.966603 36.18947z m16.222865-12.479128v-8.735389h21.214516L369.738196 349.771345c-3.743738-7.487476-4.991651-16.222866-4.991651-24.958255z m21.214516 12.479128v-6.239564h17.470779l-13.72704 26.206167c-2.495825-6.239564-3.743738-12.479127-3.743739-19.966603z m19.966604 29.949905c-2.495825-4.991651-3.743738-11.231215-3.743738-17.470778v-6.239564h13.72704l-9.983302 23.710342z m22.462429-31.197818l-9.983301 4.991651h-16.222866c2.495825-6.239564 7.487476-11.231215 13.72704-12.479128 3.743738-1.247913 7.487476-1.247913 11.231215-2.495825v9.983302h1.247912z m4.991651 0v-9.983302h21.214517c8.735389 3.743738 16.222866 6.239564 23.710342 9.983302h-44.924859z m78.618502 1.247913h-2.495825c-21.214516 0-41.18112-6.239564-59.899811-17.470779-17.470778-9.983302-28.701993-27.45408-29.949906-48.668596v-6.239564c0-21.214516 22.462429-38.685295 49.91651-39.933207 3.743738 7.487476 13.72704 11.231215 21.214516 6.239563 2.495825-1.247913 4.991651-3.743738 6.239564-6.239563h31.197818c3.743738 7.487476 13.72704 11.231215 21.214516 6.239563 2.495825-1.247913 4.991651-3.743738 6.239564-6.239563 27.45408 1.247913 48.668597 18.718691 49.916509 39.933207v6.239564c0 19.966604-11.231215 38.685295-29.949905 48.668596-18.718691 11.231215-38.685295 17.470778-59.899811 17.470779H512.000247z m78.618503-1.247913h-44.924859c8.735389-2.495825 16.222866-4.991651 23.710342-9.983302h21.214517v9.983302z m4.99165 0v-9.983302c3.743738 0 7.487476 0 11.231215 2.495825 6.239564 2.495825 11.231215 6.239564 13.72704 12.479128h-16.222865c-2.495825-1.247913-6.239564-2.495825-8.73539-4.991651z m22.46243 31.197818l-11.231215-22.462429h13.72704v4.991651c0 6.239564 0 12.479127-2.495825 17.470778z m14.974952-9.983302l-13.72704-26.206167H636.791521v6.239564c1.247913 7.487476 0 13.72704-3.743739 19.966603z m21.214517-7.487476l-16.222866-31.197818h21.214517v8.735389c0 7.487476-1.247913 14.974953-4.991651 22.462429z m2.495825-49.916509l24.958255-1.247913c0 3.743738 1.247913 6.239564 1.247913 9.983302 0 9.983302-2.495825 19.966604-6.239564 28.701993-1.247913 1.247913-19.966604-37.437382-19.966604-37.437382z" fill="#17B700" p-id="85485"></path><path d="M905.092758 98.940886l6.239564 93.593455-34.941557 36.189469v29.949905l71.131026-36.189469-16.222866-118.551709z" fill="#FF6BD9" p-id="85486"></path><path d="M153.849293 739.120117c-1.247913 26.206167-16.222866 48.668597-38.685294 61.147724 23.710342 9.983302 38.685295 32.445731 38.685294 58.651898 0 0 7.487476-51.164422 42.429033-59.899811-21.214516-12.479127-37.437382-34.941556-42.429033-59.899811z" fill="#A9DCFF" p-id="85487"></path><path d="M786.541048 840.201048c-1.247913 13.72704-8.735389 24.958255-19.966603 31.197819 12.479127 4.991651 19.966604 16.222866 19.966603 29.949905 1.247913-13.72704 9.983302-24.958255 22.46243-31.197818-11.231215-6.239564-19.966604-17.470778-22.46243-29.949906zM845.192947 771.565848c-1.247913 24.958255-16.222866 46.172771-37.437382 57.403986 22.462429 8.735389 37.437382 29.949906 37.437382 54.90816 0 0 7.487476-47.420684 39.933207-56.156073-19.966604-12.479127-34.941556-32.445731-39.933207-56.156073z" fill="#55F7FF" p-id="85488"></path><path d="M896.357369 724.145164l67.387287 52.412335 23.710342-31.197818-72.378938-34.941557z" fill="#FFCB79" p-id="85489"></path><path d="M147.60973 332.300567l-61.147724 47.420683-21.214517-28.701992 64.891462-32.445731z" fill="#68EE7D" p-id="85490"></path><path d="M66.495402 578.139375l63.643549 107.320495 4.991651-11.231215-62.395636-112.312146z" fill="#F9FAFE" p-id="85491"></path></svg>