<?xml version="1.0" standalone="no"?><!DOCTYPE svg PUBLIC "-//W3C//DTD SVG 1.1//EN" "http://www.w3.org/Graphics/SVG/1.1/DTD/svg11.dtd"><svg t="1697872996787" class="icon" viewBox="0 0 1024 1024" version="1.1" xmlns="http://www.w3.org/2000/svg" p-id="14261" xmlns:xlink="http://www.w3.org/1999/xlink" width="128" height="128"><path d="M512 512m-505 0a505 505 0 1 0 1010 0 505 505 0 1 0-1010 0Z" fill="#54C0EB" p-id="14262"></path><path d="M177.2 307.6h391.2v23.4H177.2zM459.4 723.2h-79.6l-19.2-66.8h117.8z" fill="#324A5E" p-id="14263"></path><path d="M470.2 685l8.2-28.6h-117.8l8.2 28.6z" fill="#2B3B4E" p-id="14264"></path><path d="M631.8 662.4H207.2c-3.2 0-5.8-2.6-5.8-5.8v-244c0-3.2 2.6-5.8 5.8-5.8h424.6c3.2 0 5.8 2.6 5.8 5.8v244c0 3.4-2.6 5.8-5.8 5.8z" fill="#324A5E" p-id="14265"></path><path d="M219.6 425.2h399.8v203.4H219.6z" fill="#FFFFFF" p-id="14266"></path><path d="M619.4 425.2L219.6 628.8h399.8z" fill="#E6E9EE" p-id="14267"></path><path d="M480 736.6h-121v-19.8c0-1.4 1.2-2.6 2.6-2.6h115.6c1.4 0 2.6 1.2 2.6 2.6v19.8z" fill="#2B3B4E" p-id="14268"></path><path d="M653.2 779v218c-3.4 1-6.8 2-10.4 3-41.6 11.2-85.6 17.2-130.8 17.2-120 0-230.2-41.8-316.8-111.8-3-2.4-6.2-4.8-9.2-7.4v-118.6h467.2z" fill="#CC8B3E" p-id="14269"></path><path d="M886 790.6H138c-1.6 0-3-1.4-3-3v-50.2c0-1.6 1.4-3 3-3h748c1.6 0 3 1.4 3 3v50.2c0.2 1.6-1.2 3-3 3z" fill="#FFD05B" p-id="14270"></path><path d="M867.8 790.6v79.8c-13.6 13.6-28 26.4-43.2 38.4-38.4 30.2-81.4 55.2-127.6 73.4-14.2 5.6-28.8 10.6-43.8 15-3.4 1-6.8 2-10.4 3V790.6h225zM195.2 790.6v114.6c-3-2.4-6.2-4.8-9.2-7.4-7.4-6.4-14.8-12.8-21.8-19.6v-87.6h31z" fill="#F9B54C" p-id="14271"></path><path d="M665.4 813h179.8v73.2h-179.8zM824.4 908.8c-38.4 30.2-81.4 55.2-127.6 73.4h-31.6v-73.4h159.2z" fill="#FFD05B" p-id="14272"></path><path d="M782.6 835.8h-54.8c-2.8 0-5-2.2-5-5s2.2-5 5-5h54.8c2.8 0 5 2.2 5 5s-2.2 5-5 5zM782.6 932.4h-54.8c-2.8 0-5-2.2-5-5s2.2-5 5-5h54.8c2.8 0 5 2.2 5 5s-2.2 5-5 5z" fill="#FF7058" p-id="14273"></path><path d="M690 206m-90.4 0a90.4 90.4 0 1 0 180.8 0 90.4 90.4 0 1 0-180.8 0Z" fill="#324A5E" p-id="14274"></path><path d="M690 206m-73 0a73 73 0 1 0 146 0 73 73 0 1 0-146 0Z" fill="#FFFFFF" p-id="14275"></path><path d="M687.6 141.2h4.6v10.4h-4.6zM687.6 260.4h4.6v10.4h-4.6zM744.4 203.6h10.4v4.6h-10.4zM625 203.6h10.4v4.6h-10.4zM734.132 158.478l3.254 3.252-7.354 7.354-3.254-3.254zM649.75 242.886l3.252 3.252-7.352 7.356-3.254-3.254zM737.42 250.22l-3.254 3.254-7.354-7.354 3.252-3.252zM652.986 165.808l-3.254 3.252-7.354-7.354 3.254-3.252z" fill="#ACB3BA" p-id="14276"></path><path d="M690 206V166.4" fill="#84DBFF" p-id="14277"></path><path d="M690 209c-1.6 0-3-1.4-3-3V166.4c0-1.6 1.4-3 3-3s3 1.4 3 3V206c0 1.6-1.4 3-3 3z" fill="#324A5E" p-id="14278"></path><path d="M690 206l23.2 23.4" fill="#84DBFF" p-id="14279"></path><path d="M713.2 232.4c-0.8 0-1.6-0.2-2.2-0.8l-23.4-23.4c-1.2-1.2-1.2-3.2 0-4.4 1.2-1.2 3.2-1.2 4.4 0l23.4 23.4c1.2 1.2 1.2 3.2 0 4.4-0.6 0.6-1.4 0.8-2.2 0.8z" fill="#324A5E" p-id="14280"></path><path d="M690 206m-13 0a13 13 0 1 0 26 0 13 13 0 1 0-26 0Z" fill="#FF7058" p-id="14281"></path><path d="M283.8 307.6h-38.8c-0.6 0-1.2-0.6-1.2-1.2V175.8c0-0.6 0.6-1.2 1.2-1.2h38.8c0.6 0 1.2 0.6 1.2 1.2v130.6c0 0.6-0.6 1.2-1.2 1.2z" fill="#FFFFFF" p-id="14282"></path><path d="M248.6 186.2h31.6v71h-31.6z" fill="#FF7058" p-id="14283"></path><path d="M264.4 285.8m-9.4 0a9.4 9.4 0 1 0 18.8 0 9.4 9.4 0 1 0-18.8 0Z" fill="#E6E9EE" p-id="14284"></path><path d="M329.8 307.6h-38.8c-0.6 0-1.2-0.6-1.2-1.2V175.8c0-0.6 0.6-1.2 1.2-1.2h38.8c0.6 0 1.2 0.6 1.2 1.2v130.6c0 0.6-0.4 1.2-1.2 1.2z" fill="#FFFFFF" p-id="14285"></path><path d="M294.6 186.2h31.6v71h-31.6z" fill="#FFD05B" p-id="14286"></path><path d="M310.6 285.8m-9.4 0a9.4 9.4 0 1 0 18.8 0 9.4 9.4 0 1 0-18.8 0Z" fill="#E6E9EE" p-id="14287"></path><path d="M393.8 301.8l-38.4 5.6c-0.6 0-1.2-0.4-1.4-1l-18.6-129.2c0-0.6 0.4-1.2 1-1.4l38.4-5.6c0.6 0 1.2 0.4 1.4 1l18.6 129.2c0 0.8-0.4 1.4-1 1.4z" fill="#FFFFFF" p-id="14288"></path><path d="M341.692 186.624l31.276-4.502 10.12 70.276-31.28 4.502z" fill="#84DBFF" p-id="14289"></path><path d="M371.4 283m-9.4 0a9.4 9.4 0 1 0 18.8 0 9.4 9.4 0 1 0-18.8 0Z" fill="#E6E9EE" p-id="14290"></path><path d="M849 572.8l-92.4 149.4 0.6 0.4h41.6l63.6-143.6-13-6.8 13.2-14.2-110.6-91.4-4 4.4 99.8 103.2z" fill="#2B3B4E" p-id="14291"></path><path d="M849.8 733.4h-135.6v-20.2c0-1.6 1.4-3 3-3h129.6c1.6 0 3 1.4 3 3v20.2z" fill="#324A5E" p-id="14292"></path><path d="M855 566.4m-20.2 0a20.2 20.2 0 1 0 40.4 0 20.2 20.2 0 1 0-40.4 0Z" fill="#FFFFFF" p-id="14293"></path><path d="M855 566.4m-9.6 0a9.6 9.6 0 1 0 19.2 0 9.6 9.6 0 1 0-19.2 0Z" fill="#FF7058" p-id="14294"></path><path d="M717 512.8m-19.4 0a19.4 19.4 0 1 0 38.8 0 19.4 19.4 0 1 0-38.8 0Z" fill="#FFFFFF" p-id="14295"></path><path d="M750.4 499.8l-23.4-22.8 21.2-21.8c6.4-6.4 16.6-6.6 23.2-0.2 6.4 6.4 6.6 16.6 0.2 23.2l-21.2 21.6z" fill="#F1543F" p-id="14296"></path><path d="M744.8 544.4c1.6-1.2 3-2.4 4.4-3.8 16.4-16.8 16.2-43.6-0.6-60s-43.6-16.2-60 0.6c-1.4 1.4-2.6 2.8-3.8 4.4l60 58.8z" fill="#FF7058" p-id="14297"></path></svg>